  0
SECTION
  2
HEADER
  9
$ACADVER
  1
AC1003
  9
$INSBASE
 10
0.0
 20
0.0
  9
$EXTMIN
 10
-402.071009
 20
-2597.599943
  9
$EXTMAX
 10
498.644869
 20
133.485947
  9
$LIMMIN
 10
-402.071009
 20
-2597.599943
  9
$LIMMAX
 10
498.644869
 20
133.485947
  9
$VIEWCTR
 10
6.591288
 20
4.579184
  9
$VIEWSIZE
 40
9.158369
  9
$SNAPMODE
 70
     0
  9
$SNAPUNIT
 10
1.0
 20
1.0
  9
$SNAPBASE
 10
0.0
 20
0.0
  9
$SNAPANG
 50
0.0
  9
$SNAPSTYLE
 70
     0
  9
$SNAPISOPAIR
 70
     0
  9
$GRIDMODE
 70
     0
  9
$GRIDUNIT
 10
0.0
 20
0.0
  9
$ORTHOMODE
 70
     0
  9
$REGENMODE
 70
     1
  9
$FILLMODE
 70
     1
  9
$QTEXTMODE
 70
     0
  9
$DRAGMODE
 70
     2
  9
$LTSCALE
 40
1.0
  9
$OSMODE
 70
     0
  9
$ATTMODE
 70
     1
  9
$TEXTSIZE
 40
0.2
  9
$TRACEWID
 40
0.05
  9
$TEXTSTYLE
  7
STANDARD
  9
$CLAYER
  8
0
  9
$CELTYPE
  6
CONTINUOUS
  9
$CECOLOR
 62
   256
  9
$DIMSCALE
 40
1.0
  9
$DIMASZ
 40
0.18
  9
$DIMEXO
 40
0.0625
  9
$DIMDLI
 40
0.38
  9
$DIMRND
 40
0.0
  9
$DIMDLE
 40
0.0
  9
$DIMEXE
 40
0.18
  9
$DIMTP
 40
0.0
  9
$DIMTM
 40
0.0
  9
$DIMTXT
 40
0.18
  9
$DIMCEN
 40
0.09
  9
$DIMTSZ
 40
0.0
  9
$DIMTOL
 70
     0
  9
$DIMLIM
 70
     0
  9
$DIMTIH
 70
     1
  9
$DIMTOH
 70
     1
  9
$DIMSE1
 70
     0
  9
$DIMSE2
 70
     0
  9
$DIMTAD
 70
     0
  9
$DIMZIN
 70
     0
  9
$DIMBLK
  1

  9
$DIMASO
 70
     1
  9
$DIMSHO
 70
     1
  9
$DIMPOST
  1

  9
$DIMAPOST
  1

  9
$DIMALT
 70
     0
  9
$DIMALTD
 70
     2
  9
$DIMALTF
 40
25.4
  9
$DIMLFAC
 40
1.0
  9
$LUNITS
 70
     4
  9
$LUPREC
 70
     0
  9
$AXISMODE
 70
     0
  9
$AXISUNIT
 10
24.0
 20
24.0
  9
$SKETCHINC
 40
24.0
  9
$FILLETRAD
 40
24.0
  9
$AUNITS
 70
     4
  9
$AUPREC
 70
     0
  9
$MENU
  1
acad
  9
$ELEVATION
 40
0.0
  9
$THICKNESS
 40
120.0
  9
$VIEWDIR
 10
0.0
 20
0.0
 30
1.0
  9
$LIMCHECK
 70
     0
  9
$BLIPMODE
 70
     1
  9
$CHAMFERA
 40
0.0
  9
$CHAMFERB
 40
0.0
  9
$FASTZOOM
 70
     1
  9
$SKPOLY
 70
     0
  9
$TDCREATE
 40
2452581.505902778
  9
$TDUPDATE
 40
2452581.505902778
  9
$TDINDWG
 40
0.0000000000
  9
$TDUSRTIMER
 40
0.0000000000
  9
$USRTIMER
 70
     1
  9
$ANGBASE
 50
0.0
  9
$ANGDIR
 70
     0
  9
$PDMODE
 70
     0
  9
$PDSIZE
 40
0.0
  9
$PLINEWID
 40
0.0
  9
$COORDS
 70
     1
  9
$USERI1
 70
     0
  9
$USERI2
 70
     0
  9
$USERI3
 70
     0
  9
$USERI4
 70
     0
  9
$USERI5
 70
     0
  9
$USERR1
 40
0.0
  9
$USERR2
 40
0.0
  9
$USERR3
 40
0.0
  9
$USERR4
 40
0.0
  9
$USERR5
 40
0.0
  0
ENDSEC
  0
SECTION
  2
TABLES
  0
TABLE
  2
LTYPE
 70
     1
  0
LTYPE
  2
CONTINUOUS
 70
    64
  3
Solid line
 72
    65
 73
     0
 40
0.0
  0
ENDTAB
  0
TABLE
  2
LAYER
 70
    18
  0
LAYER
  2
0
 70
     0
 62
     7
  6
CONTINUOUS
  0
LAYER
  2
OBJECT_1
 70
    64
 62
     1
  6
CONTINUOUS
  0
LAYER
  2
OBJECT_2
 70
    64
 62
     1
  6
CONTINUOUS
  0
LAYER
  2
OBJECT_6
 70
    64
 62
     1
  6
CONTINUOUS
  0
LAYER
  2
OBJECT_29
 70
    64
 62
     1
  6
CONTINUOUS
  0
LAYER
  2
OBJECT_1
 70
    64
 62
     1
  6
CONTINUOUS
  0
LAYER
  2
OBJECT_29_COPY_2
 70
    64
 62
     1
  6
CONTINUOUS
  0
LAYER
  2
OBJECT_1_COPY
 70
    64
 62
     1
  6
CONTINUOUS
  0
LAYER
  2
OBJECT_6
 70
    64
 62
     1
  6
CONTINUOUS
  0
LAYER
  2
OBJECT_1_COPY_2
 70
    64
 62
     1
  6
CONTINUOUS
  0
LAYER
  2
OBJECT_1_COPY_4
 70
    64
 62
     1
  6
CONTINUOUS
  0
LAYER
  2
OBJECT_25
 70
    64
 62
     1
  6
CONTINUOUS
  0
LAYER
  2
OBJECT_26
 70
    64
 62
     1
  6
CONTINUOUS
  0
LAYER
  2
OBJECT_27
 70
    64
 62
     1
  6
CONTINUOUS
  0
LAYER
  2
OBJECT_28
 70
    64
 62
     1
  6
CONTINUOUS
  0
LAYER
  2
OBJECT_33
 70
    64
 62
     1
  6
CONTINUOUS
  0
LAYER
  2
OBJECT_34
 70
    64
 62
     1
  6
CONTINUOUS
  0
LAYER
  2
OBJECT_35
 70
    64
 62
     1
  6
CONTINUOUS
  0
ENDTAB
  0
TABLE
  2
STYLE
 70
     1
  0
STYLE
  2
STANDARD
 70
     0
 40
0.0
 41
1.0
 50
0.0
 71
     0
 42
0.0
  3
txt
  4

  0
ENDTAB
  0
TABLE
  2
VIEW
 70
     0
  0
ENDTAB
  0
ENDSEC
  0
SECTION
  2
BLOCKS
  0
ENDSEC
  0
SECTION
  2
ENTITIES
  0
POLYLINE
  8
OBJECT_1
  6
CONTINUOUS
 62
     9
 66
     1
 70
    64
  0
VERTEX
  8
0
 38
-89.144613
 10
-402.071009
 20
133.485947
 70
   192
  0
VERTEX
  8
0
 38
-89.144613
 10
336.131121
 20
133.485947
 70
   192
  0
VERTEX
  8
0
 38
-89.144613
 10
336.131121
 20
-133.485947
 70
   192
  0
VERTEX
  8
0
 38
-89.144613
 10
-402.071009
 20
-133.485947
 70
   192
  0
VERTEX
  8
0
 38
355.808544
 10
-402.071009
 20
133.485947
 70
   192
  0
VERTEX
  8
0
 38
355.808544
 10
336.131121
 20
133.485947
 70
   192
  0
VERTEX
  8
0
 38
355.808544
 10
336.131121
 20
-133.485947
 70
   192
  0
VERTEX
  8
0
 38
355.808544
 10
-402.071009
 20
-133.485947
 70
   192
  0
VERTEX
  8
OBJECT_1
  6
CONTINUOUS
 62
     9
 10
0.0
 20
0.0
 70
   128
  0
VERTEX
  8
OBJECT_1
  6
CONTINUOUS
 62
     9
 10
0.0
 20
0.0
 70
   128
  0
VERTEX
  8
OBJECT_1
  6
CONTINUOUS
 62
     9
 10
0.0
 20
0.0
 70
   128
  0
VERTEX
  8
OBJECT_1
  6
CONTINUOUS
 62
     9
 10
0.0
 20
0.0
 70
   128
  0
SEQEND
  8
OBJECT_1
  6
CONTINUOUS
 62
     9
  0
POLYLINE
  8
OBJECT_2
  6
CONTINUOUS
 62
   254
 66
     1
 70
    64
  0
VERTEX
  8
0
 38
-87.084955
 10
-400.148607
 20
132.558961
 70
   192
  0
VERTEX
  8
0
 38
-87.084955
 10
334.20872
 20
132.558961
 70
   192
  0
VERTEX
  8
0
 38
-87.084955
 10
334.20872
 20
-132.558961
 70
   192
  0
VERTEX
  8
0
 38
-87.084955
 10
-400.148607
 20
-132.558961
 70
   192
  0
VERTEX
  8
0
 38
24.153334
 10
-400.148607
 20
132.558961
 70
   192
  0
VERTEX
  8
0
 38
24.153334
 10
334.20872
 20
132.558961
 70
   192
  0
VERTEX
  8
0
 38
24.153334
 10
334.20872
 20
-132.558961
 70
   192
  0
VERTEX
  8
0
 38
24.153334
 10
-400.148607
 20
-132.558961
 70
   192
  0
VERTEX
  8
OBJECT_2
  6
CONTINUOUS
 62
   254
 10
0.0
 20
0.0
 70
   128
  0
VERTEX
  8
OBJECT_2
  6
CONTINUOUS
 62
   254
 10
0.0
 20
0.0
 70
   128
  0
VERTEX
  8
OBJECT_2
  6
CONTINUOUS
 62
   254
 10
0.0
 20
0.0
 70
   128
  0
VERTEX
  8
OBJECT_2
  6
CONTINUOUS
 62
   254
 10
0.0
 20
0.0
 70
   128
  0
VERTEX
  8
OBJECT_2
  6
CONTINUOUS
 62
   254
 10
0.0
 20
0.0
 70
   128
  0
SEQEND
  8
OBJECT_2
  6
CONTINUOUS
 62
   254
  0
POLYLINE
  8
OBJECT_6
  6
CONTINUOUS
 62
     7
 66
     1
 70
    64
  0
VERTEX
  8
0
 38
133.760579
 10
60.024191
 20
-89.773945
 70
   192
  0
VERTEX
  8
0
 38
133.760579
 10
60.024191
 20
43.712002
 70
   192
  0
VERTEX
  8
0
 38
133.760579
 10
260.253111
 20
43.712002
 70
   192
  0
VERTEX
  8
0
 38
133.760579
 10
260.253111
 20
-89.773945
 70
   192
  0
VERTEX
  8
0
 38
288.163127
 10
60.024191
 20
-89.773945
 70
   192
  0
VERTEX
  8
0
 38
288.163127
 10
60.024191
 20
43.712002
 70
   192
  0
VERTEX
  8
0
 38
288.163127
 10
260.253111
 20
43.712002
 70
   192
  0
VERTEX
  8
0
 38
288.163127
 10
260.253111
 20
-89.773945
 70
   192
  0
VERTEX
  8
OBJECT_6
  6
CONTINUOUS
 62
     7
 10
0.0
 20
0.0
 70
   128
  0
VERTEX
  8
OBJECT_6
  6
CONTINUOUS
 62
     7
 10
0.0
 20
0.0
 70
   128
  0
VERTEX
  8
OBJECT_6
  6
CONTINUOUS
 62
     7
 10
0.0
 20
0.0
 70
   128
  0
VERTEX
  8
OBJECT_6
  6
CONTINUOUS
 62
     7
 10
0.0
 20
0.0
 70
   128
  0
VERTEX
  8
OBJECT_6
  6
CONTINUOUS
 62
     7
 10
0.0
 20
0.0
 70
   128
  0
SEQEND
  8
OBJECT_6
  6
CONTINUOUS
 62
     7
  0
POLYLINE
  8
OBJECT_29
  6
CONTINUOUS
 62
   253
 66
     1
 70
    64
  0
VERTEX
  8
0
 38
-86.633762
 10
99.323882
 20
20.326204
 70
   192
  0
VERTEX
  8
0
 38
-86.633762
 10
232.224634
 20
20.326204
 70
   192
  0
VERTEX
  8
0
 38
-86.633762
 10
232.224634
 20
-67.161213
 70
   192
  0
VERTEX
  8
0
 38
-86.633762
 10
99.323882
 20
-67.161213
 70
   192
  0
VERTEX
  8
0
 38
-23.029848
 10
99.323882
 20
20.326204
 70
   192
  0
VERTEX
  8
0
 38
-23.029848
 10
232.224634
 20
20.326204
 70
   192
  0
VERTEX
  8
0
 38
-23.029848
 10
232.224634
 20
-67.161213
 70
   192
  0
VERTEX
  8
0
 38
-23.029848
 10
99.323882
 20
-67.161213
 70
   192
  0
VERTEX
  8
OBJECT_29
  6
CONTINUOUS
 62
   253
 10
0.0
 20
0.0
 70
   128
  0
VERTEX
  8
OBJECT_29
  6
CONTINUOUS
 62
   253
 10
0.0
 20
0.0
 70
   128
  0
VERTEX
  8
OBJECT_29
  6
CONTINUOUS
 62
   253
 10
0.0
 20
0.0
 70
   128
  0
VERTEX
  8
OBJECT_29
  6
CONTINUOUS
 62
   253
 10
0.0
 20
0.0
 70
   128
  0
VERTEX
  8
OBJECT_29
  6
CONTINUOUS
 62
   253
 10
0.0
 20
0.0
 70
   128
  0
SEQEND
  8
OBJECT_29
  6
CONTINUOUS
 62
   253
  0
POLYLINE
  8
OBJECT_1
  6
CONTINUOUS
 62
     7
 66
     1
 70
    64
  0
VERTEX
  8
0
 38
18.172971
 10
-49.568829
 20
-77.032446
 70
   192
  0
VERTEX
  8
0
 38
0.466686
 10
-40.592714
 20
-74.527347
 70
   192
  0
VERTEX
  8
0
 38
48.160293
 10
-16.439673
 20
-68.24487
 70
   192
  0
VERTEX
  8
0
 38
24.764235
 10
-20.345346
 20
-69.334885
 70
   192
  0
VERTEX
  8
0
 38
87.167921
 10
11.91736
 20
-60.330848
 70
   192
  0
VERTEX
  8
0
 38
57.850383
 10
7.09929
 20
-61.675499
 70
   192
  0
VERTEX
  8
0
 38
114.332591
 10
38.449598
 20
-52.926099
 70
   192
  0
VERTEX
  8
0
 38
90.936532
 10
34.543926
 20
-54.016114
 70
   192
  0
VERTEX
  8
0
 38
193.862767
 10
84.42527
 20
-40.09498
 70
   192
  0
VERTEX
  8
0
 38
133.45743
 10
46.151288
 20
-50.776673
 70
   192
  0
VERTEX
  8
0
 38
150.58211
 10
48.524389
 20
-50.114376
 70
   192
  0
VERTEX
  8
0
 38
92.779911
 10
19.456269
 20
-58.226852
 70
   192
  0
VERTEX
  8
0
 38
117.495961
 10
21.079754
 20
-57.773762
 70
   192
  0
VERTEX
  8
0
 38
63.662653
 10
-8.695622
 20
-66.083622
 70
   192
  0
VERTEX
  8
0
 38
84.409812
 10
-6.364882
 20
-65.433147
 70
   192
  0
VERTEX
  8
0
 38
17.655909
 10
-53.3461
 20
-61.549671
 70
   192
  0
VERTEX
  8
0
 38
-0.050377
 10
-44.369985
 20
-59.044572
 70
   192
  0
VERTEX
  8
0
 38
48.160293
 10
-19.880836
 20
-52.210018
 70
   192
  0
VERTEX
  8
0
 38
24.764235
 10
-23.786509
 20
-53.300033
 70
   192
  0
VERTEX
  8
0
 38
87.167921
 10
8.476197
 20
-44.295997
 70
   192
  0
VERTEX
  8
0
 38
57.850383
 10
3.658127
 20
-45.640647
 70
   192
  0
VERTEX
  8
0
 38
114.332591
 10
35.008435
 20
-36.891247
 70
   192
  0
VERTEX
  8
0
 38
90.936532
 10
31.102763
 20
-37.981262
 70
   192
  0
VERTEX
  8
0
 38
193.862767
 10
80.984107
 20
-24.060128
 70
   192
  0
VERTEX
  8
0
 38
133.45743
 10
42.710125
 20
-34.741822
 70
   192
  0
VERTEX
  8
0
 38
150.58211
 10
45.083226
 20
-34.079525
 70
   192
  0
VERTEX
  8
0
 38
92.779911
 10
16.015106
 20
-42.192
 70
   192
  0
VERTEX
  8
0
 38
117.495961
 10
17.638591
 20
-41.73891
 70
   192
  0
VERTEX
  8
0
 38
63.662653
 10
-12.136785
 20
-50.04877
 70
   192
  0
VERTEX
  8
0
 38
84.409812
 10
-9.806045
 20
-49.398295
 70
   192
  0
VERTEX
  8
OBJECT_1
  6
CONTINUOUS
 62
     7
 10
0.0
 20
0.0
 70
   128
  0
VERTEX
  8
OBJECT_1
  6
CONTINUOUS
 62
     7
 10
0.0
 20
0.0
 70
   128
  0
VERTEX
  8
OBJECT_1
  6
CONTINUOUS
 62
     7
 10
0.0
 20
0.0
 70
   128
  0
VERTEX
  8
OBJECT_1
  6
CONTINUOUS
 62
     7
 10
0.0
 20
0.0
 70
   128
  0
VERTEX
  8
OBJECT_1
  6
CONTINUOUS
 62
     7
 10
0.0
 20
0.0
 70
   128
  0
VERTEX
  8
OBJECT_1
  6
CONTINUOUS
 62
     7
 10
0.0
 20
0.0
 70
   128
  0
VERTEX
  8
OBJECT_1
  6
CONTINUOUS
 62
     7
 10
0.0
 20
0.0
 70
   128
  0
VERTEX
  8
OBJECT_1
  6
CONTINUOUS
 62
     7
 10
0.0
 20
0.0
 70
   128
  0
VERTEX
  8
OBJECT_1
  6
CONTINUOUS
 62
     7
 10
0.0
 20
0.0
 70
   128
  0
VERTEX
  8
OBJECT_1
  6
CONTINUOUS
 62
     7
 10
0.0
 20
0.0
 70
   128
  0
VERTEX
  8
OBJECT_1
  6
CONTINUOUS
 62
     7
 10
0.0
 20
0.0
 70
   128
  0
VERTEX
  8
OBJECT_1
  6
CONTINUOUS
 62
     7
 10
0.0
 20
0.0
 70
   128
  0
VERTEX
  8
OBJECT_1
  6
CONTINUOUS
 62
     7
 10
0.0
 20
0.0
 70
   128
  0
VERTEX
  8
OBJECT_1
  6
CONTINUOUS
 62
     7
 10
0.0
 20
0.0
 70
   128
  0
VERTEX
  8
OBJECT_1
  6
CONTINUOUS
 62
     7
 10
0.0
 20
0.0
 70
   128
  0
VERTEX
  8
OBJECT_1
  6
CONTINUOUS
 62
     7
 10
0.0
 20
0.0
 70
   128
  0
VERTEX
  8
OBJECT_1
  6
CONTINUOUS
 62
     7
 10
0.0
 20
0.0
 70
   128
  0
VERTEX
  8
OBJECT_1
  6
CONTINUOUS
 62
     7
 10
0.0
 20
0.0
 70
   128
  0
VERTEX
  8
OBJECT_1
  6
CONTINUOUS
 62
     7
 10
0.0
 20
0.0
 70
   128
  0
VERTEX
  8
OBJECT_1
  6
CONTINUOUS
 62
     7
 10
0.0
 20
0.0
 70
   128
  0
VERTEX
  8
OBJECT_1
  6
CONTINUOUS
 62
     7
 10
0.0
 20
0.0
 70
   128
  0
VERTEX
  8
OBJECT_1
  6
CONTINUOUS
 62
     7
 10
0.0
 20
0.0
 70
   128
  0
VERTEX
  8
OBJECT_1
  6
CONTINUOUS
 62
     7
 10
0.0
 20
0.0
 70
   128
  0
VERTEX
  8
OBJECT_1
  6
CONTINUOUS
 62
     7
 10
0.0
 20
0.0
 70
   128
  0
VERTEX
  8
OBJECT_1
  6
CONTINUOUS
 62
     7
 10
0.0
 20
0.0
 70
   128
  0
VERTEX
  8
OBJECT_1
  6
CONTINUOUS
 62
     7
 10
0.0
 20
0.0
 70
   128
  0
VERTEX
  8
OBJECT_1
  6
CONTINUOUS
 62
     7
 10
0.0
 20
0.0
 70
   128
  0
VERTEX
  8
OBJECT_1
  6
CONTINUOUS
 62
     7
 10
0.0
 20
0.0
 70
   128
  0
VERTEX
  8
OBJECT_1
  6
CONTINUOUS
 62
     7
 10
0.0
 20
0.0
 70
   128
  0
VERTEX
  8
OBJECT_1
  6
CONTINUOUS
 62
     7
 10
0.0
 20
0.0
 70
   128
  0
VERTEX
  8
OBJECT_1
  6
CONTINUOUS
 62
     7
 10
0.0
 20
0.0
 70
   128
  0
VERTEX
  8
OBJECT_1
  6
CONTINUOUS
 62
     7
 10
0.0
 20
0.0
 70
   128
  0
VERTEX
  8
OBJECT_1
  6
CONTINUOUS
 62
     7
 10
0.0
 20
0.0
 70
   128
  0
SEQEND
  8
OBJECT_1
  6
CONTINUOUS
 62
     7
  0
POLYLINE
  8
OBJECT_29_COPY_2
  6
CONTINUOUS
 62
     7
 66
     1
 70
    64
  0
VERTEX
  8
0
 38
-85.64777
 10
120.178539
 20
15.605793
 70
   192
  0
VERTEX
  8
0
 38
-85.64777
 10
199.948056
 20
15.605793
 70
   192
  0
VERTEX
  8
0
 38
-85.64777
 10
199.948056
 20
-47.766323
 70
   192
  0
VERTEX
  8
0
 38
-85.64777
 10
120.178539
 20
-47.766323
 70
   192
  0
VERTEX
  8
0
 38
-63.041279
 10
120.178539
 20
15.605793
 70
   192
  0
VERTEX
  8
0
 38
-63.041279
 10
199.948056
 20
15.605793
 70
   192
  0
VERTEX
  8
0
 38
-63.041279
 10
199.948056
 20
-47.766323
 70
   192
  0
VERTEX
  8
0
 38
-63.041279
 10
120.178539
 20
-47.766323
 70
   192
  0
VERTEX
  8
OBJECT_29_COPY_2
  6
CONTINUOUS
 62
     7
 10
0.0
 20
0.0
 70
   128
  0
VERTEX
  8
OBJECT_29_COPY_2
  6
CONTINUOUS
 62
     7
 10
0.0
 20
0.0
 70
   128
  0
VERTEX
  8
OBJECT_29_COPY_2
  6
CONTINUOUS
 62
     7
 10
0.0
 20
0.0
 70
   128
  0
VERTEX
  8
OBJECT_29_COPY_2
  6
CONTINUOUS
 62
     7
 10
0.0
 20
0.0
 70
   128
  0
VERTEX
  8
OBJECT_29_COPY_2
  6
CONTINUOUS
 62
     7
 10
0.0
 20
0.0
 70
   128
  0
VERTEX
  8
OBJECT_29_COPY_2
  6
CONTINUOUS
 62
     7
 10
0.0
 20
0.0
 70
   128
  0
SEQEND
  8
OBJECT_29_COPY_2
  6
CONTINUOUS
 62
     7
  0
POLYLINE
  8
OBJECT_1_COPY
  6
CONTINUOUS
 62
     7
 66
     1
 70
    64
  0
VERTEX
  8
0
 38
-205.376567
 10
482.056606
 20
-324.141608
 70
   192
  0
VERTEX
  8
0
 38
-205.376567
 10
236.161692
 20
-370.002455
 70
   192
  0
VERTEX
  8
0
 38
-228.011142
 10
252.211982
 20
-492.396064
 70
   192
  0
VERTEX
  8
0
 38
-228.011142
 10
498.106896
 20
-446.535218
 70
   192
  0
VERTEX
  8
0
 38
-200.049614
 10
482.59458
 20
-328.243994
 70
   192
  0
VERTEX
  8
0
 38
-222.684189
 10
498.644869
 20
-450.637604
 70
   192
  0
VERTEX
  8
0
 38
-222.684189
 10
252.749955
 20
-496.498451
 70
   192
  0
VERTEX
  8
0
 38
-200.049614
 10
236.699666
 20
-374.104841
 70
   192
  0
VERTEX
  8
0
 38
-200.235882
 10
249.547084
 20
-342.57904
 70
   192
  0
VERTEX
  8
0
 38
-200.235882
 10
460.679826
 20
-303.201542
 70
   192
  0
VERTEX
  8
0
 38
-3.903373
 10
460.679826
 20
-303.201542
 70
   192
  0
VERTEX
  8
0
 38
-3.903373
 10
249.547084
 20
-342.57904
 70
   192
  0
VERTEX
  8
0
 38
-97.351739
 10
336.652274
 20
-326.33341
 70
   192
  0
VERTEX
  8
0
 38
-63.872007
 10
336.652274
 20
-326.33341
 70
   192
  0
VERTEX
  8
0
 38
-63.872007
 10
374.722668
 20
-319.233057
 70
   192
  0
VERTEX
  8
0
 38
-97.351739
 10
374.722668
 20
-319.233057
 70
   192
  0
VERTEX
  8
0
 38
-200.235882
 10
252.727637
 20
-366.832765
 70
   192
  0
VERTEX
  8
0
 38
-3.903373
 10
252.727637
 20
-366.832765
 70
   192
  0
VERTEX
  8
0
 38
-3.903373
 10
463.860379
 20
-327.455268
 70
   192
  0
VERTEX
  8
0
 38
-200.235882
 10
463.860379
 20
-327.455268
 70
   192
  0
VERTEX
  8
0
 38
-188.83593
 10
456.604388
 20
-328.808553
 70
   192
  0
VERTEX
  8
0
 38
-15.303325
 10
456.604388
 20
-328.808553
 70
   192
  0
VERTEX
  8
0
 38
-15.303325
 10
259.983628
 20
-365.47948
 70
   192
  0
VERTEX
  8
0
 38
-188.83593
 10
259.983628
 20
-365.47948
 70
   192
  0
VERTEX
  8
0
 38
-188.83593
 10
258.923444
 20
-357.394905
 70
   192
  0
VERTEX
  8
0
 38
-188.83593
 10
455.544204
 20
-320.723978
 70
   192
  0
VERTEX
  8
0
 38
-15.303325
 10
258.923444
 20
-357.394905
 70
   192
  0
VERTEX
  8
0
 38
-15.303325
 10
455.544204
 20
-320.723978
 70
   192
  0
VERTEX
  8
0
 38
-92.285094
 10
335.709888
 20
-319.14712
 70
   192
  0
VERTEX
  8
0
 38
-92.285094
 10
373.780282
 20
-312.046768
 70
   192
  0
VERTEX
  8
0
 38
-92.285094
 10
333.58952
 20
-302.97797
 70
   192
  0
VERTEX
  8
0
 38
-109.385022
 10
332.529336
 20
-294.893395
 70
   192
  0
VERTEX
  8
0
 38
-217.684567
 10
332.529336
 20
-294.893395
 70
   192
  0
VERTEX
  8
0
 38
-217.684567
 10
338.890441
 20
-343.400846
 70
   192
  0
VERTEX
  8
0
 38
-211.984591
 10
344.191362
 20
-383.823722
 70
   192
  0
VERTEX
  8
0
 38
-217.684567
 10
348.432099
 20
-416.162023
 70
   192
  0
VERTEX
  8
0
 38
-223.384543
 10
352.672836
 20
-448.500324
 70
   192
  0
VERTEX
  8
0
 38
-223.573751
 10
330.997212
 20
-283.209978
 70
   192
  0
VERTEX
  8
0
 38
-87.419743
 10
330.997212
 20
-283.209978
 70
   192
  0
VERTEX
  8
0
 38
-74.44008
 10
332.475288
 20
-294.481246
 70
   192
  0
VERTEX
  8
0
 38
-74.44008
 10
370.545682
 20
-287.380893
 70
   192
  0
VERTEX
  8
0
 38
-87.419743
 10
369.067605
 20
-276.109626
 70
   192
  0
VERTEX
  8
0
 38
-223.573751
 10
369.067605
 20
-276.109626
 70
   192
  0
VERTEX
  8
0
 38
-223.384543
 10
390.74323
 20
-441.399972
 70
   192
  0
VERTEX
  8
0
 38
-217.684567
 10
386.502493
 20
-409.061671
 70
   192
  0
VERTEX
  8
0
 38
-211.984591
 10
382.261756
 20
-376.72337
 70
   192
  0
VERTEX
  8
0
 38
-217.684567
 10
376.960835
 20
-336.300494
 70
   192
  0
VERTEX
  8
0
 38
-217.684567
 10
370.59973
 20
-287.793043
 70
   192
  0
VERTEX
  8
0
 38
-109.385022
 10
370.59973
 20
-287.793043
 70
   192
  0
VERTEX
  8
0
 38
-92.285094
 10
371.659914
 20
-295.877618
 70
   192
  0
VERTEX
  8
OBJECT_1_COPY
  6
CONTINUOUS
 62
     7
 10
0.0
 20
0.0
 70
   128
  0
VERTEX
  8
OBJECT_1_COPY
  6
CONTINUOUS
 62
     7
 10
0.0
 20
0.0
 70
   128
  0
VERTEX
  8
OBJECT_1_COPY
  6
CONTINUOUS
 62
     7
 10
0.0
 20
0.0
 70
   128
  0
VERTEX
  8
OBJECT_1_COPY
  6
CONTINUOUS
 62
     7
 10
0.0
 20
0.0
 70
   128
  0
VERTEX
  8
OBJECT_1_COPY
  6
CONTINUOUS
 62
     7
 10
0.0
 20
0.0
 70
   128
  0
VERTEX
  8
OBJECT_1_COPY
  6
CONTINUOUS
 62
     7
 10
0.0
 20
0.0
 70
   128
  0
VERTEX
  8
OBJECT_1_COPY
  6
CONTINUOUS
 62
     7
 10
0.0
 20
0.0
 70
   128
  0
VERTEX
  8
OBJECT_1_COPY
  6
CONTINUOUS
 62
     7
 10
0.0
 20
0.0
 70
   128
  0
VERTEX
  8
OBJECT_1_COPY
  6
CONTINUOUS
 62
     7
 10
0.0
 20
0.0
 70
   128
  0
VERTEX
  8
OBJECT_1_COPY
  6
CONTINUOUS
 62
     7
 10
0.0
 20
0.0
 70
   128
  0
VERTEX
  8
OBJECT_1_COPY
  6
CONTINUOUS
 62
     7
 10
0.0
 20
0.0
 70
   128
  0
VERTEX
  8
OBJECT_1_COPY
  6
CONTINUOUS
 62
     7
 10
0.0
 20
0.0
 70
   128
  0
VERTEX
  8
OBJECT_1_COPY
  6
CONTINUOUS
 62
     7
 10
0.0
 20
0.0
 70
   128
  0
VERTEX
  8
OBJECT_1_COPY
  6
CONTINUOUS
 62
     7
 10
0.0
 20
0.0
 70
   128
  0
VERTEX
  8
OBJECT_1_COPY
  6
CONTINUOUS
 62
     7
 10
0.0
 20
0.0
 70
   128
  0
VERTEX
  8
OBJECT_1_COPY
  6
CONTINUOUS
 62
     7
 10
0.0
 20
0.0
 70
   128
  0
VERTEX
  8
OBJECT_1_COPY
  6
CONTINUOUS
 62
     7
 10
0.0
 20
0.0
 70
   128
  0
VERTEX
  8
OBJECT_1_COPY
  6
CONTINUOUS
 62
     7
 10
0.0
 20
0.0
 70
   128
  0
VERTEX
  8
OBJECT_1_COPY
  6
CONTINUOUS
 62
     7
 10
0.0
 20
0.0
 70
   128
  0
VERTEX
  8
OBJECT_1_COPY
  6
CONTINUOUS
 62
     7
 10
0.0
 20
0.0
 70
   128
  0
VERTEX
  8
OBJECT_1_COPY
  6
CONTINUOUS
 62
     7
 10
0.0
 20
0.0
 70
   128
  0
VERTEX
  8
OBJECT_1_COPY
  6
CONTINUOUS
 62
     7
 10
0.0
 20
0.0
 70
   128
  0
VERTEX
  8
OBJECT_1_COPY
  6
CONTINUOUS
 62
     7
 10
0.0
 20
0.0
 70
   128
  0
VERTEX
  8
OBJECT_1_COPY
  6
CONTINUOUS
 62
     7
 10
0.0
 20
0.0
 70
   128
  0
VERTEX
  8
OBJECT_1_COPY
  6
CONTINUOUS
 62
     7
 10
0.0
 20
0.0
 70
   128
  0
VERTEX
  8
OBJECT_1_COPY
  6
CONTINUOUS
 62
     7
 10
0.0
 20
0.0
 70
   128
  0
VERTEX
  8
OBJECT_1_COPY
  6
CONTINUOUS
 62
     7
 10
0.0
 20
0.0
 70
   128
  0
VERTEX
  8
OBJECT_1_COPY
  6
CONTINUOUS
 62
     7
 10
0.0
 20
0.0
 70
   128
  0
VERTEX
  8
OBJECT_1_COPY
  6
CONTINUOUS
 62
     7
 10
0.0
 20
0.0
 70
   128
  0
VERTEX
  8
OBJECT_1_COPY
  6
CONTINUOUS
 62
     7
 10
0.0
 20
0.0
 70
   128
  0
VERTEX
  8
OBJECT_1_COPY
  6
CONTINUOUS
 62
     7
 10
0.0
 20
0.0
 70
   128
  0
VERTEX
  8
OBJECT_1_COPY
  6
CONTINUOUS
 62
     7
 10
0.0
 20
0.0
 70
   128
  0
VERTEX
  8
OBJECT_1_COPY
  6
CONTINUOUS
 62
     7
 10
0.0
 20
0.0
 70
   128
  0
VERTEX
  8
OBJECT_1_COPY
  6
CONTINUOUS
 62
     7
 10
0.0
 20
0.0
 70
   128
  0
VERTEX
  8
OBJECT_1_COPY
  6
CONTINUOUS
 62
     7
 10
0.0
 20
0.0
 70
   128
  0
VERTEX
  8
OBJECT_1_COPY
  6
CONTINUOUS
 62
     7
 10
0.0
 20
0.0
 70
   128
  0
VERTEX
  8
OBJECT_1_COPY
  6
CONTINUOUS
 62
     7
 10
0.0
 20
0.0
 70
   128
  0
VERTEX
  8
OBJECT_1_COPY
  6
CONTINUOUS
 62
     7
 10
0.0
 20
0.0
 70
   128
  0
VERTEX
  8
OBJECT_1_COPY
  6
CONTINUOUS
 62
     7
 10
0.0
 20
0.0
 70
   128
  0
VERTEX
  8
OBJECT_1_COPY
  6
CONTINUOUS
 62
     7
 10
0.0
 20
0.0
 70
   128
  0
VERTEX
  8
OBJECT_1_COPY
  6
CONTINUOUS
 62
     7
 10
0.0
 20
0.0
 70
   128
  0
VERTEX
  8
OBJECT_1_COPY
  6
CONTINUOUS
 62
     7
 10
0.0
 20
0.0
 70
   128
  0
VERTEX
  8
OBJECT_1_COPY
  6
CONTINUOUS
 62
     7
 10
0.0
 20
0.0
 70
   128
  0
VERTEX
  8
OBJECT_1_COPY
  6
CONTINUOUS
 62
     7
 10
0.0
 20
0.0
 70
   128
  0
VERTEX
  8
OBJECT_1_COPY
  6
CONTINUOUS
 62
     7
 10
0.0
 20
0.0
 70
   128
  0
VERTEX
  8
OBJECT_1_COPY
  6
CONTINUOUS
 62
     7
 10
0.0
 20
0.0
 70
   128
  0
VERTEX
  8
OBJECT_1_COPY
  6
CONTINUOUS
 62
     7
 10
0.0
 20
0.0
 70
   128
  0
VERTEX
  8
OBJECT_1_COPY
  6
CONTINUOUS
 62
     7
 10
0.0
 20
0.0
 70
   128
  0
VERTEX
  8
OBJECT_1_COPY
  6
CONTINUOUS
 62
     7
 10
0.0
 20
0.0
 70
   128
  0
VERTEX
  8
OBJECT_1_COPY
  6
CONTINUOUS
 62
     7
 10
0.0
 20
0.0
 70
   128
  0
VERTEX
  8
OBJECT_1_COPY
  6
CONTINUOUS
 62
     7
 10
0.0
 20
0.0
 70
   128
  0
VERTEX
  8
OBJECT_1_COPY
  6
CONTINUOUS
 62
     7
 10
0.0
 20
0.0
 70
   128
  0
VERTEX
  8
OBJECT_1_COPY
  6
CONTINUOUS
 62
     7
 10
0.0
 20
0.0
 70
   128
  0
SEQEND
  8
OBJECT_1_COPY
  6
CONTINUOUS
 62
     7
  0
POLYLINE
  8
OBJECT_6
  6
CONTINUOUS
 62
   253
 66
     1
 70
    64
  0
VERTEX
  8
0
 38
134.754367
 10
-344.21731
 20
-44.495316
 70
   192
  0
VERTEX
  8
0
 38
134.754367
 10
-344.21731
 20
88.990631
 70
   192
  0
VERTEX
  8
0
 38
134.754367
 10
-77.245416
 20
88.990631
 70
   192
  0
VERTEX
  8
0
 38
134.754367
 10
-77.245416
 20
-44.495316
 70
   192
  0
VERTEX
  8
0
 38
290.487971
 10
-344.21731
 20
-44.495316
 70
   192
  0
VERTEX
  8
0
 38
290.487971
 10
-344.21731
 20
88.990631
 70
   192
  0
VERTEX
  8
0
 38
290.487971
 10
-77.245416
 20
88.990631
 70
   192
  0
VERTEX
  8
0
 38
290.487971
 10
-77.245416
 20
-44.495316
 70
   192
  0
VERTEX
  8
OBJECT_6
  6
CONTINUOUS
 62
   253
 10
0.0
 20
0.0
 70
   128
  0
VERTEX
  8
OBJECT_6
  6
CONTINUOUS
 62
   253
 10
0.0
 20
0.0
 70
   128
  0
VERTEX
  8
OBJECT_6
  6
CONTINUOUS
 62
   253
 10
0.0
 20
0.0
 70
   128
  0
VERTEX
  8
OBJECT_6
  6
CONTINUOUS
 62
   253
 10
0.0
 20
0.0
 70
   128
  0
VERTEX
  8
OBJECT_6
  6
CONTINUOUS
 62
   253
 10
0.0
 20
0.0
 70
   128
  0
VERTEX
  8
OBJECT_6
  6
CONTINUOUS
 62
   253
 10
0.0
 20
0.0
 70
   128
  0
SEQEND
  8
OBJECT_6
  6
CONTINUOUS
 62
   253
  0
POLYLINE
  8
OBJECT_1_COPY_2
  6
CONTINUOUS
 62
    93
 66
     1
 70
    64
  0
VERTEX
  8
0
 38
266.449134
 10
-91.275652
 20
30.299426
 70
   192
  0
VERTEX
  8
0
 38
249.499894
 10
-95.191007
 20
31.021469
 70
   192
  0
VERTEX
  8
0
 38
246.779902
 10
-54.298436
 20
23.276786
 70
   192
  0
VERTEX
  8
0
 38
240.19444
 10
-69.425158
 20
25.933508
 70
   192
  0
VERTEX
  8
0
 38
235.85337
 10
-15.287166
 20
16.488149
 70
   192
  0
VERTEX
  8
0
 38
227.524813
 10
-34.194368
 20
19.809061
 70
   192
  0
VERTEX
  8
0
 38
221.440649
 10
16.163145
 20
11.027891
 70
   192
  0
VERTEX
  8
0
 38
214.855187
 10
1.036422
 20
13.684613
 70
   192
  0
VERTEX
  8
0
 38
211.036028
 10
88.226351
 20
-1.534414
 70
   192
  0
VERTEX
  8
0
 38
222.302208
 10
31.37487
 20
8.369233
 70
   192
  0
VERTEX
  8
0
 38
227.609421
 10
42.140245
 20
6.4771
 70
   192
  0
VERTEX
  8
0
 38
230.812495
 10
-7.490852
 20
15.1379
 70
   192
  0
VERTEX
  8
0
 38
240.279048
 10
6.909454
 20
12.601548
 70
   192
  0
VERTEX
  8
0
 38
245.972917
 10
-41.020318
 20
20.959595
 70
   192
  0
VERTEX
  8
0
 38
252.948674
 10
-28.321336
 20
18.725995
 70
   192
  0
VERTEX
  8
0
 38
266.691604
 10
-87.977161
 20
51.697602
 70
   192
  0
VERTEX
  8
0
 38
249.742364
 10
-91.892516
 20
52.419645
 70
   192
  0
VERTEX
  8
0
 38
246.825607
 10
-50.342701
 20
45.169587
 70
   192
  0
VERTEX
  8
0
 38
240.240145
 10
-65.469424
 20
47.826309
 70
   192
  0
VERTEX
  8
0
 38
235.899075
 10
-11.331431
 20
38.38095
 70
   192
  0
VERTEX
  8
0
 38
227.570518
 10
-30.238633
 20
41.701862
 70
   192
  0
VERTEX
  8
0
 38
221.486354
 10
20.11888
 20
32.920692
 70
   192
  0
VERTEX
  8
0
 38
214.900892
 10
4.992157
 20
35.577414
 70
   192
  0
VERTEX
  8
0
 38
211.081733
 10
92.182086
 20
20.358387
 70
   192
  0
VERTEX
  8
0
 38
222.347913
 10
35.330605
 20
30.262034
 70
   192
  0
VERTEX
  8
0
 38
227.655126
 10
46.09598
 20
28.369901
 70
   192
  0
VERTEX
  8
0
 38
230.8582
 10
-3.535117
 20
37.030701
 70
   192
  0
VERTEX
  8
0
 38
240.324753
 10
10.865189
 20
34.494349
 70
   192
  0
VERTEX
  8
0
 38
246.018622
 10
-37.064583
 20
42.852396
 70
   192
  0
VERTEX
  8
0
 38
252.994379
 10
-24.365601
 20
40.618796
 70
   192
  0
VERTEX
  8
OBJECT_1_COPY_2
  6
CONTINUOUS
 62
    93
 10
0.0
 20
0.0
 70
   128
  0
VERTEX
  8
OBJECT_1_COPY_2
  6
CONTINUOUS
 62
    93
 10
0.0
 20
0.0
 70
   128
  0
VERTEX
  8
OBJECT_1_COPY_2
  6
CONTINUOUS
 62
    93
 10
0.0
 20
0.0
 70
   128
  0
VERTEX
  8
OBJECT_1_COPY_2
  6
CONTINUOUS
 62
    93
 10
0.0
 20
0.0
 70
   128
  0
VERTEX
  8
OBJECT_1_COPY_2
  6
CONTINUOUS
 62
    93
 10
0.0
 20
0.0
 70
   128
  0
VERTEX
  8
OBJECT_1_COPY_2
  6
CONTINUOUS
 62
    93
 10
0.0
 20
0.0
 70
   128
  0
VERTEX
  8
OBJECT_1_COPY_2
  6
CONTINUOUS
 62
    93
 10
0.0
 20
0.0
 70
   128
  0
VERTEX
  8
OBJECT_1_COPY_2
  6
CONTINUOUS
 62
    93
 10
0.0
 20
0.0
 70
   128
  0
VERTEX
  8
OBJECT_1_COPY_2
  6
CONTINUOUS
 62
    93
 10
0.0
 20
0.0
 70
   128
  0
VERTEX
  8
OBJECT_1_COPY_2
  6
CONTINUOUS
 62
    93
 10
0.0
 20
0.0
 70
   128
  0
VERTEX
  8
OBJECT_1_COPY_2
  6
CONTINUOUS
 62
    93
 10
0.0
 20
0.0
 70
   128
  0
VERTEX
  8
OBJECT_1_COPY_2
  6
CONTINUOUS
 62
    93
 10
0.0
 20
0.0
 70
   128
  0
VERTEX
  8
OBJECT_1_COPY_2
  6
CONTINUOUS
 62
    93
 10
0.0
 20
0.0
 70
   128
  0
VERTEX
  8
OBJECT_1_COPY_2
  6
CONTINUOUS
 62
    93
 10
0.0
 20
0.0
 70
   128
  0
VERTEX
  8
OBJECT_1_COPY_2
  6
CONTINUOUS
 62
    93
 10
0.0
 20
0.0
 70
   128
  0
VERTEX
  8
OBJECT_1_COPY_2
  6
CONTINUOUS
 62
    93
 10
0.0
 20
0.0
 70
   128
  0
VERTEX
  8
OBJECT_1_COPY_2
  6
CONTINUOUS
 62
    93
 10
0.0
 20
0.0
 70
   128
  0
VERTEX
  8
OBJECT_1_COPY_2
  6
CONTINUOUS
 62
    93
 10
0.0
 20
0.0
 70
   128
  0
VERTEX
  8
OBJECT_1_COPY_2
  6
CONTINUOUS
 62
    93
 10
0.0
 20
0.0
 70
   128
  0
VERTEX
  8
OBJECT_1_COPY_2
  6
CONTINUOUS
 62
    93
 10
0.0
 20
0.0
 70
   128
  0
VERTEX
  8
OBJECT_1_COPY_2
  6
CONTINUOUS
 62
    93
 10
0.0
 20
0.0
 70
   128
  0
VERTEX
  8
OBJECT_1_COPY_2
  6
CONTINUOUS
 62
    93
 10
0.0
 20
0.0
 70
   128
  0
VERTEX
  8
OBJECT_1_COPY_2
  6
CONTINUOUS
 62
    93
 10
0.0
 20
0.0
 70
   128
  0
VERTEX
  8
OBJECT_1_COPY_2
  6
CONTINUOUS
 62
    93
 10
0.0
 20
0.0
 70
   128
  0
VERTEX
  8
OBJECT_1_COPY_2
  6
CONTINUOUS
 62
    93
 10
0.0
 20
0.0
 70
   128
  0
VERTEX
  8
OBJECT_1_COPY_2
  6
CONTINUOUS
 62
    93
 10
0.0
 20
0.0
 70
   128
  0
VERTEX
  8
OBJECT_1_COPY_2
  6
CONTINUOUS
 62
    93
 10
0.0
 20
0.0
 70
   128
  0
VERTEX
  8
OBJECT_1_COPY_2
  6
CONTINUOUS
 62
    93
 10
0.0
 20
0.0
 70
   128
  0
VERTEX
  8
OBJECT_1_COPY_2
  6
CONTINUOUS
 62
    93
 10
0.0
 20
0.0
 70
   128
  0
VERTEX
  8
OBJECT_1_COPY_2
  6
CONTINUOUS
 62
    93
 10
0.0
 20
0.0
 70
   128
  0
VERTEX
  8
OBJECT_1_COPY_2
  6
CONTINUOUS
 62
    93
 10
0.0
 20
0.0
 70
   128
  0
VERTEX
  8
OBJECT_1_COPY_2
  6
CONTINUOUS
 62
    93
 10
0.0
 20
0.0
 70
   128
  0
VERTEX
  8
OBJECT_1_COPY_2
  6
CONTINUOUS
 62
    93
 10
0.0
 20
0.0
 70
   128
  0
SEQEND
  8
OBJECT_1_COPY_2
  6
CONTINUOUS
 62
    93
  0
POLYLINE
  8
OBJECT_1_COPY_4
  6
CONTINUOUS
 62
     1
 66
     1
 70
    64
  0
VERTEX
  8
0
 38
17.356267
 10
276.769018
 20
-1.05772
 70
   192
  0
VERTEX
  8
0
 38
23.600827
 10
291.188569
 20
-1.061842
 70
   192
  0
VERTEX
  8
0
 38
45.779239
 10
273.831321
 20
-1.218933
 70
   192
  0
VERTEX
  8
0
 38
41.284752
 10
285.862785
 20
-1.365474
 70
   192
  0
VERTEX
  8
0
 38
70.932859
 10
263.500652
 20
-0.77911
 70
   192
  0
VERTEX
  8
0
 38
65.362365
 10
278.611147
 20
-0.962059
 70
   192
  0
VERTEX
  8
0
 38
93.934466
 10
259.328045
 20
-0.412103
 70
   192
  0
VERTEX
  8
0
 38
89.439978
 10
271.359508
 20
-0.558645
 70
   192
  0
VERTEX
  8
0
 38
135.647162
 10
232.99253
 20
0.378667
 70
   192
  0
VERTEX
  8
0
 38
101.253628
 10
251.501229
 20
-0.251962
 70
   192
  0
VERTEX
  8
0
 38
104.150751
 10
242.478544
 20
-0.149048
 70
   192
  0
VERTEX
  8
0
 38
77.348178
 10
263.554997
 20
-0.684876
 70
   192
  0
VERTEX
  8
0
 38
80.073138
 10
249.730182
 20
-0.552463
 70
   192
  0
VERTEX
  8
0
 38
52.925625
 10
268.155561
 20
-1.07569
 70
   192
  0
VERTEX
  8
0
 38
55.995525
 10
256.98182
 20
-0.955877
 70
   192
  0
VERTEX
  8
0
 38
16.908015
 10
276.896147
 20
20.583152
 70
   192
  0
VERTEX
  8
0
 38
23.152575
 10
291.315698
 20
20.57903
 70
   192
  0
VERTEX
  8
0
 38
45.705272
 10
273.845506
 20
21.028132
 70
   192
  0
VERTEX
  8
0
 38
41.210785
 10
285.876969
 20
20.881591
 70
   192
  0
VERTEX
  8
0
 38
70.858892
 10
263.514836
 20
21.467955
 70
   192
  0
VERTEX
  8
0
 38
65.288398
 10
278.625331
 20
21.285006
 70
   192
  0
VERTEX
  8
0
 38
93.860499
 10
259.34223
 20
21.834962
 70
   192
  0
VERTEX
  8
0
 38
89.366011
 10
271.373693
 20
21.68842
 70
   192
  0
VERTEX
  8
0
 38
135.573195
 10
233.006714
 20
22.625732
 70
   192
  0
VERTEX
  8
0
 38
101.179661
 10
251.515413
 20
21.995103
 70
   192
  0
VERTEX
  8
0
 38
104.076784
 10
242.492728
 20
22.098017
 70
   192
  0
VERTEX
  8
0
 38
77.274211
 10
263.569181
 20
21.562189
 70
   192
  0
VERTEX
  8
0
 38
79.999171
 10
249.744366
 20
21.694603
 70
   192
  0
VERTEX
  8
0
 38
52.851658
 10
268.169745
 20
21.171375
 70
   192
  0
VERTEX
  8
0
 38
55.921558
 10
256.996005
 20
21.291188
 70
   192
  0
VERTEX
  8
OBJECT_1_COPY_4
  6
CONTINUOUS
 62
     1
 10
0.0
 20
0.0
 70
   128
  0
VERTEX
  8
OBJECT_1_COPY_4
  6
CONTINUOUS
 62
     1
 10
0.0
 20
0.0
 70
   128
  0
VERTEX
  8
OBJECT_1_COPY_4
  6
CONTINUOUS
 62
     1
 10
0.0
 20
0.0
 70
   128
  0
VERTEX
  8
OBJECT_1_COPY_4
  6
CONTINUOUS
 62
     1
 10
0.0
 20
0.0
 70
   128
  0
VERTEX
  8
OBJECT_1_COPY_4
  6
CONTINUOUS
 62
     1
 10
0.0
 20
0.0
 70
   128
  0
VERTEX
  8
OBJECT_1_COPY_4
  6
CONTINUOUS
 62
     1
 10
0.0
 20
0.0
 70
   128
  0
VERTEX
  8
OBJECT_1_COPY_4
  6
CONTINUOUS
 62
     1
 10
0.0
 20
0.0
 70
   128
  0
VERTEX
  8
OBJECT_1_COPY_4
  6
CONTINUOUS
 62
     1
 10
0.0
 20
0.0
 70
   128
  0
VERTEX
  8
OBJECT_1_COPY_4
  6
CONTINUOUS
 62
     1
 10
0.0
 20
0.0
 70
   128
  0
VERTEX
  8
OBJECT_1_COPY_4
  6
CONTINUOUS
 62
     1
 10
0.0
 20
0.0
 70
   128
  0
VERTEX
  8
OBJECT_1_COPY_4
  6
CONTINUOUS
 62
     1
 10
0.0
 20
0.0
 70
   128
  0
VERTEX
  8
OBJECT_1_COPY_4
  6
CONTINUOUS
 62
     1
 10
0.0
 20
0.0
 70
   128
  0
VERTEX
  8
OBJECT_1_COPY_4
  6
CONTINUOUS
 62
     1
 10
0.0
 20
0.0
 70
   128
  0
VERTEX
  8
OBJECT_1_COPY_4
  6
CONTINUOUS
 62
     1
 10
0.0
 20
0.0
 70
   128
  0
VERTEX
  8
OBJECT_1_COPY_4
  6
CONTINUOUS
 62
     1
 10
0.0
 20
0.0
 70
   128
  0
VERTEX
  8
OBJECT_1_COPY_4
  6
CONTINUOUS
 62
     1
 10
0.0
 20
0.0
 70
   128
  0
VERTEX
  8
OBJECT_1_COPY_4
  6
CONTINUOUS
 62
     1
 10
0.0
 20
0.0
 70
   128
  0
VERTEX
  8
OBJECT_1_COPY_4
  6
CONTINUOUS
 62
     1
 10
0.0
 20
0.0
 70
   128
  0
VERTEX
  8
OBJECT_1_COPY_4
  6
CONTINUOUS
 62
     1
 10
0.0
 20
0.0
 70
   128
  0
VERTEX
  8
OBJECT_1_COPY_4
  6
CONTINUOUS
 62
     1
 10
0.0
 20
0.0
 70
   128
  0
VERTEX
  8
OBJECT_1_COPY_4
  6
CONTINUOUS
 62
     1
 10
0.0
 20
0.0
 70
   128
  0
VERTEX
  8
OBJECT_1_COPY_4
  6
CONTINUOUS
 62
     1
 10
0.0
 20
0.0
 70
   128
  0
VERTEX
  8
OBJECT_1_COPY_4
  6
CONTINUOUS
 62
     1
 10
0.0
 20
0.0
 70
   128
  0
VERTEX
  8
OBJECT_1_COPY_4
  6
CONTINUOUS
 62
     1
 10
0.0
 20
0.0
 70
   128
  0
VERTEX
  8
OBJECT_1_COPY_4
  6
CONTINUOUS
 62
     1
 10
0.0
 20
0.0
 70
   128
  0
VERTEX
  8
OBJECT_1_COPY_4
  6
CONTINUOUS
 62
     1
 10
0.0
 20
0.0
 70
   128
  0
VERTEX
  8
OBJECT_1_COPY_4
  6
CONTINUOUS
 62
     1
 10
0.0
 20
0.0
 70
   128
  0
VERTEX
  8
OBJECT_1_COPY_4
  6
CONTINUOUS
 62
     1
 10
0.0
 20
0.0
 70
   128
  0
VERTEX
  8
OBJECT_1_COPY_4
  6
CONTINUOUS
 62
     1
 10
0.0
 20
0.0
 70
   128
  0
VERTEX
  8
OBJECT_1_COPY_4
  6
CONTINUOUS
 62
     1
 10
0.0
 20
0.0
 70
   128
  0
VERTEX
  8
OBJECT_1_COPY_4
  6
CONTINUOUS
 62
     1
 10
0.0
 20
0.0
 70
   128
  0
VERTEX
  8
OBJECT_1_COPY_4
  6
CONTINUOUS
 62
     1
 10
0.0
 20
0.0
 70
   128
  0
VERTEX
  8
OBJECT_1_COPY_4
  6
CONTINUOUS
 62
     1
 10
0.0
 20
0.0
 70
   128
  0
SEQEND
  8
OBJECT_1_COPY_4
  6
CONTINUOUS
 62
     1
  0
POLYLINE
  8
OBJECT_25
  6
CONTINUOUS
 62
   253
 66
     1
 70
    64
  0
VERTEX
  8
0
 38
24.262882
 10
-277.275169
 20
23.504329
 70
   192
  0
VERTEX
  8
0
 38
24.262882
 10
-277.684059
 20
26.610158
 70
   192
  0
VERTEX
  8
0
 38
24.262882
 10
-278.882864
 20
29.504329
 70
   192
  0
VERTEX
  8
0
 38
24.262882
 10
-280.789887
 20
31.98961
 70
   192
  0
VERTEX
  8
0
 38
24.262882
 10
-283.275169
 20
33.896634
 70
   192
  0
VERTEX
  8
0
 38
24.262882
 10
-286.16934
 20
35.095439
 70
   192
  0
VERTEX
  8
0
 38
24.262882
 10
-289.275169
 20
35.504329
 70
   192
  0
VERTEX
  8
0
 38
24.262882
 10
-292.380997
 20
35.095439
 70
   192
  0
VERTEX
  8
0
 38
24.262882
 10
-295.275169
 20
33.896634
 70
   192
  0
VERTEX
  8
0
 38
24.262882
 10
-297.76045
 20
31.98961
 70
   192
  0
VERTEX
  8
0
 38
24.262882
 10
-299.667473
 20
29.504329
 70
   192
  0
VERTEX
  8
0
 38
24.262882
 10
-300.866279
 20
26.610158
 70
   192
  0
VERTEX
  8
0
 38
24.262882
 10
-301.275169
 20
23.504329
 70
   192
  0
VERTEX
  8
0
 38
24.262882
 10
-300.866279
 20
20.398501
 70
   192
  0
VERTEX
  8
0
 38
24.262882
 10
-299.667473
 20
17.504329
 70
   192
  0
VERTEX
  8
0
 38
24.262882
 10
-297.76045
 20
15.019048
 70
   192
  0
VERTEX
  8
0
 38
24.262882
 10
-295.275169
 20
13.112024
 70
   192
  0
VERTEX
  8
0
 38
24.262882
 10
-292.380997
 20
11.913219
 70
   192
  0
VERTEX
  8
0
 38
24.262882
 10
-289.275169
 20
11.504329
 70
   192
  0
VERTEX
  8
0
 38
24.262882
 10
-286.16934
 20
11.913219
 70
   192
  0
VERTEX
  8
0
 38
24.262882
 10
-283.275169
 20
13.112024
 70
   192
  0
VERTEX
  8
0
 38
24.262882
 10
-280.789887
 20
15.019048
 70
   192
  0
VERTEX
  8
0
 38
24.262882
 10
-278.882864
 20
17.504329
 70
   192
  0
VERTEX
  8
0
 38
24.262882
 10
-277.684059
 20
20.398501
 70
   192
  0
VERTEX
  8
0
 38
134.262882
 10
-277.275169
 20
23.504329
 70
   192
  0
VERTEX
  8
0
 38
134.262882
 10
-277.684059
 20
26.610158
 70
   192
  0
VERTEX
  8
0
 38
134.262882
 10
-278.882864
 20
29.504329
 70
   192
  0
VERTEX
  8
0
 38
134.262882
 10
-280.789887
 20
31.98961
 70
   192
  0
VERTEX
  8
0
 38
134.262882
 10
-283.275169
 20
33.896634
 70
   192
  0
VERTEX
  8
0
 38
134.262882
 10
-286.16934
 20
35.095439
 70
   192
  0
VERTEX
  8
0
 38
134.262882
 10
-289.275169
 20
35.504329
 70
   192
  0
VERTEX
  8
0
 38
134.262882
 10
-292.380997
 20
35.095439
 70
   192
  0
VERTEX
  8
0
 38
134.262882
 10
-295.275169
 20
33.896634
 70
   192
  0
VERTEX
  8
0
 38
134.262882
 10
-297.76045
 20
31.98961
 70
   192
  0
VERTEX
  8
0
 38
134.262882
 10
-299.667473
 20
29.504329
 70
   192
  0
VERTEX
  8
0
 38
134.262882
 10
-300.866279
 20
26.610158
 70
   192
  0
VERTEX
  8
0
 38
134.262882
 10
-301.275169
 20
23.504329
 70
   192
  0
VERTEX
  8
0
 38
134.262882
 10
-300.866279
 20
20.398501
 70
   192
  0
VERTEX
  8
0
 38
134.262882
 10
-299.667473
 20
17.504329
 70
   192
  0
VERTEX
  8
0
 38
134.262882
 10
-297.76045
 20
15.019048
 70
   192
  0
VERTEX
  8
0
 38
134.262882
 10
-295.275169
 20
13.112024
 70
   192
  0
VERTEX
  8
0
 38
134.262882
 10
-292.380997
 20
11.913219
 70
   192
  0
VERTEX
  8
0
 38
134.262882
 10
-289.275169
 20
11.504329
 70
   192
  0
VERTEX
  8
0
 38
134.262882
 10
-286.16934
 20
11.913219
 70
   192
  0
VERTEX
  8
0
 38
134.262882
 10
-283.275169
 20
13.112024
 70
   192
  0
VERTEX
  8
0
 38
134.262882
 10
-280.789887
 20
15.019048
 70
   192
  0
VERTEX
  8
0
 38
134.262882
 10
-278.882864
 20
17.504329
 70
   192
  0
VERTEX
  8
0
 38
134.262882
 10
-277.684059
 20
20.398501
 70
   192
  0
VERTEX
  8
OBJECT_25
  6
CONTINUOUS
 62
   253
 10
0.0
 20
0.0
 70
   128
  0
VERTEX
  8
OBJECT_25
  6
CONTINUOUS
 62
   253
 10
0.0
 20
0.0
 70
   128
  0
VERTEX
  8
OBJECT_25
  6
CONTINUOUS
 62
   253
 10
0.0
 20
0.0
 70
   128
  0
VERTEX
  8
OBJECT_25
  6
CONTINUOUS
 62
   253
 10
0.0
 20
0.0
 70
   128
  0
VERTEX
  8
OBJECT_25
  6
CONTINUOUS
 62
   253
 10
0.0
 20
0.0
 70
   128
  0
VERTEX
  8
OBJECT_25
  6
CONTINUOUS
 62
   253
 10
0.0
 20
0.0
 70
   128
  0
VERTEX
  8
OBJECT_25
  6
CONTINUOUS
 62
   253
 10
0.0
 20
0.0
 70
   128
  0
VERTEX
  8
OBJECT_25
  6
CONTINUOUS
 62
   253
 10
0.0
 20
0.0
 70
   128
  0
VERTEX
  8
OBJECT_25
  6
CONTINUOUS
 62
   253
 10
0.0
 20
0.0
 70
   128
  0
VERTEX
  8
OBJECT_25
  6
CONTINUOUS
 62
   253
 10
0.0
 20
0.0
 70
   128
  0
VERTEX
  8
OBJECT_25
  6
CONTINUOUS
 62
   253
 10
0.0
 20
0.0
 70
   128
  0
VERTEX
  8
OBJECT_25
  6
CONTINUOUS
 62
   253
 10
0.0
 20
0.0
 70
   128
  0
VERTEX
  8
OBJECT_25
  6
CONTINUOUS
 62
   253
 10
0.0
 20
0.0
 70
   128
  0
VERTEX
  8
OBJECT_25
  6
CONTINUOUS
 62
   253
 10
0.0
 20
0.0
 70
   128
  0
VERTEX
  8
OBJECT_25
  6
CONTINUOUS
 62
   253
 10
0.0
 20
0.0
 70
   128
  0
VERTEX
  8
OBJECT_25
  6
CONTINUOUS
 62
   253
 10
0.0
 20
0.0
 70
   128
  0
VERTEX
  8
OBJECT_25
  6
CONTINUOUS
 62
   253
 10
0.0
 20
0.0
 70
   128
  0
VERTEX
  8
OBJECT_25
  6
CONTINUOUS
 62
   253
 10
0.0
 20
0.0
 70
   128
  0
VERTEX
  8
OBJECT_25
  6
CONTINUOUS
 62
   253
 10
0.0
 20
0.0
 70
   128
  0
VERTEX
  8
OBJECT_25
  6
CONTINUOUS
 62
   253
 10
0.0
 20
0.0
 70
   128
  0
VERTEX
  8
OBJECT_25
  6
CONTINUOUS
 62
   253
 10
0.0
 20
0.0
 70
   128
  0
VERTEX
  8
OBJECT_25
  6
CONTINUOUS
 62
   253
 10
0.0
 20
0.0
 70
   128
  0
VERTEX
  8
OBJECT_25
  6
CONTINUOUS
 62
   253
 10
0.0
 20
0.0
 70
   128
  0
VERTEX
  8
OBJECT_25
  6
CONTINUOUS
 62
   253
 10
0.0
 20
0.0
 70
   128
  0
VERTEX
  8
OBJECT_25
  6
CONTINUOUS
 62
   253
 10
0.0
 20
0.0
 70
   128
  0
VERTEX
  8
OBJECT_25
  6
CONTINUOUS
 62
   253
 10
0.0
 20
0.0
 70
   128
  0
VERTEX
  8
OBJECT_25
  6
CONTINUOUS
 62
   253
 10
0.0
 20
0.0
 70
   128
  0
VERTEX
  8
OBJECT_25
  6
CONTINUOUS
 62
   253
 10
0.0
 20
0.0
 70
   128
  0
VERTEX
  8
OBJECT_25
  6
CONTINUOUS
 62
   253
 10
0.0
 20
0.0
 70
   128
  0
VERTEX
  8
OBJECT_25
  6
CONTINUOUS
 62
   253
 10
0.0
 20
0.0
 70
   128
  0
VERTEX
  8
OBJECT_25
  6
CONTINUOUS
 62
   253
 10
0.0
 20
0.0
 70
   128
  0
VERTEX
  8
OBJECT_25
  6
CONTINUOUS
 62
   253
 10
0.0
 20
0.0
 70
   128
  0
VERTEX
  8
OBJECT_25
  6
CONTINUOUS
 62
   253
 10
0.0
 20
0.0
 70
   128
  0
VERTEX
  8
OBJECT_25
  6
CONTINUOUS
 62
   253
 10
0.0
 20
0.0
 70
   128
  0
VERTEX
  8
OBJECT_25
  6
CONTINUOUS
 62
   253
 10
0.0
 20
0.0
 70
   128
  0
VERTEX
  8
OBJECT_25
  6
CONTINUOUS
 62
   253
 10
0.0
 20
0.0
 70
   128
  0
VERTEX
  8
OBJECT_25
  6
CONTINUOUS
 62
   253
 10
0.0
 20
0.0
 70
   128
  0
VERTEX
  8
OBJECT_25
  6
CONTINUOUS
 62
   253
 10
0.0
 20
0.0
 70
   128
  0
VERTEX
  8
OBJECT_25
  6
CONTINUOUS
 62
   253
 10
0.0
 20
0.0
 70
   128
  0
VERTEX
  8
OBJECT_25
  6
CONTINUOUS
 62
   253
 10
0.0
 20
0.0
 70
   128
  0
VERTEX
  8
OBJECT_25
  6
CONTINUOUS
 62
   253
 10
0.0
 20
0.0
 70
   128
  0
VERTEX
  8
OBJECT_25
  6
CONTINUOUS
 62
   253
 10
0.0
 20
0.0
 70
   128
  0
VERTEX
  8
OBJECT_25
  6
CONTINUOUS
 62
   253
 10
0.0
 20
0.0
 70
   128
  0
VERTEX
  8
OBJECT_25
  6
CONTINUOUS
 62
   253
 10
0.0
 20
0.0
 70
   128
  0
VERTEX
  8
OBJECT_25
  6
CONTINUOUS
 62
   253
 10
0.0
 20
0.0
 70
   128
  0
VERTEX
  8
OBJECT_25
  6
CONTINUOUS
 62
   253
 10
0.0
 20
0.0
 70
   128
  0
SEQEND
  8
OBJECT_25
  6
CONTINUOUS
 62
   253
  0
POLYLINE
  8
OBJECT_26
  6
CONTINUOUS
 62
   253
 66
     1
 70
    64
  0
VERTEX
  8
0
 38
24.262882
 10
-228.749405
 20
23.504329
 70
   192
  0
VERTEX
  8
0
 38
24.262882
 10
-229.158295
 20
26.610158
 70
   192
  0
VERTEX
  8
0
 38
24.262882
 10
-230.3571
 20
29.504329
 70
   192
  0
VERTEX
  8
0
 38
24.262882
 10
-232.264124
 20
31.98961
 70
   192
  0
VERTEX
  8
0
 38
24.262882
 10
-234.749405
 20
33.896634
 70
   192
  0
VERTEX
  8
0
 38
24.262882
 10
-237.643577
 20
35.095439
 70
   192
  0
VERTEX
  8
0
 38
24.262882
 10
-240.749405
 20
35.504329
 70
   192
  0
VERTEX
  8
0
 38
24.262882
 10
-243.855234
 20
35.095439
 70
   192
  0
VERTEX
  8
0
 38
24.262882
 10
-246.749405
 20
33.896634
 70
   192
  0
VERTEX
  8
0
 38
24.262882
 10
-249.234686
 20
31.98961
 70
   192
  0
VERTEX
  8
0
 38
24.262882
 10
-251.14171
 20
29.504329
 70
   192
  0
VERTEX
  8
0
 38
24.262882
 10
-252.340515
 20
26.610158
 70
   192
  0
VERTEX
  8
0
 38
24.262882
 10
-252.749405
 20
23.504329
 70
   192
  0
VERTEX
  8
0
 38
24.262882
 10
-252.340515
 20
20.398501
 70
   192
  0
VERTEX
  8
0
 38
24.262882
 10
-251.14171
 20
17.504329
 70
   192
  0
VERTEX
  8
0
 38
24.262882
 10
-249.234686
 20
15.019048
 70
   192
  0
VERTEX
  8
0
 38
24.262882
 10
-246.749405
 20
13.112024
 70
   192
  0
VERTEX
  8
0
 38
24.262882
 10
-243.855234
 20
11.913219
 70
   192
  0
VERTEX
  8
0
 38
24.262882
 10
-240.749405
 20
11.504329
 70
   192
  0
VERTEX
  8
0
 38
24.262882
 10
-237.643577
 20
11.913219
 70
   192
  0
VERTEX
  8
0
 38
24.262882
 10
-234.749405
 20
13.112024
 70
   192
  0
VERTEX
  8
0
 38
24.262882
 10
-232.264124
 20
15.019048
 70
   192
  0
VERTEX
  8
0
 38
24.262882
 10
-230.3571
 20
17.504329
 70
   192
  0
VERTEX
  8
0
 38
24.262882
 10
-229.158295
 20
20.398501
 70
   192
  0
VERTEX
  8
0
 38
134.262882
 10
-228.749405
 20
23.504329
 70
   192
  0
VERTEX
  8
0
 38
134.262882
 10
-229.158295
 20
26.610158
 70
   192
  0
VERTEX
  8
0
 38
134.262882
 10
-230.3571
 20
29.504329
 70
   192
  0
VERTEX
  8
0
 38
134.262882
 10
-232.264124
 20
31.98961
 70
   192
  0
VERTEX
  8
0
 38
134.262882
 10
-234.749405
 20
33.896634
 70
   192
  0
VERTEX
  8
0
 38
134.262882
 10
-237.643577
 20
35.095439
 70
   192
  0
VERTEX
  8
0
 38
134.262882
 10
-240.749405
 20
35.504329
 70
   192
  0
VERTEX
  8
0
 38
134.262882
 10
-243.855234
 20
35.095439
 70
   192
  0
VERTEX
  8
0
 38
134.262882
 10
-246.749405
 20
33.896634
 70
   192
  0
VERTEX
  8
0
 38
134.262882
 10
-249.234686
 20
31.98961
 70
   192
  0
VERTEX
  8
0
 38
134.262882
 10
-251.14171
 20
29.504329
 70
   192
  0
VERTEX
  8
0
 38
134.262882
 10
-252.340515
 20
26.610158
 70
   192
  0
VERTEX
  8
0
 38
134.262882
 10
-252.749405
 20
23.504329
 70
   192
  0
VERTEX
  8
0
 38
134.262882
 10
-252.340515
 20
20.398501
 70
   192
  0
VERTEX
  8
0
 38
134.262882
 10
-251.14171
 20
17.504329
 70
   192
  0
VERTEX
  8
0
 38
134.262882
 10
-249.234686
 20
15.019048
 70
   192
  0
VERTEX
  8
0
 38
134.262882
 10
-246.749405
 20
13.112024
 70
   192
  0
VERTEX
  8
0
 38
134.262882
 10
-243.855234
 20
11.913219
 70
   192
  0
VERTEX
  8
0
 38
134.262882
 10
-240.749405
 20
11.504329
 70
   192
  0
VERTEX
  8
0
 38
134.262882
 10
-237.643577
 20
11.913219
 70
   192
  0
VERTEX
  8
0
 38
134.262882
 10
-234.749405
 20
13.112024
 70
   192
  0
VERTEX
  8
0
 38
134.262882
 10
-232.264124
 20
15.019048
 70
   192
  0
VERTEX
  8
0
 38
134.262882
 10
-230.3571
 20
17.504329
 70
   192
  0
VERTEX
  8
0
 38
134.262882
 10
-229.158295
 20
20.398501
 70
   192
  0
VERTEX
  8
OBJECT_26
  6
CONTINUOUS
 62
   253
 10
0.0
 20
0.0
 70
   128
  0
VERTEX
  8
OBJECT_26
  6
CONTINUOUS
 62
   253
 10
0.0
 20
0.0
 70
   128
  0
VERTEX
  8
OBJECT_26
  6
CONTINUOUS
 62
   253
 10
0.0
 20
0.0
 70
   128
  0
VERTEX
  8
OBJECT_26
  6
CONTINUOUS
 62
   253
 10
0.0
 20
0.0
 70
   128
  0
VERTEX
  8
OBJECT_26
  6
CONTINUOUS
 62
   253
 10
0.0
 20
0.0
 70
   128
  0
VERTEX
  8
OBJECT_26
  6
CONTINUOUS
 62
   253
 10
0.0
 20
0.0
 70
   128
  0
VERTEX
  8
OBJECT_26
  6
CONTINUOUS
 62
   253
 10
0.0
 20
0.0
 70
   128
  0
VERTEX
  8
OBJECT_26
  6
CONTINUOUS
 62
   253
 10
0.0
 20
0.0
 70
   128
  0
VERTEX
  8
OBJECT_26
  6
CONTINUOUS
 62
   253
 10
0.0
 20
0.0
 70
   128
  0
VERTEX
  8
OBJECT_26
  6
CONTINUOUS
 62
   253
 10
0.0
 20
0.0
 70
   128
  0
VERTEX
  8
OBJECT_26
  6
CONTINUOUS
 62
   253
 10
0.0
 20
0.0
 70
   128
  0
VERTEX
  8
OBJECT_26
  6
CONTINUOUS
 62
   253
 10
0.0
 20
0.0
 70
   128
  0
VERTEX
  8
OBJECT_26
  6
CONTINUOUS
 62
   253
 10
0.0
 20
0.0
 70
   128
  0
VERTEX
  8
OBJECT_26
  6
CONTINUOUS
 62
   253
 10
0.0
 20
0.0
 70
   128
  0
VERTEX
  8
OBJECT_26
  6
CONTINUOUS
 62
   253
 10
0.0
 20
0.0
 70
   128
  0
VERTEX
  8
OBJECT_26
  6
CONTINUOUS
 62
   253
 10
0.0
 20
0.0
 70
   128
  0
VERTEX
  8
OBJECT_26
  6
CONTINUOUS
 62
   253
 10
0.0
 20
0.0
 70
   128
  0
VERTEX
  8
OBJECT_26
  6
CONTINUOUS
 62
   253
 10
0.0
 20
0.0
 70
   128
  0
VERTEX
  8
OBJECT_26
  6
CONTINUOUS
 62
   253
 10
0.0
 20
0.0
 70
   128
  0
VERTEX
  8
OBJECT_26
  6
CONTINUOUS
 62
   253
 10
0.0
 20
0.0
 70
   128
  0
VERTEX
  8
OBJECT_26
  6
CONTINUOUS
 62
   253
 10
0.0
 20
0.0
 70
   128
  0
VERTEX
  8
OBJECT_26
  6
CONTINUOUS
 62
   253
 10
0.0
 20
0.0
 70
   128
  0
VERTEX
  8
OBJECT_26
  6
CONTINUOUS
 62
   253
 10
0.0
 20
0.0
 70
   128
  0
VERTEX
  8
OBJECT_26
  6
CONTINUOUS
 62
   253
 10
0.0
 20
0.0
 70
   128
  0
VERTEX
  8
OBJECT_26
  6
CONTINUOUS
 62
   253
 10
0.0
 20
0.0
 70
   128
  0
VERTEX
  8
OBJECT_26
  6
CONTINUOUS
 62
   253
 10
0.0
 20
0.0
 70
   128
  0
VERTEX
  8
OBJECT_26
  6
CONTINUOUS
 62
   253
 10
0.0
 20
0.0
 70
   128
  0
VERTEX
  8
OBJECT_26
  6
CONTINUOUS
 62
   253
 10
0.0
 20
0.0
 70
   128
  0
VERTEX
  8
OBJECT_26
  6
CONTINUOUS
 62
   253
 10
0.0
 20
0.0
 70
   128
  0
VERTEX
  8
OBJECT_26
  6
CONTINUOUS
 62
   253
 10
0.0
 20
0.0
 70
   128
  0
VERTEX
  8
OBJECT_26
  6
CONTINUOUS
 62
   253
 10
0.0
 20
0.0
 70
   128
  0
VERTEX
  8
OBJECT_26
  6
CONTINUOUS
 62
   253
 10
0.0
 20
0.0
 70
   128
  0
VERTEX
  8
OBJECT_26
  6
CONTINUOUS
 62
   253
 10
0.0
 20
0.0
 70
   128
  0
VERTEX
  8
OBJECT_26
  6
CONTINUOUS
 62
   253
 10
0.0
 20
0.0
 70
   128
  0
VERTEX
  8
OBJECT_26
  6
CONTINUOUS
 62
   253
 10
0.0
 20
0.0
 70
   128
  0
VERTEX
  8
OBJECT_26
  6
CONTINUOUS
 62
   253
 10
0.0
 20
0.0
 70
   128
  0
VERTEX
  8
OBJECT_26
  6
CONTINUOUS
 62
   253
 10
0.0
 20
0.0
 70
   128
  0
VERTEX
  8
OBJECT_26
  6
CONTINUOUS
 62
   253
 10
0.0
 20
0.0
 70
   128
  0
VERTEX
  8
OBJECT_26
  6
CONTINUOUS
 62
   253
 10
0.0
 20
0.0
 70
   128
  0
VERTEX
  8
OBJECT_26
  6
CONTINUOUS
 62
   253
 10
0.0
 20
0.0
 70
   128
  0
VERTEX
  8
OBJECT_26
  6
CONTINUOUS
 62
   253
 10
0.0
 20
0.0
 70
   128
  0
VERTEX
  8
OBJECT_26
  6
CONTINUOUS
 62
   253
 10
0.0
 20
0.0
 70
   128
  0
VERTEX
  8
OBJECT_26
  6
CONTINUOUS
 62
   253
 10
0.0
 20
0.0
 70
   128
  0
VERTEX
  8
OBJECT_26
  6
CONTINUOUS
 62
   253
 10
0.0
 20
0.0
 70
   128
  0
VERTEX
  8
OBJECT_26
  6
CONTINUOUS
 62
   253
 10
0.0
 20
0.0
 70
   128
  0
VERTEX
  8
OBJECT_26
  6
CONTINUOUS
 62
   253
 10
0.0
 20
0.0
 70
   128
  0
SEQEND
  8
OBJECT_26
  6
CONTINUOUS
 62
   253
  0
POLYLINE
  8
OBJECT_27
  6
CONTINUOUS
 62
   253
 66
     1
 70
    64
  0
VERTEX
  8
0
 38
24.262882
 10
155.625722
 20
-23.744441
 70
   192
  0
VERTEX
  8
0
 38
24.262882
 10
155.216832
 20
-20.638612
 70
   192
  0
VERTEX
  8
0
 38
24.262882
 10
154.018027
 20
-17.744441
 70
   192
  0
VERTEX
  8
0
 38
24.262882
 10
152.111003
 20
-15.259159
 70
   192
  0
VERTEX
  8
0
 38
24.262882
 10
149.625722
 20
-13.352136
 70
   192
  0
VERTEX
  8
0
 38
24.262882
 10
146.731551
 20
-12.153331
 70
   192
  0
VERTEX
  8
0
 38
24.262882
 10
143.625722
 20
-11.744441
 70
   192
  0
VERTEX
  8
0
 38
24.262882
 10
140.519894
 20
-12.153331
 70
   192
  0
VERTEX
  8
0
 38
24.262882
 10
137.625722
 20
-13.352136
 70
   192
  0
VERTEX
  8
0
 38
24.262882
 10
135.140441
 20
-15.259159
 70
   192
  0
VERTEX
  8
0
 38
24.262882
 10
133.233417
 20
-17.744441
 70
   192
  0
VERTEX
  8
0
 38
24.262882
 10
132.034612
 20
-20.638612
 70
   192
  0
VERTEX
  8
0
 38
24.262882
 10
131.625722
 20
-23.744441
 70
   192
  0
VERTEX
  8
0
 38
24.262882
 10
132.034612
 20
-26.850269
 70
   192
  0
VERTEX
  8
0
 38
24.262882
 10
133.233417
 20
-29.744441
 70
   192
  0
VERTEX
  8
0
 38
24.262882
 10
135.140441
 20
-32.229722
 70
   192
  0
VERTEX
  8
0
 38
24.262882
 10
137.625722
 20
-34.136746
 70
   192
  0
VERTEX
  8
0
 38
24.262882
 10
140.519894
 20
-35.335551
 70
   192
  0
VERTEX
  8
0
 38
24.262882
 10
143.625722
 20
-35.744441
 70
   192
  0
VERTEX
  8
0
 38
24.262882
 10
146.731551
 20
-35.335551
 70
   192
  0
VERTEX
  8
0
 38
24.262882
 10
149.625722
 20
-34.136746
 70
   192
  0
VERTEX
  8
0
 38
24.262882
 10
152.111003
 20
-32.229722
 70
   192
  0
VERTEX
  8
0
 38
24.262882
 10
154.018027
 20
-29.744441
 70
   192
  0
VERTEX
  8
0
 38
24.262882
 10
155.216832
 20
-26.850269
 70
   192
  0
VERTEX
  8
0
 38
134.262882
 10
155.625722
 20
-23.744441
 70
   192
  0
VERTEX
  8
0
 38
134.262882
 10
155.216832
 20
-20.638612
 70
   192
  0
VERTEX
  8
0
 38
134.262882
 10
154.018027
 20
-17.744441
 70
   192
  0
VERTEX
  8
0
 38
134.262882
 10
152.111003
 20
-15.259159
 70
   192
  0
VERTEX
  8
0
 38
134.262882
 10
149.625722
 20
-13.352136
 70
   192
  0
VERTEX
  8
0
 38
134.262882
 10
146.731551
 20
-12.153331
 70
   192
  0
VERTEX
  8
0
 38
134.262882
 10
143.625722
 20
-11.744441
 70
   192
  0
VERTEX
  8
0
 38
134.262882
 10
140.519894
 20
-12.153331
 70
   192
  0
VERTEX
  8
0
 38
134.262882
 10
137.625722
 20
-13.352136
 70
   192
  0
VERTEX
  8
0
 38
134.262882
 10
135.140441
 20
-15.259159
 70
   192
  0
VERTEX
  8
0
 38
134.262882
 10
133.233417
 20
-17.744441
 70
   192
  0
VERTEX
  8
0
 38
134.262882
 10
132.034612
 20
-20.638612
 70
   192
  0
VERTEX
  8
0
 38
134.262882
 10
131.625722
 20
-23.744441
 70
   192
  0
VERTEX
  8
0
 38
134.262882
 10
132.034612
 20
-26.850269
 70
   192
  0
VERTEX
  8
0
 38
134.262882
 10
133.233417
 20
-29.744441
 70
   192
  0
VERTEX
  8
0
 38
134.262882
 10
135.140441
 20
-32.229722
 70
   192
  0
VERTEX
  8
0
 38
134.262882
 10
137.625722
 20
-34.136746
 70
   192
  0
VERTEX
  8
0
 38
134.262882
 10
140.519894
 20
-35.335551
 70
   192
  0
VERTEX
  8
0
 38
134.262882
 10
143.625722
 20
-35.744441
 70
   192
  0
VERTEX
  8
0
 38
134.262882
 10
146.731551
 20
-35.335551
 70
   192
  0
VERTEX
  8
0
 38
134.262882
 10
149.625722
 20
-34.136746
 70
   192
  0
VERTEX
  8
0
 38
134.262882
 10
152.111003
 20
-32.229722
 70
   192
  0
VERTEX
  8
0
 38
134.262882
 10
154.018027
 20
-29.744441
 70
   192
  0
VERTEX
  8
0
 38
134.262882
 10
155.216832
 20
-26.850269
 70
   192
  0
VERTEX
  8
OBJECT_27
  6
CONTINUOUS
 62
   253
 10
0.0
 20
0.0
 70
   128
  0
VERTEX
  8
OBJECT_27
  6
CONTINUOUS
 62
   253
 10
0.0
 20
0.0
 70
   128
  0
VERTEX
  8
OBJECT_27
  6
CONTINUOUS
 62
   253
 10
0.0
 20
0.0
 70
   128
  0
VERTEX
  8
OBJECT_27
  6
CONTINUOUS
 62
   253
 10
0.0
 20
0.0
 70
   128
  0
VERTEX
  8
OBJECT_27
  6
CONTINUOUS
 62
   253
 10
0.0
 20
0.0
 70
   128
  0
VERTEX
  8
OBJECT_27
  6
CONTINUOUS
 62
   253
 10
0.0
 20
0.0
 70
   128
  0
VERTEX
  8
OBJECT_27
  6
CONTINUOUS
 62
   253
 10
0.0
 20
0.0
 70
   128
  0
VERTEX
  8
OBJECT_27
  6
CONTINUOUS
 62
   253
 10
0.0
 20
0.0
 70
   128
  0
VERTEX
  8
OBJECT_27
  6
CONTINUOUS
 62
   253
 10
0.0
 20
0.0
 70
   128
  0
VERTEX
  8
OBJECT_27
  6
CONTINUOUS
 62
   253
 10
0.0
 20
0.0
 70
   128
  0
VERTEX
  8
OBJECT_27
  6
CONTINUOUS
 62
   253
 10
0.0
 20
0.0
 70
   128
  0
VERTEX
  8
OBJECT_27
  6
CONTINUOUS
 62
   253
 10
0.0
 20
0.0
 70
   128
  0
VERTEX
  8
OBJECT_27
  6
CONTINUOUS
 62
   253
 10
0.0
 20
0.0
 70
   128
  0
VERTEX
  8
OBJECT_27
  6
CONTINUOUS
 62
   253
 10
0.0
 20
0.0
 70
   128
  0
VERTEX
  8
OBJECT_27
  6
CONTINUOUS
 62
   253
 10
0.0
 20
0.0
 70
   128
  0
VERTEX
  8
OBJECT_27
  6
CONTINUOUS
 62
   253
 10
0.0
 20
0.0
 70
   128
  0
VERTEX
  8
OBJECT_27
  6
CONTINUOUS
 62
   253
 10
0.0
 20
0.0
 70
   128
  0
VERTEX
  8
OBJECT_27
  6
CONTINUOUS
 62
   253
 10
0.0
 20
0.0
 70
   128
  0
VERTEX
  8
OBJECT_27
  6
CONTINUOUS
 62
   253
 10
0.0
 20
0.0
 70
   128
  0
VERTEX
  8
OBJECT_27
  6
CONTINUOUS
 62
   253
 10
0.0
 20
0.0
 70
   128
  0
VERTEX
  8
OBJECT_27
  6
CONTINUOUS
 62
   253
 10
0.0
 20
0.0
 70
   128
  0
VERTEX
  8
OBJECT_27
  6
CONTINUOUS
 62
   253
 10
0.0
 20
0.0
 70
   128
  0
VERTEX
  8
OBJECT_27
  6
CONTINUOUS
 62
   253
 10
0.0
 20
0.0
 70
   128
  0
VERTEX
  8
OBJECT_27
  6
CONTINUOUS
 62
   253
 10
0.0
 20
0.0
 70
   128
  0
VERTEX
  8
OBJECT_27
  6
CONTINUOUS
 62
   253
 10
0.0
 20
0.0
 70
   128
  0
VERTEX
  8
OBJECT_27
  6
CONTINUOUS
 62
   253
 10
0.0
 20
0.0
 70
   128
  0
VERTEX
  8
OBJECT_27
  6
CONTINUOUS
 62
   253
 10
0.0
 20
0.0
 70
   128
  0
VERTEX
  8
OBJECT_27
  6
CONTINUOUS
 62
   253
 10
0.0
 20
0.0
 70
   128
  0
VERTEX
  8
OBJECT_27
  6
CONTINUOUS
 62
   253
 10
0.0
 20
0.0
 70
   128
  0
VERTEX
  8
OBJECT_27
  6
CONTINUOUS
 62
   253
 10
0.0
 20
0.0
 70
   128
  0
VERTEX
  8
OBJECT_27
  6
CONTINUOUS
 62
   253
 10
0.0
 20
0.0
 70
   128
  0
VERTEX
  8
OBJECT_27
  6
CONTINUOUS
 62
   253
 10
0.0
 20
0.0
 70
   128
  0
VERTEX
  8
OBJECT_27
  6
CONTINUOUS
 62
   253
 10
0.0
 20
0.0
 70
   128
  0
VERTEX
  8
OBJECT_27
  6
CONTINUOUS
 62
   253
 10
0.0
 20
0.0
 70
   128
  0
VERTEX
  8
OBJECT_27
  6
CONTINUOUS
 62
   253
 10
0.0
 20
0.0
 70
   128
  0
VERTEX
  8
OBJECT_27
  6
CONTINUOUS
 62
   253
 10
0.0
 20
0.0
 70
   128
  0
VERTEX
  8
OBJECT_27
  6
CONTINUOUS
 62
   253
 10
0.0
 20
0.0
 70
   128
  0
VERTEX
  8
OBJECT_27
  6
CONTINUOUS
 62
   253
 10
0.0
 20
0.0
 70
   128
  0
VERTEX
  8
OBJECT_27
  6
CONTINUOUS
 62
   253
 10
0.0
 20
0.0
 70
   128
  0
VERTEX
  8
OBJECT_27
  6
CONTINUOUS
 62
   253
 10
0.0
 20
0.0
 70
   128
  0
VERTEX
  8
OBJECT_27
  6
CONTINUOUS
 62
   253
 10
0.0
 20
0.0
 70
   128
  0
VERTEX
  8
OBJECT_27
  6
CONTINUOUS
 62
   253
 10
0.0
 20
0.0
 70
   128
  0
VERTEX
  8
OBJECT_27
  6
CONTINUOUS
 62
   253
 10
0.0
 20
0.0
 70
   128
  0
VERTEX
  8
OBJECT_27
  6
CONTINUOUS
 62
   253
 10
0.0
 20
0.0
 70
   128
  0
VERTEX
  8
OBJECT_27
  6
CONTINUOUS
 62
   253
 10
0.0
 20
0.0
 70
   128
  0
VERTEX
  8
OBJECT_27
  6
CONTINUOUS
 62
   253
 10
0.0
 20
0.0
 70
   128
  0
SEQEND
  8
OBJECT_27
  6
CONTINUOUS
 62
   253
  0
POLYLINE
  8
OBJECT_28
  6
CONTINUOUS
 62
   253
 66
     1
 70
    64
  0
VERTEX
  8
0
 38
-24.262882
 10
155.625722
 20
-23.744441
 70
   192
  0
VERTEX
  8
0
 38
-24.262882
 10
155.216832
 20
-20.638612
 70
   192
  0
VERTEX
  8
0
 38
-24.262882
 10
154.018027
 20
-17.744441
 70
   192
  0
VERTEX
  8
0
 38
-24.262882
 10
152.111003
 20
-15.259159
 70
   192
  0
VERTEX
  8
0
 38
-24.262882
 10
149.625722
 20
-13.352136
 70
   192
  0
VERTEX
  8
0
 38
-24.262882
 10
146.731551
 20
-12.153331
 70
   192
  0
VERTEX
  8
0
 38
-24.262882
 10
143.625722
 20
-11.744441
 70
   192
  0
VERTEX
  8
0
 38
-24.262882
 10
140.519894
 20
-12.153331
 70
   192
  0
VERTEX
  8
0
 38
-24.262882
 10
137.625722
 20
-13.352136
 70
   192
  0
VERTEX
  8
0
 38
-24.262882
 10
135.140441
 20
-15.259159
 70
   192
  0
VERTEX
  8
0
 38
-24.262882
 10
133.233417
 20
-17.744441
 70
   192
  0
VERTEX
  8
0
 38
-24.262882
 10
132.034612
 20
-20.638612
 70
   192
  0
VERTEX
  8
0
 38
-24.262882
 10
131.625722
 20
-23.744441
 70
   192
  0
VERTEX
  8
0
 38
-24.262882
 10
132.034612
 20
-26.850269
 70
   192
  0
VERTEX
  8
0
 38
-24.262882
 10
133.233417
 20
-29.744441
 70
   192
  0
VERTEX
  8
0
 38
-24.262882
 10
135.140441
 20
-32.229722
 70
   192
  0
VERTEX
  8
0
 38
-24.262882
 10
137.625722
 20
-34.136746
 70
   192
  0
VERTEX
  8
0
 38
-24.262882
 10
140.519894
 20
-35.335551
 70
   192
  0
VERTEX
  8
0
 38
-24.262882
 10
143.625722
 20
-35.744441
 70
   192
  0
VERTEX
  8
0
 38
-24.262882
 10
146.731551
 20
-35.335551
 70
   192
  0
VERTEX
  8
0
 38
-24.262882
 10
149.625722
 20
-34.136746
 70
   192
  0
VERTEX
  8
0
 38
-24.262882
 10
152.111003
 20
-32.229722
 70
   192
  0
VERTEX
  8
0
 38
-24.262882
 10
154.018027
 20
-29.744441
 70
   192
  0
VERTEX
  8
0
 38
-24.262882
 10
155.216832
 20
-26.850269
 70
   192
  0
VERTEX
  8
0
 38
23.737118
 10
155.625722
 20
-23.744441
 70
   192
  0
VERTEX
  8
0
 38
23.737118
 10
155.216832
 20
-20.638612
 70
   192
  0
VERTEX
  8
0
 38
23.737118
 10
154.018027
 20
-17.744441
 70
   192
  0
VERTEX
  8
0
 38
23.737118
 10
152.111003
 20
-15.259159
 70
   192
  0
VERTEX
  8
0
 38
23.737118
 10
149.625722
 20
-13.352136
 70
   192
  0
VERTEX
  8
0
 38
23.737118
 10
146.731551
 20
-12.153331
 70
   192
  0
VERTEX
  8
0
 38
23.737118
 10
143.625722
 20
-11.744441
 70
   192
  0
VERTEX
  8
0
 38
23.737118
 10
140.519894
 20
-12.153331
 70
   192
  0
VERTEX
  8
0
 38
23.737118
 10
137.625722
 20
-13.352136
 70
   192
  0
VERTEX
  8
0
 38
23.737118
 10
135.140441
 20
-15.259159
 70
   192
  0
VERTEX
  8
0
 38
23.737118
 10
133.233417
 20
-17.744441
 70
   192
  0
VERTEX
  8
0
 38
23.737118
 10
132.034612
 20
-20.638612
 70
   192
  0
VERTEX
  8
0
 38
23.737118
 10
131.625722
 20
-23.744441
 70
   192
  0
VERTEX
  8
0
 38
23.737118
 10
132.034612
 20
-26.850269
 70
   192
  0
VERTEX
  8
0
 38
23.737118
 10
133.233417
 20
-29.744441
 70
   192
  0
VERTEX
  8
0
 38
23.737118
 10
135.140441
 20
-32.229722
 70
   192
  0
VERTEX
  8
0
 38
23.737118
 10
137.625722
 20
-34.136746
 70
   192
  0
VERTEX
  8
0
 38
23.737118
 10
140.519894
 20
-35.335551
 70
   192
  0
VERTEX
  8
0
 38
23.737118
 10
143.625722
 20
-35.744441
 70
   192
  0
VERTEX
  8
0
 38
23.737118
 10
146.731551
 20
-35.335551
 70
   192
  0
VERTEX
  8
0
 38
23.737118
 10
149.625722
 20
-34.136746
 70
   192
  0
VERTEX
  8
0
 38
23.737118
 10
152.111003
 20
-32.229722
 70
   192
  0
VERTEX
  8
0
 38
23.737118
 10
154.018027
 20
-29.744441
 70
   192
  0
VERTEX
  8
0
 38
23.737118
 10
155.216832
 20
-26.850269
 70
   192
  0
VERTEX
  8
OBJECT_28
  6
CONTINUOUS
 62
   253
 10
0.0
 20
0.0
 70
   128
  0
VERTEX
  8
OBJECT_28
  6
CONTINUOUS
 62
   253
 10
0.0
 20
0.0
 70
   128
  0
VERTEX
  8
OBJECT_28
  6
CONTINUOUS
 62
   253
 10
0.0
 20
0.0
 70
   128
  0
VERTEX
  8
OBJECT_28
  6
CONTINUOUS
 62
   253
 10
0.0
 20
0.0
 70
   128
  0
VERTEX
  8
OBJECT_28
  6
CONTINUOUS
 62
   253
 10
0.0
 20
0.0
 70
   128
  0
VERTEX
  8
OBJECT_28
  6
CONTINUOUS
 62
   253
 10
0.0
 20
0.0
 70
   128
  0
VERTEX
  8
OBJECT_28
  6
CONTINUOUS
 62
   253
 10
0.0
 20
0.0
 70
   128
  0
VERTEX
  8
OBJECT_28
  6
CONTINUOUS
 62
   253
 10
0.0
 20
0.0
 70
   128
  0
VERTEX
  8
OBJECT_28
  6
CONTINUOUS
 62
   253
 10
0.0
 20
0.0
 70
   128
  0
VERTEX
  8
OBJECT_28
  6
CONTINUOUS
 62
   253
 10
0.0
 20
0.0
 70
   128
  0
VERTEX
  8
OBJECT_28
  6
CONTINUOUS
 62
   253
 10
0.0
 20
0.0
 70
   128
  0
VERTEX
  8
OBJECT_28
  6
CONTINUOUS
 62
   253
 10
0.0
 20
0.0
 70
   128
  0
VERTEX
  8
OBJECT_28
  6
CONTINUOUS
 62
   253
 10
0.0
 20
0.0
 70
   128
  0
VERTEX
  8
OBJECT_28
  6
CONTINUOUS
 62
   253
 10
0.0
 20
0.0
 70
   128
  0
VERTEX
  8
OBJECT_28
  6
CONTINUOUS
 62
   253
 10
0.0
 20
0.0
 70
   128
  0
VERTEX
  8
OBJECT_28
  6
CONTINUOUS
 62
   253
 10
0.0
 20
0.0
 70
   128
  0
VERTEX
  8
OBJECT_28
  6
CONTINUOUS
 62
   253
 10
0.0
 20
0.0
 70
   128
  0
VERTEX
  8
OBJECT_28
  6
CONTINUOUS
 62
   253
 10
0.0
 20
0.0
 70
   128
  0
VERTEX
  8
OBJECT_28
  6
CONTINUOUS
 62
   253
 10
0.0
 20
0.0
 70
   128
  0
VERTEX
  8
OBJECT_28
  6
CONTINUOUS
 62
   253
 10
0.0
 20
0.0
 70
   128
  0
VERTEX
  8
OBJECT_28
  6
CONTINUOUS
 62
   253
 10
0.0
 20
0.0
 70
   128
  0
VERTEX
  8
OBJECT_28
  6
CONTINUOUS
 62
   253
 10
0.0
 20
0.0
 70
   128
  0
VERTEX
  8
OBJECT_28
  6
CONTINUOUS
 62
   253
 10
0.0
 20
0.0
 70
   128
  0
VERTEX
  8
OBJECT_28
  6
CONTINUOUS
 62
   253
 10
0.0
 20
0.0
 70
   128
  0
VERTEX
  8
OBJECT_28
  6
CONTINUOUS
 62
   253
 10
0.0
 20
0.0
 70
   128
  0
VERTEX
  8
OBJECT_28
  6
CONTINUOUS
 62
   253
 10
0.0
 20
0.0
 70
   128
  0
VERTEX
  8
OBJECT_28
  6
CONTINUOUS
 62
   253
 10
0.0
 20
0.0
 70
   128
  0
VERTEX
  8
OBJECT_28
  6
CONTINUOUS
 62
   253
 10
0.0
 20
0.0
 70
   128
  0
VERTEX
  8
OBJECT_28
  6
CONTINUOUS
 62
   253
 10
0.0
 20
0.0
 70
   128
  0
VERTEX
  8
OBJECT_28
  6
CONTINUOUS
 62
   253
 10
0.0
 20
0.0
 70
   128
  0
VERTEX
  8
OBJECT_28
  6
CONTINUOUS
 62
   253
 10
0.0
 20
0.0
 70
   128
  0
VERTEX
  8
OBJECT_28
  6
CONTINUOUS
 62
   253
 10
0.0
 20
0.0
 70
   128
  0
VERTEX
  8
OBJECT_28
  6
CONTINUOUS
 62
   253
 10
0.0
 20
0.0
 70
   128
  0
VERTEX
  8
OBJECT_28
  6
CONTINUOUS
 62
   253
 10
0.0
 20
0.0
 70
   128
  0
VERTEX
  8
OBJECT_28
  6
CONTINUOUS
 62
   253
 10
0.0
 20
0.0
 70
   128
  0
VERTEX
  8
OBJECT_28
  6
CONTINUOUS
 62
   253
 10
0.0
 20
0.0
 70
   128
  0
VERTEX
  8
OBJECT_28
  6
CONTINUOUS
 62
   253
 10
0.0
 20
0.0
 70
   128
  0
VERTEX
  8
OBJECT_28
  6
CONTINUOUS
 62
   253
 10
0.0
 20
0.0
 70
   128
  0
VERTEX
  8
OBJECT_28
  6
CONTINUOUS
 62
   253
 10
0.0
 20
0.0
 70
   128
  0
VERTEX
  8
OBJECT_28
  6
CONTINUOUS
 62
   253
 10
0.0
 20
0.0
 70
   128
  0
VERTEX
  8
OBJECT_28
  6
CONTINUOUS
 62
   253
 10
0.0
 20
0.0
 70
   128
  0
VERTEX
  8
OBJECT_28
  6
CONTINUOUS
 62
   253
 10
0.0
 20
0.0
 70
   128
  0
VERTEX
  8
OBJECT_28
  6
CONTINUOUS
 62
   253
 10
0.0
 20
0.0
 70
   128
  0
VERTEX
  8
OBJECT_28
  6
CONTINUOUS
 62
   253
 10
0.0
 20
0.0
 70
   128
  0
VERTEX
  8
OBJECT_28
  6
CONTINUOUS
 62
   253
 10
0.0
 20
0.0
 70
   128
  0
VERTEX
  8
OBJECT_28
  6
CONTINUOUS
 62
   253
 10
0.0
 20
0.0
 70
   128
  0
SEQEND
  8
OBJECT_28
  6
CONTINUOUS
 62
   253
  0
POLYLINE
  8
OBJECT_33
  6
CONTINUOUS
 62
   253
 66
     1
 70
    64
  0
VERTEX
  8
0
 38
-116.877061
 10
163.773599
 20
-36.004438
 70
   192
  0
VERTEX
  8
0
 38
-116.877061
 10
163.569154
 20
-34.451523
 70
   192
  0
VERTEX
  8
0
 38
-116.877061
 10
162.969751
 20
-33.004438
 70
   192
  0
VERTEX
  8
0
 38
-116.877061
 10
162.01624
 20
-31.761797
 70
   192
  0
VERTEX
  8
0
 38
-116.877061
 10
160.773599
 20
-30.808285
 70
   192
  0
VERTEX
  8
0
 38
-116.877061
 10
159.326513
 20
-30.208883
 70
   192
  0
VERTEX
  8
0
 38
-116.877061
 10
157.773599
 20
-30.004438
 70
   192
  0
VERTEX
  8
0
 38
-116.877061
 10
156.220685
 20
-30.208883
 70
   192
  0
VERTEX
  8
0
 38
-116.877061
 10
154.773599
 20
-30.808285
 70
   192
  0
VERTEX
  8
0
 38
-116.877061
 10
153.530958
 20
-31.761797
 70
   192
  0
VERTEX
  8
0
 38
-116.877061
 10
152.577446
 20
-33.004438
 70
   192
  0
VERTEX
  8
0
 38
-116.877061
 10
151.978044
 20
-34.451523
 70
   192
  0
VERTEX
  8
0
 38
-116.877061
 10
151.773599
 20
-36.004438
 70
   192
  0
VERTEX
  8
0
 38
-116.877061
 10
151.978044
 20
-37.557352
 70
   192
  0
VERTEX
  8
0
 38
-116.877061
 10
152.577446
 20
-39.004438
 70
   192
  0
VERTEX
  8
0
 38
-116.877061
 10
153.530958
 20
-40.247078
 70
   192
  0
VERTEX
  8
0
 38
-116.877061
 10
154.773599
 20
-41.20059
 70
   192
  0
VERTEX
  8
0
 38
-116.877061
 10
156.220685
 20
-41.799993
 70
   192
  0
VERTEX
  8
0
 38
-116.877061
 10
157.773599
 20
-42.004438
 70
   192
  0
VERTEX
  8
0
 38
-116.877061
 10
159.326513
 20
-41.799993
 70
   192
  0
VERTEX
  8
0
 38
-116.877061
 10
160.773599
 20
-41.20059
 70
   192
  0
VERTEX
  8
0
 38
-116.877061
 10
162.01624
 20
-40.247078
 70
   192
  0
VERTEX
  8
0
 38
-116.877061
 10
162.969751
 20
-39.004438
 70
   192
  0
VERTEX
  8
0
 38
-116.877061
 10
163.569154
 20
-37.557352
 70
   192
  0
VERTEX
  8
0
 38
-83.877061
 10
163.773599
 20
-36.004438
 70
   192
  0
VERTEX
  8
0
 38
-83.877061
 10
163.569154
 20
-34.451523
 70
   192
  0
VERTEX
  8
0
 38
-83.877061
 10
162.969751
 20
-33.004438
 70
   192
  0
VERTEX
  8
0
 38
-83.877061
 10
162.01624
 20
-31.761797
 70
   192
  0
VERTEX
  8
0
 38
-83.877061
 10
160.773599
 20
-30.808285
 70
   192
  0
VERTEX
  8
0
 38
-83.877061
 10
159.326513
 20
-30.208883
 70
   192
  0
VERTEX
  8
0
 38
-83.877061
 10
157.773599
 20
-30.004438
 70
   192
  0
VERTEX
  8
0
 38
-83.877061
 10
156.220685
 20
-30.208883
 70
   192
  0
VERTEX
  8
0
 38
-83.877061
 10
154.773599
 20
-30.808285
 70
   192
  0
VERTEX
  8
0
 38
-83.877061
 10
153.530958
 20
-31.761797
 70
   192
  0
VERTEX
  8
0
 38
-83.877061
 10
152.577446
 20
-33.004438
 70
   192
  0
VERTEX
  8
0
 38
-83.877061
 10
151.978044
 20
-34.451523
 70
   192
  0
VERTEX
  8
0
 38
-83.877061
 10
151.773599
 20
-36.004438
 70
   192
  0
VERTEX
  8
0
 38
-83.877061
 10
151.978044
 20
-37.557352
 70
   192
  0
VERTEX
  8
0
 38
-83.877061
 10
152.577446
 20
-39.004438
 70
   192
  0
VERTEX
  8
0
 38
-83.877061
 10
153.530958
 20
-40.247078
 70
   192
  0
VERTEX
  8
0
 38
-83.877061
 10
154.773599
 20
-41.20059
 70
   192
  0
VERTEX
  8
0
 38
-83.877061
 10
156.220685
 20
-41.799993
 70
   192
  0
VERTEX
  8
0
 38
-83.877061
 10
157.773599
 20
-42.004438
 70
   192
  0
VERTEX
  8
0
 38
-83.877061
 10
159.326513
 20
-41.799993
 70
   192
  0
VERTEX
  8
0
 38
-83.877061
 10
160.773599
 20
-41.20059
 70
   192
  0
VERTEX
  8
0
 38
-83.877061
 10
162.01624
 20
-40.247078
 70
   192
  0
VERTEX
  8
0
 38
-83.877061
 10
162.969751
 20
-39.004438
 70
   192
  0
VERTEX
  8
0
 38
-83.877061
 10
163.569154
 20
-37.557352
 70
   192
  0
VERTEX
  8
OBJECT_33
  6
CONTINUOUS
 62
   253
 10
0.0
 20
0.0
 70
   128
  0
VERTEX
  8
OBJECT_33
  6
CONTINUOUS
 62
   253
 10
0.0
 20
0.0
 70
   128
  0
VERTEX
  8
OBJECT_33
  6
CONTINUOUS
 62
   253
 10
0.0
 20
0.0
 70
   128
  0
VERTEX
  8
OBJECT_33
  6
CONTINUOUS
 62
   253
 10
0.0
 20
0.0
 70
   128
  0
VERTEX
  8
OBJECT_33
  6
CONTINUOUS
 62
   253
 10
0.0
 20
0.0
 70
   128
  0
VERTEX
  8
OBJECT_33
  6
CONTINUOUS
 62
   253
 10
0.0
 20
0.0
 70
   128
  0
VERTEX
  8
OBJECT_33
  6
CONTINUOUS
 62
   253
 10
0.0
 20
0.0
 70
   128
  0
VERTEX
  8
OBJECT_33
  6
CONTINUOUS
 62
   253
 10
0.0
 20
0.0
 70
   128
  0
VERTEX
  8
OBJECT_33
  6
CONTINUOUS
 62
   253
 10
0.0
 20
0.0
 70
   128
  0
VERTEX
  8
OBJECT_33
  6
CONTINUOUS
 62
   253
 10
0.0
 20
0.0
 70
   128
  0
VERTEX
  8
OBJECT_33
  6
CONTINUOUS
 62
   253
 10
0.0
 20
0.0
 70
   128
  0
VERTEX
  8
OBJECT_33
  6
CONTINUOUS
 62
   253
 10
0.0
 20
0.0
 70
   128
  0
VERTEX
  8
OBJECT_33
  6
CONTINUOUS
 62
   253
 10
0.0
 20
0.0
 70
   128
  0
VERTEX
  8
OBJECT_33
  6
CONTINUOUS
 62
   253
 10
0.0
 20
0.0
 70
   128
  0
VERTEX
  8
OBJECT_33
  6
CONTINUOUS
 62
   253
 10
0.0
 20
0.0
 70
   128
  0
VERTEX
  8
OBJECT_33
  6
CONTINUOUS
 62
   253
 10
0.0
 20
0.0
 70
   128
  0
VERTEX
  8
OBJECT_33
  6
CONTINUOUS
 62
   253
 10
0.0
 20
0.0
 70
   128
  0
VERTEX
  8
OBJECT_33
  6
CONTINUOUS
 62
   253
 10
0.0
 20
0.0
 70
   128
  0
VERTEX
  8
OBJECT_33
  6
CONTINUOUS
 62
   253
 10
0.0
 20
0.0
 70
   128
  0
VERTEX
  8
OBJECT_33
  6
CONTINUOUS
 62
   253
 10
0.0
 20
0.0
 70
   128
  0
VERTEX
  8
OBJECT_33
  6
CONTINUOUS
 62
   253
 10
0.0
 20
0.0
 70
   128
  0
VERTEX
  8
OBJECT_33
  6
CONTINUOUS
 62
   253
 10
0.0
 20
0.0
 70
   128
  0
VERTEX
  8
OBJECT_33
  6
CONTINUOUS
 62
   253
 10
0.0
 20
0.0
 70
   128
  0
VERTEX
  8
OBJECT_33
  6
CONTINUOUS
 62
   253
 10
0.0
 20
0.0
 70
   128
  0
VERTEX
  8
OBJECT_33
  6
CONTINUOUS
 62
   253
 10
0.0
 20
0.0
 70
   128
  0
VERTEX
  8
OBJECT_33
  6
CONTINUOUS
 62
   253
 10
0.0
 20
0.0
 70
   128
  0
VERTEX
  8
OBJECT_33
  6
CONTINUOUS
 62
   253
 10
0.0
 20
0.0
 70
   128
  0
VERTEX
  8
OBJECT_33
  6
CONTINUOUS
 62
   253
 10
0.0
 20
0.0
 70
   128
  0
VERTEX
  8
OBJECT_33
  6
CONTINUOUS
 62
   253
 10
0.0
 20
0.0
 70
   128
  0
VERTEX
  8
OBJECT_33
  6
CONTINUOUS
 62
   253
 10
0.0
 20
0.0
 70
   128
  0
VERTEX
  8
OBJECT_33
  6
CONTINUOUS
 62
   253
 10
0.0
 20
0.0
 70
   128
  0
VERTEX
  8
OBJECT_33
  6
CONTINUOUS
 62
   253
 10
0.0
 20
0.0
 70
   128
  0
VERTEX
  8
OBJECT_33
  6
CONTINUOUS
 62
   253
 10
0.0
 20
0.0
 70
   128
  0
VERTEX
  8
OBJECT_33
  6
CONTINUOUS
 62
   253
 10
0.0
 20
0.0
 70
   128
  0
VERTEX
  8
OBJECT_33
  6
CONTINUOUS
 62
   253
 10
0.0
 20
0.0
 70
   128
  0
VERTEX
  8
OBJECT_33
  6
CONTINUOUS
 62
   253
 10
0.0
 20
0.0
 70
   128
  0
VERTEX
  8
OBJECT_33
  6
CONTINUOUS
 62
   253
 10
0.0
 20
0.0
 70
   128
  0
VERTEX
  8
OBJECT_33
  6
CONTINUOUS
 62
   253
 10
0.0
 20
0.0
 70
   128
  0
VERTEX
  8
OBJECT_33
  6
CONTINUOUS
 62
   253
 10
0.0
 20
0.0
 70
   128
  0
VERTEX
  8
OBJECT_33
  6
CONTINUOUS
 62
   253
 10
0.0
 20
0.0
 70
   128
  0
VERTEX
  8
OBJECT_33
  6
CONTINUOUS
 62
   253
 10
0.0
 20
0.0
 70
   128
  0
VERTEX
  8
OBJECT_33
  6
CONTINUOUS
 62
   253
 10
0.0
 20
0.0
 70
   128
  0
VERTEX
  8
OBJECT_33
  6
CONTINUOUS
 62
   253
 10
0.0
 20
0.0
 70
   128
  0
VERTEX
  8
OBJECT_33
  6
CONTINUOUS
 62
   253
 10
0.0
 20
0.0
 70
   128
  0
VERTEX
  8
OBJECT_33
  6
CONTINUOUS
 62
   253
 10
0.0
 20
0.0
 70
   128
  0
VERTEX
  8
OBJECT_33
  6
CONTINUOUS
 62
   253
 10
0.0
 20
0.0
 70
   128
  0
SEQEND
  8
OBJECT_33
  6
CONTINUOUS
 62
   253
  0
POLYLINE
  8
OBJECT_34
  6
CONTINUOUS
 62
   253
 66
     1
 70
    64
  0
VERTEX
  8
0
 38
-128.789886
 10
168.921546
 20
-43.045572
 70
   192
  0
VERTEX
  8
0
 38
-127.236972
 10
168.747509
 20
-43.152851
 70
   192
  0
VERTEX
  8
0
 38
-125.789886
 10
168.237259
 20
-43.467379
 70
   192
  0
VERTEX
  8
0
 38
-124.547246
 10
167.425567
 20
-43.96772
 70
   192
  0
VERTEX
  8
0
 38
-123.593734
 10
166.36775
 20
-44.619778
 70
   192
  0
VERTEX
  8
0
 38
-122.994331
 10
165.135896
 20
-45.379115
 70
   192
  0
VERTEX
  8
0
 38
-122.789886
 10
163.813954
 20
-46.193984
 70
   192
  0
VERTEX
  8
0
 38
-122.994331
 10
162.492012
 20
-47.008853
 70
   192
  0
VERTEX
  8
0
 38
-123.593734
 10
161.260158
 20
-47.768191
 70
   192
  0
VERTEX
  8
0
 38
-124.547246
 10
160.202341
 20
-48.420248
 70
   192
  0
VERTEX
  8
0
 38
-125.789886
 10
159.390649
 20
-48.92059
 70
   192
  0
VERTEX
  8
0
 38
-127.236972
 10
158.880399
 20
-49.235117
 70
   192
  0
VERTEX
  8
0
 38
-128.789886
 10
158.706362
 20
-49.342397
 70
   192
  0
VERTEX
  8
0
 38
-130.342801
 10
158.880399
 20
-49.235117
 70
   192
  0
VERTEX
  8
0
 38
-131.789886
 10
159.390649
 20
-48.92059
 70
   192
  0
VERTEX
  8
0
 38
-133.032527
 10
160.202341
 20
-48.420248
 70
   192
  0
VERTEX
  8
0
 38
-133.986039
 10
161.260158
 20
-47.768191
 70
   192
  0
VERTEX
  8
0
 38
-134.585441
 10
162.492012
 20
-47.008853
 70
   192
  0
VERTEX
  8
0
 38
-134.789886
 10
163.813954
 20
-46.193984
 70
   192
  0
VERTEX
  8
0
 38
-134.585441
 10
165.135896
 20
-45.379115
 70
   192
  0
VERTEX
  8
0
 38
-133.986039
 10
166.36775
 20
-44.619778
 70
   192
  0
VERTEX
  8
0
 38
-133.032527
 10
167.425567
 20
-43.96772
 70
   192
  0
VERTEX
  8
0
 38
-131.789886
 10
168.237259
 20
-43.467379
 70
   192
  0
VERTEX
  8
0
 38
-130.342801
 10
168.747509
 20
-43.152851
 70
   192
  0
VERTEX
  8
0
 38
-128.789886
 10
345.232652
 20
-329.070735
 70
   192
  0
VERTEX
  8
0
 38
-127.236972
 10
345.058615
 20
-329.178014
 70
   192
  0
VERTEX
  8
0
 38
-125.789886
 10
344.548364
 20
-329.492542
 70
   192
  0
VERTEX
  8
0
 38
-124.547246
 10
343.736673
 20
-329.992884
 70
   192
  0
VERTEX
  8
0
 38
-123.593734
 10
342.678856
 20
-330.644941
 70
   192
  0
VERTEX
  8
0
 38
-122.994331
 10
341.447002
 20
-331.404278
 70
   192
  0
VERTEX
  8
0
 38
-122.789886
 10
340.12506
 20
-332.219147
 70
   192
  0
VERTEX
  8
0
 38
-122.994331
 10
338.803118
 20
-333.034017
 70
   192
  0
VERTEX
  8
0
 38
-123.593734
 10
337.571264
 20
-333.793354
 70
   192
  0
VERTEX
  8
0
 38
-124.547246
 10
336.513447
 20
-334.445411
 70
   192
  0
VERTEX
  8
0
 38
-125.789886
 10
335.701755
 20
-334.945753
 70
   192
  0
VERTEX
  8
0
 38
-127.236972
 10
335.191504
 20
-335.26028
 70
   192
  0
VERTEX
  8
0
 38
-128.789886
 10
335.017467
 20
-335.36756
 70
   192
  0
VERTEX
  8
0
 38
-130.342801
 10
335.191504
 20
-335.26028
 70
   192
  0
VERTEX
  8
0
 38
-131.789886
 10
335.701755
 20
-334.945753
 70
   192
  0
VERTEX
  8
0
 38
-133.032527
 10
336.513447
 20
-334.445411
 70
   192
  0
VERTEX
  8
0
 38
-133.986039
 10
337.571264
 20
-333.793354
 70
   192
  0
VERTEX
  8
0
 38
-134.585441
 10
338.803118
 20
-333.034017
 70
   192
  0
VERTEX
  8
0
 38
-134.789886
 10
340.12506
 20
-332.219147
 70
   192
  0
VERTEX
  8
0
 38
-134.585441
 10
341.447002
 20
-331.404278
 70
   192
  0
VERTEX
  8
0
 38
-133.986039
 10
342.678856
 20
-330.644941
 70
   192
  0
VERTEX
  8
0
 38
-133.032527
 10
343.736673
 20
-329.992884
 70
   192
  0
VERTEX
  8
0
 38
-131.789886
 10
344.548364
 20
-329.492542
 70
   192
  0
VERTEX
  8
0
 38
-130.342801
 10
345.058615
 20
-329.178014
 70
   192
  0
VERTEX
  8
OBJECT_34
  6
CONTINUOUS
 62
   253
 10
0.0
 20
0.0
 70
   128
  0
VERTEX
  8
OBJECT_34
  6
CONTINUOUS
 62
   253
 10
0.0
 20
0.0
 70
   128
  0
VERTEX
  8
OBJECT_34
  6
CONTINUOUS
 62
   253
 10
0.0
 20
0.0
 70
   128
  0
VERTEX
  8
OBJECT_34
  6
CONTINUOUS
 62
   253
 10
0.0
 20
0.0
 70
   128
  0
VERTEX
  8
OBJECT_34
  6
CONTINUOUS
 62
   253
 10
0.0
 20
0.0
 70
   128
  0
VERTEX
  8
OBJECT_34
  6
CONTINUOUS
 62
   253
 10
0.0
 20
0.0
 70
   128
  0
VERTEX
  8
OBJECT_34
  6
CONTINUOUS
 62
   253
 10
0.0
 20
0.0
 70
   128
  0
VERTEX
  8
OBJECT_34
  6
CONTINUOUS
 62
   253
 10
0.0
 20
0.0
 70
   128
  0
VERTEX
  8
OBJECT_34
  6
CONTINUOUS
 62
   253
 10
0.0
 20
0.0
 70
   128
  0
VERTEX
  8
OBJECT_34
  6
CONTINUOUS
 62
   253
 10
0.0
 20
0.0
 70
   128
  0
VERTEX
  8
OBJECT_34
  6
CONTINUOUS
 62
   253
 10
0.0
 20
0.0
 70
   128
  0
VERTEX
  8
OBJECT_34
  6
CONTINUOUS
 62
   253
 10
0.0
 20
0.0
 70
   128
  0
VERTEX
  8
OBJECT_34
  6
CONTINUOUS
 62
   253
 10
0.0
 20
0.0
 70
   128
  0
VERTEX
  8
OBJECT_34
  6
CONTINUOUS
 62
   253
 10
0.0
 20
0.0
 70
   128
  0
VERTEX
  8
OBJECT_34
  6
CONTINUOUS
 62
   253
 10
0.0
 20
0.0
 70
   128
  0
VERTEX
  8
OBJECT_34
  6
CONTINUOUS
 62
   253
 10
0.0
 20
0.0
 70
   128
  0
VERTEX
  8
OBJECT_34
  6
CONTINUOUS
 62
   253
 10
0.0
 20
0.0
 70
   128
  0
VERTEX
  8
OBJECT_34
  6
CONTINUOUS
 62
   253
 10
0.0
 20
0.0
 70
   128
  0
VERTEX
  8
OBJECT_34
  6
CONTINUOUS
 62
   253
 10
0.0
 20
0.0
 70
   128
  0
VERTEX
  8
OBJECT_34
  6
CONTINUOUS
 62
   253
 10
0.0
 20
0.0
 70
   128
  0
VERTEX
  8
OBJECT_34
  6
CONTINUOUS
 62
   253
 10
0.0
 20
0.0
 70
   128
  0
VERTEX
  8
OBJECT_34
  6
CONTINUOUS
 62
   253
 10
0.0
 20
0.0
 70
   128
  0
VERTEX
  8
OBJECT_34
  6
CONTINUOUS
 62
   253
 10
0.0
 20
0.0
 70
   128
  0
VERTEX
  8
OBJECT_34
  6
CONTINUOUS
 62
   253
 10
0.0
 20
0.0
 70
   128
  0
VERTEX
  8
OBJECT_34
  6
CONTINUOUS
 62
   253
 10
0.0
 20
0.0
 70
   128
  0
VERTEX
  8
OBJECT_34
  6
CONTINUOUS
 62
   253
 10
0.0
 20
0.0
 70
   128
  0
VERTEX
  8
OBJECT_34
  6
CONTINUOUS
 62
   253
 10
0.0
 20
0.0
 70
   128
  0
VERTEX
  8
OBJECT_34
  6
CONTINUOUS
 62
   253
 10
0.0
 20
0.0
 70
   128
  0
VERTEX
  8
OBJECT_34
  6
CONTINUOUS
 62
   253
 10
0.0
 20
0.0
 70
   128
  0
VERTEX
  8
OBJECT_34
  6
CONTINUOUS
 62
   253
 10
0.0
 20
0.0
 70
   128
  0
VERTEX
  8
OBJECT_34
  6
CONTINUOUS
 62
   253
 10
0.0
 20
0.0
 70
   128
  0
VERTEX
  8
OBJECT_34
  6
CONTINUOUS
 62
   253
 10
0.0
 20
0.0
 70
   128
  0
VERTEX
  8
OBJECT_34
  6
CONTINUOUS
 62
   253
 10
0.0
 20
0.0
 70
   128
  0
VERTEX
  8
OBJECT_34
  6
CONTINUOUS
 62
   253
 10
0.0
 20
0.0
 70
   128
  0
VERTEX
  8
OBJECT_34
  6
CONTINUOUS
 62
   253
 10
0.0
 20
0.0
 70
   128
  0
VERTEX
  8
OBJECT_34
  6
CONTINUOUS
 62
   253
 10
0.0
 20
0.0
 70
   128
  0
VERTEX
  8
OBJECT_34
  6
CONTINUOUS
 62
   253
 10
0.0
 20
0.0
 70
   128
  0
VERTEX
  8
OBJECT_34
  6
CONTINUOUS
 62
   253
 10
0.0
 20
0.0
 70
   128
  0
VERTEX
  8
OBJECT_34
  6
CONTINUOUS
 62
   253
 10
0.0
 20
0.0
 70
   128
  0
VERTEX
  8
OBJECT_34
  6
CONTINUOUS
 62
   253
 10
0.0
 20
0.0
 70
   128
  0
VERTEX
  8
OBJECT_34
  6
CONTINUOUS
 62
   253
 10
0.0
 20
0.0
 70
   128
  0
VERTEX
  8
OBJECT_34
  6
CONTINUOUS
 62
   253
 10
0.0
 20
0.0
 70
   128
  0
VERTEX
  8
OBJECT_34
  6
CONTINUOUS
 62
   253
 10
0.0
 20
0.0
 70
   128
  0
VERTEX
  8
OBJECT_34
  6
CONTINUOUS
 62
   253
 10
0.0
 20
0.0
 70
   128
  0
VERTEX
  8
OBJECT_34
  6
CONTINUOUS
 62
   253
 10
0.0
 20
0.0
 70
   128
  0
VERTEX
  8
OBJECT_34
  6
CONTINUOUS
 62
   253
 10
0.0
 20
0.0
 70
   128
  0
SEQEND
  8
OBJECT_34
  6
CONTINUOUS
 62
   253
  0
POLYLINE
  8
OBJECT_35
  6
CONTINUOUS
 62
   253
 66
     1
 70
    64
  0
VERTEX
  8
0
 38
-134.691515
 10
163.846884
 20
-46.173443
 70
   192
  0
VERTEX
  8
0
 38
-134.07818
 10
161.446353
 20
-42.180783
 70
   192
  0
VERTEX
  8
0
 38
-132.279973
 10
159.209415
 20
-38.460215
 70
   192
  0
VERTEX
  8
0
 38
-129.419437
 10
157.288512
 20
-35.265292
 70
   192
  0
VERTEX
  8
0
 38
-125.691515
 10
155.814552
 20
-32.813741
 70
   192
  0
VERTEX
  8
0
 38
-121.350258
 10
154.887982
 20
-31.272631
 70
   192
  0
VERTEX
  8
0
 38
-116.691515
 10
154.571946
 20
-30.746988
 70
   192
  0
VERTEX
  8
0
 38
-134.48707
 10
165.177771
 20
-45.373266
 70
   192
  0
VERTEX
  8
0
 38
-133.880701
 10
162.804506
 20
-41.425955
 70
   192
  0
VERTEX
  8
0
 38
-132.102918
 10
160.592974
 20
-37.747646
 70
   192
  0
VERTEX
  8
0
 38
-129.274873
 10
158.69389
 20
-34.58901
 70
   192
  0
VERTEX
  8
0
 38
-125.589293
 10
157.23667
 20
-32.165304
 70
   192
  0
VERTEX
  8
0
 38
-121.297344
 10
156.320624
 20
-30.641699
 70
   192
  0
VERTEX
  8
0
 38
-116.691515
 10
156.008178
 20
-30.122025
 70
   192
  0
VERTEX
  8
0
 38
-133.887668
 10
166.41796
 20
-44.62762
 70
   192
  0
VERTEX
  8
0
 38
-133.301723
 10
164.124633
 20
-40.813265
 70
   192
  0
VERTEX
  8
0
 38
-131.58382
 10
161.987592
 20
-37.258851
 70
   192
  0
VERTEX
  8
0
 38
-128.851031
 10
160.152473
 20
-34.206607
 70
   192
  0
VERTEX
  8
0
 38
-125.289592
 10
158.744337
 20
-31.864538
 70
   192
  0
VERTEX
  8
0
 38
-121.142207
 10
157.859146
 20
-30.392252
 70
   192
  0
VERTEX
  8
0
 38
-116.691515
 10
157.557224
 20
-29.890082
 70
   192
  0
VERTEX
  8
0
 38
-132.934156
 10
167.482934
 20
-43.987319
 70
   192
  0
VERTEX
  8
0
 38
-132.380701
 10
165.31677
 20
-40.384466
 70
   192
  0
VERTEX
  8
0
 38
-130.758055
 10
163.298226
 20
-37.027142
 70
   192
  0
VERTEX
  8
0
 38
-128.176797
 10
161.564864
 20
-34.144142
 70
   192
  0
VERTEX
  8
0
 38
-124.812836
 10
160.234808
 20
-31.931939
 70
   192
  0
VERTEX
  8
0
 38
-120.89542
 10
159.398699
 20
-30.54129
 70
   192
  0
VERTEX
  8
0
 38
-116.691515
 10
159.113518
 20
-30.066965
 70
   192
  0
VERTEX
  8
0
 38
-131.691515
 10
168.300118
 20
-43.495999
 70
   192
  0
VERTEX
  8
0
 38
-131.180403
 10
166.299676
 20
-40.168782
 70
   192
  0
VERTEX
  8
0
 38
-129.681896
 10
164.435561
 20
-37.068309
 70
   192
  0
VERTEX
  8
0
 38
-127.298117
 10
162.834808
 20
-34.405873
 70
   192
  0
VERTEX
  8
0
 38
-124.191515
 10
161.606508
 20
-32.362914
 70
   192
  0
VERTEX
  8
0
 38
-120.573801
 10
160.834366
 20
-31.078656
 70
   192
  0
VERTEX
  8
0
 38
-116.691515
 10
160.571003
 20
-30.64062
 70
   192
  0
VERTEX
  8
0
 38
-130.24443
 10
168.813821
 20
-43.187142
 70
   192
  0
VERTEX
  8
0
 38
-129.782625
 10
167.006366
 20
-40.18091
 70
   192
  0
VERTEX
  8
0
 38
-128.428683
 10
165.322087
 20
-37.379547
 70
   192
  0
VERTEX
  8
0
 38
-126.274873
 10
163.875763
 20
-34.973962
 70
   192
  0
VERTEX
  8
0
 38
-123.467972
 10
162.76596
 20
-33.128092
 70
   192
  0
VERTEX
  8
0
 38
-120.199268
 10
162.068308
 20
-31.96773
 70
   192
  0
VERTEX
  8
0
 38
-116.691515
 10
161.830352
 20
-31.571952
 70
   192
  0
VERTEX
  8
0
 38
-128.691515
 10
168.989036
 20
-43.081797
 70
   192
  0
VERTEX
  8
0
 38
-128.282625
 10
167.388682
 20
-40.420023
 70
   192
  0
VERTEX
  8
0
 38
-127.08382
 10
165.89739
 20
-37.939645
 70
   192
  0
VERTEX
  8
0
 38
-125.176797
 10
164.616788
 20
-35.809696
 70
   192
  0
VERTEX
  8
0
 38
-122.691515
 10
163.634148
 20
-34.175329
 70
   192
  0
VERTEX
  8
0
 38
-119.797344
 10
163.016434
 20
-33.147923
 70
   192
  0
VERTEX
  8
0
 38
-116.691515
 10
162.805744
 20
-32.797493
 70
   192
  0
VERTEX
  8
0
 38
-127.138601
 10
168.813821
 20
-43.187142
 70
   192
  0
VERTEX
  8
0
 38
-126.782625
 10
167.420569
 20
-40.869827
 70
   192
  0
VERTEX
  8
0
 38
-125.738957
 10
166.122264
 20
-38.710434
 70
   192
  0
VERTEX
  8
0
 38
-124.078721
 10
165.007384
 20
-36.856121
 70
   192
  0
VERTEX
  8
0
 38
-121.915058
 10
164.151907
 20
-35.433256
 70
   192
  0
VERTEX
  8
0
 38
-119.39542
 10
163.614131
 20
-34.538806
 70
   192
  0
VERTEX
  8
0
 38
-116.691515
 10
163.430706
 20
-34.233726
 70
   192
  0
VERTEX
  8
0
 38
-125.691515
 10
168.300118
 20
-43.495999
 70
   192
  0
VERTEX
  8
0
 38
-125.384848
 10
167.099853
 20
-41.499669
 70
   192
  0
VERTEX
  8
0
 38
-124.485744
 10
165.981384
 20
-39.639385
 70
   192
  0
VERTEX
  8
0
 38
-123.055476
 10
165.020932
 20
-38.041923
 70
   192
  0
VERTEX
  8
0
 38
-121.191515
 10
164.283952
 20
-36.816148
 70
   192
  0
VERTEX
  8
0
 38
-119.020887
 10
163.820667
 20
-36.045593
 70
   192
  0
VERTEX
  8
0
 38
-116.691515
 10
163.662649
 20
-35.782771
 70
   192
  0
VERTEX
  8
0
 38
-124.448875
 10
167.482934
 20
-43.987319
 70
   192
  0
VERTEX
  8
0
 38
-124.184549
 10
166.448391
 20
-42.266625
 70
   192
  0
VERTEX
  8
0
 38
-123.409586
 10
165.48435
 20
-40.663193
 70
   192
  0
VERTEX
  8
0
 38
-122.176797
 10
164.65651
 20
-39.286294
 70
   192
  0
VERTEX
  8
0
 38
-120.570195
 10
164.021285
 20
-38.229763
 70
   192
  0
VERTEX
  8
0
 38
-118.699268
 10
163.621966
 20
-37.5656
 70
   192
  0
VERTEX
  8
0
 38
-116.691515
 10
163.485766
 20
-37.339066
 70
   192
  0
VERTEX
  8
0
 38
-123.495363
 10
166.41796
 20
-44.62762
 70
   192
  0
VERTEX
  8
0
 38
-123.263527
 10
165.51058
 20
-43.118428
 70
   192
  0
VERTEX
  8
0
 38
-122.58382
 10
164.665036
 20
-41.712085
 70
   192
  0
VERTEX
  8
0
 38
-121.502562
 10
163.938951
 20
-40.504431
 70
   192
  0
VERTEX
  8
0
 38
-120.093439
 10
163.381806
 20
-39.577766
 70
   192
  0
VERTEX
  8
0
 38
-118.452481
 10
163.031571
 20
-38.995239
 70
   192
  0
VERTEX
  8
0
 38
-116.691515
 10
162.912112
 20
-38.79655
 70
   192
  0
VERTEX
  8
0
 38
-122.89596
 10
165.177771
 20
-45.373266
 70
   192
  0
VERTEX
  8
0
 38
-122.684549
 10
164.350329
 20
-43.99703
 70
   192
  0
VERTEX
  8
0
 38
-122.064722
 10
163.579275
 20
-42.714583
 70
   192
  0
VERTEX
  8
0
 38
-121.078721
 10
162.917157
 20
-41.61332
 70
   192
  0
VERTEX
  8
0
 38
-119.793738
 10
162.409095
 20
-40.768292
 70
   192
  0
VERTEX
  8
0
 38
-118.297344
 10
162.089714
 20
-40.237085
 70
   192
  0
VERTEX
  8
0
 38
-116.691515
 10
161.98078
 20
-40.0559
 70
   192
  0
VERTEX
  8
0
 38
-122.691515
 10
163.846884
 20
-46.173443
 70
   192
  0
VERTEX
  8
0
 38
-122.48707
 10
163.046707
 20
-44.842556
 70
   192
  0
VERTEX
  8
0
 38
-121.887668
 10
162.301061
 20
-43.602367
 70
   192
  0
VERTEX
  8
0
 38
-120.934156
 10
161.66076
 20
-42.537393
 70
   192
  0
VERTEX
  8
0
 38
-119.691515
 10
161.16944
 20
-41.720209
 70
   192
  0
VERTEX
  8
0
 38
-118.24443
 10
160.860583
 20
-41.206506
 70
   192
  0
VERTEX
  8
0
 38
-116.691515
 10
160.755238
 20
-41.031291
 70
   192
  0
VERTEX
  8
0
 38
-122.89596
 10
162.515997
 20
-46.97362
 70
   192
  0
VERTEX
  8
0
 38
-122.684549
 10
161.688555
 20
-45.597384
 70
   192
  0
VERTEX
  8
0
 38
-122.064722
 10
160.917502
 20
-44.314937
 70
   192
  0
VERTEX
  8
0
 38
-121.078721
 10
160.255383
 20
-43.213674
 70
   192
  0
VERTEX
  8
0
 38
-119.793738
 10
159.747322
 20
-42.368646
 70
   192
  0
VERTEX
  8
0
 38
-118.297344
 10
159.427941
 20
-41.837438
 70
   192
  0
VERTEX
  8
0
 38
-116.691515
 10
159.319006
 20
-41.656254
 70
   192
  0
VERTEX
  8
0
 38
-123.495363
 10
161.275808
 20
-47.719266
 70
   192
  0
VERTEX
  8
0
 38
-123.263527
 10
160.368428
 20
-46.210074
 70
   192
  0
VERTEX
  8
0
 38
-122.58382
 10
159.522884
 20
-44.803731
 70
   192
  0
VERTEX
  8
0
 38
-121.502562
 10
158.796799
 20
-43.596077
 70
   192
  0
VERTEX
  8
0
 38
-120.093439
 10
158.239655
 20
-42.669412
 70
   192
  0
VERTEX
  8
0
 38
-118.452481
 10
157.889419
 20
-42.086885
 70
   192
  0
VERTEX
  8
0
 38
-116.691515
 10
157.76996
 20
-41.888197
 70
   192
  0
VERTEX
  8
0
 38
-124.448875
 10
160.210834
 20
-48.359567
 70
   192
  0
VERTEX
  8
0
 38
-124.184549
 10
159.17629
 20
-46.638872
 70
   192
  0
VERTEX
  8
0
 38
-123.409586
 10
158.21225
 20
-45.03544
 70
   192
  0
VERTEX
  8
0
 38
-122.176797
 10
157.384409
 20
-43.658542
 70
   192
  0
VERTEX
  8
0
 38
-120.570195
 10
156.749184
 20
-42.602011
 70
   192
  0
VERTEX
  8
0
 38
-118.699268
 10
156.349866
 20
-41.937847
 70
   192
  0
VERTEX
  8
0
 38
-116.691515
 10
156.213665
 20
-41.711314
 70
   192
  0
VERTEX
  8
0
 38
-125.691515
 10
159.39365
 20
-48.850887
 70
   192
  0
VERTEX
  8
0
 38
-125.384848
 10
158.193385
 20
-46.854557
 70
   192
  0
VERTEX
  8
0
 38
-124.485744
 10
157.074915
 20
-44.994273
 70
   192
  0
VERTEX
  8
0
 38
-123.055476
 10
156.114464
 20
-43.396811
 70
   192
  0
VERTEX
  8
0
 38
-121.191515
 10
155.377484
 20
-42.171036
 70
   192
  0
VERTEX
  8
0
 38
-119.020887
 10
154.914199
 20
-41.400481
 70
   192
  0
VERTEX
  8
0
 38
-116.691515
 10
154.756181
 20
-41.137659
 70
   192
  0
VERTEX
  8
0
 38
-127.138601
 10
158.879947
 20
-49.159744
 70
   192
  0
VERTEX
  8
0
 38
-126.782625
 10
157.486694
 20
-46.842429
 70
   192
  0
VERTEX
  8
0
 38
-125.738957
 10
156.188389
 20
-44.683035
 70
   192
  0
VERTEX
  8
0
 38
-124.078721
 10
155.07351
 20
-42.828722
 70
   192
  0
VERTEX
  8
0
 38
-121.915058
 10
154.218032
 20
-41.405857
 70
   192
  0
VERTEX
  8
0
 38
-119.39542
 10
153.680257
 20
-40.511407
 70
   192
  0
VERTEX
  8
0
 38
-116.691515
 10
153.496832
 20
-40.206327
 70
   192
  0
VERTEX
  8
0
 38
-128.691515
 10
158.704732
 20
-49.265089
 70
   192
  0
VERTEX
  8
0
 38
-128.282625
 10
157.104379
 20
-46.603315
 70
   192
  0
VERTEX
  8
0
 38
-127.08382
 10
155.613086
 20
-44.122937
 70
   192
  0
VERTEX
  8
0
 38
-125.176797
 10
154.332485
 20
-41.992988
 70
   192
  0
VERTEX
  8
0
 38
-122.691515
 10
153.349844
 20
-40.358621
 70
   192
  0
VERTEX
  8
0
 38
-119.797344
 10
152.732131
 20
-39.331215
 70
   192
  0
VERTEX
  8
0
 38
-116.691515
 10
152.52144
 20
-38.980786
 70
   192
  0
VERTEX
  8
0
 38
-130.24443
 10
158.879947
 20
-49.159744
 70
   192
  0
VERTEX
  8
0
 38
-129.782625
 10
157.072492
 20
-46.153511
 70
   192
  0
VERTEX
  8
0
 38
-128.428683
 10
155.388212
 20
-43.352149
 70
   192
  0
VERTEX
  8
0
 38
-126.274873
 10
153.941889
 20
-40.946564
 70
   192
  0
VERTEX
  8
0
 38
-123.467972
 10
152.832085
 20
-39.100694
 70
   192
  0
VERTEX
  8
0
 38
-120.199268
 10
152.134434
 20
-37.940331
 70
   192
  0
VERTEX
  8
0
 38
-116.691515
 10
151.896478
 20
-37.544553
 70
   192
  0
VERTEX
  8
0
 38
-131.691515
 10
159.39365
 20
-48.850887
 70
   192
  0
VERTEX
  8
0
 38
-131.180403
 10
157.393208
 20
-45.52367
 70
   192
  0
VERTEX
  8
0
 38
-129.681896
 10
155.529092
 20
-42.423197
 70
   192
  0
VERTEX
  8
0
 38
-127.298117
 10
153.92834
 20
-39.760761
 70
   192
  0
VERTEX
  8
0
 38
-124.191515
 10
152.70004
 20
-37.717802
 70
   192
  0
VERTEX
  8
0
 38
-120.573801
 10
151.927898
 20
-36.433544
 70
   192
  0
VERTEX
  8
0
 38
-116.691515
 10
151.664535
 20
-35.995508
 70
   192
  0
VERTEX
  8
0
 38
-132.934156
 10
160.210834
 20
-48.359567
 70
   192
  0
VERTEX
  8
0
 38
-132.380701
 10
158.044669
 20
-44.756714
 70
   192
  0
VERTEX
  8
0
 38
-130.758055
 10
156.026126
 20
-41.39939
 70
   192
  0
VERTEX
  8
0
 38
-128.176797
 10
154.292763
 20
-38.51639
 70
   192
  0
VERTEX
  8
0
 38
-124.812836
 10
152.962707
 20
-36.304187
 70
   192
  0
VERTEX
  8
0
 38
-120.89542
 10
152.126599
 20
-34.913538
 70
   192
  0
VERTEX
  8
0
 38
-116.691515
 10
151.841418
 20
-34.439213
 70
   192
  0
VERTEX
  8
0
 38
-133.887668
 10
161.275808
 20
-47.719266
 70
   192
  0
VERTEX
  8
0
 38
-133.301723
 10
158.982481
 20
-43.904911
 70
   192
  0
VERTEX
  8
0
 38
-131.58382
 10
156.84544
 20
-40.350497
 70
   192
  0
VERTEX
  8
0
 38
-128.851031
 10
155.010322
 20
-37.298253
 70
   192
  0
VERTEX
  8
0
 38
-125.289592
 10
153.602186
 20
-34.956184
 70
   192
  0
VERTEX
  8
0
 38
-121.142207
 10
152.716994
 20
-33.483898
 70
   192
  0
VERTEX
  8
0
 38
-116.691515
 10
152.415072
 20
-32.981728
 70
   192
  0
VERTEX
  8
0
 38
-134.48707
 10
162.515997
 20
-46.97362
 70
   192
  0
VERTEX
  8
0
 38
-133.880701
 10
160.142732
 20
-43.026308
 70
   192
  0
VERTEX
  8
0
 38
-132.102918
 10
157.931201
 20
-39.348
 70
   192
  0
VERTEX
  8
0
 38
-129.274873
 10
156.032116
 20
-36.189364
 70
   192
  0
VERTEX
  8
0
 38
-125.589293
 10
154.574897
 20
-33.765658
 70
   192
  0
VERTEX
  8
0
 38
-121.297344
 10
153.658851
 20
-32.242053
 70
   192
  0
VERTEX
  8
0
 38
-116.691515
 10
153.346404
 20
-31.722379
 70
   192
  0
VERTEX
  8
OBJECT_35
  6
CONTINUOUS
 62
   253
 10
0.0
 20
0.0
 70
   128
  0
VERTEX
  8
OBJECT_35
  6
CONTINUOUS
 62
   253
 10
0.0
 20
0.0
 70
   128
  0
VERTEX
  8
OBJECT_35
  6
CONTINUOUS
 62
   253
 10
0.0
 20
0.0
 70
   128
  0
VERTEX
  8
OBJECT_35
  6
CONTINUOUS
 62
   253
 10
0.0
 20
0.0
 70
   128
  0
VERTEX
  8
OBJECT_35
  6
CONTINUOUS
 62
   253
 10
0.0
 20
0.0
 70
   128
  0
VERTEX
  8
OBJECT_35
  6
CONTINUOUS
 62
   253
 10
0.0
 20
0.0
 70
   128
  0
VERTEX
  8
OBJECT_35
  6
CONTINUOUS
 62
   253
 10
0.0
 20
0.0
 70
   128
  0
VERTEX
  8
OBJECT_35
  6
CONTINUOUS
 62
   253
 10
0.0
 20
0.0
 70
   128
  0
VERTEX
  8
OBJECT_35
  6
CONTINUOUS
 62
   253
 10
0.0
 20
0.0
 70
   128
  0
VERTEX
  8
OBJECT_35
  6
CONTINUOUS
 62
   253
 10
0.0
 20
0.0
 70
   128
  0
VERTEX
  8
OBJECT_35
  6
CONTINUOUS
 62
   253
 10
0.0
 20
0.0
 70
   128
  0
VERTEX
  8
OBJECT_35
  6
CONTINUOUS
 62
   253
 10
0.0
 20
0.0
 70
   128
  0
VERTEX
  8
OBJECT_35
  6
CONTINUOUS
 62
   253
 10
0.0
 20
0.0
 70
   128
  0
VERTEX
  8
OBJECT_35
  6
CONTINUOUS
 62
   253
 10
0.0
 20
0.0
 70
   128
  0
VERTEX
  8
OBJECT_35
  6
CONTINUOUS
 62
   253
 10
0.0
 20
0.0
 70
   128
  0
VERTEX
  8
OBJECT_35
  6
CONTINUOUS
 62
   253
 10
0.0
 20
0.0
 70
   128
  0
VERTEX
  8
OBJECT_35
  6
CONTINUOUS
 62
   253
 10
0.0
 20
0.0
 70
   128
  0
VERTEX
  8
OBJECT_35
  6
CONTINUOUS
 62
   253
 10
0.0
 20
0.0
 70
   128
  0
VERTEX
  8
OBJECT_35
  6
CONTINUOUS
 62
   253
 10
0.0
 20
0.0
 70
   128
  0
VERTEX
  8
OBJECT_35
  6
CONTINUOUS
 62
   253
 10
0.0
 20
0.0
 70
   128
  0
VERTEX
  8
OBJECT_35
  6
CONTINUOUS
 62
   253
 10
0.0
 20
0.0
 70
   128
  0
VERTEX
  8
OBJECT_35
  6
CONTINUOUS
 62
   253
 10
0.0
 20
0.0
 70
   128
  0
VERTEX
  8
OBJECT_35
  6
CONTINUOUS
 62
   253
 10
0.0
 20
0.0
 70
   128
  0
VERTEX
  8
OBJECT_35
  6
CONTINUOUS
 62
   253
 10
0.0
 20
0.0
 70
   128
  0
VERTEX
  8
OBJECT_35
  6
CONTINUOUS
 62
   253
 10
0.0
 20
0.0
 70
   128
  0
VERTEX
  8
OBJECT_35
  6
CONTINUOUS
 62
   253
 10
0.0
 20
0.0
 70
   128
  0
VERTEX
  8
OBJECT_35
  6
CONTINUOUS
 62
   253
 10
0.0
 20
0.0
 70
   128
  0
VERTEX
  8
OBJECT_35
  6
CONTINUOUS
 62
   253
 10
0.0
 20
0.0
 70
   128
  0
VERTEX
  8
OBJECT_35
  6
CONTINUOUS
 62
   253
 10
0.0
 20
0.0
 70
   128
  0
VERTEX
  8
OBJECT_35
  6
CONTINUOUS
 62
   253
 10
0.0
 20
0.0
 70
   128
  0
VERTEX
  8
OBJECT_35
  6
CONTINUOUS
 62
   253
 10
0.0
 20
0.0
 70
   128
  0
VERTEX
  8
OBJECT_35
  6
CONTINUOUS
 62
   253
 10
0.0
 20
0.0
 70
   128
  0
VERTEX
  8
OBJECT_35
  6
CONTINUOUS
 62
   253
 10
0.0
 20
0.0
 70
   128
  0
VERTEX
  8
OBJECT_35
  6
CONTINUOUS
 62
   253
 10
0.0
 20
0.0
 70
   128
  0
VERTEX
  8
OBJECT_35
  6
CONTINUOUS
 62
   253
 10
0.0
 20
0.0
 70
   128
  0
VERTEX
  8
OBJECT_35
  6
CONTINUOUS
 62
   253
 10
0.0
 20
0.0
 70
   128
  0
VERTEX
  8
OBJECT_35
  6
CONTINUOUS
 62
   253
 10
0.0
 20
0.0
 70
   128
  0
VERTEX
  8
OBJECT_35
  6
CONTINUOUS
 62
   253
 10
0.0
 20
0.0
 70
   128
  0
VERTEX
  8
OBJECT_35
  6
CONTINUOUS
 62
   253
 10
0.0
 20
0.0
 70
   128
  0
VERTEX
  8
OBJECT_35
  6
CONTINUOUS
 62
   253
 10
0.0
 20
0.0
 70
   128
  0
VERTEX
  8
OBJECT_35
  6
CONTINUOUS
 62
   253
 10
0.0
 20
0.0
 70
   128
  0
VERTEX
  8
OBJECT_35
  6
CONTINUOUS
 62
   253
 10
0.0
 20
0.0
 70
   128
  0
VERTEX
  8
OBJECT_35
  6
CONTINUOUS
 62
   253
 10
0.0
 20
0.0
 70
   128
  0
VERTEX
  8
OBJECT_35
  6
CONTINUOUS
 62
   253
 10
0.0
 20
0.0
 70
   128
  0
VERTEX
  8
OBJECT_35
  6
CONTINUOUS
 62
   253
 10
0.0
 20
0.0
 70
   128
  0
VERTEX
  8
OBJECT_35
  6
CONTINUOUS
 62
   253
 10
0.0
 20
0.0
 70
   128
  0
VERTEX
  8
OBJECT_35
  6
CONTINUOUS
 62
   253
 10
0.0
 20
0.0
 70
   128
  0
VERTEX
  8
OBJECT_35
  6
CONTINUOUS
 62
   253
 10
0.0
 20
0.0
 70
   128
  0
VERTEX
  8
OBJECT_35
  6
CONTINUOUS
 62
   253
 10
0.0
 20
0.0
 70
   128
  0
VERTEX
  8
OBJECT_35
  6
CONTINUOUS
 62
   253
 10
0.0
 20
0.0
 70
   128
  0
VERTEX
  8
OBJECT_35
  6
CONTINUOUS
 62
   253
 10
0.0
 20
0.0
 70
   128
  0
VERTEX
  8
OBJECT_35
  6
CONTINUOUS
 62
   253
 10
0.0
 20
0.0
 70
   128
  0
VERTEX
  8
OBJECT_35
  6
CONTINUOUS
 62
   253
 10
0.0
 20
0.0
 70
   128
  0
VERTEX
  8
OBJECT_35
  6
CONTINUOUS
 62
   253
 10
0.0
 20
0.0
 70
   128
  0
VERTEX
  8
OBJECT_35
  6
CONTINUOUS
 62
   253
 10
0.0
 20
0.0
 70
   128
  0
VERTEX
  8
OBJECT_35
  6
CONTINUOUS
 62
   253
 10
0.0
 20
0.0
 70
   128
  0
VERTEX
  8
OBJECT_35
  6
CONTINUOUS
 62
   253
 10
0.0
 20
0.0
 70
   128
  0
VERTEX
  8
OBJECT_35
  6
CONTINUOUS
 62
   253
 10
0.0
 20
0.0
 70
   128
  0
VERTEX
  8
OBJECT_35
  6
CONTINUOUS
 62
   253
 10
0.0
 20
0.0
 70
   128
  0
VERTEX
  8
OBJECT_35
  6
CONTINUOUS
 62
   253
 10
0.0
 20
0.0
 70
   128
  0
VERTEX
  8
OBJECT_35
  6
CONTINUOUS
 62
   253
 10
0.0
 20
0.0
 70
   128
  0
VERTEX
  8
OBJECT_35
  6
CONTINUOUS
 62
   253
 10
0.0
 20
0.0
 70
   128
  0
VERTEX
  8
OBJECT_35
  6
CONTINUOUS
 62
   253
 10
0.0
 20
0.0
 70
   128
  0
VERTEX
  8
OBJECT_35
  6
CONTINUOUS
 62
   253
 10
0.0
 20
0.0
 70
   128
  0
VERTEX
  8
OBJECT_35
  6
CONTINUOUS
 62
   253
 10
0.0
 20
0.0
 70
   128
  0
VERTEX
  8
OBJECT_35
  6
CONTINUOUS
 62
   253
 10
0.0
 20
0.0
 70
   128
  0
VERTEX
  8
OBJECT_35
  6
CONTINUOUS
 62
   253
 10
0.0
 20
0.0
 70
   128
  0
VERTEX
  8
OBJECT_35
  6
CONTINUOUS
 62
   253
 10
0.0
 20
0.0
 70
   128
  0
VERTEX
  8
OBJECT_35
  6
CONTINUOUS
 62
   253
 10
0.0
 20
0.0
 70
   128
  0
VERTEX
  8
OBJECT_35
  6
CONTINUOUS
 62
   253
 10
0.0
 20
0.0
 70
   128
  0
VERTEX
  8
OBJECT_35
  6
CONTINUOUS
 62
   253
 10
0.0
 20
0.0
 70
   128
  0
VERTEX
  8
OBJECT_35
  6
CONTINUOUS
 62
   253
 10
0.0
 20
0.0
 70
   128
  0
VERTEX
  8
OBJECT_35
  6
CONTINUOUS
 62
   253
 10
0.0
 20
0.0
 70
   128
  0
VERTEX
  8
OBJECT_35
  6
CONTINUOUS
 62
   253
 10
0.0
 20
0.0
 70
   128
  0
VERTEX
  8
OBJECT_35
  6
CONTINUOUS
 62
   253
 10
0.0
 20
0.0
 70
   128
  0
VERTEX
  8
OBJECT_35
  6
CONTINUOUS
 62
   253
 10
0.0
 20
0.0
 70
   128
  0
VERTEX
  8
OBJECT_35
  6
CONTINUOUS
 62
   253
 10
0.0
 20
0.0
 70
   128
  0
VERTEX
  8
OBJECT_35
  6
CONTINUOUS
 62
   253
 10
0.0
 20
0.0
 70
   128
  0
VERTEX
  8
OBJECT_35
  6
CONTINUOUS
 62
   253
 10
0.0
 20
0.0
 70
   128
  0
VERTEX
  8
OBJECT_35
  6
CONTINUOUS
 62
   253
 10
0.0
 20
0.0
 70
   128
  0
VERTEX
  8
OBJECT_35
  6
CONTINUOUS
 62
   253
 10
0.0
 20
0.0
 70
   128
  0
VERTEX
  8
OBJECT_35
  6
CONTINUOUS
 62
   253
 10
0.0
 20
0.0
 70
   128
  0
VERTEX
  8
OBJECT_35
  6
CONTINUOUS
 62
   253
 10
0.0
 20
0.0
 70
   128
  0
VERTEX
  8
OBJECT_35
  6
CONTINUOUS
 62
   253
 10
0.0
 20
0.0
 70
   128
  0
VERTEX
  8
OBJECT_35
  6
CONTINUOUS
 62
   253
 10
0.0
 20
0.0
 70
   128
  0
VERTEX
  8
OBJECT_35
  6
CONTINUOUS
 62
   253
 10
0.0
 20
0.0
 70
   128
  0
VERTEX
  8
OBJECT_35
  6
CONTINUOUS
 62
   253
 10
0.0
 20
0.0
 70
   128
  0
VERTEX
  8
OBJECT_35
  6
CONTINUOUS
 62
   253
 10
0.0
 20
0.0
 70
   128
  0
VERTEX
  8
OBJECT_35
  6
CONTINUOUS
 62
   253
 10
0.0
 20
0.0
 70
   128
  0
VERTEX
  8
OBJECT_35
  6
CONTINUOUS
 62
   253
 10
0.0
 20
0.0
 70
   128
  0
VERTEX
  8
OBJECT_35
  6
CONTINUOUS
 62
   253
 10
0.0
 20
0.0
 70
   128
  0
VERTEX
  8
OBJECT_35
  6
CONTINUOUS
 62
   253
 10
0.0
 20
0.0
 70
   128
  0
VERTEX
  8
OBJECT_35
  6
CONTINUOUS
 62
   253
 10
0.0
 20
0.0
 70
   128
  0
VERTEX
  8
OBJECT_35
  6
CONTINUOUS
 62
   253
 10
0.0
 20
0.0
 70
   128
  0
VERTEX
  8
OBJECT_35
  6
CONTINUOUS
 62
   253
 10
0.0
 20
0.0
 70
   128
  0
VERTEX
  8
OBJECT_35
  6
CONTINUOUS
 62
   253
 10
0.0
 20
0.0
 70
   128
  0
VERTEX
  8
OBJECT_35
  6
CONTINUOUS
 62
   253
 10
0.0
 20
0.0
 70
   128
  0
VERTEX
  8
OBJECT_35
  6
CONTINUOUS
 62
   253
 10
0.0
 20
0.0
 70
   128
  0
VERTEX
  8
OBJECT_35
  6
CONTINUOUS
 62
   253
 10
0.0
 20
0.0
 70
   128
  0
VERTEX
  8
OBJECT_35
  6
CONTINUOUS
 62
   253
 10
0.0
 20
0.0
 70
   128
  0
VERTEX
  8
OBJECT_35
  6
CONTINUOUS
 62
   253
 10
0.0
 20
0.0
 70
   128
  0
VERTEX
  8
OBJECT_35
  6
CONTINUOUS
 62
   253
 10
0.0
 20
0.0
 70
   128
  0
VERTEX
  8
OBJECT_35
  6
CONTINUOUS
 62
   253
 10
0.0
 20
0.0
 70
   128
  0
VERTEX
  8
OBJECT_35
  6
CONTINUOUS
 62
   253
 10
0.0
 20
0.0
 70
   128
  0
VERTEX
  8
OBJECT_35
  6
CONTINUOUS
 62
   253
 10
0.0
 20
0.0
 70
   128
  0
VERTEX
  8
OBJECT_35
  6
CONTINUOUS
 62
   253
 10
0.0
 20
0.0
 70
   128
  0
VERTEX
  8
OBJECT_35
  6
CONTINUOUS
 62
   253
 10
0.0
 20
0.0
 70
   128
  0
VERTEX
  8
OBJECT_35
  6
CONTINUOUS
 62
   253
 10
0.0
 20
0.0
 70
   128
  0
VERTEX
  8
OBJECT_35
  6
CONTINUOUS
 62
   253
 10
0.0
 20
0.0
 70
   128
  0
VERTEX
  8
OBJECT_35
  6
CONTINUOUS
 62
   253
 10
0.0
 20
0.0
 70
   128
  0
VERTEX
  8
OBJECT_35
  6
CONTINUOUS
 62
   253
 10
0.0
 20
0.0
 70
   128
  0
VERTEX
  8
OBJECT_35
  6
CONTINUOUS
 62
   253
 10
0.0
 20
0.0
 70
   128
  0
VERTEX
  8
OBJECT_35
  6
CONTINUOUS
 62
   253
 10
0.0
 20
0.0
 70
   128
  0
VERTEX
  8
OBJECT_35
  6
CONTINUOUS
 62
   253
 10
0.0
 20
0.0
 70
   128
  0
VERTEX
  8
OBJECT_35
  6
CONTINUOUS
 62
   253
 10
0.0
 20
0.0
 70
   128
  0
VERTEX
  8
OBJECT_35
  6
CONTINUOUS
 62
   253
 10
0.0
 20
0.0
 70
   128
  0
VERTEX
  8
OBJECT_35
  6
CONTINUOUS
 62
   253
 10
0.0
 20
0.0
 70
   128
  0
VERTEX
  8
OBJECT_35
  6
CONTINUOUS
 62
   253
 10
0.0
 20
0.0
 70
   128
  0
VERTEX
  8
OBJECT_35
  6
CONTINUOUS
 62
   253
 10
0.0
 20
0.0
 70
   128
  0
VERTEX
  8
OBJECT_35
  6
CONTINUOUS
 62
   253
 10
0.0
 20
0.0
 70
   128
  0
VERTEX
  8
OBJECT_35
  6
CONTINUOUS
 62
   253
 10
0.0
 20
0.0
 70
   128
  0
VERTEX
  8
OBJECT_35
  6
CONTINUOUS
 62
   253
 10
0.0
 20
0.0
 70
   128
  0
VERTEX
  8
OBJECT_35
  6
CONTINUOUS
 62
   253
 10
0.0
 20
0.0
 70
   128
  0
VERTEX
  8
OBJECT_35
  6
CONTINUOUS
 62
   253
 10
0.0
 20
0.0
 70
   128
  0
VERTEX
  8
OBJECT_35
  6
CONTINUOUS
 62
   253
 10
0.0
 20
0.0
 70
   128
  0
VERTEX
  8
OBJECT_35
  6
CONTINUOUS
 62
   253
 10
0.0
 20
0.0
 70
   128
  0
VERTEX
  8
OBJECT_35
  6
CONTINUOUS
 62
   253
 10
0.0
 20
0.0
 70
   128
  0
VERTEX
  8
OBJECT_35
  6
CONTINUOUS
 62
   253
 10
0.0
 20
0.0
 70
   128
  0
VERTEX
  8
OBJECT_35
  6
CONTINUOUS
 62
   253
 10
0.0
 20
0.0
 70
   128
  0
VERTEX
  8
OBJECT_35
  6
CONTINUOUS
 62
   253
 10
0.0
 20
0.0
 70
   128
  0
VERTEX
  8
OBJECT_35
  6
CONTINUOUS
 62
   253
 10
0.0
 20
0.0
 70
   128
  0
VERTEX
  8
OBJECT_35
  6
CONTINUOUS
 62
   253
 10
0.0
 20
0.0
 70
   128
  0
VERTEX
  8
OBJECT_35
  6
CONTINUOUS
 62
   253
 10
0.0
 20
0.0
 70
   128
  0
VERTEX
  8
OBJECT_35
  6
CONTINUOUS
 62
   253
 10
0.0
 20
0.0
 70
   128
  0
VERTEX
  8
OBJECT_35
  6
CONTINUOUS
 62
   253
 10
0.0
 20
0.0
 70
   128
  0
VERTEX
  8
OBJECT_35
  6
CONTINUOUS
 62
   253
 10
0.0
 20
0.0
 70
   128
  0
VERTEX
  8
OBJECT_35
  6
CONTINUOUS
 62
   253
 10
0.0
 20
0.0
 70
   128
  0
VERTEX
  8
OBJECT_35
  6
CONTINUOUS
 62
   253
 10
0.0
 20
0.0
 70
   128
  0
VERTEX
  8
OBJECT_35
  6
CONTINUOUS
 62
   253
 10
0.0
 20
0.0
 70
   128
  0
VERTEX
  8
OBJECT_35
  6
CONTINUOUS
 62
   253
 10
0.0
 20
0.0
 70
   128
  0
VERTEX
  8
OBJECT_35
  6
CONTINUOUS
 62
   253
 10
0.0
 20
0.0
 70
   128
  0
VERTEX
  8
OBJECT_35
  6
CONTINUOUS
 62
   253
 10
0.0
 20
0.0
 70
   128
  0
VERTEX
  8
OBJECT_35
  6
CONTINUOUS
 62
   253
 10
0.0
 20
0.0
 70
   128
  0
VERTEX
  8
OBJECT_35
  6
CONTINUOUS
 62
   253
 10
0.0
 20
0.0
 70
   128
  0
SEQEND
  8
OBJECT_35
  6
CONTINUOUS
 62
   253
  0
ENDSEC
  0
EOF
