  0
SECTION
  2
HEADER
  9
$ACADVER
  1
AC1003
  9
$INSBASE
 10
0.0
 20
0.0
  9
$EXTMIN
 10
-193.502481
 20
-984.469279
  9
$EXTMAX
 10
191.246046
 20
81.114102
  9
$LIMMIN
 10
-193.502481
 20
-984.469279
  9
$LIMMAX
 10
191.246046
 20
81.114102
  9
$VIEWCTR
 10
6.591288
 20
4.579184
  9
$VIEWSIZE
 40
9.158369
  9
$SNAPMODE
 70
     0
  9
$SNAPUNIT
 10
1.0
 20
1.0
  9
$SNAPBASE
 10
0.0
 20
0.0
  9
$SNAPANG
 50
0.0
  9
$SNAPSTYLE
 70
     0
  9
$SNAPISOPAIR
 70
     0
  9
$GRIDMODE
 70
     0
  9
$GRIDUNIT
 10
0.0
 20
0.0
  9
$ORTHOMODE
 70
     0
  9
$REGENMODE
 70
     1
  9
$FILLMODE
 70
     1
  9
$QTEXTMODE
 70
     0
  9
$DRAGMODE
 70
     2
  9
$LTSCALE
 40
1.0
  9
$OSMODE
 70
     0
  9
$ATTMODE
 70
     1
  9
$TEXTSIZE
 40
0.2
  9
$TRACEWID
 40
0.05
  9
$TEXTSTYLE
  7
STANDARD
  9
$CLAYER
  8
0
  9
$CELTYPE
  6
CONTINUOUS
  9
$CECOLOR
 62
   256
  9
$DIMSCALE
 40
1.0
  9
$DIMASZ
 40
0.18
  9
$DIMEXO
 40
0.0625
  9
$DIMDLI
 40
0.38
  9
$DIMRND
 40
0.0
  9
$DIMDLE
 40
0.0
  9
$DIMEXE
 40
0.18
  9
$DIMTP
 40
0.0
  9
$DIMTM
 40
0.0
  9
$DIMTXT
 40
0.18
  9
$DIMCEN
 40
0.09
  9
$DIMTSZ
 40
0.0
  9
$DIMTOL
 70
     0
  9
$DIMLIM
 70
     0
  9
$DIMTIH
 70
     1
  9
$DIMTOH
 70
     1
  9
$DIMSE1
 70
     0
  9
$DIMSE2
 70
     0
  9
$DIMTAD
 70
     0
  9
$DIMZIN
 70
     0
  9
$DIMBLK
  1

  9
$DIMASO
 70
     1
  9
$DIMSHO
 70
     1
  9
$DIMPOST
  1

  9
$DIMAPOST
  1

  9
$DIMALT
 70
     0
  9
$DIMALTD
 70
     2
  9
$DIMALTF
 40
25.4
  9
$DIMLFAC
 40
1.0
  9
$LUNITS
 70
     4
  9
$LUPREC
 70
     0
  9
$AXISMODE
 70
     0
  9
$AXISUNIT
 10
24.0
 20
24.0
  9
$SKETCHINC
 40
24.0
  9
$FILLETRAD
 40
24.0
  9
$AUNITS
 70
     4
  9
$AUPREC
 70
     0
  9
$MENU
  1
acad
  9
$ELEVATION
 40
0.0
  9
$THICKNESS
 40
120.0
  9
$VIEWDIR
 10
0.0
 20
0.0
 30
1.0
  9
$LIMCHECK
 70
     0
  9
$BLIPMODE
 70
     1
  9
$CHAMFERA
 40
0.0
  9
$CHAMFERB
 40
0.0
  9
$FASTZOOM
 70
     1
  9
$SKPOLY
 70
     0
  9
$TDCREATE
 40
2452581.508043982
  9
$TDUPDATE
 40
2452581.508043982
  9
$TDINDWG
 40
0.0000000000
  9
$TDUSRTIMER
 40
0.0000000000
  9
$USRTIMER
 70
     1
  9
$ANGBASE
 50
0.0
  9
$ANGDIR
 70
     0
  9
$PDMODE
 70
     0
  9
$PDSIZE
 40
0.0
  9
$PLINEWID
 40
0.0
  9
$COORDS
 70
     1
  9
$USERI1
 70
     0
  9
$USERI2
 70
     0
  9
$USERI3
 70
     0
  9
$USERI4
 70
     0
  9
$USERI5
 70
     0
  9
$USERR1
 40
0.0
  9
$USERR2
 40
0.0
  9
$USERR3
 40
0.0
  9
$USERR4
 40
0.0
  9
$USERR5
 40
0.0
  0
ENDSEC
  0
SECTION
  2
TABLES
  0
TABLE
  2
LTYPE
 70
     1
  0
LTYPE
  2
CONTINUOUS
 70
    64
  3
Solid line
 72
    65
 73
     0
 40
0.0
  0
ENDTAB
  0
TABLE
  2
LAYER
 70
    30
  0
LAYER
  2
0
 70
     0
 62
     7
  6
CONTINUOUS
  0
LAYER
  2
OBJECT_1
 70
    64
 62
     1
  6
CONTINUOUS
  0
LAYER
  2
OBJECT_2
 70
    64
 62
     1
  6
CONTINUOUS
  0
LAYER
  2
OBJECT_84
 70
    64
 62
     1
  6
CONTINUOUS
  0
LAYER
  2
OBJECT_85
 70
    64
 62
     1
  6
CONTINUOUS
  0
LAYER
  2
OBJECT_86
 70
    64
 62
     1
  6
CONTINUOUS
  0
LAYER
  2
OBJECT_87
 70
    64
 62
     1
  6
CONTINUOUS
  0
LAYER
  2
OBJECT_88
 70
    64
 62
     1
  6
CONTINUOUS
  0
LAYER
  2
OBJECT_89
 70
    64
 62
     1
  6
CONTINUOUS
  0
LAYER
  2
OBJECT_90
 70
    64
 62
     1
  6
CONTINUOUS
  0
LAYER
  2
OBJECT_91
 70
    64
 62
     1
  6
CONTINUOUS
  0
LAYER
  2
OBJECT_92
 70
    64
 62
     1
  6
CONTINUOUS
  0
LAYER
  2
OBJECT_93
 70
    64
 62
     1
  6
CONTINUOUS
  0
LAYER
  2
OBJECT_94
 70
    64
 62
     1
  6
CONTINUOUS
  0
LAYER
  2
OBJECT_96
 70
    64
 62
     1
  6
CONTINUOUS
  0
LAYER
  2
OBJECT_97
 70
    64
 62
     1
  6
CONTINUOUS
  0
LAYER
  2
OBJECT_89_COPY
 70
    64
 62
     1
  6
CONTINUOUS
  0
LAYER
  2
OBJECT_91_COPY
 70
    64
 62
     1
  6
CONTINUOUS
  0
LAYER
  2
OBJECT_97_COPY_2
 70
    64
 62
     1
  6
CONTINUOUS
  0
LAYER
  2
OBJECT_5
 70
    64
 62
     1
  6
CONTINUOUS
  0
LAYER
  2
OBJECT_4_COPY
 70
    64
 62
     1
  6
CONTINUOUS
  0
LAYER
  2
OBJECT_99
 70
    64
 62
     1
  6
CONTINUOUS
  0
LAYER
  2
OBJECT_100
 70
    64
 62
     1
  6
CONTINUOUS
  0
LAYER
  2
OBJECT_101
 70
    64
 62
     1
  6
CONTINUOUS
  0
LAYER
  2
OBJECT_102
 70
    64
 62
     1
  6
CONTINUOUS
  0
LAYER
  2
OBJECT_103
 70
    64
 62
     1
  6
CONTINUOUS
  0
LAYER
  2
OBJECT_104
 70
    64
 62
     1
  6
CONTINUOUS
  0
LAYER
  2
OBJECT_105
 70
    64
 62
     1
  6
CONTINUOUS
  0
LAYER
  2
OBJECT_106
 70
    64
 62
     1
  6
CONTINUOUS
  0
LAYER
  2
OBJECT_107
 70
    64
 62
     1
  6
CONTINUOUS
  0
ENDTAB
  0
TABLE
  2
STYLE
 70
     1
  0
STYLE
  2
STANDARD
 70
     0
 40
0.0
 41
1.0
 50
0.0
 71
     0
 42
0.0
  3
txt
  4

  0
ENDTAB
  0
TABLE
  2
VIEW
 70
     0
  0
ENDTAB
  0
ENDSEC
  0
SECTION
  2
BLOCKS
  0
ENDSEC
  0
SECTION
  2
ENTITIES
  0
POLYLINE
  8
OBJECT_1
  6
CONTINUOUS
 62
     7
 66
     1
 70
    64
  0
VERTEX
  8
0
 38
27.714898
 10
-193.502481
 20
72.0
 70
   192
  0
VERTEX
  8
0
 38
27.714898
 10
191.246046
 20
72.0
 70
   192
  0
VERTEX
  8
0
 38
27.714898
 10
191.246046
 20
-72.0
 70
   192
  0
VERTEX
  8
0
 38
27.714898
 10
-193.502481
 20
-72.0
 70
   192
  0
VERTEX
  8
0
 38
193.373709
 10
-193.502481
 20
72.0
 70
   192
  0
VERTEX
  8
0
 38
193.373709
 10
191.246046
 20
72.0
 70
   192
  0
VERTEX
  8
0
 38
193.373709
 10
191.246046
 20
-72.0
 70
   192
  0
VERTEX
  8
0
 38
193.373709
 10
-193.502481
 20
-72.0
 70
   192
  0
VERTEX
  8
OBJECT_1
  6
CONTINUOUS
 62
     7
 10
0.0
 20
0.0
 70
   128
  0
VERTEX
  8
OBJECT_1
  6
CONTINUOUS
 62
     7
 10
0.0
 20
0.0
 70
   128
  0
VERTEX
  8
OBJECT_1
  6
CONTINUOUS
 62
     7
 10
0.0
 20
0.0
 70
   128
  0
VERTEX
  8
OBJECT_1
  6
CONTINUOUS
 62
     7
 10
0.0
 20
0.0
 70
   128
  0
VERTEX
  8
OBJECT_1
  6
CONTINUOUS
 62
     7
 10
0.0
 20
0.0
 70
   128
  0
SEQEND
  8
OBJECT_1
  6
CONTINUOUS
 62
     7
  0
POLYLINE
  8
OBJECT_2
  6
CONTINUOUS
 62
   254
 66
     1
 70
    64
  0
VERTEX
  8
0
 38
28.649833
 10
-191.79085
 20
53.284052
 70
   192
  0
VERTEX
  8
0
 38
28.649833
 10
190.20915
 20
53.284052
 70
   192
  0
VERTEX
  8
0
 38
28.649833
 10
190.20915
 20
-42.181322
 70
   192
  0
VERTEX
  8
0
 38
28.649833
 10
-191.79085
 20
-42.181322
 70
   192
  0
VERTEX
  8
0
 38
59.399833
 10
-191.79085
 20
53.284052
 70
   192
  0
VERTEX
  8
0
 38
59.399833
 10
190.20915
 20
53.284052
 70
   192
  0
VERTEX
  8
0
 38
59.399833
 10
190.20915
 20
-42.181322
 70
   192
  0
VERTEX
  8
0
 38
59.399833
 10
-191.79085
 20
-42.181322
 70
   192
  0
VERTEX
  8
OBJECT_2
  6
CONTINUOUS
 62
   254
 10
0.0
 20
0.0
 70
   128
  0
VERTEX
  8
OBJECT_2
  6
CONTINUOUS
 62
   254
 10
0.0
 20
0.0
 70
   128
  0
VERTEX
  8
OBJECT_2
  6
CONTINUOUS
 62
   254
 10
0.0
 20
0.0
 70
   128
  0
VERTEX
  8
OBJECT_2
  6
CONTINUOUS
 62
   254
 10
0.0
 20
0.0
 70
   128
  0
VERTEX
  8
OBJECT_2
  6
CONTINUOUS
 62
   254
 10
0.0
 20
0.0
 70
   128
  0
SEQEND
  8
OBJECT_2
  6
CONTINUOUS
 62
   254
  0
POLYLINE
  8
OBJECT_84
  6
CONTINUOUS
 62
   254
 66
     1
 70
    64
  0
VERTEX
  8
0
 38
150.29604
 10
-159.158525
 20
-14.588739
 70
   192
  0
VERTEX
  8
0
 38
95.641288
 10
-159.158525
 20
-14.588739
 70
   192
  0
VERTEX
  8
0
 38
95.641288
 10
-95.495115
 20
-14.588739
 70
   192
  0
VERTEX
  8
0
 38
150.29604
 10
-95.495115
 20
-14.588739
 70
   192
  0
VERTEX
  8
0
 38
150.29604
 10
-159.158525
 20
17.811261
 70
   192
  0
VERTEX
  8
0
 38
95.641288
 10
-159.158525
 20
17.811261
 70
   192
  0
VERTEX
  8
0
 38
95.641288
 10
-95.495115
 20
17.811261
 70
   192
  0
VERTEX
  8
0
 38
150.29604
 10
-95.495115
 20
17.811261
 70
   192
  0
VERTEX
  8
OBJECT_84
  6
CONTINUOUS
 62
   254
 10
0.0
 20
0.0
 70
   128
  0
VERTEX
  8
OBJECT_84
  6
CONTINUOUS
 62
   254
 10
0.0
 20
0.0
 70
   128
  0
VERTEX
  8
OBJECT_84
  6
CONTINUOUS
 62
   254
 10
0.0
 20
0.0
 70
   128
  0
VERTEX
  8
OBJECT_84
  6
CONTINUOUS
 62
   254
 10
0.0
 20
0.0
 70
   128
  0
VERTEX
  8
OBJECT_84
  6
CONTINUOUS
 62
   254
 10
0.0
 20
0.0
 70
   128
  0
VERTEX
  8
OBJECT_84
  6
CONTINUOUS
 62
   254
 10
0.0
 20
0.0
 70
   128
  0
SEQEND
  8
OBJECT_84
  6
CONTINUOUS
 62
   254
  0
POLYLINE
  8
OBJECT_85
  6
CONTINUOUS
 62
   254
 66
     1
 70
    64
  0
VERTEX
  8
0
 38
160.269535
 10
-47.648701
 20
-14.588739
 70
   192
  0
VERTEX
  8
0
 38
95.641288
 10
-47.648701
 20
-14.588739
 70
   192
  0
VERTEX
  8
0
 38
95.641288
 10
-0.593137
 20
-14.588739
 70
   192
  0
VERTEX
  8
0
 38
160.269535
 10
-0.593137
 20
-14.588739
 70
   192
  0
VERTEX
  8
0
 38
160.269535
 10
-47.648701
 20
17.811261
 70
   192
  0
VERTEX
  8
0
 38
95.641288
 10
-47.648701
 20
17.811261
 70
   192
  0
VERTEX
  8
0
 38
95.641288
 10
-0.593137
 20
17.811261
 70
   192
  0
VERTEX
  8
0
 38
160.269535
 10
-0.593137
 20
17.811261
 70
   192
  0
VERTEX
  8
OBJECT_85
  6
CONTINUOUS
 62
   254
 10
0.0
 20
0.0
 70
   128
  0
VERTEX
  8
OBJECT_85
  6
CONTINUOUS
 62
   254
 10
0.0
 20
0.0
 70
   128
  0
VERTEX
  8
OBJECT_85
  6
CONTINUOUS
 62
   254
 10
0.0
 20
0.0
 70
   128
  0
VERTEX
  8
OBJECT_85
  6
CONTINUOUS
 62
   254
 10
0.0
 20
0.0
 70
   128
  0
VERTEX
  8
OBJECT_85
  6
CONTINUOUS
 62
   254
 10
0.0
 20
0.0
 70
   128
  0
VERTEX
  8
OBJECT_85
  6
CONTINUOUS
 62
   254
 10
0.0
 20
0.0
 70
   128
  0
SEQEND
  8
OBJECT_85
  6
CONTINUOUS
 62
   254
  0
POLYLINE
  8
OBJECT_86
  6
CONTINUOUS
 62
   254
 66
     1
 70
    64
  0
VERTEX
  8
0
 38
175.828187
 10
15.619284
 20
-14.588739
 70
   192
  0
VERTEX
  8
0
 38
107.210542
 10
15.619284
 20
-14.588739
 70
   192
  0
VERTEX
  8
0
 38
107.210542
 10
109.730412
 20
-14.588739
 70
   192
  0
VERTEX
  8
0
 38
175.828187
 10
109.730412
 20
-14.588739
 70
   192
  0
VERTEX
  8
0
 38
175.828187
 10
15.619284
 20
17.811261
 70
   192
  0
VERTEX
  8
0
 38
107.210542
 10
15.619284
 20
17.811261
 70
   192
  0
VERTEX
  8
0
 38
107.210542
 10
109.730412
 20
17.811261
 70
   192
  0
VERTEX
  8
0
 38
175.828187
 10
109.730412
 20
17.811261
 70
   192
  0
VERTEX
  8
OBJECT_86
  6
CONTINUOUS
 62
   254
 10
0.0
 20
0.0
 70
   128
  0
VERTEX
  8
OBJECT_86
  6
CONTINUOUS
 62
   254
 10
0.0
 20
0.0
 70
   128
  0
VERTEX
  8
OBJECT_86
  6
CONTINUOUS
 62
   254
 10
0.0
 20
0.0
 70
   128
  0
VERTEX
  8
OBJECT_86
  6
CONTINUOUS
 62
   254
 10
0.0
 20
0.0
 70
   128
  0
VERTEX
  8
OBJECT_86
  6
CONTINUOUS
 62
   254
 10
0.0
 20
0.0
 70
   128
  0
VERTEX
  8
OBJECT_86
  6
CONTINUOUS
 62
   254
 10
0.0
 20
0.0
 70
   128
  0
SEQEND
  8
OBJECT_86
  6
CONTINUOUS
 62
   254
  0
POLYLINE
  8
OBJECT_87
  6
CONTINUOUS
 62
   254
 66
     1
 70
    64
  0
VERTEX
  8
0
 38
123.584648
 10
124.361133
 20
-14.588739
 70
   192
  0
VERTEX
  8
0
 38
84.089608
 10
124.361133
 20
-14.588739
 70
   192
  0
VERTEX
  8
0
 38
84.089608
 10
179.72062
 20
-14.588739
 70
   192
  0
VERTEX
  8
0
 38
123.584648
 10
179.72062
 20
-14.588739
 70
   192
  0
VERTEX
  8
0
 38
123.584648
 10
124.361133
 20
17.811261
 70
   192
  0
VERTEX
  8
0
 38
84.089608
 10
124.361133
 20
17.811261
 70
   192
  0
VERTEX
  8
0
 38
84.089608
 10
179.72062
 20
17.811261
 70
   192
  0
VERTEX
  8
0
 38
123.584648
 10
179.72062
 20
17.811261
 70
   192
  0
VERTEX
  8
OBJECT_87
  6
CONTINUOUS
 62
   254
 10
0.0
 20
0.0
 70
   128
  0
VERTEX
  8
OBJECT_87
  6
CONTINUOUS
 62
   254
 10
0.0
 20
0.0
 70
   128
  0
VERTEX
  8
OBJECT_87
  6
CONTINUOUS
 62
   254
 10
0.0
 20
0.0
 70
   128
  0
VERTEX
  8
OBJECT_87
  6
CONTINUOUS
 62
   254
 10
0.0
 20
0.0
 70
   128
  0
VERTEX
  8
OBJECT_87
  6
CONTINUOUS
 62
   254
 10
0.0
 20
0.0
 70
   128
  0
VERTEX
  8
OBJECT_87
  6
CONTINUOUS
 62
   254
 10
0.0
 20
0.0
 70
   128
  0
SEQEND
  8
OBJECT_87
  6
CONTINUOUS
 62
   254
  0
POLYLINE
  8
OBJECT_88
  6
CONTINUOUS
 62
   253
 66
     1
 70
    64
  0
VERTEX
  8
0
 38
59.313736
 10
-121.942833
 20
0.029561
 70
   192
  0
VERTEX
  8
0
 38
59.313736
 10
-122.07913
 20
1.064837
 70
   192
  0
VERTEX
  8
0
 38
59.313736
 10
-122.478731
 20
2.029561
 70
   192
  0
VERTEX
  8
0
 38
59.313736
 10
-123.114406
 20
2.857988
 70
   192
  0
VERTEX
  8
0
 38
59.313736
 10
-123.942833
 20
3.493663
 70
   192
  0
VERTEX
  8
0
 38
59.313736
 10
-124.907557
 20
3.893264
 70
   192
  0
VERTEX
  8
0
 38
59.313736
 10
-125.942833
 20
4.029561
 70
   192
  0
VERTEX
  8
0
 38
59.313736
 10
-126.978109
 20
3.893264
 70
   192
  0
VERTEX
  8
0
 38
59.313736
 10
-127.942833
 20
3.493663
 70
   192
  0
VERTEX
  8
0
 38
59.313736
 10
-128.77126
 20
2.857988
 70
   192
  0
VERTEX
  8
0
 38
59.313736
 10
-129.406934
 20
2.029561
 70
   192
  0
VERTEX
  8
0
 38
59.313736
 10
-129.806536
 20
1.064837
 70
   192
  0
VERTEX
  8
0
 38
59.313736
 10
-129.942833
 20
0.029561
 70
   192
  0
VERTEX
  8
0
 38
59.313736
 10
-129.806536
 20
-1.005715
 70
   192
  0
VERTEX
  8
0
 38
59.313736
 10
-129.406934
 20
-1.970439
 70
   192
  0
VERTEX
  8
0
 38
59.313736
 10
-128.77126
 20
-2.798866
 70
   192
  0
VERTEX
  8
0
 38
59.313736
 10
-127.942833
 20
-3.434541
 70
   192
  0
VERTEX
  8
0
 38
59.313736
 10
-126.978109
 20
-3.834142
 70
   192
  0
VERTEX
  8
0
 38
59.313736
 10
-125.942833
 20
-3.970439
 70
   192
  0
VERTEX
  8
0
 38
59.313736
 10
-124.907557
 20
-3.834142
 70
   192
  0
VERTEX
  8
0
 38
59.313736
 10
-123.942833
 20
-3.434541
 70
   192
  0
VERTEX
  8
0
 38
59.313736
 10
-123.114406
 20
-2.798866
 70
   192
  0
VERTEX
  8
0
 38
59.313736
 10
-122.478731
 20
-1.970439
 70
   192
  0
VERTEX
  8
0
 38
59.313736
 10
-122.07913
 20
-1.005715
 70
   192
  0
VERTEX
  8
0
 38
95.313736
 10
-121.942833
 20
0.029561
 70
   192
  0
VERTEX
  8
0
 38
95.313736
 10
-122.07913
 20
1.064837
 70
   192
  0
VERTEX
  8
0
 38
95.313736
 10
-122.478731
 20
2.029561
 70
   192
  0
VERTEX
  8
0
 38
95.313736
 10
-123.114406
 20
2.857988
 70
   192
  0
VERTEX
  8
0
 38
95.313736
 10
-123.942833
 20
3.493663
 70
   192
  0
VERTEX
  8
0
 38
95.313736
 10
-124.907557
 20
3.893264
 70
   192
  0
VERTEX
  8
0
 38
95.313736
 10
-125.942833
 20
4.029561
 70
   192
  0
VERTEX
  8
0
 38
95.313736
 10
-126.978109
 20
3.893264
 70
   192
  0
VERTEX
  8
0
 38
95.313736
 10
-127.942833
 20
3.493663
 70
   192
  0
VERTEX
  8
0
 38
95.313736
 10
-128.77126
 20
2.857988
 70
   192
  0
VERTEX
  8
0
 38
95.313736
 10
-129.406934
 20
2.029561
 70
   192
  0
VERTEX
  8
0
 38
95.313736
 10
-129.806536
 20
1.064837
 70
   192
  0
VERTEX
  8
0
 38
95.313736
 10
-129.942833
 20
0.029561
 70
   192
  0
VERTEX
  8
0
 38
95.313736
 10
-129.806536
 20
-1.005715
 70
   192
  0
VERTEX
  8
0
 38
95.313736
 10
-129.406934
 20
-1.970439
 70
   192
  0
VERTEX
  8
0
 38
95.313736
 10
-128.77126
 20
-2.798866
 70
   192
  0
VERTEX
  8
0
 38
95.313736
 10
-127.942833
 20
-3.434541
 70
   192
  0
VERTEX
  8
0
 38
95.313736
 10
-126.978109
 20
-3.834142
 70
   192
  0
VERTEX
  8
0
 38
95.313736
 10
-125.942833
 20
-3.970439
 70
   192
  0
VERTEX
  8
0
 38
95.313736
 10
-124.907557
 20
-3.834142
 70
   192
  0
VERTEX
  8
0
 38
95.313736
 10
-123.942833
 20
-3.434541
 70
   192
  0
VERTEX
  8
0
 38
95.313736
 10
-123.114406
 20
-2.798866
 70
   192
  0
VERTEX
  8
0
 38
95.313736
 10
-122.478731
 20
-1.970439
 70
   192
  0
VERTEX
  8
0
 38
95.313736
 10
-122.07913
 20
-1.005715
 70
   192
  0
VERTEX
  8
OBJECT_88
  6
CONTINUOUS
 62
   253
 10
0.0
 20
0.0
 70
   128
  0
VERTEX
  8
OBJECT_88
  6
CONTINUOUS
 62
   253
 10
0.0
 20
0.0
 70
   128
  0
VERTEX
  8
OBJECT_88
  6
CONTINUOUS
 62
   253
 10
0.0
 20
0.0
 70
   128
  0
VERTEX
  8
OBJECT_88
  6
CONTINUOUS
 62
   253
 10
0.0
 20
0.0
 70
   128
  0
VERTEX
  8
OBJECT_88
  6
CONTINUOUS
 62
   253
 10
0.0
 20
0.0
 70
   128
  0
VERTEX
  8
OBJECT_88
  6
CONTINUOUS
 62
   253
 10
0.0
 20
0.0
 70
   128
  0
VERTEX
  8
OBJECT_88
  6
CONTINUOUS
 62
   253
 10
0.0
 20
0.0
 70
   128
  0
VERTEX
  8
OBJECT_88
  6
CONTINUOUS
 62
   253
 10
0.0
 20
0.0
 70
   128
  0
VERTEX
  8
OBJECT_88
  6
CONTINUOUS
 62
   253
 10
0.0
 20
0.0
 70
   128
  0
VERTEX
  8
OBJECT_88
  6
CONTINUOUS
 62
   253
 10
0.0
 20
0.0
 70
   128
  0
VERTEX
  8
OBJECT_88
  6
CONTINUOUS
 62
   253
 10
0.0
 20
0.0
 70
   128
  0
VERTEX
  8
OBJECT_88
  6
CONTINUOUS
 62
   253
 10
0.0
 20
0.0
 70
   128
  0
VERTEX
  8
OBJECT_88
  6
CONTINUOUS
 62
   253
 10
0.0
 20
0.0
 70
   128
  0
VERTEX
  8
OBJECT_88
  6
CONTINUOUS
 62
   253
 10
0.0
 20
0.0
 70
   128
  0
VERTEX
  8
OBJECT_88
  6
CONTINUOUS
 62
   253
 10
0.0
 20
0.0
 70
   128
  0
VERTEX
  8
OBJECT_88
  6
CONTINUOUS
 62
   253
 10
0.0
 20
0.0
 70
   128
  0
VERTEX
  8
OBJECT_88
  6
CONTINUOUS
 62
   253
 10
0.0
 20
0.0
 70
   128
  0
VERTEX
  8
OBJECT_88
  6
CONTINUOUS
 62
   253
 10
0.0
 20
0.0
 70
   128
  0
VERTEX
  8
OBJECT_88
  6
CONTINUOUS
 62
   253
 10
0.0
 20
0.0
 70
   128
  0
VERTEX
  8
OBJECT_88
  6
CONTINUOUS
 62
   253
 10
0.0
 20
0.0
 70
   128
  0
VERTEX
  8
OBJECT_88
  6
CONTINUOUS
 62
   253
 10
0.0
 20
0.0
 70
   128
  0
VERTEX
  8
OBJECT_88
  6
CONTINUOUS
 62
   253
 10
0.0
 20
0.0
 70
   128
  0
VERTEX
  8
OBJECT_88
  6
CONTINUOUS
 62
   253
 10
0.0
 20
0.0
 70
   128
  0
VERTEX
  8
OBJECT_88
  6
CONTINUOUS
 62
   253
 10
0.0
 20
0.0
 70
   128
  0
VERTEX
  8
OBJECT_88
  6
CONTINUOUS
 62
   253
 10
0.0
 20
0.0
 70
   128
  0
VERTEX
  8
OBJECT_88
  6
CONTINUOUS
 62
   253
 10
0.0
 20
0.0
 70
   128
  0
VERTEX
  8
OBJECT_88
  6
CONTINUOUS
 62
   253
 10
0.0
 20
0.0
 70
   128
  0
VERTEX
  8
OBJECT_88
  6
CONTINUOUS
 62
   253
 10
0.0
 20
0.0
 70
   128
  0
VERTEX
  8
OBJECT_88
  6
CONTINUOUS
 62
   253
 10
0.0
 20
0.0
 70
   128
  0
VERTEX
  8
OBJECT_88
  6
CONTINUOUS
 62
   253
 10
0.0
 20
0.0
 70
   128
  0
VERTEX
  8
OBJECT_88
  6
CONTINUOUS
 62
   253
 10
0.0
 20
0.0
 70
   128
  0
VERTEX
  8
OBJECT_88
  6
CONTINUOUS
 62
   253
 10
0.0
 20
0.0
 70
   128
  0
VERTEX
  8
OBJECT_88
  6
CONTINUOUS
 62
   253
 10
0.0
 20
0.0
 70
   128
  0
VERTEX
  8
OBJECT_88
  6
CONTINUOUS
 62
   253
 10
0.0
 20
0.0
 70
   128
  0
VERTEX
  8
OBJECT_88
  6
CONTINUOUS
 62
   253
 10
0.0
 20
0.0
 70
   128
  0
VERTEX
  8
OBJECT_88
  6
CONTINUOUS
 62
   253
 10
0.0
 20
0.0
 70
   128
  0
VERTEX
  8
OBJECT_88
  6
CONTINUOUS
 62
   253
 10
0.0
 20
0.0
 70
   128
  0
VERTEX
  8
OBJECT_88
  6
CONTINUOUS
 62
   253
 10
0.0
 20
0.0
 70
   128
  0
VERTEX
  8
OBJECT_88
  6
CONTINUOUS
 62
   253
 10
0.0
 20
0.0
 70
   128
  0
VERTEX
  8
OBJECT_88
  6
CONTINUOUS
 62
   253
 10
0.0
 20
0.0
 70
   128
  0
VERTEX
  8
OBJECT_88
  6
CONTINUOUS
 62
   253
 10
0.0
 20
0.0
 70
   128
  0
VERTEX
  8
OBJECT_88
  6
CONTINUOUS
 62
   253
 10
0.0
 20
0.0
 70
   128
  0
VERTEX
  8
OBJECT_88
  6
CONTINUOUS
 62
   253
 10
0.0
 20
0.0
 70
   128
  0
VERTEX
  8
OBJECT_88
  6
CONTINUOUS
 62
   253
 10
0.0
 20
0.0
 70
   128
  0
VERTEX
  8
OBJECT_88
  6
CONTINUOUS
 62
   253
 10
0.0
 20
0.0
 70
   128
  0
VERTEX
  8
OBJECT_88
  6
CONTINUOUS
 62
   253
 10
0.0
 20
0.0
 70
   128
  0
SEQEND
  8
OBJECT_88
  6
CONTINUOUS
 62
   253
  0
POLYLINE
  8
OBJECT_89
  6
CONTINUOUS
 62
   253
 66
     1
 70
    64
  0
VERTEX
  8
0
 38
59.270589
 10
-133.01473
 20
0.029561
 70
   192
  0
VERTEX
  8
0
 38
59.270589
 10
-133.151027
 20
1.064837
 70
   192
  0
VERTEX
  8
0
 38
59.270589
 10
-133.550629
 20
2.029561
 70
   192
  0
VERTEX
  8
0
 38
59.270589
 10
-134.186303
 20
2.857988
 70
   192
  0
VERTEX
  8
0
 38
59.270589
 10
-135.01473
 20
3.493663
 70
   192
  0
VERTEX
  8
0
 38
59.270589
 10
-135.979454
 20
3.893264
 70
   192
  0
VERTEX
  8
0
 38
59.270589
 10
-137.01473
 20
4.029561
 70
   192
  0
VERTEX
  8
0
 38
59.270589
 10
-138.050006
 20
3.893264
 70
   192
  0
VERTEX
  8
0
 38
59.270589
 10
-139.01473
 20
3.493663
 70
   192
  0
VERTEX
  8
0
 38
59.270589
 10
-139.843157
 20
2.857988
 70
   192
  0
VERTEX
  8
0
 38
59.270589
 10
-140.478832
 20
2.029561
 70
   192
  0
VERTEX
  8
0
 38
59.270589
 10
-140.878434
 20
1.064837
 70
   192
  0
VERTEX
  8
0
 38
59.270589
 10
-141.01473
 20
0.029561
 70
   192
  0
VERTEX
  8
0
 38
59.270589
 10
-140.878434
 20
-1.005715
 70
   192
  0
VERTEX
  8
0
 38
59.270589
 10
-140.478832
 20
-1.970439
 70
   192
  0
VERTEX
  8
0
 38
59.270589
 10
-139.843157
 20
-2.798866
 70
   192
  0
VERTEX
  8
0
 38
59.270589
 10
-139.01473
 20
-3.434541
 70
   192
  0
VERTEX
  8
0
 38
59.270589
 10
-138.050006
 20
-3.834142
 70
   192
  0
VERTEX
  8
0
 38
59.270589
 10
-137.01473
 20
-3.970439
 70
   192
  0
VERTEX
  8
0
 38
59.270589
 10
-135.979454
 20
-3.834142
 70
   192
  0
VERTEX
  8
0
 38
59.270589
 10
-135.01473
 20
-3.434541
 70
   192
  0
VERTEX
  8
0
 38
59.270589
 10
-134.186303
 20
-2.798866
 70
   192
  0
VERTEX
  8
0
 38
59.270589
 10
-133.550629
 20
-1.970439
 70
   192
  0
VERTEX
  8
0
 38
59.270589
 10
-133.151027
 20
-1.005715
 70
   192
  0
VERTEX
  8
0
 38
95.270589
 10
-133.01473
 20
0.029561
 70
   192
  0
VERTEX
  8
0
 38
95.270589
 10
-133.151027
 20
1.064837
 70
   192
  0
VERTEX
  8
0
 38
95.270589
 10
-133.550629
 20
2.029561
 70
   192
  0
VERTEX
  8
0
 38
95.270589
 10
-134.186303
 20
2.857988
 70
   192
  0
VERTEX
  8
0
 38
95.270589
 10
-135.01473
 20
3.493663
 70
   192
  0
VERTEX
  8
0
 38
95.270589
 10
-135.979454
 20
3.893264
 70
   192
  0
VERTEX
  8
0
 38
95.270589
 10
-137.01473
 20
4.029561
 70
   192
  0
VERTEX
  8
0
 38
95.270589
 10
-138.050006
 20
3.893264
 70
   192
  0
VERTEX
  8
0
 38
95.270589
 10
-139.01473
 20
3.493663
 70
   192
  0
VERTEX
  8
0
 38
95.270589
 10
-139.843157
 20
2.857988
 70
   192
  0
VERTEX
  8
0
 38
95.270589
 10
-140.478832
 20
2.029561
 70
   192
  0
VERTEX
  8
0
 38
95.270589
 10
-140.878434
 20
1.064837
 70
   192
  0
VERTEX
  8
0
 38
95.270589
 10
-141.01473
 20
0.029561
 70
   192
  0
VERTEX
  8
0
 38
95.270589
 10
-140.878434
 20
-1.005715
 70
   192
  0
VERTEX
  8
0
 38
95.270589
 10
-140.478832
 20
-1.970439
 70
   192
  0
VERTEX
  8
0
 38
95.270589
 10
-139.843157
 20
-2.798866
 70
   192
  0
VERTEX
  8
0
 38
95.270589
 10
-139.01473
 20
-3.434541
 70
   192
  0
VERTEX
  8
0
 38
95.270589
 10
-138.050006
 20
-3.834142
 70
   192
  0
VERTEX
  8
0
 38
95.270589
 10
-137.01473
 20
-3.970439
 70
   192
  0
VERTEX
  8
0
 38
95.270589
 10
-135.979454
 20
-3.834142
 70
   192
  0
VERTEX
  8
0
 38
95.270589
 10
-135.01473
 20
-3.434541
 70
   192
  0
VERTEX
  8
0
 38
95.270589
 10
-134.186303
 20
-2.798866
 70
   192
  0
VERTEX
  8
0
 38
95.270589
 10
-133.550629
 20
-1.970439
 70
   192
  0
VERTEX
  8
0
 38
95.270589
 10
-133.151027
 20
-1.005715
 70
   192
  0
VERTEX
  8
OBJECT_89
  6
CONTINUOUS
 62
   253
 10
0.0
 20
0.0
 70
   128
  0
VERTEX
  8
OBJECT_89
  6
CONTINUOUS
 62
   253
 10
0.0
 20
0.0
 70
   128
  0
VERTEX
  8
OBJECT_89
  6
CONTINUOUS
 62
   253
 10
0.0
 20
0.0
 70
   128
  0
VERTEX
  8
OBJECT_89
  6
CONTINUOUS
 62
   253
 10
0.0
 20
0.0
 70
   128
  0
VERTEX
  8
OBJECT_89
  6
CONTINUOUS
 62
   253
 10
0.0
 20
0.0
 70
   128
  0
VERTEX
  8
OBJECT_89
  6
CONTINUOUS
 62
   253
 10
0.0
 20
0.0
 70
   128
  0
VERTEX
  8
OBJECT_89
  6
CONTINUOUS
 62
   253
 10
0.0
 20
0.0
 70
   128
  0
VERTEX
  8
OBJECT_89
  6
CONTINUOUS
 62
   253
 10
0.0
 20
0.0
 70
   128
  0
VERTEX
  8
OBJECT_89
  6
CONTINUOUS
 62
   253
 10
0.0
 20
0.0
 70
   128
  0
VERTEX
  8
OBJECT_89
  6
CONTINUOUS
 62
   253
 10
0.0
 20
0.0
 70
   128
  0
VERTEX
  8
OBJECT_89
  6
CONTINUOUS
 62
   253
 10
0.0
 20
0.0
 70
   128
  0
VERTEX
  8
OBJECT_89
  6
CONTINUOUS
 62
   253
 10
0.0
 20
0.0
 70
   128
  0
VERTEX
  8
OBJECT_89
  6
CONTINUOUS
 62
   253
 10
0.0
 20
0.0
 70
   128
  0
VERTEX
  8
OBJECT_89
  6
CONTINUOUS
 62
   253
 10
0.0
 20
0.0
 70
   128
  0
VERTEX
  8
OBJECT_89
  6
CONTINUOUS
 62
   253
 10
0.0
 20
0.0
 70
   128
  0
VERTEX
  8
OBJECT_89
  6
CONTINUOUS
 62
   253
 10
0.0
 20
0.0
 70
   128
  0
VERTEX
  8
OBJECT_89
  6
CONTINUOUS
 62
   253
 10
0.0
 20
0.0
 70
   128
  0
VERTEX
  8
OBJECT_89
  6
CONTINUOUS
 62
   253
 10
0.0
 20
0.0
 70
   128
  0
VERTEX
  8
OBJECT_89
  6
CONTINUOUS
 62
   253
 10
0.0
 20
0.0
 70
   128
  0
VERTEX
  8
OBJECT_89
  6
CONTINUOUS
 62
   253
 10
0.0
 20
0.0
 70
   128
  0
VERTEX
  8
OBJECT_89
  6
CONTINUOUS
 62
   253
 10
0.0
 20
0.0
 70
   128
  0
VERTEX
  8
OBJECT_89
  6
CONTINUOUS
 62
   253
 10
0.0
 20
0.0
 70
   128
  0
VERTEX
  8
OBJECT_89
  6
CONTINUOUS
 62
   253
 10
0.0
 20
0.0
 70
   128
  0
VERTEX
  8
OBJECT_89
  6
CONTINUOUS
 62
   253
 10
0.0
 20
0.0
 70
   128
  0
VERTEX
  8
OBJECT_89
  6
CONTINUOUS
 62
   253
 10
0.0
 20
0.0
 70
   128
  0
VERTEX
  8
OBJECT_89
  6
CONTINUOUS
 62
   253
 10
0.0
 20
0.0
 70
   128
  0
VERTEX
  8
OBJECT_89
  6
CONTINUOUS
 62
   253
 10
0.0
 20
0.0
 70
   128
  0
VERTEX
  8
OBJECT_89
  6
CONTINUOUS
 62
   253
 10
0.0
 20
0.0
 70
   128
  0
VERTEX
  8
OBJECT_89
  6
CONTINUOUS
 62
   253
 10
0.0
 20
0.0
 70
   128
  0
VERTEX
  8
OBJECT_89
  6
CONTINUOUS
 62
   253
 10
0.0
 20
0.0
 70
   128
  0
VERTEX
  8
OBJECT_89
  6
CONTINUOUS
 62
   253
 10
0.0
 20
0.0
 70
   128
  0
VERTEX
  8
OBJECT_89
  6
CONTINUOUS
 62
   253
 10
0.0
 20
0.0
 70
   128
  0
VERTEX
  8
OBJECT_89
  6
CONTINUOUS
 62
   253
 10
0.0
 20
0.0
 70
   128
  0
VERTEX
  8
OBJECT_89
  6
CONTINUOUS
 62
   253
 10
0.0
 20
0.0
 70
   128
  0
VERTEX
  8
OBJECT_89
  6
CONTINUOUS
 62
   253
 10
0.0
 20
0.0
 70
   128
  0
VERTEX
  8
OBJECT_89
  6
CONTINUOUS
 62
   253
 10
0.0
 20
0.0
 70
   128
  0
VERTEX
  8
OBJECT_89
  6
CONTINUOUS
 62
   253
 10
0.0
 20
0.0
 70
   128
  0
VERTEX
  8
OBJECT_89
  6
CONTINUOUS
 62
   253
 10
0.0
 20
0.0
 70
   128
  0
VERTEX
  8
OBJECT_89
  6
CONTINUOUS
 62
   253
 10
0.0
 20
0.0
 70
   128
  0
VERTEX
  8
OBJECT_89
  6
CONTINUOUS
 62
   253
 10
0.0
 20
0.0
 70
   128
  0
VERTEX
  8
OBJECT_89
  6
CONTINUOUS
 62
   253
 10
0.0
 20
0.0
 70
   128
  0
VERTEX
  8
OBJECT_89
  6
CONTINUOUS
 62
   253
 10
0.0
 20
0.0
 70
   128
  0
VERTEX
  8
OBJECT_89
  6
CONTINUOUS
 62
   253
 10
0.0
 20
0.0
 70
   128
  0
VERTEX
  8
OBJECT_89
  6
CONTINUOUS
 62
   253
 10
0.0
 20
0.0
 70
   128
  0
VERTEX
  8
OBJECT_89
  6
CONTINUOUS
 62
   253
 10
0.0
 20
0.0
 70
   128
  0
VERTEX
  8
OBJECT_89
  6
CONTINUOUS
 62
   253
 10
0.0
 20
0.0
 70
   128
  0
SEQEND
  8
OBJECT_89
  6
CONTINUOUS
 62
   253
  0
POLYLINE
  8
OBJECT_90
  6
CONTINUOUS
 62
   253
 66
     1
 70
    64
  0
VERTEX
  8
0
 38
59.270589
 10
-9.29698
 20
0.424986
 70
   192
  0
VERTEX
  8
0
 38
59.270589
 10
-9.433277
 20
1.460262
 70
   192
  0
VERTEX
  8
0
 38
59.270589
 10
-9.832879
 20
2.424986
 70
   192
  0
VERTEX
  8
0
 38
59.270589
 10
-10.468553
 20
3.253413
 70
   192
  0
VERTEX
  8
0
 38
59.270589
 10
-11.29698
 20
3.889087
 70
   192
  0
VERTEX
  8
0
 38
59.270589
 10
-12.261704
 20
4.288689
 70
   192
  0
VERTEX
  8
0
 38
59.270589
 10
-13.29698
 20
4.424986
 70
   192
  0
VERTEX
  8
0
 38
59.270589
 10
-14.332256
 20
4.288689
 70
   192
  0
VERTEX
  8
0
 38
59.270589
 10
-15.29698
 20
3.889087
 70
   192
  0
VERTEX
  8
0
 38
59.270589
 10
-16.125407
 20
3.253413
 70
   192
  0
VERTEX
  8
0
 38
59.270589
 10
-16.761082
 20
2.424986
 70
   192
  0
VERTEX
  8
0
 38
59.270589
 10
-17.160684
 20
1.460262
 70
   192
  0
VERTEX
  8
0
 38
59.270589
 10
-17.29698
 20
0.424986
 70
   192
  0
VERTEX
  8
0
 38
59.270589
 10
-17.160684
 20
-0.61029
 70
   192
  0
VERTEX
  8
0
 38
59.270589
 10
-16.761082
 20
-1.575014
 70
   192
  0
VERTEX
  8
0
 38
59.270589
 10
-16.125407
 20
-2.403441
 70
   192
  0
VERTEX
  8
0
 38
59.270589
 10
-15.29698
 20
-3.039116
 70
   192
  0
VERTEX
  8
0
 38
59.270589
 10
-14.332256
 20
-3.438717
 70
   192
  0
VERTEX
  8
0
 38
59.270589
 10
-13.29698
 20
-3.575014
 70
   192
  0
VERTEX
  8
0
 38
59.270589
 10
-12.261704
 20
-3.438717
 70
   192
  0
VERTEX
  8
0
 38
59.270589
 10
-11.29698
 20
-3.039116
 70
   192
  0
VERTEX
  8
0
 38
59.270589
 10
-10.468553
 20
-2.403441
 70
   192
  0
VERTEX
  8
0
 38
59.270589
 10
-9.832879
 20
-1.575014
 70
   192
  0
VERTEX
  8
0
 38
59.270589
 10
-9.433277
 20
-0.61029
 70
   192
  0
VERTEX
  8
0
 38
95.270589
 10
-9.29698
 20
0.424986
 70
   192
  0
VERTEX
  8
0
 38
95.270589
 10
-9.433277
 20
1.460262
 70
   192
  0
VERTEX
  8
0
 38
95.270589
 10
-9.832879
 20
2.424986
 70
   192
  0
VERTEX
  8
0
 38
95.270589
 10
-10.468553
 20
3.253413
 70
   192
  0
VERTEX
  8
0
 38
95.270589
 10
-11.29698
 20
3.889087
 70
   192
  0
VERTEX
  8
0
 38
95.270589
 10
-12.261704
 20
4.288689
 70
   192
  0
VERTEX
  8
0
 38
95.270589
 10
-13.29698
 20
4.424986
 70
   192
  0
VERTEX
  8
0
 38
95.270589
 10
-14.332256
 20
4.288689
 70
   192
  0
VERTEX
  8
0
 38
95.270589
 10
-15.29698
 20
3.889087
 70
   192
  0
VERTEX
  8
0
 38
95.270589
 10
-16.125407
 20
3.253413
 70
   192
  0
VERTEX
  8
0
 38
95.270589
 10
-16.761082
 20
2.424986
 70
   192
  0
VERTEX
  8
0
 38
95.270589
 10
-17.160684
 20
1.460262
 70
   192
  0
VERTEX
  8
0
 38
95.270589
 10
-17.29698
 20
0.424986
 70
   192
  0
VERTEX
  8
0
 38
95.270589
 10
-17.160684
 20
-0.61029
 70
   192
  0
VERTEX
  8
0
 38
95.270589
 10
-16.761082
 20
-1.575014
 70
   192
  0
VERTEX
  8
0
 38
95.270589
 10
-16.125407
 20
-2.403441
 70
   192
  0
VERTEX
  8
0
 38
95.270589
 10
-15.29698
 20
-3.039116
 70
   192
  0
VERTEX
  8
0
 38
95.270589
 10
-14.332256
 20
-3.438717
 70
   192
  0
VERTEX
  8
0
 38
95.270589
 10
-13.29698
 20
-3.575014
 70
   192
  0
VERTEX
  8
0
 38
95.270589
 10
-12.261704
 20
-3.438717
 70
   192
  0
VERTEX
  8
0
 38
95.270589
 10
-11.29698
 20
-3.039116
 70
   192
  0
VERTEX
  8
0
 38
95.270589
 10
-10.468553
 20
-2.403441
 70
   192
  0
VERTEX
  8
0
 38
95.270589
 10
-9.832879
 20
-1.575014
 70
   192
  0
VERTEX
  8
0
 38
95.270589
 10
-9.433277
 20
-0.61029
 70
   192
  0
VERTEX
  8
OBJECT_90
  6
CONTINUOUS
 62
   253
 10
0.0
 20
0.0
 70
   128
  0
VERTEX
  8
OBJECT_90
  6
CONTINUOUS
 62
   253
 10
0.0
 20
0.0
 70
   128
  0
VERTEX
  8
OBJECT_90
  6
CONTINUOUS
 62
   253
 10
0.0
 20
0.0
 70
   128
  0
VERTEX
  8
OBJECT_90
  6
CONTINUOUS
 62
   253
 10
0.0
 20
0.0
 70
   128
  0
VERTEX
  8
OBJECT_90
  6
CONTINUOUS
 62
   253
 10
0.0
 20
0.0
 70
   128
  0
VERTEX
  8
OBJECT_90
  6
CONTINUOUS
 62
   253
 10
0.0
 20
0.0
 70
   128
  0
VERTEX
  8
OBJECT_90
  6
CONTINUOUS
 62
   253
 10
0.0
 20
0.0
 70
   128
  0
VERTEX
  8
OBJECT_90
  6
CONTINUOUS
 62
   253
 10
0.0
 20
0.0
 70
   128
  0
VERTEX
  8
OBJECT_90
  6
CONTINUOUS
 62
   253
 10
0.0
 20
0.0
 70
   128
  0
VERTEX
  8
OBJECT_90
  6
CONTINUOUS
 62
   253
 10
0.0
 20
0.0
 70
   128
  0
VERTEX
  8
OBJECT_90
  6
CONTINUOUS
 62
   253
 10
0.0
 20
0.0
 70
   128
  0
VERTEX
  8
OBJECT_90
  6
CONTINUOUS
 62
   253
 10
0.0
 20
0.0
 70
   128
  0
VERTEX
  8
OBJECT_90
  6
CONTINUOUS
 62
   253
 10
0.0
 20
0.0
 70
   128
  0
VERTEX
  8
OBJECT_90
  6
CONTINUOUS
 62
   253
 10
0.0
 20
0.0
 70
   128
  0
VERTEX
  8
OBJECT_90
  6
CONTINUOUS
 62
   253
 10
0.0
 20
0.0
 70
   128
  0
VERTEX
  8
OBJECT_90
  6
CONTINUOUS
 62
   253
 10
0.0
 20
0.0
 70
   128
  0
VERTEX
  8
OBJECT_90
  6
CONTINUOUS
 62
   253
 10
0.0
 20
0.0
 70
   128
  0
VERTEX
  8
OBJECT_90
  6
CONTINUOUS
 62
   253
 10
0.0
 20
0.0
 70
   128
  0
VERTEX
  8
OBJECT_90
  6
CONTINUOUS
 62
   253
 10
0.0
 20
0.0
 70
   128
  0
VERTEX
  8
OBJECT_90
  6
CONTINUOUS
 62
   253
 10
0.0
 20
0.0
 70
   128
  0
VERTEX
  8
OBJECT_90
  6
CONTINUOUS
 62
   253
 10
0.0
 20
0.0
 70
   128
  0
VERTEX
  8
OBJECT_90
  6
CONTINUOUS
 62
   253
 10
0.0
 20
0.0
 70
   128
  0
VERTEX
  8
OBJECT_90
  6
CONTINUOUS
 62
   253
 10
0.0
 20
0.0
 70
   128
  0
VERTEX
  8
OBJECT_90
  6
CONTINUOUS
 62
   253
 10
0.0
 20
0.0
 70
   128
  0
VERTEX
  8
OBJECT_90
  6
CONTINUOUS
 62
   253
 10
0.0
 20
0.0
 70
   128
  0
VERTEX
  8
OBJECT_90
  6
CONTINUOUS
 62
   253
 10
0.0
 20
0.0
 70
   128
  0
VERTEX
  8
OBJECT_90
  6
CONTINUOUS
 62
   253
 10
0.0
 20
0.0
 70
   128
  0
VERTEX
  8
OBJECT_90
  6
CONTINUOUS
 62
   253
 10
0.0
 20
0.0
 70
   128
  0
VERTEX
  8
OBJECT_90
  6
CONTINUOUS
 62
   253
 10
0.0
 20
0.0
 70
   128
  0
VERTEX
  8
OBJECT_90
  6
CONTINUOUS
 62
   253
 10
0.0
 20
0.0
 70
   128
  0
VERTEX
  8
OBJECT_90
  6
CONTINUOUS
 62
   253
 10
0.0
 20
0.0
 70
   128
  0
VERTEX
  8
OBJECT_90
  6
CONTINUOUS
 62
   253
 10
0.0
 20
0.0
 70
   128
  0
VERTEX
  8
OBJECT_90
  6
CONTINUOUS
 62
   253
 10
0.0
 20
0.0
 70
   128
  0
VERTEX
  8
OBJECT_90
  6
CONTINUOUS
 62
   253
 10
0.0
 20
0.0
 70
   128
  0
VERTEX
  8
OBJECT_90
  6
CONTINUOUS
 62
   253
 10
0.0
 20
0.0
 70
   128
  0
VERTEX
  8
OBJECT_90
  6
CONTINUOUS
 62
   253
 10
0.0
 20
0.0
 70
   128
  0
VERTEX
  8
OBJECT_90
  6
CONTINUOUS
 62
   253
 10
0.0
 20
0.0
 70
   128
  0
VERTEX
  8
OBJECT_90
  6
CONTINUOUS
 62
   253
 10
0.0
 20
0.0
 70
   128
  0
VERTEX
  8
OBJECT_90
  6
CONTINUOUS
 62
   253
 10
0.0
 20
0.0
 70
   128
  0
VERTEX
  8
OBJECT_90
  6
CONTINUOUS
 62
   253
 10
0.0
 20
0.0
 70
   128
  0
VERTEX
  8
OBJECT_90
  6
CONTINUOUS
 62
   253
 10
0.0
 20
0.0
 70
   128
  0
VERTEX
  8
OBJECT_90
  6
CONTINUOUS
 62
   253
 10
0.0
 20
0.0
 70
   128
  0
VERTEX
  8
OBJECT_90
  6
CONTINUOUS
 62
   253
 10
0.0
 20
0.0
 70
   128
  0
VERTEX
  8
OBJECT_90
  6
CONTINUOUS
 62
   253
 10
0.0
 20
0.0
 70
   128
  0
VERTEX
  8
OBJECT_90
  6
CONTINUOUS
 62
   253
 10
0.0
 20
0.0
 70
   128
  0
VERTEX
  8
OBJECT_90
  6
CONTINUOUS
 62
   253
 10
0.0
 20
0.0
 70
   128
  0
SEQEND
  8
OBJECT_90
  6
CONTINUOUS
 62
   253
  0
POLYLINE
  8
OBJECT_91
  6
CONTINUOUS
 62
   253
 66
     1
 70
    64
  0
VERTEX
  8
0
 38
59.227441
 10
-32.181379
 20
0.029561
 70
   192
  0
VERTEX
  8
0
 38
59.227441
 10
-32.317676
 20
1.064837
 70
   192
  0
VERTEX
  8
0
 38
59.227441
 10
-32.717277
 20
2.029561
 70
   192
  0
VERTEX
  8
0
 38
59.227441
 10
-33.352952
 20
2.857988
 70
   192
  0
VERTEX
  8
0
 38
59.227441
 10
-34.181379
 20
3.493663
 70
   192
  0
VERTEX
  8
0
 38
59.227441
 10
-35.146103
 20
3.893264
 70
   192
  0
VERTEX
  8
0
 38
59.227441
 10
-36.181379
 20
4.029561
 70
   192
  0
VERTEX
  8
0
 38
59.227441
 10
-37.216655
 20
3.893264
 70
   192
  0
VERTEX
  8
0
 38
59.227441
 10
-38.181379
 20
3.493663
 70
   192
  0
VERTEX
  8
0
 38
59.227441
 10
-39.009806
 20
2.857988
 70
   192
  0
VERTEX
  8
0
 38
59.227441
 10
-39.645481
 20
2.029561
 70
   192
  0
VERTEX
  8
0
 38
59.227441
 10
-40.045082
 20
1.064837
 70
   192
  0
VERTEX
  8
0
 38
59.227441
 10
-40.181379
 20
0.029561
 70
   192
  0
VERTEX
  8
0
 38
59.227441
 10
-40.045082
 20
-1.005715
 70
   192
  0
VERTEX
  8
0
 38
59.227441
 10
-39.645481
 20
-1.970439
 70
   192
  0
VERTEX
  8
0
 38
59.227441
 10
-39.009806
 20
-2.798866
 70
   192
  0
VERTEX
  8
0
 38
59.227441
 10
-38.181379
 20
-3.434541
 70
   192
  0
VERTEX
  8
0
 38
59.227441
 10
-37.216655
 20
-3.834142
 70
   192
  0
VERTEX
  8
0
 38
59.227441
 10
-36.181379
 20
-3.970439
 70
   192
  0
VERTEX
  8
0
 38
59.227441
 10
-35.146103
 20
-3.834142
 70
   192
  0
VERTEX
  8
0
 38
59.227441
 10
-34.181379
 20
-3.434541
 70
   192
  0
VERTEX
  8
0
 38
59.227441
 10
-33.352952
 20
-2.798866
 70
   192
  0
VERTEX
  8
0
 38
59.227441
 10
-32.717277
 20
-1.970439
 70
   192
  0
VERTEX
  8
0
 38
59.227441
 10
-32.317676
 20
-1.005715
 70
   192
  0
VERTEX
  8
0
 38
95.227441
 10
-32.181379
 20
0.029561
 70
   192
  0
VERTEX
  8
0
 38
95.227441
 10
-32.317676
 20
1.064837
 70
   192
  0
VERTEX
  8
0
 38
95.227441
 10
-32.717277
 20
2.029561
 70
   192
  0
VERTEX
  8
0
 38
95.227441
 10
-33.352952
 20
2.857988
 70
   192
  0
VERTEX
  8
0
 38
95.227441
 10
-34.181379
 20
3.493663
 70
   192
  0
VERTEX
  8
0
 38
95.227441
 10
-35.146103
 20
3.893264
 70
   192
  0
VERTEX
  8
0
 38
95.227441
 10
-36.181379
 20
4.029561
 70
   192
  0
VERTEX
  8
0
 38
95.227441
 10
-37.216655
 20
3.893264
 70
   192
  0
VERTEX
  8
0
 38
95.227441
 10
-38.181379
 20
3.493663
 70
   192
  0
VERTEX
  8
0
 38
95.227441
 10
-39.009806
 20
2.857988
 70
   192
  0
VERTEX
  8
0
 38
95.227441
 10
-39.645481
 20
2.029561
 70
   192
  0
VERTEX
  8
0
 38
95.227441
 10
-40.045082
 20
1.064837
 70
   192
  0
VERTEX
  8
0
 38
95.227441
 10
-40.181379
 20
0.029561
 70
   192
  0
VERTEX
  8
0
 38
95.227441
 10
-40.045082
 20
-1.005715
 70
   192
  0
VERTEX
  8
0
 38
95.227441
 10
-39.645481
 20
-1.970439
 70
   192
  0
VERTEX
  8
0
 38
95.227441
 10
-39.009806
 20
-2.798866
 70
   192
  0
VERTEX
  8
0
 38
95.227441
 10
-38.181379
 20
-3.434541
 70
   192
  0
VERTEX
  8
0
 38
95.227441
 10
-37.216655
 20
-3.834142
 70
   192
  0
VERTEX
  8
0
 38
95.227441
 10
-36.181379
 20
-3.970439
 70
   192
  0
VERTEX
  8
0
 38
95.227441
 10
-35.146103
 20
-3.834142
 70
   192
  0
VERTEX
  8
0
 38
95.227441
 10
-34.181379
 20
-3.434541
 70
   192
  0
VERTEX
  8
0
 38
95.227441
 10
-33.352952
 20
-2.798866
 70
   192
  0
VERTEX
  8
0
 38
95.227441
 10
-32.717277
 20
-1.970439
 70
   192
  0
VERTEX
  8
0
 38
95.227441
 10
-32.317676
 20
-1.005715
 70
   192
  0
VERTEX
  8
OBJECT_91
  6
CONTINUOUS
 62
   253
 10
0.0
 20
0.0
 70
   128
  0
VERTEX
  8
OBJECT_91
  6
CONTINUOUS
 62
   253
 10
0.0
 20
0.0
 70
   128
  0
VERTEX
  8
OBJECT_91
  6
CONTINUOUS
 62
   253
 10
0.0
 20
0.0
 70
   128
  0
VERTEX
  8
OBJECT_91
  6
CONTINUOUS
 62
   253
 10
0.0
 20
0.0
 70
   128
  0
VERTEX
  8
OBJECT_91
  6
CONTINUOUS
 62
   253
 10
0.0
 20
0.0
 70
   128
  0
VERTEX
  8
OBJECT_91
  6
CONTINUOUS
 62
   253
 10
0.0
 20
0.0
 70
   128
  0
VERTEX
  8
OBJECT_91
  6
CONTINUOUS
 62
   253
 10
0.0
 20
0.0
 70
   128
  0
VERTEX
  8
OBJECT_91
  6
CONTINUOUS
 62
   253
 10
0.0
 20
0.0
 70
   128
  0
VERTEX
  8
OBJECT_91
  6
CONTINUOUS
 62
   253
 10
0.0
 20
0.0
 70
   128
  0
VERTEX
  8
OBJECT_91
  6
CONTINUOUS
 62
   253
 10
0.0
 20
0.0
 70
   128
  0
VERTEX
  8
OBJECT_91
  6
CONTINUOUS
 62
   253
 10
0.0
 20
0.0
 70
   128
  0
VERTEX
  8
OBJECT_91
  6
CONTINUOUS
 62
   253
 10
0.0
 20
0.0
 70
   128
  0
VERTEX
  8
OBJECT_91
  6
CONTINUOUS
 62
   253
 10
0.0
 20
0.0
 70
   128
  0
VERTEX
  8
OBJECT_91
  6
CONTINUOUS
 62
   253
 10
0.0
 20
0.0
 70
   128
  0
VERTEX
  8
OBJECT_91
  6
CONTINUOUS
 62
   253
 10
0.0
 20
0.0
 70
   128
  0
VERTEX
  8
OBJECT_91
  6
CONTINUOUS
 62
   253
 10
0.0
 20
0.0
 70
   128
  0
VERTEX
  8
OBJECT_91
  6
CONTINUOUS
 62
   253
 10
0.0
 20
0.0
 70
   128
  0
VERTEX
  8
OBJECT_91
  6
CONTINUOUS
 62
   253
 10
0.0
 20
0.0
 70
   128
  0
VERTEX
  8
OBJECT_91
  6
CONTINUOUS
 62
   253
 10
0.0
 20
0.0
 70
   128
  0
VERTEX
  8
OBJECT_91
  6
CONTINUOUS
 62
   253
 10
0.0
 20
0.0
 70
   128
  0
VERTEX
  8
OBJECT_91
  6
CONTINUOUS
 62
   253
 10
0.0
 20
0.0
 70
   128
  0
VERTEX
  8
OBJECT_91
  6
CONTINUOUS
 62
   253
 10
0.0
 20
0.0
 70
   128
  0
VERTEX
  8
OBJECT_91
  6
CONTINUOUS
 62
   253
 10
0.0
 20
0.0
 70
   128
  0
VERTEX
  8
OBJECT_91
  6
CONTINUOUS
 62
   253
 10
0.0
 20
0.0
 70
   128
  0
VERTEX
  8
OBJECT_91
  6
CONTINUOUS
 62
   253
 10
0.0
 20
0.0
 70
   128
  0
VERTEX
  8
OBJECT_91
  6
CONTINUOUS
 62
   253
 10
0.0
 20
0.0
 70
   128
  0
VERTEX
  8
OBJECT_91
  6
CONTINUOUS
 62
   253
 10
0.0
 20
0.0
 70
   128
  0
VERTEX
  8
OBJECT_91
  6
CONTINUOUS
 62
   253
 10
0.0
 20
0.0
 70
   128
  0
VERTEX
  8
OBJECT_91
  6
CONTINUOUS
 62
   253
 10
0.0
 20
0.0
 70
   128
  0
VERTEX
  8
OBJECT_91
  6
CONTINUOUS
 62
   253
 10
0.0
 20
0.0
 70
   128
  0
VERTEX
  8
OBJECT_91
  6
CONTINUOUS
 62
   253
 10
0.0
 20
0.0
 70
   128
  0
VERTEX
  8
OBJECT_91
  6
CONTINUOUS
 62
   253
 10
0.0
 20
0.0
 70
   128
  0
VERTEX
  8
OBJECT_91
  6
CONTINUOUS
 62
   253
 10
0.0
 20
0.0
 70
   128
  0
VERTEX
  8
OBJECT_91
  6
CONTINUOUS
 62
   253
 10
0.0
 20
0.0
 70
   128
  0
VERTEX
  8
OBJECT_91
  6
CONTINUOUS
 62
   253
 10
0.0
 20
0.0
 70
   128
  0
VERTEX
  8
OBJECT_91
  6
CONTINUOUS
 62
   253
 10
0.0
 20
0.0
 70
   128
  0
VERTEX
  8
OBJECT_91
  6
CONTINUOUS
 62
   253
 10
0.0
 20
0.0
 70
   128
  0
VERTEX
  8
OBJECT_91
  6
CONTINUOUS
 62
   253
 10
0.0
 20
0.0
 70
   128
  0
VERTEX
  8
OBJECT_91
  6
CONTINUOUS
 62
   253
 10
0.0
 20
0.0
 70
   128
  0
VERTEX
  8
OBJECT_91
  6
CONTINUOUS
 62
   253
 10
0.0
 20
0.0
 70
   128
  0
VERTEX
  8
OBJECT_91
  6
CONTINUOUS
 62
   253
 10
0.0
 20
0.0
 70
   128
  0
VERTEX
  8
OBJECT_91
  6
CONTINUOUS
 62
   253
 10
0.0
 20
0.0
 70
   128
  0
VERTEX
  8
OBJECT_91
  6
CONTINUOUS
 62
   253
 10
0.0
 20
0.0
 70
   128
  0
VERTEX
  8
OBJECT_91
  6
CONTINUOUS
 62
   253
 10
0.0
 20
0.0
 70
   128
  0
VERTEX
  8
OBJECT_91
  6
CONTINUOUS
 62
   253
 10
0.0
 20
0.0
 70
   128
  0
VERTEX
  8
OBJECT_91
  6
CONTINUOUS
 62
   253
 10
0.0
 20
0.0
 70
   128
  0
SEQEND
  8
OBJECT_91
  6
CONTINUOUS
 62
   253
  0
POLYLINE
  8
OBJECT_92
  6
CONTINUOUS
 62
   253
 66
     1
 70
    64
  0
VERTEX
  8
0
 38
60.104586
 10
136.269631
 20
-0.365864
 70
   192
  0
VERTEX
  8
0
 38
60.104586
 10
136.133335
 20
0.669412
 70
   192
  0
VERTEX
  8
0
 38
60.104586
 10
135.733733
 20
1.634136
 70
   192
  0
VERTEX
  8
0
 38
60.104586
 10
135.098058
 20
2.462563
 70
   192
  0
VERTEX
  8
0
 38
60.104586
 10
134.269631
 20
3.098238
 70
   192
  0
VERTEX
  8
0
 38
60.104586
 10
133.304908
 20
3.497839
 70
   192
  0
VERTEX
  8
0
 38
60.104586
 10
132.269631
 20
3.634136
 70
   192
  0
VERTEX
  8
0
 38
60.104586
 10
131.234355
 20
3.497839
 70
   192
  0
VERTEX
  8
0
 38
60.104586
 10
130.269631
 20
3.098238
 70
   192
  0
VERTEX
  8
0
 38
60.104586
 10
129.441204
 20
2.462563
 70
   192
  0
VERTEX
  8
0
 38
60.104586
 10
128.80553
 20
1.634136
 70
   192
  0
VERTEX
  8
0
 38
60.104586
 10
128.405928
 20
0.669412
 70
   192
  0
VERTEX
  8
0
 38
60.104586
 10
128.269631
 20
-0.365864
 70
   192
  0
VERTEX
  8
0
 38
60.104586
 10
128.405928
 20
-1.40114
 70
   192
  0
VERTEX
  8
0
 38
60.104586
 10
128.80553
 20
-2.365864
 70
   192
  0
VERTEX
  8
0
 38
60.104586
 10
129.441204
 20
-3.194291
 70
   192
  0
VERTEX
  8
0
 38
60.104586
 10
130.269631
 20
-3.829966
 70
   192
  0
VERTEX
  8
0
 38
60.104586
 10
131.234355
 20
-4.229567
 70
   192
  0
VERTEX
  8
0
 38
60.104586
 10
132.269631
 20
-4.365864
 70
   192
  0
VERTEX
  8
0
 38
60.104586
 10
133.304908
 20
-4.229567
 70
   192
  0
VERTEX
  8
0
 38
60.104586
 10
134.269631
 20
-3.829966
 70
   192
  0
VERTEX
  8
0
 38
60.104586
 10
135.098058
 20
-3.194291
 70
   192
  0
VERTEX
  8
0
 38
60.104586
 10
135.733733
 20
-2.365864
 70
   192
  0
VERTEX
  8
0
 38
60.104586
 10
136.133335
 20
-1.40114
 70
   192
  0
VERTEX
  8
0
 38
84.104586
 10
136.269631
 20
-0.365864
 70
   192
  0
VERTEX
  8
0
 38
84.104586
 10
136.133335
 20
0.669412
 70
   192
  0
VERTEX
  8
0
 38
84.104586
 10
135.733733
 20
1.634136
 70
   192
  0
VERTEX
  8
0
 38
84.104586
 10
135.098058
 20
2.462563
 70
   192
  0
VERTEX
  8
0
 38
84.104586
 10
134.269631
 20
3.098238
 70
   192
  0
VERTEX
  8
0
 38
84.104586
 10
133.304908
 20
3.497839
 70
   192
  0
VERTEX
  8
0
 38
84.104586
 10
132.269631
 20
3.634136
 70
   192
  0
VERTEX
  8
0
 38
84.104586
 10
131.234355
 20
3.497839
 70
   192
  0
VERTEX
  8
0
 38
84.104586
 10
130.269631
 20
3.098238
 70
   192
  0
VERTEX
  8
0
 38
84.104586
 10
129.441204
 20
2.462563
 70
   192
  0
VERTEX
  8
0
 38
84.104586
 10
128.80553
 20
1.634136
 70
   192
  0
VERTEX
  8
0
 38
84.104586
 10
128.405928
 20
0.669412
 70
   192
  0
VERTEX
  8
0
 38
84.104586
 10
128.269631
 20
-0.365864
 70
   192
  0
VERTEX
  8
0
 38
84.104586
 10
128.405928
 20
-1.40114
 70
   192
  0
VERTEX
  8
0
 38
84.104586
 10
128.80553
 20
-2.365864
 70
   192
  0
VERTEX
  8
0
 38
84.104586
 10
129.441204
 20
-3.194291
 70
   192
  0
VERTEX
  8
0
 38
84.104586
 10
130.269631
 20
-3.829966
 70
   192
  0
VERTEX
  8
0
 38
84.104586
 10
131.234355
 20
-4.229567
 70
   192
  0
VERTEX
  8
0
 38
84.104586
 10
132.269631
 20
-4.365864
 70
   192
  0
VERTEX
  8
0
 38
84.104586
 10
133.304908
 20
-4.229567
 70
   192
  0
VERTEX
  8
0
 38
84.104586
 10
134.269631
 20
-3.829966
 70
   192
  0
VERTEX
  8
0
 38
84.104586
 10
135.098058
 20
-3.194291
 70
   192
  0
VERTEX
  8
0
 38
84.104586
 10
135.733733
 20
-2.365864
 70
   192
  0
VERTEX
  8
0
 38
84.104586
 10
136.133335
 20
-1.40114
 70
   192
  0
VERTEX
  8
OBJECT_92
  6
CONTINUOUS
 62
   253
 10
0.0
 20
0.0
 70
   128
  0
VERTEX
  8
OBJECT_92
  6
CONTINUOUS
 62
   253
 10
0.0
 20
0.0
 70
   128
  0
VERTEX
  8
OBJECT_92
  6
CONTINUOUS
 62
   253
 10
0.0
 20
0.0
 70
   128
  0
VERTEX
  8
OBJECT_92
  6
CONTINUOUS
 62
   253
 10
0.0
 20
0.0
 70
   128
  0
VERTEX
  8
OBJECT_92
  6
CONTINUOUS
 62
   253
 10
0.0
 20
0.0
 70
   128
  0
VERTEX
  8
OBJECT_92
  6
CONTINUOUS
 62
   253
 10
0.0
 20
0.0
 70
   128
  0
VERTEX
  8
OBJECT_92
  6
CONTINUOUS
 62
   253
 10
0.0
 20
0.0
 70
   128
  0
VERTEX
  8
OBJECT_92
  6
CONTINUOUS
 62
   253
 10
0.0
 20
0.0
 70
   128
  0
VERTEX
  8
OBJECT_92
  6
CONTINUOUS
 62
   253
 10
0.0
 20
0.0
 70
   128
  0
VERTEX
  8
OBJECT_92
  6
CONTINUOUS
 62
   253
 10
0.0
 20
0.0
 70
   128
  0
VERTEX
  8
OBJECT_92
  6
CONTINUOUS
 62
   253
 10
0.0
 20
0.0
 70
   128
  0
VERTEX
  8
OBJECT_92
  6
CONTINUOUS
 62
   253
 10
0.0
 20
0.0
 70
   128
  0
VERTEX
  8
OBJECT_92
  6
CONTINUOUS
 62
   253
 10
0.0
 20
0.0
 70
   128
  0
VERTEX
  8
OBJECT_92
  6
CONTINUOUS
 62
   253
 10
0.0
 20
0.0
 70
   128
  0
VERTEX
  8
OBJECT_92
  6
CONTINUOUS
 62
   253
 10
0.0
 20
0.0
 70
   128
  0
VERTEX
  8
OBJECT_92
  6
CONTINUOUS
 62
   253
 10
0.0
 20
0.0
 70
   128
  0
VERTEX
  8
OBJECT_92
  6
CONTINUOUS
 62
   253
 10
0.0
 20
0.0
 70
   128
  0
VERTEX
  8
OBJECT_92
  6
CONTINUOUS
 62
   253
 10
0.0
 20
0.0
 70
   128
  0
VERTEX
  8
OBJECT_92
  6
CONTINUOUS
 62
   253
 10
0.0
 20
0.0
 70
   128
  0
VERTEX
  8
OBJECT_92
  6
CONTINUOUS
 62
   253
 10
0.0
 20
0.0
 70
   128
  0
VERTEX
  8
OBJECT_92
  6
CONTINUOUS
 62
   253
 10
0.0
 20
0.0
 70
   128
  0
VERTEX
  8
OBJECT_92
  6
CONTINUOUS
 62
   253
 10
0.0
 20
0.0
 70
   128
  0
VERTEX
  8
OBJECT_92
  6
CONTINUOUS
 62
   253
 10
0.0
 20
0.0
 70
   128
  0
VERTEX
  8
OBJECT_92
  6
CONTINUOUS
 62
   253
 10
0.0
 20
0.0
 70
   128
  0
VERTEX
  8
OBJECT_92
  6
CONTINUOUS
 62
   253
 10
0.0
 20
0.0
 70
   128
  0
VERTEX
  8
OBJECT_92
  6
CONTINUOUS
 62
   253
 10
0.0
 20
0.0
 70
   128
  0
VERTEX
  8
OBJECT_92
  6
CONTINUOUS
 62
   253
 10
0.0
 20
0.0
 70
   128
  0
VERTEX
  8
OBJECT_92
  6
CONTINUOUS
 62
   253
 10
0.0
 20
0.0
 70
   128
  0
VERTEX
  8
OBJECT_92
  6
CONTINUOUS
 62
   253
 10
0.0
 20
0.0
 70
   128
  0
VERTEX
  8
OBJECT_92
  6
CONTINUOUS
 62
   253
 10
0.0
 20
0.0
 70
   128
  0
VERTEX
  8
OBJECT_92
  6
CONTINUOUS
 62
   253
 10
0.0
 20
0.0
 70
   128
  0
VERTEX
  8
OBJECT_92
  6
CONTINUOUS
 62
   253
 10
0.0
 20
0.0
 70
   128
  0
VERTEX
  8
OBJECT_92
  6
CONTINUOUS
 62
   253
 10
0.0
 20
0.0
 70
   128
  0
VERTEX
  8
OBJECT_92
  6
CONTINUOUS
 62
   253
 10
0.0
 20
0.0
 70
   128
  0
VERTEX
  8
OBJECT_92
  6
CONTINUOUS
 62
   253
 10
0.0
 20
0.0
 70
   128
  0
VERTEX
  8
OBJECT_92
  6
CONTINUOUS
 62
   253
 10
0.0
 20
0.0
 70
   128
  0
VERTEX
  8
OBJECT_92
  6
CONTINUOUS
 62
   253
 10
0.0
 20
0.0
 70
   128
  0
VERTEX
  8
OBJECT_92
  6
CONTINUOUS
 62
   253
 10
0.0
 20
0.0
 70
   128
  0
VERTEX
  8
OBJECT_92
  6
CONTINUOUS
 62
   253
 10
0.0
 20
0.0
 70
   128
  0
VERTEX
  8
OBJECT_92
  6
CONTINUOUS
 62
   253
 10
0.0
 20
0.0
 70
   128
  0
VERTEX
  8
OBJECT_92
  6
CONTINUOUS
 62
   253
 10
0.0
 20
0.0
 70
   128
  0
VERTEX
  8
OBJECT_92
  6
CONTINUOUS
 62
   253
 10
0.0
 20
0.0
 70
   128
  0
VERTEX
  8
OBJECT_92
  6
CONTINUOUS
 62
   253
 10
0.0
 20
0.0
 70
   128
  0
VERTEX
  8
OBJECT_92
  6
CONTINUOUS
 62
   253
 10
0.0
 20
0.0
 70
   128
  0
VERTEX
  8
OBJECT_92
  6
CONTINUOUS
 62
   253
 10
0.0
 20
0.0
 70
   128
  0
VERTEX
  8
OBJECT_92
  6
CONTINUOUS
 62
   253
 10
0.0
 20
0.0
 70
   128
  0
SEQEND
  8
OBJECT_92
  6
CONTINUOUS
 62
   253
  0
POLYLINE
  8
OBJECT_93
  6
CONTINUOUS
 62
   253
 66
     1
 70
    64
  0
VERTEX
  8
0
 38
60.104586
 10
150.504928
 20
0.029561
 70
   192
  0
VERTEX
  8
0
 38
60.104586
 10
150.368631
 20
1.064837
 70
   192
  0
VERTEX
  8
0
 38
60.104586
 10
149.96903
 20
2.029561
 70
   192
  0
VERTEX
  8
0
 38
60.104586
 10
149.333355
 20
2.857988
 70
   192
  0
VERTEX
  8
0
 38
60.104586
 10
148.504928
 20
3.493663
 70
   192
  0
VERTEX
  8
0
 38
60.104586
 10
147.540204
 20
3.893264
 70
   192
  0
VERTEX
  8
0
 38
60.104586
 10
146.504928
 20
4.029561
 70
   192
  0
VERTEX
  8
0
 38
60.104586
 10
145.469652
 20
3.893264
 70
   192
  0
VERTEX
  8
0
 38
60.104586
 10
144.504928
 20
3.493663
 70
   192
  0
VERTEX
  8
0
 38
60.104586
 10
143.676501
 20
2.857988
 70
   192
  0
VERTEX
  8
0
 38
60.104586
 10
143.040826
 20
2.029561
 70
   192
  0
VERTEX
  8
0
 38
60.104586
 10
142.641225
 20
1.064837
 70
   192
  0
VERTEX
  8
0
 38
60.104586
 10
142.504928
 20
0.029561
 70
   192
  0
VERTEX
  8
0
 38
60.104586
 10
142.641225
 20
-1.005715
 70
   192
  0
VERTEX
  8
0
 38
60.104586
 10
143.040826
 20
-1.970439
 70
   192
  0
VERTEX
  8
0
 38
60.104586
 10
143.676501
 20
-2.798866
 70
   192
  0
VERTEX
  8
0
 38
60.104586
 10
144.504928
 20
-3.434541
 70
   192
  0
VERTEX
  8
0
 38
60.104586
 10
145.469652
 20
-3.834142
 70
   192
  0
VERTEX
  8
0
 38
60.104586
 10
146.504928
 20
-3.970439
 70
   192
  0
VERTEX
  8
0
 38
60.104586
 10
147.540204
 20
-3.834142
 70
   192
  0
VERTEX
  8
0
 38
60.104586
 10
148.504928
 20
-3.434541
 70
   192
  0
VERTEX
  8
0
 38
60.104586
 10
149.333355
 20
-2.798866
 70
   192
  0
VERTEX
  8
0
 38
60.104586
 10
149.96903
 20
-1.970439
 70
   192
  0
VERTEX
  8
0
 38
60.104586
 10
150.368631
 20
-1.005715
 70
   192
  0
VERTEX
  8
0
 38
84.104586
 10
150.504928
 20
0.029561
 70
   192
  0
VERTEX
  8
0
 38
84.104586
 10
150.368631
 20
1.064837
 70
   192
  0
VERTEX
  8
0
 38
84.104586
 10
149.96903
 20
2.029561
 70
   192
  0
VERTEX
  8
0
 38
84.104586
 10
149.333355
 20
2.857988
 70
   192
  0
VERTEX
  8
0
 38
84.104586
 10
148.504928
 20
3.493663
 70
   192
  0
VERTEX
  8
0
 38
84.104586
 10
147.540204
 20
3.893264
 70
   192
  0
VERTEX
  8
0
 38
84.104586
 10
146.504928
 20
4.029561
 70
   192
  0
VERTEX
  8
0
 38
84.104586
 10
145.469652
 20
3.893264
 70
   192
  0
VERTEX
  8
0
 38
84.104586
 10
144.504928
 20
3.493663
 70
   192
  0
VERTEX
  8
0
 38
84.104586
 10
143.676501
 20
2.857988
 70
   192
  0
VERTEX
  8
0
 38
84.104586
 10
143.040826
 20
2.029561
 70
   192
  0
VERTEX
  8
0
 38
84.104586
 10
142.641225
 20
1.064837
 70
   192
  0
VERTEX
  8
0
 38
84.104586
 10
142.504928
 20
0.029561
 70
   192
  0
VERTEX
  8
0
 38
84.104586
 10
142.641225
 20
-1.005715
 70
   192
  0
VERTEX
  8
0
 38
84.104586
 10
143.040826
 20
-1.970439
 70
   192
  0
VERTEX
  8
0
 38
84.104586
 10
143.676501
 20
-2.798866
 70
   192
  0
VERTEX
  8
0
 38
84.104586
 10
144.504928
 20
-3.434541
 70
   192
  0
VERTEX
  8
0
 38
84.104586
 10
145.469652
 20
-3.834142
 70
   192
  0
VERTEX
  8
0
 38
84.104586
 10
146.504928
 20
-3.970439
 70
   192
  0
VERTEX
  8
0
 38
84.104586
 10
147.540204
 20
-3.834142
 70
   192
  0
VERTEX
  8
0
 38
84.104586
 10
148.504928
 20
-3.434541
 70
   192
  0
VERTEX
  8
0
 38
84.104586
 10
149.333355
 20
-2.798866
 70
   192
  0
VERTEX
  8
0
 38
84.104586
 10
149.96903
 20
-1.970439
 70
   192
  0
VERTEX
  8
0
 38
84.104586
 10
150.368631
 20
-1.005715
 70
   192
  0
VERTEX
  8
OBJECT_93
  6
CONTINUOUS
 62
   253
 10
0.0
 20
0.0
 70
   128
  0
VERTEX
  8
OBJECT_93
  6
CONTINUOUS
 62
   253
 10
0.0
 20
0.0
 70
   128
  0
VERTEX
  8
OBJECT_93
  6
CONTINUOUS
 62
   253
 10
0.0
 20
0.0
 70
   128
  0
VERTEX
  8
OBJECT_93
  6
CONTINUOUS
 62
   253
 10
0.0
 20
0.0
 70
   128
  0
VERTEX
  8
OBJECT_93
  6
CONTINUOUS
 62
   253
 10
0.0
 20
0.0
 70
   128
  0
VERTEX
  8
OBJECT_93
  6
CONTINUOUS
 62
   253
 10
0.0
 20
0.0
 70
   128
  0
VERTEX
  8
OBJECT_93
  6
CONTINUOUS
 62
   253
 10
0.0
 20
0.0
 70
   128
  0
VERTEX
  8
OBJECT_93
  6
CONTINUOUS
 62
   253
 10
0.0
 20
0.0
 70
   128
  0
VERTEX
  8
OBJECT_93
  6
CONTINUOUS
 62
   253
 10
0.0
 20
0.0
 70
   128
  0
VERTEX
  8
OBJECT_93
  6
CONTINUOUS
 62
   253
 10
0.0
 20
0.0
 70
   128
  0
VERTEX
  8
OBJECT_93
  6
CONTINUOUS
 62
   253
 10
0.0
 20
0.0
 70
   128
  0
VERTEX
  8
OBJECT_93
  6
CONTINUOUS
 62
   253
 10
0.0
 20
0.0
 70
   128
  0
VERTEX
  8
OBJECT_93
  6
CONTINUOUS
 62
   253
 10
0.0
 20
0.0
 70
   128
  0
VERTEX
  8
OBJECT_93
  6
CONTINUOUS
 62
   253
 10
0.0
 20
0.0
 70
   128
  0
VERTEX
  8
OBJECT_93
  6
CONTINUOUS
 62
   253
 10
0.0
 20
0.0
 70
   128
  0
VERTEX
  8
OBJECT_93
  6
CONTINUOUS
 62
   253
 10
0.0
 20
0.0
 70
   128
  0
VERTEX
  8
OBJECT_93
  6
CONTINUOUS
 62
   253
 10
0.0
 20
0.0
 70
   128
  0
VERTEX
  8
OBJECT_93
  6
CONTINUOUS
 62
   253
 10
0.0
 20
0.0
 70
   128
  0
VERTEX
  8
OBJECT_93
  6
CONTINUOUS
 62
   253
 10
0.0
 20
0.0
 70
   128
  0
VERTEX
  8
OBJECT_93
  6
CONTINUOUS
 62
   253
 10
0.0
 20
0.0
 70
   128
  0
VERTEX
  8
OBJECT_93
  6
CONTINUOUS
 62
   253
 10
0.0
 20
0.0
 70
   128
  0
VERTEX
  8
OBJECT_93
  6
CONTINUOUS
 62
   253
 10
0.0
 20
0.0
 70
   128
  0
VERTEX
  8
OBJECT_93
  6
CONTINUOUS
 62
   253
 10
0.0
 20
0.0
 70
   128
  0
VERTEX
  8
OBJECT_93
  6
CONTINUOUS
 62
   253
 10
0.0
 20
0.0
 70
   128
  0
VERTEX
  8
OBJECT_93
  6
CONTINUOUS
 62
   253
 10
0.0
 20
0.0
 70
   128
  0
VERTEX
  8
OBJECT_93
  6
CONTINUOUS
 62
   253
 10
0.0
 20
0.0
 70
   128
  0
VERTEX
  8
OBJECT_93
  6
CONTINUOUS
 62
   253
 10
0.0
 20
0.0
 70
   128
  0
VERTEX
  8
OBJECT_93
  6
CONTINUOUS
 62
   253
 10
0.0
 20
0.0
 70
   128
  0
VERTEX
  8
OBJECT_93
  6
CONTINUOUS
 62
   253
 10
0.0
 20
0.0
 70
   128
  0
VERTEX
  8
OBJECT_93
  6
CONTINUOUS
 62
   253
 10
0.0
 20
0.0
 70
   128
  0
VERTEX
  8
OBJECT_93
  6
CONTINUOUS
 62
   253
 10
0.0
 20
0.0
 70
   128
  0
VERTEX
  8
OBJECT_93
  6
CONTINUOUS
 62
   253
 10
0.0
 20
0.0
 70
   128
  0
VERTEX
  8
OBJECT_93
  6
CONTINUOUS
 62
   253
 10
0.0
 20
0.0
 70
   128
  0
VERTEX
  8
OBJECT_93
  6
CONTINUOUS
 62
   253
 10
0.0
 20
0.0
 70
   128
  0
VERTEX
  8
OBJECT_93
  6
CONTINUOUS
 62
   253
 10
0.0
 20
0.0
 70
   128
  0
VERTEX
  8
OBJECT_93
  6
CONTINUOUS
 62
   253
 10
0.0
 20
0.0
 70
   128
  0
VERTEX
  8
OBJECT_93
  6
CONTINUOUS
 62
   253
 10
0.0
 20
0.0
 70
   128
  0
VERTEX
  8
OBJECT_93
  6
CONTINUOUS
 62
   253
 10
0.0
 20
0.0
 70
   128
  0
VERTEX
  8
OBJECT_93
  6
CONTINUOUS
 62
   253
 10
0.0
 20
0.0
 70
   128
  0
VERTEX
  8
OBJECT_93
  6
CONTINUOUS
 62
   253
 10
0.0
 20
0.0
 70
   128
  0
VERTEX
  8
OBJECT_93
  6
CONTINUOUS
 62
   253
 10
0.0
 20
0.0
 70
   128
  0
VERTEX
  8
OBJECT_93
  6
CONTINUOUS
 62
   253
 10
0.0
 20
0.0
 70
   128
  0
VERTEX
  8
OBJECT_93
  6
CONTINUOUS
 62
   253
 10
0.0
 20
0.0
 70
   128
  0
VERTEX
  8
OBJECT_93
  6
CONTINUOUS
 62
   253
 10
0.0
 20
0.0
 70
   128
  0
VERTEX
  8
OBJECT_93
  6
CONTINUOUS
 62
   253
 10
0.0
 20
0.0
 70
   128
  0
VERTEX
  8
OBJECT_93
  6
CONTINUOUS
 62
   253
 10
0.0
 20
0.0
 70
   128
  0
SEQEND
  8
OBJECT_93
  6
CONTINUOUS
 62
   253
  0
POLYLINE
  8
OBJECT_94
  6
CONTINUOUS
 62
   253
 66
     1
 70
    64
  0
VERTEX
  8
0
 38
60.104586
 10
164.740225
 20
0.424986
 70
   192
  0
VERTEX
  8
0
 38
60.104586
 10
164.603928
 20
1.460262
 70
   192
  0
VERTEX
  8
0
 38
60.104586
 10
164.204326
 20
2.424986
 70
   192
  0
VERTEX
  8
0
 38
60.104586
 10
163.568652
 20
3.253413
 70
   192
  0
VERTEX
  8
0
 38
60.104586
 10
162.740225
 20
3.889087
 70
   192
  0
VERTEX
  8
0
 38
60.104586
 10
161.775501
 20
4.288689
 70
   192
  0
VERTEX
  8
0
 38
60.104586
 10
160.740225
 20
4.424986
 70
   192
  0
VERTEX
  8
0
 38
60.104586
 10
159.704948
 20
4.288689
 70
   192
  0
VERTEX
  8
0
 38
60.104586
 10
158.740225
 20
3.889087
 70
   192
  0
VERTEX
  8
0
 38
60.104586
 10
157.911797
 20
3.253413
 70
   192
  0
VERTEX
  8
0
 38
60.104586
 10
157.276123
 20
2.424986
 70
   192
  0
VERTEX
  8
0
 38
60.104586
 10
156.876521
 20
1.460262
 70
   192
  0
VERTEX
  8
0
 38
60.104586
 10
156.740225
 20
0.424986
 70
   192
  0
VERTEX
  8
0
 38
60.104586
 10
156.876521
 20
-0.61029
 70
   192
  0
VERTEX
  8
0
 38
60.104586
 10
157.276123
 20
-1.575014
 70
   192
  0
VERTEX
  8
0
 38
60.104586
 10
157.911797
 20
-2.403441
 70
   192
  0
VERTEX
  8
0
 38
60.104586
 10
158.740225
 20
-3.039116
 70
   192
  0
VERTEX
  8
0
 38
60.104586
 10
159.704948
 20
-3.438717
 70
   192
  0
VERTEX
  8
0
 38
60.104586
 10
160.740225
 20
-3.575014
 70
   192
  0
VERTEX
  8
0
 38
60.104586
 10
161.775501
 20
-3.438717
 70
   192
  0
VERTEX
  8
0
 38
60.104586
 10
162.740225
 20
-3.039116
 70
   192
  0
VERTEX
  8
0
 38
60.104586
 10
163.568652
 20
-2.403441
 70
   192
  0
VERTEX
  8
0
 38
60.104586
 10
164.204326
 20
-1.575014
 70
   192
  0
VERTEX
  8
0
 38
60.104586
 10
164.603928
 20
-0.61029
 70
   192
  0
VERTEX
  8
0
 38
84.104586
 10
164.740225
 20
0.424986
 70
   192
  0
VERTEX
  8
0
 38
84.104586
 10
164.603928
 20
1.460262
 70
   192
  0
VERTEX
  8
0
 38
84.104586
 10
164.204326
 20
2.424986
 70
   192
  0
VERTEX
  8
0
 38
84.104586
 10
163.568652
 20
3.253413
 70
   192
  0
VERTEX
  8
0
 38
84.104586
 10
162.740225
 20
3.889087
 70
   192
  0
VERTEX
  8
0
 38
84.104586
 10
161.775501
 20
4.288689
 70
   192
  0
VERTEX
  8
0
 38
84.104586
 10
160.740225
 20
4.424986
 70
   192
  0
VERTEX
  8
0
 38
84.104586
 10
159.704948
 20
4.288689
 70
   192
  0
VERTEX
  8
0
 38
84.104586
 10
158.740225
 20
3.889087
 70
   192
  0
VERTEX
  8
0
 38
84.104586
 10
157.911797
 20
3.253413
 70
   192
  0
VERTEX
  8
0
 38
84.104586
 10
157.276123
 20
2.424986
 70
   192
  0
VERTEX
  8
0
 38
84.104586
 10
156.876521
 20
1.460262
 70
   192
  0
VERTEX
  8
0
 38
84.104586
 10
156.740225
 20
0.424986
 70
   192
  0
VERTEX
  8
0
 38
84.104586
 10
156.876521
 20
-0.61029
 70
   192
  0
VERTEX
  8
0
 38
84.104586
 10
157.276123
 20
-1.575014
 70
   192
  0
VERTEX
  8
0
 38
84.104586
 10
157.911797
 20
-2.403441
 70
   192
  0
VERTEX
  8
0
 38
84.104586
 10
158.740225
 20
-3.039116
 70
   192
  0
VERTEX
  8
0
 38
84.104586
 10
159.704948
 20
-3.438717
 70
   192
  0
VERTEX
  8
0
 38
84.104586
 10
160.740225
 20
-3.575014
 70
   192
  0
VERTEX
  8
0
 38
84.104586
 10
161.775501
 20
-3.438717
 70
   192
  0
VERTEX
  8
0
 38
84.104586
 10
162.740225
 20
-3.039116
 70
   192
  0
VERTEX
  8
0
 38
84.104586
 10
163.568652
 20
-2.403441
 70
   192
  0
VERTEX
  8
0
 38
84.104586
 10
164.204326
 20
-1.575014
 70
   192
  0
VERTEX
  8
0
 38
84.104586
 10
164.603928
 20
-0.61029
 70
   192
  0
VERTEX
  8
OBJECT_94
  6
CONTINUOUS
 62
   253
 10
0.0
 20
0.0
 70
   128
  0
VERTEX
  8
OBJECT_94
  6
CONTINUOUS
 62
   253
 10
0.0
 20
0.0
 70
   128
  0
VERTEX
  8
OBJECT_94
  6
CONTINUOUS
 62
   253
 10
0.0
 20
0.0
 70
   128
  0
VERTEX
  8
OBJECT_94
  6
CONTINUOUS
 62
   253
 10
0.0
 20
0.0
 70
   128
  0
VERTEX
  8
OBJECT_94
  6
CONTINUOUS
 62
   253
 10
0.0
 20
0.0
 70
   128
  0
VERTEX
  8
OBJECT_94
  6
CONTINUOUS
 62
   253
 10
0.0
 20
0.0
 70
   128
  0
VERTEX
  8
OBJECT_94
  6
CONTINUOUS
 62
   253
 10
0.0
 20
0.0
 70
   128
  0
VERTEX
  8
OBJECT_94
  6
CONTINUOUS
 62
   253
 10
0.0
 20
0.0
 70
   128
  0
VERTEX
  8
OBJECT_94
  6
CONTINUOUS
 62
   253
 10
0.0
 20
0.0
 70
   128
  0
VERTEX
  8
OBJECT_94
  6
CONTINUOUS
 62
   253
 10
0.0
 20
0.0
 70
   128
  0
VERTEX
  8
OBJECT_94
  6
CONTINUOUS
 62
   253
 10
0.0
 20
0.0
 70
   128
  0
VERTEX
  8
OBJECT_94
  6
CONTINUOUS
 62
   253
 10
0.0
 20
0.0
 70
   128
  0
VERTEX
  8
OBJECT_94
  6
CONTINUOUS
 62
   253
 10
0.0
 20
0.0
 70
   128
  0
VERTEX
  8
OBJECT_94
  6
CONTINUOUS
 62
   253
 10
0.0
 20
0.0
 70
   128
  0
VERTEX
  8
OBJECT_94
  6
CONTINUOUS
 62
   253
 10
0.0
 20
0.0
 70
   128
  0
VERTEX
  8
OBJECT_94
  6
CONTINUOUS
 62
   253
 10
0.0
 20
0.0
 70
   128
  0
VERTEX
  8
OBJECT_94
  6
CONTINUOUS
 62
   253
 10
0.0
 20
0.0
 70
   128
  0
VERTEX
  8
OBJECT_94
  6
CONTINUOUS
 62
   253
 10
0.0
 20
0.0
 70
   128
  0
VERTEX
  8
OBJECT_94
  6
CONTINUOUS
 62
   253
 10
0.0
 20
0.0
 70
   128
  0
VERTEX
  8
OBJECT_94
  6
CONTINUOUS
 62
   253
 10
0.0
 20
0.0
 70
   128
  0
VERTEX
  8
OBJECT_94
  6
CONTINUOUS
 62
   253
 10
0.0
 20
0.0
 70
   128
  0
VERTEX
  8
OBJECT_94
  6
CONTINUOUS
 62
   253
 10
0.0
 20
0.0
 70
   128
  0
VERTEX
  8
OBJECT_94
  6
CONTINUOUS
 62
   253
 10
0.0
 20
0.0
 70
   128
  0
VERTEX
  8
OBJECT_94
  6
CONTINUOUS
 62
   253
 10
0.0
 20
0.0
 70
   128
  0
VERTEX
  8
OBJECT_94
  6
CONTINUOUS
 62
   253
 10
0.0
 20
0.0
 70
   128
  0
VERTEX
  8
OBJECT_94
  6
CONTINUOUS
 62
   253
 10
0.0
 20
0.0
 70
   128
  0
VERTEX
  8
OBJECT_94
  6
CONTINUOUS
 62
   253
 10
0.0
 20
0.0
 70
   128
  0
VERTEX
  8
OBJECT_94
  6
CONTINUOUS
 62
   253
 10
0.0
 20
0.0
 70
   128
  0
VERTEX
  8
OBJECT_94
  6
CONTINUOUS
 62
   253
 10
0.0
 20
0.0
 70
   128
  0
VERTEX
  8
OBJECT_94
  6
CONTINUOUS
 62
   253
 10
0.0
 20
0.0
 70
   128
  0
VERTEX
  8
OBJECT_94
  6
CONTINUOUS
 62
   253
 10
0.0
 20
0.0
 70
   128
  0
VERTEX
  8
OBJECT_94
  6
CONTINUOUS
 62
   253
 10
0.0
 20
0.0
 70
   128
  0
VERTEX
  8
OBJECT_94
  6
CONTINUOUS
 62
   253
 10
0.0
 20
0.0
 70
   128
  0
VERTEX
  8
OBJECT_94
  6
CONTINUOUS
 62
   253
 10
0.0
 20
0.0
 70
   128
  0
VERTEX
  8
OBJECT_94
  6
CONTINUOUS
 62
   253
 10
0.0
 20
0.0
 70
   128
  0
VERTEX
  8
OBJECT_94
  6
CONTINUOUS
 62
   253
 10
0.0
 20
0.0
 70
   128
  0
VERTEX
  8
OBJECT_94
  6
CONTINUOUS
 62
   253
 10
0.0
 20
0.0
 70
   128
  0
VERTEX
  8
OBJECT_94
  6
CONTINUOUS
 62
   253
 10
0.0
 20
0.0
 70
   128
  0
VERTEX
  8
OBJECT_94
  6
CONTINUOUS
 62
   253
 10
0.0
 20
0.0
 70
   128
  0
VERTEX
  8
OBJECT_94
  6
CONTINUOUS
 62
   253
 10
0.0
 20
0.0
 70
   128
  0
VERTEX
  8
OBJECT_94
  6
CONTINUOUS
 62
   253
 10
0.0
 20
0.0
 70
   128
  0
VERTEX
  8
OBJECT_94
  6
CONTINUOUS
 62
   253
 10
0.0
 20
0.0
 70
   128
  0
VERTEX
  8
OBJECT_94
  6
CONTINUOUS
 62
   253
 10
0.0
 20
0.0
 70
   128
  0
VERTEX
  8
OBJECT_94
  6
CONTINUOUS
 62
   253
 10
0.0
 20
0.0
 70
   128
  0
VERTEX
  8
OBJECT_94
  6
CONTINUOUS
 62
   253
 10
0.0
 20
0.0
 70
   128
  0
VERTEX
  8
OBJECT_94
  6
CONTINUOUS
 62
   253
 10
0.0
 20
0.0
 70
   128
  0
SEQEND
  8
OBJECT_94
  6
CONTINUOUS
 62
   253
  0
POLYLINE
  8
OBJECT_96
  6
CONTINUOUS
 62
   253
 66
     1
 70
    64
  0
VERTEX
  8
0
 38
59.270589
 10
71.815372
 20
-0.012618
 70
   192
  0
VERTEX
  8
0
 38
59.270589
 10
71.679075
 20
1.022658
 70
   192
  0
VERTEX
  8
0
 38
59.270589
 10
71.279473
 20
1.987382
 70
   192
  0
VERTEX
  8
0
 38
59.270589
 10
70.643799
 20
2.815809
 70
   192
  0
VERTEX
  8
0
 38
59.270589
 10
69.815372
 20
3.451484
 70
   192
  0
VERTEX
  8
0
 38
59.270589
 10
68.850648
 20
3.851086
 70
   192
  0
VERTEX
  8
0
 38
59.270589
 10
67.815372
 20
3.987382
 70
   192
  0
VERTEX
  8
0
 38
59.270589
 10
66.780095
 20
3.851086
 70
   192
  0
VERTEX
  8
0
 38
59.270589
 10
65.815372
 20
3.451484
 70
   192
  0
VERTEX
  8
0
 38
59.270589
 10
64.986944
 20
2.815809
 70
   192
  0
VERTEX
  8
0
 38
59.270589
 10
64.35127
 20
1.987382
 70
   192
  0
VERTEX
  8
0
 38
59.270589
 10
63.951668
 20
1.022658
 70
   192
  0
VERTEX
  8
0
 38
59.270589
 10
63.815372
 20
-0.012618
 70
   192
  0
VERTEX
  8
0
 38
59.270589
 10
63.951668
 20
-1.047894
 70
   192
  0
VERTEX
  8
0
 38
59.270589
 10
64.35127
 20
-2.012618
 70
   192
  0
VERTEX
  8
0
 38
59.270589
 10
64.986944
 20
-2.841045
 70
   192
  0
VERTEX
  8
0
 38
59.270589
 10
65.815372
 20
-3.476719
 70
   192
  0
VERTEX
  8
0
 38
59.270589
 10
66.780095
 20
-3.876321
 70
   192
  0
VERTEX
  8
0
 38
59.270589
 10
67.815372
 20
-4.012618
 70
   192
  0
VERTEX
  8
0
 38
59.270589
 10
68.850648
 20
-3.876321
 70
   192
  0
VERTEX
  8
0
 38
59.270589
 10
69.815372
 20
-3.476719
 70
   192
  0
VERTEX
  8
0
 38
59.270589
 10
70.643799
 20
-2.841045
 70
   192
  0
VERTEX
  8
0
 38
59.270589
 10
71.279473
 20
-2.012618
 70
   192
  0
VERTEX
  8
0
 38
59.270589
 10
71.679075
 20
-1.047894
 70
   192
  0
VERTEX
  8
0
 38
107.270589
 10
71.815372
 20
-0.012618
 70
   192
  0
VERTEX
  8
0
 38
107.270589
 10
71.679075
 20
1.022658
 70
   192
  0
VERTEX
  8
0
 38
107.270589
 10
71.279473
 20
1.987382
 70
   192
  0
VERTEX
  8
0
 38
107.270589
 10
70.643799
 20
2.815809
 70
   192
  0
VERTEX
  8
0
 38
107.270589
 10
69.815372
 20
3.451484
 70
   192
  0
VERTEX
  8
0
 38
107.270589
 10
68.850648
 20
3.851086
 70
   192
  0
VERTEX
  8
0
 38
107.270589
 10
67.815372
 20
3.987382
 70
   192
  0
VERTEX
  8
0
 38
107.270589
 10
66.780095
 20
3.851086
 70
   192
  0
VERTEX
  8
0
 38
107.270589
 10
65.815372
 20
3.451484
 70
   192
  0
VERTEX
  8
0
 38
107.270589
 10
64.986944
 20
2.815809
 70
   192
  0
VERTEX
  8
0
 38
107.270589
 10
64.35127
 20
1.987382
 70
   192
  0
VERTEX
  8
0
 38
107.270589
 10
63.951668
 20
1.022658
 70
   192
  0
VERTEX
  8
0
 38
107.270589
 10
63.815372
 20
-0.012618
 70
   192
  0
VERTEX
  8
0
 38
107.270589
 10
63.951668
 20
-1.047894
 70
   192
  0
VERTEX
  8
0
 38
107.270589
 10
64.35127
 20
-2.012618
 70
   192
  0
VERTEX
  8
0
 38
107.270589
 10
64.986944
 20
-2.841045
 70
   192
  0
VERTEX
  8
0
 38
107.270589
 10
65.815372
 20
-3.476719
 70
   192
  0
VERTEX
  8
0
 38
107.270589
 10
66.780095
 20
-3.876321
 70
   192
  0
VERTEX
  8
0
 38
107.270589
 10
67.815372
 20
-4.012618
 70
   192
  0
VERTEX
  8
0
 38
107.270589
 10
68.850648
 20
-3.876321
 70
   192
  0
VERTEX
  8
0
 38
107.270589
 10
69.815372
 20
-3.476719
 70
   192
  0
VERTEX
  8
0
 38
107.270589
 10
70.643799
 20
-2.841045
 70
   192
  0
VERTEX
  8
0
 38
107.270589
 10
71.279473
 20
-2.012618
 70
   192
  0
VERTEX
  8
0
 38
107.270589
 10
71.679075
 20
-1.047894
 70
   192
  0
VERTEX
  8
OBJECT_96
  6
CONTINUOUS
 62
   253
 10
0.0
 20
0.0
 70
   128
  0
VERTEX
  8
OBJECT_96
  6
CONTINUOUS
 62
   253
 10
0.0
 20
0.0
 70
   128
  0
VERTEX
  8
OBJECT_96
  6
CONTINUOUS
 62
   253
 10
0.0
 20
0.0
 70
   128
  0
VERTEX
  8
OBJECT_96
  6
CONTINUOUS
 62
   253
 10
0.0
 20
0.0
 70
   128
  0
VERTEX
  8
OBJECT_96
  6
CONTINUOUS
 62
   253
 10
0.0
 20
0.0
 70
   128
  0
VERTEX
  8
OBJECT_96
  6
CONTINUOUS
 62
   253
 10
0.0
 20
0.0
 70
   128
  0
VERTEX
  8
OBJECT_96
  6
CONTINUOUS
 62
   253
 10
0.0
 20
0.0
 70
   128
  0
VERTEX
  8
OBJECT_96
  6
CONTINUOUS
 62
   253
 10
0.0
 20
0.0
 70
   128
  0
VERTEX
  8
OBJECT_96
  6
CONTINUOUS
 62
   253
 10
0.0
 20
0.0
 70
   128
  0
VERTEX
  8
OBJECT_96
  6
CONTINUOUS
 62
   253
 10
0.0
 20
0.0
 70
   128
  0
VERTEX
  8
OBJECT_96
  6
CONTINUOUS
 62
   253
 10
0.0
 20
0.0
 70
   128
  0
VERTEX
  8
OBJECT_96
  6
CONTINUOUS
 62
   253
 10
0.0
 20
0.0
 70
   128
  0
VERTEX
  8
OBJECT_96
  6
CONTINUOUS
 62
   253
 10
0.0
 20
0.0
 70
   128
  0
VERTEX
  8
OBJECT_96
  6
CONTINUOUS
 62
   253
 10
0.0
 20
0.0
 70
   128
  0
VERTEX
  8
OBJECT_96
  6
CONTINUOUS
 62
   253
 10
0.0
 20
0.0
 70
   128
  0
VERTEX
  8
OBJECT_96
  6
CONTINUOUS
 62
   253
 10
0.0
 20
0.0
 70
   128
  0
VERTEX
  8
OBJECT_96
  6
CONTINUOUS
 62
   253
 10
0.0
 20
0.0
 70
   128
  0
VERTEX
  8
OBJECT_96
  6
CONTINUOUS
 62
   253
 10
0.0
 20
0.0
 70
   128
  0
VERTEX
  8
OBJECT_96
  6
CONTINUOUS
 62
   253
 10
0.0
 20
0.0
 70
   128
  0
VERTEX
  8
OBJECT_96
  6
CONTINUOUS
 62
   253
 10
0.0
 20
0.0
 70
   128
  0
VERTEX
  8
OBJECT_96
  6
CONTINUOUS
 62
   253
 10
0.0
 20
0.0
 70
   128
  0
VERTEX
  8
OBJECT_96
  6
CONTINUOUS
 62
   253
 10
0.0
 20
0.0
 70
   128
  0
VERTEX
  8
OBJECT_96
  6
CONTINUOUS
 62
   253
 10
0.0
 20
0.0
 70
   128
  0
VERTEX
  8
OBJECT_96
  6
CONTINUOUS
 62
   253
 10
0.0
 20
0.0
 70
   128
  0
VERTEX
  8
OBJECT_96
  6
CONTINUOUS
 62
   253
 10
0.0
 20
0.0
 70
   128
  0
VERTEX
  8
OBJECT_96
  6
CONTINUOUS
 62
   253
 10
0.0
 20
0.0
 70
   128
  0
VERTEX
  8
OBJECT_96
  6
CONTINUOUS
 62
   253
 10
0.0
 20
0.0
 70
   128
  0
VERTEX
  8
OBJECT_96
  6
CONTINUOUS
 62
   253
 10
0.0
 20
0.0
 70
   128
  0
VERTEX
  8
OBJECT_96
  6
CONTINUOUS
 62
   253
 10
0.0
 20
0.0
 70
   128
  0
VERTEX
  8
OBJECT_96
  6
CONTINUOUS
 62
   253
 10
0.0
 20
0.0
 70
   128
  0
VERTEX
  8
OBJECT_96
  6
CONTINUOUS
 62
   253
 10
0.0
 20
0.0
 70
   128
  0
VERTEX
  8
OBJECT_96
  6
CONTINUOUS
 62
   253
 10
0.0
 20
0.0
 70
   128
  0
VERTEX
  8
OBJECT_96
  6
CONTINUOUS
 62
   253
 10
0.0
 20
0.0
 70
   128
  0
VERTEX
  8
OBJECT_96
  6
CONTINUOUS
 62
   253
 10
0.0
 20
0.0
 70
   128
  0
VERTEX
  8
OBJECT_96
  6
CONTINUOUS
 62
   253
 10
0.0
 20
0.0
 70
   128
  0
VERTEX
  8
OBJECT_96
  6
CONTINUOUS
 62
   253
 10
0.0
 20
0.0
 70
   128
  0
VERTEX
  8
OBJECT_96
  6
CONTINUOUS
 62
   253
 10
0.0
 20
0.0
 70
   128
  0
VERTEX
  8
OBJECT_96
  6
CONTINUOUS
 62
   253
 10
0.0
 20
0.0
 70
   128
  0
VERTEX
  8
OBJECT_96
  6
CONTINUOUS
 62
   253
 10
0.0
 20
0.0
 70
   128
  0
VERTEX
  8
OBJECT_96
  6
CONTINUOUS
 62
   253
 10
0.0
 20
0.0
 70
   128
  0
VERTEX
  8
OBJECT_96
  6
CONTINUOUS
 62
   253
 10
0.0
 20
0.0
 70
   128
  0
VERTEX
  8
OBJECT_96
  6
CONTINUOUS
 62
   253
 10
0.0
 20
0.0
 70
   128
  0
VERTEX
  8
OBJECT_96
  6
CONTINUOUS
 62
   253
 10
0.0
 20
0.0
 70
   128
  0
VERTEX
  8
OBJECT_96
  6
CONTINUOUS
 62
   253
 10
0.0
 20
0.0
 70
   128
  0
VERTEX
  8
OBJECT_96
  6
CONTINUOUS
 62
   253
 10
0.0
 20
0.0
 70
   128
  0
VERTEX
  8
OBJECT_96
  6
CONTINUOUS
 62
   253
 10
0.0
 20
0.0
 70
   128
  0
SEQEND
  8
OBJECT_96
  6
CONTINUOUS
 62
   253
  0
POLYLINE
  8
OBJECT_97
  6
CONTINUOUS
 62
   253
 66
     1
 70
    64
  0
VERTEX
  8
0
 38
59.313736
 10
43.344778
 20
-0.803468
 70
   192
  0
VERTEX
  8
0
 38
59.313736
 10
43.208482
 20
0.231809
 70
   192
  0
VERTEX
  8
0
 38
59.313736
 10
42.80888
 20
1.196532
 70
   192
  0
VERTEX
  8
0
 38
59.313736
 10
42.173205
 20
2.02496
 70
   192
  0
VERTEX
  8
0
 38
59.313736
 10
41.344778
 20
2.660634
 70
   192
  0
VERTEX
  8
0
 38
59.313736
 10
40.380054
 20
3.060236
 70
   192
  0
VERTEX
  8
0
 38
59.313736
 10
39.344778
 20
3.196532
 70
   192
  0
VERTEX
  8
0
 38
59.313736
 10
38.309502
 20
3.060236
 70
   192
  0
VERTEX
  8
0
 38
59.313736
 10
37.344778
 20
2.660634
 70
   192
  0
VERTEX
  8
0
 38
59.313736
 10
36.516351
 20
2.02496
 70
   192
  0
VERTEX
  8
0
 38
59.313736
 10
35.880677
 20
1.196532
 70
   192
  0
VERTEX
  8
0
 38
59.313736
 10
35.481075
 20
0.231809
 70
   192
  0
VERTEX
  8
0
 38
59.313736
 10
35.344778
 20
-0.803468
 70
   192
  0
VERTEX
  8
0
 38
59.313736
 10
35.481075
 20
-1.838744
 70
   192
  0
VERTEX
  8
0
 38
59.313736
 10
35.880677
 20
-2.803468
 70
   192
  0
VERTEX
  8
0
 38
59.313736
 10
36.516351
 20
-3.631895
 70
   192
  0
VERTEX
  8
0
 38
59.313736
 10
37.344778
 20
-4.267569
 70
   192
  0
VERTEX
  8
0
 38
59.313736
 10
38.309502
 20
-4.667171
 70
   192
  0
VERTEX
  8
0
 38
59.313736
 10
39.344778
 20
-4.803468
 70
   192
  0
VERTEX
  8
0
 38
59.313736
 10
40.380054
 20
-4.667171
 70
   192
  0
VERTEX
  8
0
 38
59.313736
 10
41.344778
 20
-4.267569
 70
   192
  0
VERTEX
  8
0
 38
59.313736
 10
42.173205
 20
-3.631895
 70
   192
  0
VERTEX
  8
0
 38
59.313736
 10
42.80888
 20
-2.803468
 70
   192
  0
VERTEX
  8
0
 38
59.313736
 10
43.208482
 20
-1.838744
 70
   192
  0
VERTEX
  8
0
 38
107.313736
 10
43.344778
 20
-0.803468
 70
   192
  0
VERTEX
  8
0
 38
107.313736
 10
43.208482
 20
0.231809
 70
   192
  0
VERTEX
  8
0
 38
107.313736
 10
42.80888
 20
1.196532
 70
   192
  0
VERTEX
  8
0
 38
107.313736
 10
42.173205
 20
2.02496
 70
   192
  0
VERTEX
  8
0
 38
107.313736
 10
41.344778
 20
2.660634
 70
   192
  0
VERTEX
  8
0
 38
107.313736
 10
40.380054
 20
3.060236
 70
   192
  0
VERTEX
  8
0
 38
107.313736
 10
39.344778
 20
3.196532
 70
   192
  0
VERTEX
  8
0
 38
107.313736
 10
38.309502
 20
3.060236
 70
   192
  0
VERTEX
  8
0
 38
107.313736
 10
37.344778
 20
2.660634
 70
   192
  0
VERTEX
  8
0
 38
107.313736
 10
36.516351
 20
2.02496
 70
   192
  0
VERTEX
  8
0
 38
107.313736
 10
35.880677
 20
1.196532
 70
   192
  0
VERTEX
  8
0
 38
107.313736
 10
35.481075
 20
0.231809
 70
   192
  0
VERTEX
  8
0
 38
107.313736
 10
35.344778
 20
-0.803468
 70
   192
  0
VERTEX
  8
0
 38
107.313736
 10
35.481075
 20
-1.838744
 70
   192
  0
VERTEX
  8
0
 38
107.313736
 10
35.880677
 20
-2.803468
 70
   192
  0
VERTEX
  8
0
 38
107.313736
 10
36.516351
 20
-3.631895
 70
   192
  0
VERTEX
  8
0
 38
107.313736
 10
37.344778
 20
-4.267569
 70
   192
  0
VERTEX
  8
0
 38
107.313736
 10
38.309502
 20
-4.667171
 70
   192
  0
VERTEX
  8
0
 38
107.313736
 10
39.344778
 20
-4.803468
 70
   192
  0
VERTEX
  8
0
 38
107.313736
 10
40.380054
 20
-4.667171
 70
   192
  0
VERTEX
  8
0
 38
107.313736
 10
41.344778
 20
-4.267569
 70
   192
  0
VERTEX
  8
0
 38
107.313736
 10
42.173205
 20
-3.631895
 70
   192
  0
VERTEX
  8
0
 38
107.313736
 10
42.80888
 20
-2.803468
 70
   192
  0
VERTEX
  8
0
 38
107.313736
 10
43.208482
 20
-1.838744
 70
   192
  0
VERTEX
  8
OBJECT_97
  6
CONTINUOUS
 62
   253
 10
0.0
 20
0.0
 70
   128
  0
VERTEX
  8
OBJECT_97
  6
CONTINUOUS
 62
   253
 10
0.0
 20
0.0
 70
   128
  0
VERTEX
  8
OBJECT_97
  6
CONTINUOUS
 62
   253
 10
0.0
 20
0.0
 70
   128
  0
VERTEX
  8
OBJECT_97
  6
CONTINUOUS
 62
   253
 10
0.0
 20
0.0
 70
   128
  0
VERTEX
  8
OBJECT_97
  6
CONTINUOUS
 62
   253
 10
0.0
 20
0.0
 70
   128
  0
VERTEX
  8
OBJECT_97
  6
CONTINUOUS
 62
   253
 10
0.0
 20
0.0
 70
   128
  0
VERTEX
  8
OBJECT_97
  6
CONTINUOUS
 62
   253
 10
0.0
 20
0.0
 70
   128
  0
VERTEX
  8
OBJECT_97
  6
CONTINUOUS
 62
   253
 10
0.0
 20
0.0
 70
   128
  0
VERTEX
  8
OBJECT_97
  6
CONTINUOUS
 62
   253
 10
0.0
 20
0.0
 70
   128
  0
VERTEX
  8
OBJECT_97
  6
CONTINUOUS
 62
   253
 10
0.0
 20
0.0
 70
   128
  0
VERTEX
  8
OBJECT_97
  6
CONTINUOUS
 62
   253
 10
0.0
 20
0.0
 70
   128
  0
VERTEX
  8
OBJECT_97
  6
CONTINUOUS
 62
   253
 10
0.0
 20
0.0
 70
   128
  0
VERTEX
  8
OBJECT_97
  6
CONTINUOUS
 62
   253
 10
0.0
 20
0.0
 70
   128
  0
VERTEX
  8
OBJECT_97
  6
CONTINUOUS
 62
   253
 10
0.0
 20
0.0
 70
   128
  0
VERTEX
  8
OBJECT_97
  6
CONTINUOUS
 62
   253
 10
0.0
 20
0.0
 70
   128
  0
VERTEX
  8
OBJECT_97
  6
CONTINUOUS
 62
   253
 10
0.0
 20
0.0
 70
   128
  0
VERTEX
  8
OBJECT_97
  6
CONTINUOUS
 62
   253
 10
0.0
 20
0.0
 70
   128
  0
VERTEX
  8
OBJECT_97
  6
CONTINUOUS
 62
   253
 10
0.0
 20
0.0
 70
   128
  0
VERTEX
  8
OBJECT_97
  6
CONTINUOUS
 62
   253
 10
0.0
 20
0.0
 70
   128
  0
VERTEX
  8
OBJECT_97
  6
CONTINUOUS
 62
   253
 10
0.0
 20
0.0
 70
   128
  0
VERTEX
  8
OBJECT_97
  6
CONTINUOUS
 62
   253
 10
0.0
 20
0.0
 70
   128
  0
VERTEX
  8
OBJECT_97
  6
CONTINUOUS
 62
   253
 10
0.0
 20
0.0
 70
   128
  0
VERTEX
  8
OBJECT_97
  6
CONTINUOUS
 62
   253
 10
0.0
 20
0.0
 70
   128
  0
VERTEX
  8
OBJECT_97
  6
CONTINUOUS
 62
   253
 10
0.0
 20
0.0
 70
   128
  0
VERTEX
  8
OBJECT_97
  6
CONTINUOUS
 62
   253
 10
0.0
 20
0.0
 70
   128
  0
VERTEX
  8
OBJECT_97
  6
CONTINUOUS
 62
   253
 10
0.0
 20
0.0
 70
   128
  0
VERTEX
  8
OBJECT_97
  6
CONTINUOUS
 62
   253
 10
0.0
 20
0.0
 70
   128
  0
VERTEX
  8
OBJECT_97
  6
CONTINUOUS
 62
   253
 10
0.0
 20
0.0
 70
   128
  0
VERTEX
  8
OBJECT_97
  6
CONTINUOUS
 62
   253
 10
0.0
 20
0.0
 70
   128
  0
VERTEX
  8
OBJECT_97
  6
CONTINUOUS
 62
   253
 10
0.0
 20
0.0
 70
   128
  0
VERTEX
  8
OBJECT_97
  6
CONTINUOUS
 62
   253
 10
0.0
 20
0.0
 70
   128
  0
VERTEX
  8
OBJECT_97
  6
CONTINUOUS
 62
   253
 10
0.0
 20
0.0
 70
   128
  0
VERTEX
  8
OBJECT_97
  6
CONTINUOUS
 62
   253
 10
0.0
 20
0.0
 70
   128
  0
VERTEX
  8
OBJECT_97
  6
CONTINUOUS
 62
   253
 10
0.0
 20
0.0
 70
   128
  0
VERTEX
  8
OBJECT_97
  6
CONTINUOUS
 62
   253
 10
0.0
 20
0.0
 70
   128
  0
VERTEX
  8
OBJECT_97
  6
CONTINUOUS
 62
   253
 10
0.0
 20
0.0
 70
   128
  0
VERTEX
  8
OBJECT_97
  6
CONTINUOUS
 62
   253
 10
0.0
 20
0.0
 70
   128
  0
VERTEX
  8
OBJECT_97
  6
CONTINUOUS
 62
   253
 10
0.0
 20
0.0
 70
   128
  0
VERTEX
  8
OBJECT_97
  6
CONTINUOUS
 62
   253
 10
0.0
 20
0.0
 70
   128
  0
VERTEX
  8
OBJECT_97
  6
CONTINUOUS
 62
   253
 10
0.0
 20
0.0
 70
   128
  0
VERTEX
  8
OBJECT_97
  6
CONTINUOUS
 62
   253
 10
0.0
 20
0.0
 70
   128
  0
VERTEX
  8
OBJECT_97
  6
CONTINUOUS
 62
   253
 10
0.0
 20
0.0
 70
   128
  0
VERTEX
  8
OBJECT_97
  6
CONTINUOUS
 62
   253
 10
0.0
 20
0.0
 70
   128
  0
VERTEX
  8
OBJECT_97
  6
CONTINUOUS
 62
   253
 10
0.0
 20
0.0
 70
   128
  0
VERTEX
  8
OBJECT_97
  6
CONTINUOUS
 62
   253
 10
0.0
 20
0.0
 70
   128
  0
VERTEX
  8
OBJECT_97
  6
CONTINUOUS
 62
   253
 10
0.0
 20
0.0
 70
   128
  0
SEQEND
  8
OBJECT_97
  6
CONTINUOUS
 62
   253
  0
POLYLINE
  8
OBJECT_89_COPY
  6
CONTINUOUS
 62
   253
 66
     1
 70
    64
  0
VERTEX
  8
0
 38
59.270589
 10
-142.900353
 20
0.029561
 70
   192
  0
VERTEX
  8
0
 38
59.270589
 10
-143.03665
 20
1.064837
 70
   192
  0
VERTEX
  8
0
 38
59.270589
 10
-143.436251
 20
2.029561
 70
   192
  0
VERTEX
  8
0
 38
59.270589
 10
-144.071926
 20
2.857988
 70
   192
  0
VERTEX
  8
0
 38
59.270589
 10
-144.900353
 20
3.493663
 70
   192
  0
VERTEX
  8
0
 38
59.270589
 10
-145.865077
 20
3.893264
 70
   192
  0
VERTEX
  8
0
 38
59.270589
 10
-146.900353
 20
4.029561
 70
   192
  0
VERTEX
  8
0
 38
59.270589
 10
-147.935629
 20
3.893264
 70
   192
  0
VERTEX
  8
0
 38
59.270589
 10
-148.900353
 20
3.493663
 70
   192
  0
VERTEX
  8
0
 38
59.270589
 10
-149.72878
 20
2.857988
 70
   192
  0
VERTEX
  8
0
 38
59.270589
 10
-150.364454
 20
2.029561
 70
   192
  0
VERTEX
  8
0
 38
59.270589
 10
-150.764056
 20
1.064837
 70
   192
  0
VERTEX
  8
0
 38
59.270589
 10
-150.900353
 20
0.029561
 70
   192
  0
VERTEX
  8
0
 38
59.270589
 10
-150.764056
 20
-1.005715
 70
   192
  0
VERTEX
  8
0
 38
59.270589
 10
-150.364454
 20
-1.970439
 70
   192
  0
VERTEX
  8
0
 38
59.270589
 10
-149.72878
 20
-2.798866
 70
   192
  0
VERTEX
  8
0
 38
59.270589
 10
-148.900353
 20
-3.434541
 70
   192
  0
VERTEX
  8
0
 38
59.270589
 10
-147.935629
 20
-3.834142
 70
   192
  0
VERTEX
  8
0
 38
59.270589
 10
-146.900353
 20
-3.970439
 70
   192
  0
VERTEX
  8
0
 38
59.270589
 10
-145.865077
 20
-3.834142
 70
   192
  0
VERTEX
  8
0
 38
59.270589
 10
-144.900353
 20
-3.434541
 70
   192
  0
VERTEX
  8
0
 38
59.270589
 10
-144.071926
 20
-2.798866
 70
   192
  0
VERTEX
  8
0
 38
59.270589
 10
-143.436251
 20
-1.970439
 70
   192
  0
VERTEX
  8
0
 38
59.270589
 10
-143.03665
 20
-1.005715
 70
   192
  0
VERTEX
  8
0
 38
95.270589
 10
-142.900353
 20
0.029561
 70
   192
  0
VERTEX
  8
0
 38
95.270589
 10
-143.03665
 20
1.064837
 70
   192
  0
VERTEX
  8
0
 38
95.270589
 10
-143.436251
 20
2.029561
 70
   192
  0
VERTEX
  8
0
 38
95.270589
 10
-144.071926
 20
2.857988
 70
   192
  0
VERTEX
  8
0
 38
95.270589
 10
-144.900353
 20
3.493663
 70
   192
  0
VERTEX
  8
0
 38
95.270589
 10
-145.865077
 20
3.893264
 70
   192
  0
VERTEX
  8
0
 38
95.270589
 10
-146.900353
 20
4.029561
 70
   192
  0
VERTEX
  8
0
 38
95.270589
 10
-147.935629
 20
3.893264
 70
   192
  0
VERTEX
  8
0
 38
95.270589
 10
-148.900353
 20
3.493663
 70
   192
  0
VERTEX
  8
0
 38
95.270589
 10
-149.72878
 20
2.857988
 70
   192
  0
VERTEX
  8
0
 38
95.270589
 10
-150.364454
 20
2.029561
 70
   192
  0
VERTEX
  8
0
 38
95.270589
 10
-150.764056
 20
1.064837
 70
   192
  0
VERTEX
  8
0
 38
95.270589
 10
-150.900353
 20
0.029561
 70
   192
  0
VERTEX
  8
0
 38
95.270589
 10
-150.764056
 20
-1.005715
 70
   192
  0
VERTEX
  8
0
 38
95.270589
 10
-150.364454
 20
-1.970439
 70
   192
  0
VERTEX
  8
0
 38
95.270589
 10
-149.72878
 20
-2.798866
 70
   192
  0
VERTEX
  8
0
 38
95.270589
 10
-148.900353
 20
-3.434541
 70
   192
  0
VERTEX
  8
0
 38
95.270589
 10
-147.935629
 20
-3.834142
 70
   192
  0
VERTEX
  8
0
 38
95.270589
 10
-146.900353
 20
-3.970439
 70
   192
  0
VERTEX
  8
0
 38
95.270589
 10
-145.865077
 20
-3.834142
 70
   192
  0
VERTEX
  8
0
 38
95.270589
 10
-144.900353
 20
-3.434541
 70
   192
  0
VERTEX
  8
0
 38
95.270589
 10
-144.071926
 20
-2.798866
 70
   192
  0
VERTEX
  8
0
 38
95.270589
 10
-143.436251
 20
-1.970439
 70
   192
  0
VERTEX
  8
0
 38
95.270589
 10
-143.03665
 20
-1.005715
 70
   192
  0
VERTEX
  8
OBJECT_89_COPY
  6
CONTINUOUS
 62
   253
 10
0.0
 20
0.0
 70
   128
  0
VERTEX
  8
OBJECT_89_COPY
  6
CONTINUOUS
 62
   253
 10
0.0
 20
0.0
 70
   128
  0
VERTEX
  8
OBJECT_89_COPY
  6
CONTINUOUS
 62
   253
 10
0.0
 20
0.0
 70
   128
  0
VERTEX
  8
OBJECT_89_COPY
  6
CONTINUOUS
 62
   253
 10
0.0
 20
0.0
 70
   128
  0
VERTEX
  8
OBJECT_89_COPY
  6
CONTINUOUS
 62
   253
 10
0.0
 20
0.0
 70
   128
  0
VERTEX
  8
OBJECT_89_COPY
  6
CONTINUOUS
 62
   253
 10
0.0
 20
0.0
 70
   128
  0
VERTEX
  8
OBJECT_89_COPY
  6
CONTINUOUS
 62
   253
 10
0.0
 20
0.0
 70
   128
  0
VERTEX
  8
OBJECT_89_COPY
  6
CONTINUOUS
 62
   253
 10
0.0
 20
0.0
 70
   128
  0
VERTEX
  8
OBJECT_89_COPY
  6
CONTINUOUS
 62
   253
 10
0.0
 20
0.0
 70
   128
  0
VERTEX
  8
OBJECT_89_COPY
  6
CONTINUOUS
 62
   253
 10
0.0
 20
0.0
 70
   128
  0
VERTEX
  8
OBJECT_89_COPY
  6
CONTINUOUS
 62
   253
 10
0.0
 20
0.0
 70
   128
  0
VERTEX
  8
OBJECT_89_COPY
  6
CONTINUOUS
 62
   253
 10
0.0
 20
0.0
 70
   128
  0
VERTEX
  8
OBJECT_89_COPY
  6
CONTINUOUS
 62
   253
 10
0.0
 20
0.0
 70
   128
  0
VERTEX
  8
OBJECT_89_COPY
  6
CONTINUOUS
 62
   253
 10
0.0
 20
0.0
 70
   128
  0
VERTEX
  8
OBJECT_89_COPY
  6
CONTINUOUS
 62
   253
 10
0.0
 20
0.0
 70
   128
  0
VERTEX
  8
OBJECT_89_COPY
  6
CONTINUOUS
 62
   253
 10
0.0
 20
0.0
 70
   128
  0
VERTEX
  8
OBJECT_89_COPY
  6
CONTINUOUS
 62
   253
 10
0.0
 20
0.0
 70
   128
  0
VERTEX
  8
OBJECT_89_COPY
  6
CONTINUOUS
 62
   253
 10
0.0
 20
0.0
 70
   128
  0
VERTEX
  8
OBJECT_89_COPY
  6
CONTINUOUS
 62
   253
 10
0.0
 20
0.0
 70
   128
  0
VERTEX
  8
OBJECT_89_COPY
  6
CONTINUOUS
 62
   253
 10
0.0
 20
0.0
 70
   128
  0
VERTEX
  8
OBJECT_89_COPY
  6
CONTINUOUS
 62
   253
 10
0.0
 20
0.0
 70
   128
  0
VERTEX
  8
OBJECT_89_COPY
  6
CONTINUOUS
 62
   253
 10
0.0
 20
0.0
 70
   128
  0
VERTEX
  8
OBJECT_89_COPY
  6
CONTINUOUS
 62
   253
 10
0.0
 20
0.0
 70
   128
  0
VERTEX
  8
OBJECT_89_COPY
  6
CONTINUOUS
 62
   253
 10
0.0
 20
0.0
 70
   128
  0
VERTEX
  8
OBJECT_89_COPY
  6
CONTINUOUS
 62
   253
 10
0.0
 20
0.0
 70
   128
  0
VERTEX
  8
OBJECT_89_COPY
  6
CONTINUOUS
 62
   253
 10
0.0
 20
0.0
 70
   128
  0
VERTEX
  8
OBJECT_89_COPY
  6
CONTINUOUS
 62
   253
 10
0.0
 20
0.0
 70
   128
  0
VERTEX
  8
OBJECT_89_COPY
  6
CONTINUOUS
 62
   253
 10
0.0
 20
0.0
 70
   128
  0
VERTEX
  8
OBJECT_89_COPY
  6
CONTINUOUS
 62
   253
 10
0.0
 20
0.0
 70
   128
  0
VERTEX
  8
OBJECT_89_COPY
  6
CONTINUOUS
 62
   253
 10
0.0
 20
0.0
 70
   128
  0
VERTEX
  8
OBJECT_89_COPY
  6
CONTINUOUS
 62
   253
 10
0.0
 20
0.0
 70
   128
  0
VERTEX
  8
OBJECT_89_COPY
  6
CONTINUOUS
 62
   253
 10
0.0
 20
0.0
 70
   128
  0
VERTEX
  8
OBJECT_89_COPY
  6
CONTINUOUS
 62
   253
 10
0.0
 20
0.0
 70
   128
  0
VERTEX
  8
OBJECT_89_COPY
  6
CONTINUOUS
 62
   253
 10
0.0
 20
0.0
 70
   128
  0
VERTEX
  8
OBJECT_89_COPY
  6
CONTINUOUS
 62
   253
 10
0.0
 20
0.0
 70
   128
  0
VERTEX
  8
OBJECT_89_COPY
  6
CONTINUOUS
 62
   253
 10
0.0
 20
0.0
 70
   128
  0
VERTEX
  8
OBJECT_89_COPY
  6
CONTINUOUS
 62
   253
 10
0.0
 20
0.0
 70
   128
  0
VERTEX
  8
OBJECT_89_COPY
  6
CONTINUOUS
 62
   253
 10
0.0
 20
0.0
 70
   128
  0
VERTEX
  8
OBJECT_89_COPY
  6
CONTINUOUS
 62
   253
 10
0.0
 20
0.0
 70
   128
  0
VERTEX
  8
OBJECT_89_COPY
  6
CONTINUOUS
 62
   253
 10
0.0
 20
0.0
 70
   128
  0
VERTEX
  8
OBJECT_89_COPY
  6
CONTINUOUS
 62
   253
 10
0.0
 20
0.0
 70
   128
  0
VERTEX
  8
OBJECT_89_COPY
  6
CONTINUOUS
 62
   253
 10
0.0
 20
0.0
 70
   128
  0
VERTEX
  8
OBJECT_89_COPY
  6
CONTINUOUS
 62
   253
 10
0.0
 20
0.0
 70
   128
  0
VERTEX
  8
OBJECT_89_COPY
  6
CONTINUOUS
 62
   253
 10
0.0
 20
0.0
 70
   128
  0
VERTEX
  8
OBJECT_89_COPY
  6
CONTINUOUS
 62
   253
 10
0.0
 20
0.0
 70
   128
  0
VERTEX
  8
OBJECT_89_COPY
  6
CONTINUOUS
 62
   253
 10
0.0
 20
0.0
 70
   128
  0
SEQEND
  8
OBJECT_89_COPY
  6
CONTINUOUS
 62
   253
  0
POLYLINE
  8
OBJECT_91_COPY
  6
CONTINUOUS
 62
   253
 66
     1
 70
    64
  0
VERTEX
  8
0
 38
59.253504
 10
-20.760753
 20
0.029561
 70
   192
  0
VERTEX
  8
0
 38
59.253504
 10
-20.89705
 20
1.064837
 70
   192
  0
VERTEX
  8
0
 38
59.253504
 10
-21.296652
 20
2.029561
 70
   192
  0
VERTEX
  8
0
 38
59.253504
 10
-21.932326
 20
2.857988
 70
   192
  0
VERTEX
  8
0
 38
59.253504
 10
-22.760753
 20
3.493663
 70
   192
  0
VERTEX
  8
0
 38
59.253504
 10
-23.725477
 20
3.893264
 70
   192
  0
VERTEX
  8
0
 38
59.253504
 10
-24.760753
 20
4.029561
 70
   192
  0
VERTEX
  8
0
 38
59.253504
 10
-25.796029
 20
3.893264
 70
   192
  0
VERTEX
  8
0
 38
59.253504
 10
-26.760753
 20
3.493663
 70
   192
  0
VERTEX
  8
0
 38
59.253504
 10
-27.58918
 20
2.857988
 70
   192
  0
VERTEX
  8
0
 38
59.253504
 10
-28.224855
 20
2.029561
 70
   192
  0
VERTEX
  8
0
 38
59.253504
 10
-28.624457
 20
1.064837
 70
   192
  0
VERTEX
  8
0
 38
59.253504
 10
-28.760753
 20
0.029561
 70
   192
  0
VERTEX
  8
0
 38
59.253504
 10
-28.624457
 20
-1.005715
 70
   192
  0
VERTEX
  8
0
 38
59.253504
 10
-28.224855
 20
-1.970439
 70
   192
  0
VERTEX
  8
0
 38
59.253504
 10
-27.58918
 20
-2.798866
 70
   192
  0
VERTEX
  8
0
 38
59.253504
 10
-26.760753
 20
-3.434541
 70
   192
  0
VERTEX
  8
0
 38
59.253504
 10
-25.796029
 20
-3.834142
 70
   192
  0
VERTEX
  8
0
 38
59.253504
 10
-24.760753
 20
-3.970439
 70
   192
  0
VERTEX
  8
0
 38
59.253504
 10
-23.725477
 20
-3.834142
 70
   192
  0
VERTEX
  8
0
 38
59.253504
 10
-22.760753
 20
-3.434541
 70
   192
  0
VERTEX
  8
0
 38
59.253504
 10
-21.932326
 20
-2.798866
 70
   192
  0
VERTEX
  8
0
 38
59.253504
 10
-21.296652
 20
-1.970439
 70
   192
  0
VERTEX
  8
0
 38
59.253504
 10
-20.89705
 20
-1.005715
 70
   192
  0
VERTEX
  8
0
 38
95.253504
 10
-20.760753
 20
0.029561
 70
   192
  0
VERTEX
  8
0
 38
95.253504
 10
-20.89705
 20
1.064837
 70
   192
  0
VERTEX
  8
0
 38
95.253504
 10
-21.296652
 20
2.029561
 70
   192
  0
VERTEX
  8
0
 38
95.253504
 10
-21.932326
 20
2.857988
 70
   192
  0
VERTEX
  8
0
 38
95.253504
 10
-22.760753
 20
3.493663
 70
   192
  0
VERTEX
  8
0
 38
95.253504
 10
-23.725477
 20
3.893264
 70
   192
  0
VERTEX
  8
0
 38
95.253504
 10
-24.760753
 20
4.029561
 70
   192
  0
VERTEX
  8
0
 38
95.253504
 10
-25.796029
 20
3.893264
 70
   192
  0
VERTEX
  8
0
 38
95.253504
 10
-26.760753
 20
3.493663
 70
   192
  0
VERTEX
  8
0
 38
95.253504
 10
-27.58918
 20
2.857988
 70
   192
  0
VERTEX
  8
0
 38
95.253504
 10
-28.224855
 20
2.029561
 70
   192
  0
VERTEX
  8
0
 38
95.253504
 10
-28.624457
 20
1.064837
 70
   192
  0
VERTEX
  8
0
 38
95.253504
 10
-28.760753
 20
0.029561
 70
   192
  0
VERTEX
  8
0
 38
95.253504
 10
-28.624457
 20
-1.005715
 70
   192
  0
VERTEX
  8
0
 38
95.253504
 10
-28.224855
 20
-1.970439
 70
   192
  0
VERTEX
  8
0
 38
95.253504
 10
-27.58918
 20
-2.798866
 70
   192
  0
VERTEX
  8
0
 38
95.253504
 10
-26.760753
 20
-3.434541
 70
   192
  0
VERTEX
  8
0
 38
95.253504
 10
-25.796029
 20
-3.834142
 70
   192
  0
VERTEX
  8
0
 38
95.253504
 10
-24.760753
 20
-3.970439
 70
   192
  0
VERTEX
  8
0
 38
95.253504
 10
-23.725477
 20
-3.834142
 70
   192
  0
VERTEX
  8
0
 38
95.253504
 10
-22.760753
 20
-3.434541
 70
   192
  0
VERTEX
  8
0
 38
95.253504
 10
-21.932326
 20
-2.798866
 70
   192
  0
VERTEX
  8
0
 38
95.253504
 10
-21.296652
 20
-1.970439
 70
   192
  0
VERTEX
  8
0
 38
95.253504
 10
-20.89705
 20
-1.005715
 70
   192
  0
VERTEX
  8
OBJECT_91_COPY
  6
CONTINUOUS
 62
   253
 10
0.0
 20
0.0
 70
   128
  0
VERTEX
  8
OBJECT_91_COPY
  6
CONTINUOUS
 62
   253
 10
0.0
 20
0.0
 70
   128
  0
VERTEX
  8
OBJECT_91_COPY
  6
CONTINUOUS
 62
   253
 10
0.0
 20
0.0
 70
   128
  0
VERTEX
  8
OBJECT_91_COPY
  6
CONTINUOUS
 62
   253
 10
0.0
 20
0.0
 70
   128
  0
VERTEX
  8
OBJECT_91_COPY
  6
CONTINUOUS
 62
   253
 10
0.0
 20
0.0
 70
   128
  0
VERTEX
  8
OBJECT_91_COPY
  6
CONTINUOUS
 62
   253
 10
0.0
 20
0.0
 70
   128
  0
VERTEX
  8
OBJECT_91_COPY
  6
CONTINUOUS
 62
   253
 10
0.0
 20
0.0
 70
   128
  0
VERTEX
  8
OBJECT_91_COPY
  6
CONTINUOUS
 62
   253
 10
0.0
 20
0.0
 70
   128
  0
VERTEX
  8
OBJECT_91_COPY
  6
CONTINUOUS
 62
   253
 10
0.0
 20
0.0
 70
   128
  0
VERTEX
  8
OBJECT_91_COPY
  6
CONTINUOUS
 62
   253
 10
0.0
 20
0.0
 70
   128
  0
VERTEX
  8
OBJECT_91_COPY
  6
CONTINUOUS
 62
   253
 10
0.0
 20
0.0
 70
   128
  0
VERTEX
  8
OBJECT_91_COPY
  6
CONTINUOUS
 62
   253
 10
0.0
 20
0.0
 70
   128
  0
VERTEX
  8
OBJECT_91_COPY
  6
CONTINUOUS
 62
   253
 10
0.0
 20
0.0
 70
   128
  0
VERTEX
  8
OBJECT_91_COPY
  6
CONTINUOUS
 62
   253
 10
0.0
 20
0.0
 70
   128
  0
VERTEX
  8
OBJECT_91_COPY
  6
CONTINUOUS
 62
   253
 10
0.0
 20
0.0
 70
   128
  0
VERTEX
  8
OBJECT_91_COPY
  6
CONTINUOUS
 62
   253
 10
0.0
 20
0.0
 70
   128
  0
VERTEX
  8
OBJECT_91_COPY
  6
CONTINUOUS
 62
   253
 10
0.0
 20
0.0
 70
   128
  0
VERTEX
  8
OBJECT_91_COPY
  6
CONTINUOUS
 62
   253
 10
0.0
 20
0.0
 70
   128
  0
VERTEX
  8
OBJECT_91_COPY
  6
CONTINUOUS
 62
   253
 10
0.0
 20
0.0
 70
   128
  0
VERTEX
  8
OBJECT_91_COPY
  6
CONTINUOUS
 62
   253
 10
0.0
 20
0.0
 70
   128
  0
VERTEX
  8
OBJECT_91_COPY
  6
CONTINUOUS
 62
   253
 10
0.0
 20
0.0
 70
   128
  0
VERTEX
  8
OBJECT_91_COPY
  6
CONTINUOUS
 62
   253
 10
0.0
 20
0.0
 70
   128
  0
VERTEX
  8
OBJECT_91_COPY
  6
CONTINUOUS
 62
   253
 10
0.0
 20
0.0
 70
   128
  0
VERTEX
  8
OBJECT_91_COPY
  6
CONTINUOUS
 62
   253
 10
0.0
 20
0.0
 70
   128
  0
VERTEX
  8
OBJECT_91_COPY
  6
CONTINUOUS
 62
   253
 10
0.0
 20
0.0
 70
   128
  0
VERTEX
  8
OBJECT_91_COPY
  6
CONTINUOUS
 62
   253
 10
0.0
 20
0.0
 70
   128
  0
VERTEX
  8
OBJECT_91_COPY
  6
CONTINUOUS
 62
   253
 10
0.0
 20
0.0
 70
   128
  0
VERTEX
  8
OBJECT_91_COPY
  6
CONTINUOUS
 62
   253
 10
0.0
 20
0.0
 70
   128
  0
VERTEX
  8
OBJECT_91_COPY
  6
CONTINUOUS
 62
   253
 10
0.0
 20
0.0
 70
   128
  0
VERTEX
  8
OBJECT_91_COPY
  6
CONTINUOUS
 62
   253
 10
0.0
 20
0.0
 70
   128
  0
VERTEX
  8
OBJECT_91_COPY
  6
CONTINUOUS
 62
   253
 10
0.0
 20
0.0
 70
   128
  0
VERTEX
  8
OBJECT_91_COPY
  6
CONTINUOUS
 62
   253
 10
0.0
 20
0.0
 70
   128
  0
VERTEX
  8
OBJECT_91_COPY
  6
CONTINUOUS
 62
   253
 10
0.0
 20
0.0
 70
   128
  0
VERTEX
  8
OBJECT_91_COPY
  6
CONTINUOUS
 62
   253
 10
0.0
 20
0.0
 70
   128
  0
VERTEX
  8
OBJECT_91_COPY
  6
CONTINUOUS
 62
   253
 10
0.0
 20
0.0
 70
   128
  0
VERTEX
  8
OBJECT_91_COPY
  6
CONTINUOUS
 62
   253
 10
0.0
 20
0.0
 70
   128
  0
VERTEX
  8
OBJECT_91_COPY
  6
CONTINUOUS
 62
   253
 10
0.0
 20
0.0
 70
   128
  0
VERTEX
  8
OBJECT_91_COPY
  6
CONTINUOUS
 62
   253
 10
0.0
 20
0.0
 70
   128
  0
VERTEX
  8
OBJECT_91_COPY
  6
CONTINUOUS
 62
   253
 10
0.0
 20
0.0
 70
   128
  0
VERTEX
  8
OBJECT_91_COPY
  6
CONTINUOUS
 62
   253
 10
0.0
 20
0.0
 70
   128
  0
VERTEX
  8
OBJECT_91_COPY
  6
CONTINUOUS
 62
   253
 10
0.0
 20
0.0
 70
   128
  0
VERTEX
  8
OBJECT_91_COPY
  6
CONTINUOUS
 62
   253
 10
0.0
 20
0.0
 70
   128
  0
VERTEX
  8
OBJECT_91_COPY
  6
CONTINUOUS
 62
   253
 10
0.0
 20
0.0
 70
   128
  0
VERTEX
  8
OBJECT_91_COPY
  6
CONTINUOUS
 62
   253
 10
0.0
 20
0.0
 70
   128
  0
VERTEX
  8
OBJECT_91_COPY
  6
CONTINUOUS
 62
   253
 10
0.0
 20
0.0
 70
   128
  0
VERTEX
  8
OBJECT_91_COPY
  6
CONTINUOUS
 62
   253
 10
0.0
 20
0.0
 70
   128
  0
SEQEND
  8
OBJECT_91_COPY
  6
CONTINUOUS
 62
   253
  0
POLYLINE
  8
OBJECT_97_COPY_2
  6
CONTINUOUS
 62
   253
 66
     1
 70
    64
  0
VERTEX
  8
0
 38
59.313736
 10
32.272881
 20
-0.803468
 70
   192
  0
VERTEX
  8
0
 38
59.313736
 10
32.136584
 20
0.231809
 70
   192
  0
VERTEX
  8
0
 38
59.313736
 10
31.736982
 20
1.196532
 70
   192
  0
VERTEX
  8
0
 38
59.313736
 10
31.101308
 20
2.02496
 70
   192
  0
VERTEX
  8
0
 38
59.313736
 10
30.272881
 20
2.660634
 70
   192
  0
VERTEX
  8
0
 38
59.313736
 10
29.308157
 20
3.060236
 70
   192
  0
VERTEX
  8
0
 38
59.313736
 10
28.272881
 20
3.196532
 70
   192
  0
VERTEX
  8
0
 38
59.313736
 10
27.237605
 20
3.060236
 70
   192
  0
VERTEX
  8
0
 38
59.313736
 10
26.272881
 20
2.660634
 70
   192
  0
VERTEX
  8
0
 38
59.313736
 10
25.444454
 20
2.02496
 70
   192
  0
VERTEX
  8
0
 38
59.313736
 10
24.808779
 20
1.196532
 70
   192
  0
VERTEX
  8
0
 38
59.313736
 10
24.409178
 20
0.231809
 70
   192
  0
VERTEX
  8
0
 38
59.313736
 10
24.272881
 20
-0.803468
 70
   192
  0
VERTEX
  8
0
 38
59.313736
 10
24.409178
 20
-1.838744
 70
   192
  0
VERTEX
  8
0
 38
59.313736
 10
24.808779
 20
-2.803468
 70
   192
  0
VERTEX
  8
0
 38
59.313736
 10
25.444454
 20
-3.631895
 70
   192
  0
VERTEX
  8
0
 38
59.313736
 10
26.272881
 20
-4.267569
 70
   192
  0
VERTEX
  8
0
 38
59.313736
 10
27.237605
 20
-4.667171
 70
   192
  0
VERTEX
  8
0
 38
59.313736
 10
28.272881
 20
-4.803468
 70
   192
  0
VERTEX
  8
0
 38
59.313736
 10
29.308157
 20
-4.667171
 70
   192
  0
VERTEX
  8
0
 38
59.313736
 10
30.272881
 20
-4.267569
 70
   192
  0
VERTEX
  8
0
 38
59.313736
 10
31.101308
 20
-3.631895
 70
   192
  0
VERTEX
  8
0
 38
59.313736
 10
31.736982
 20
-2.803468
 70
   192
  0
VERTEX
  8
0
 38
59.313736
 10
32.136584
 20
-1.838744
 70
   192
  0
VERTEX
  8
0
 38
107.313736
 10
32.272881
 20
-0.803468
 70
   192
  0
VERTEX
  8
0
 38
107.313736
 10
32.136584
 20
0.231809
 70
   192
  0
VERTEX
  8
0
 38
107.313736
 10
31.736982
 20
1.196532
 70
   192
  0
VERTEX
  8
0
 38
107.313736
 10
31.101308
 20
2.02496
 70
   192
  0
VERTEX
  8
0
 38
107.313736
 10
30.272881
 20
2.660634
 70
   192
  0
VERTEX
  8
0
 38
107.313736
 10
29.308157
 20
3.060236
 70
   192
  0
VERTEX
  8
0
 38
107.313736
 10
28.272881
 20
3.196532
 70
   192
  0
VERTEX
  8
0
 38
107.313736
 10
27.237605
 20
3.060236
 70
   192
  0
VERTEX
  8
0
 38
107.313736
 10
26.272881
 20
2.660634
 70
   192
  0
VERTEX
  8
0
 38
107.313736
 10
25.444454
 20
2.02496
 70
   192
  0
VERTEX
  8
0
 38
107.313736
 10
24.808779
 20
1.196532
 70
   192
  0
VERTEX
  8
0
 38
107.313736
 10
24.409178
 20
0.231809
 70
   192
  0
VERTEX
  8
0
 38
107.313736
 10
24.272881
 20
-0.803468
 70
   192
  0
VERTEX
  8
0
 38
107.313736
 10
24.409178
 20
-1.838744
 70
   192
  0
VERTEX
  8
0
 38
107.313736
 10
24.808779
 20
-2.803468
 70
   192
  0
VERTEX
  8
0
 38
107.313736
 10
25.444454
 20
-3.631895
 70
   192
  0
VERTEX
  8
0
 38
107.313736
 10
26.272881
 20
-4.267569
 70
   192
  0
VERTEX
  8
0
 38
107.313736
 10
27.237605
 20
-4.667171
 70
   192
  0
VERTEX
  8
0
 38
107.313736
 10
28.272881
 20
-4.803468
 70
   192
  0
VERTEX
  8
0
 38
107.313736
 10
29.308157
 20
-4.667171
 70
   192
  0
VERTEX
  8
0
 38
107.313736
 10
30.272881
 20
-4.267569
 70
   192
  0
VERTEX
  8
0
 38
107.313736
 10
31.101308
 20
-3.631895
 70
   192
  0
VERTEX
  8
0
 38
107.313736
 10
31.736982
 20
-2.803468
 70
   192
  0
VERTEX
  8
0
 38
107.313736
 10
32.136584
 20
-1.838744
 70
   192
  0
VERTEX
  8
OBJECT_97_COPY_2
  6
CONTINUOUS
 62
   253
 10
0.0
 20
0.0
 70
   128
  0
VERTEX
  8
OBJECT_97_COPY_2
  6
CONTINUOUS
 62
   253
 10
0.0
 20
0.0
 70
   128
  0
VERTEX
  8
OBJECT_97_COPY_2
  6
CONTINUOUS
 62
   253
 10
0.0
 20
0.0
 70
   128
  0
VERTEX
  8
OBJECT_97_COPY_2
  6
CONTINUOUS
 62
   253
 10
0.0
 20
0.0
 70
   128
  0
VERTEX
  8
OBJECT_97_COPY_2
  6
CONTINUOUS
 62
   253
 10
0.0
 20
0.0
 70
   128
  0
VERTEX
  8
OBJECT_97_COPY_2
  6
CONTINUOUS
 62
   253
 10
0.0
 20
0.0
 70
   128
  0
VERTEX
  8
OBJECT_97_COPY_2
  6
CONTINUOUS
 62
   253
 10
0.0
 20
0.0
 70
   128
  0
VERTEX
  8
OBJECT_97_COPY_2
  6
CONTINUOUS
 62
   253
 10
0.0
 20
0.0
 70
   128
  0
VERTEX
  8
OBJECT_97_COPY_2
  6
CONTINUOUS
 62
   253
 10
0.0
 20
0.0
 70
   128
  0
VERTEX
  8
OBJECT_97_COPY_2
  6
CONTINUOUS
 62
   253
 10
0.0
 20
0.0
 70
   128
  0
VERTEX
  8
OBJECT_97_COPY_2
  6
CONTINUOUS
 62
   253
 10
0.0
 20
0.0
 70
   128
  0
VERTEX
  8
OBJECT_97_COPY_2
  6
CONTINUOUS
 62
   253
 10
0.0
 20
0.0
 70
   128
  0
VERTEX
  8
OBJECT_97_COPY_2
  6
CONTINUOUS
 62
   253
 10
0.0
 20
0.0
 70
   128
  0
VERTEX
  8
OBJECT_97_COPY_2
  6
CONTINUOUS
 62
   253
 10
0.0
 20
0.0
 70
   128
  0
VERTEX
  8
OBJECT_97_COPY_2
  6
CONTINUOUS
 62
   253
 10
0.0
 20
0.0
 70
   128
  0
VERTEX
  8
OBJECT_97_COPY_2
  6
CONTINUOUS
 62
   253
 10
0.0
 20
0.0
 70
   128
  0
VERTEX
  8
OBJECT_97_COPY_2
  6
CONTINUOUS
 62
   253
 10
0.0
 20
0.0
 70
   128
  0
VERTEX
  8
OBJECT_97_COPY_2
  6
CONTINUOUS
 62
   253
 10
0.0
 20
0.0
 70
   128
  0
VERTEX
  8
OBJECT_97_COPY_2
  6
CONTINUOUS
 62
   253
 10
0.0
 20
0.0
 70
   128
  0
VERTEX
  8
OBJECT_97_COPY_2
  6
CONTINUOUS
 62
   253
 10
0.0
 20
0.0
 70
   128
  0
VERTEX
  8
OBJECT_97_COPY_2
  6
CONTINUOUS
 62
   253
 10
0.0
 20
0.0
 70
   128
  0
VERTEX
  8
OBJECT_97_COPY_2
  6
CONTINUOUS
 62
   253
 10
0.0
 20
0.0
 70
   128
  0
VERTEX
  8
OBJECT_97_COPY_2
  6
CONTINUOUS
 62
   253
 10
0.0
 20
0.0
 70
   128
  0
VERTEX
  8
OBJECT_97_COPY_2
  6
CONTINUOUS
 62
   253
 10
0.0
 20
0.0
 70
   128
  0
VERTEX
  8
OBJECT_97_COPY_2
  6
CONTINUOUS
 62
   253
 10
0.0
 20
0.0
 70
   128
  0
VERTEX
  8
OBJECT_97_COPY_2
  6
CONTINUOUS
 62
   253
 10
0.0
 20
0.0
 70
   128
  0
VERTEX
  8
OBJECT_97_COPY_2
  6
CONTINUOUS
 62
   253
 10
0.0
 20
0.0
 70
   128
  0
VERTEX
  8
OBJECT_97_COPY_2
  6
CONTINUOUS
 62
   253
 10
0.0
 20
0.0
 70
   128
  0
VERTEX
  8
OBJECT_97_COPY_2
  6
CONTINUOUS
 62
   253
 10
0.0
 20
0.0
 70
   128
  0
VERTEX
  8
OBJECT_97_COPY_2
  6
CONTINUOUS
 62
   253
 10
0.0
 20
0.0
 70
   128
  0
VERTEX
  8
OBJECT_97_COPY_2
  6
CONTINUOUS
 62
   253
 10
0.0
 20
0.0
 70
   128
  0
VERTEX
  8
OBJECT_97_COPY_2
  6
CONTINUOUS
 62
   253
 10
0.0
 20
0.0
 70
   128
  0
VERTEX
  8
OBJECT_97_COPY_2
  6
CONTINUOUS
 62
   253
 10
0.0
 20
0.0
 70
   128
  0
VERTEX
  8
OBJECT_97_COPY_2
  6
CONTINUOUS
 62
   253
 10
0.0
 20
0.0
 70
   128
  0
VERTEX
  8
OBJECT_97_COPY_2
  6
CONTINUOUS
 62
   253
 10
0.0
 20
0.0
 70
   128
  0
VERTEX
  8
OBJECT_97_COPY_2
  6
CONTINUOUS
 62
   253
 10
0.0
 20
0.0
 70
   128
  0
VERTEX
  8
OBJECT_97_COPY_2
  6
CONTINUOUS
 62
   253
 10
0.0
 20
0.0
 70
   128
  0
VERTEX
  8
OBJECT_97_COPY_2
  6
CONTINUOUS
 62
   253
 10
0.0
 20
0.0
 70
   128
  0
VERTEX
  8
OBJECT_97_COPY_2
  6
CONTINUOUS
 62
   253
 10
0.0
 20
0.0
 70
   128
  0
VERTEX
  8
OBJECT_97_COPY_2
  6
CONTINUOUS
 62
   253
 10
0.0
 20
0.0
 70
   128
  0
VERTEX
  8
OBJECT_97_COPY_2
  6
CONTINUOUS
 62
   253
 10
0.0
 20
0.0
 70
   128
  0
VERTEX
  8
OBJECT_97_COPY_2
  6
CONTINUOUS
 62
   253
 10
0.0
 20
0.0
 70
   128
  0
VERTEX
  8
OBJECT_97_COPY_2
  6
CONTINUOUS
 62
   253
 10
0.0
 20
0.0
 70
   128
  0
VERTEX
  8
OBJECT_97_COPY_2
  6
CONTINUOUS
 62
   253
 10
0.0
 20
0.0
 70
   128
  0
VERTEX
  8
OBJECT_97_COPY_2
  6
CONTINUOUS
 62
   253
 10
0.0
 20
0.0
 70
   128
  0
VERTEX
  8
OBJECT_97_COPY_2
  6
CONTINUOUS
 62
   253
 10
0.0
 20
0.0
 70
   128
  0
SEQEND
  8
OBJECT_97_COPY_2
  6
CONTINUOUS
 62
   253
  0
POLYLINE
  8
OBJECT_5
  6
CONTINUOUS
 62
     7
 66
     1
 70
    64
  0
VERTEX
  8
0
 38
-18.118252
 10
-26.13573
 20
0.0
 70
   192
  0
VERTEX
  8
0
 38
-18.118252
 10
-30.824222
 20
0.0
 70
   192
  0
VERTEX
  8
0
 38
-18.118252
 10
-29.903086
 20
1.459995
 70
   192
  0
VERTEX
  8
0
 38
-18.118252
 10
-28.26282
 20
4.989587
 70
   192
  0
VERTEX
  8
0
 38
-18.118252
 10
-27.705277
 20
6.765976
 70
   192
  0
VERTEX
  8
0
 38
-18.118252
 10
-27.046314
 20
10.4647
 70
   192
  0
VERTEX
  8
0
 38
-18.118252
 10
-26.955645
 20
12.459995
 70
   192
  0
VERTEX
  8
0
 38
-18.118252
 10
-27.253767
 20
16.069493
 70
   192
  0
VERTEX
  8
0
 38
-18.118252
 10
-27.705277
 20
18.154014
 70
   192
  0
VERTEX
  8
0
 38
-18.118252
 10
-28.871696
 20
21.439694
 70
   192
  0
VERTEX
  8
0
 38
-18.118252
 10
-29.903086
 20
23.459995
 70
   192
  0
VERTEX
  8
0
 38
-18.118252
 10
-31.794947
 20
26.226275
 70
   192
  0
VERTEX
  8
0
 38
-18.118252
 10
-33.399296
 20
28.016345
 70
   192
  0
VERTEX
  8
0
 38
-18.118252
 10
-35.833528
 20
30.118139
 70
   192
  0
VERTEX
  8
0
 38
-18.118252
 10
-37.955645
 20
31.512554
 70
   192
  0
VERTEX
  8
0
 38
-18.118252
 10
-40.724959
 20
32.862343
 70
   192
  0
VERTEX
  8
0
 38
-18.118252
 10
-43.261626
 20
33.710364
 70
   192
  0
VERTEX
  8
0
 38
-18.118252
 10
-46.151329
 20
34.280532
 70
   192
  0
VERTEX
  8
0
 38
-18.118252
 10
-48.955645
 20
34.459995
 70
   192
  0
VERTEX
  8
0
 38
-18.118252
 10
-51.759961
 20
34.280532
 70
   192
  0
VERTEX
  8
0
 38
-18.118252
 10
-54.649664
 20
33.710364
 70
   192
  0
VERTEX
  8
0
 38
-18.118252
 10
-57.186331
 20
32.862343
 70
   192
  0
VERTEX
  8
0
 38
-18.118252
 10
-59.955645
 20
31.512554
 70
   192
  0
VERTEX
  8
0
 38
-18.118252
 10
-62.077762
 20
30.118139
 70
   192
  0
VERTEX
  8
0
 38
-18.118252
 10
-64.511994
 20
28.016345
 70
   192
  0
VERTEX
  8
0
 38
-18.118252
 10
-66.116343
 20
26.226275
 70
   192
  0
VERTEX
  8
0
 38
-18.118252
 10
-68.008204
 20
23.459995
 70
   192
  0
VERTEX
  8
0
 38
-18.118252
 10
-69.039594
 20
21.439694
 70
   192
  0
VERTEX
  8
0
 38
-18.118252
 10
-70.206013
 20
18.154014
 70
   192
  0
VERTEX
  8
0
 38
-18.118252
 10
-70.657523
 20
16.069493
 70
   192
  0
VERTEX
  8
0
 38
-18.118252
 10
-70.955645
 20
12.459995
 70
   192
  0
VERTEX
  8
0
 38
-18.118252
 10
-70.864976
 20
10.4647
 70
   192
  0
VERTEX
  8
0
 38
-18.118252
 10
-70.206013
 20
6.765976
 70
   192
  0
VERTEX
  8
0
 38
-18.118252
 10
-69.64847
 20
4.989587
 70
   192
  0
VERTEX
  8
0
 38
-18.118252
 10
-68.008204
 20
1.459995
 70
   192
  0
VERTEX
  8
0
 38
-18.118252
 10
-67.087069
 20
0.0
 70
   192
  0
VERTEX
  8
0
 38
-18.118252
 10
-71.77556
 20
0.0
 70
   192
  0
VERTEX
  8
0
 38
-18.118252
 10
-23.841574
 20
5.7307
 70
   192
  0
VERTEX
  8
0
 38
-18.118252
 10
-23.706778
 20
6.255584
 70
   192
  0
VERTEX
  8
0
 38
-18.118252
 10
-22.955645
 20
12.459995
 70
   192
  0
VERTEX
  8
0
 38
-18.118252
 10
-22.959794
 20
12.924478
 70
   192
  0
VERTEX
  8
0
 38
-18.118252
 10
-23.841574
 20
19.189291
 70
   192
  0
VERTEX
  8
0
 38
-18.118252
 10
-23.944539
 20
19.562431
 70
   192
  0
VERTEX
  8
0
 38
-18.118252
 10
-26.438985
 20
25.459995
 70
   192
  0
VERTEX
  8
0
 38
-18.118252
 10
-26.595414
 20
25.727251
 70
   192
  0
VERTEX
  8
0
 38
-18.118252
 10
-30.570869
 20
30.844772
 70
   192
  0
VERTEX
  8
0
 38
-18.118252
 10
-30.735828
 20
31.008264
 70
   192
  0
VERTEX
  8
0
 38
-18.118252
 10
-35.955645
 20
34.976656
 70
   192
  0
VERTEX
  8
0
 38
-18.118252
 10
-36.089967
 20
35.053674
 70
   192
  0
VERTEX
  8
0
 38
-18.118252
 10
-42.22635
 20
37.574067
 70
   192
  0
VERTEX
  8
0
 38
-18.118252
 10
-42.30116
 20
37.593993
 70
   192
  0
VERTEX
  8
0
 38
-18.118252
 10
-48.955645
 20
38.459995
 70
   192
  0
VERTEX
  8
0
 38
-18.118252
 10
-55.610131
 20
37.593993
 70
   192
  0
VERTEX
  8
0
 38
-18.118252
 10
-55.68494
 20
37.574067
 70
   192
  0
VERTEX
  8
0
 38
-18.118252
 10
-61.821324
 20
35.053674
 70
   192
  0
VERTEX
  8
0
 38
-18.118252
 10
-61.955645
 20
34.976656
 70
   192
  0
VERTEX
  8
0
 38
-18.118252
 10
-67.175462
 20
31.008264
 70
   192
  0
VERTEX
  8
0
 38
-18.118252
 10
-67.340421
 20
30.844772
 70
   192
  0
VERTEX
  8
0
 38
-18.118252
 10
-71.315876
 20
25.727251
 70
   192
  0
VERTEX
  8
0
 38
-18.118252
 10
-71.472306
 20
25.459995
 70
   192
  0
VERTEX
  8
0
 38
-18.118252
 10
-73.966751
 20
19.562431
 70
   192
  0
VERTEX
  8
0
 38
-18.118252
 10
-74.069717
 20
19.189291
 70
   192
  0
VERTEX
  8
0
 38
-18.118252
 10
-74.951496
 20
12.924478
 70
   192
  0
VERTEX
  8
0
 38
-18.118252
 10
-74.955645
 20
12.459995
 70
   192
  0
VERTEX
  8
0
 38
-18.118252
 10
-74.204512
 20
6.255584
 70
   192
  0
VERTEX
  8
0
 38
-18.118252
 10
-74.069717
 20
5.7307
 70
   192
  0
VERTEX
  8
0
 38
29.881748
 10
-26.13573
 20
0.0
 70
   192
  0
VERTEX
  8
0
 38
29.881748
 10
-71.77556
 20
0.0
 70
   192
  0
VERTEX
  8
0
 38
29.881748
 10
-74.069717
 20
5.7307
 70
   192
  0
VERTEX
  8
0
 38
29.881748
 10
-74.204512
 20
6.255584
 70
   192
  0
VERTEX
  8
0
 38
29.881748
 10
-74.955645
 20
12.459995
 70
   192
  0
VERTEX
  8
0
 38
29.881748
 10
-74.951496
 20
12.924478
 70
   192
  0
VERTEX
  8
0
 38
29.881748
 10
-74.069717
 20
19.189291
 70
   192
  0
VERTEX
  8
0
 38
29.881748
 10
-73.966751
 20
19.562431
 70
   192
  0
VERTEX
  8
0
 38
29.881748
 10
-71.472306
 20
25.459995
 70
   192
  0
VERTEX
  8
0
 38
29.881748
 10
-71.315876
 20
25.727251
 70
   192
  0
VERTEX
  8
0
 38
29.881748
 10
-67.340421
 20
30.844772
 70
   192
  0
VERTEX
  8
0
 38
29.881748
 10
-67.175462
 20
31.008264
 70
   192
  0
VERTEX
  8
0
 38
29.881748
 10
-61.955645
 20
34.976656
 70
   192
  0
VERTEX
  8
0
 38
29.881748
 10
-61.821324
 20
35.053674
 70
   192
  0
VERTEX
  8
0
 38
29.881748
 10
-55.68494
 20
37.574067
 70
   192
  0
VERTEX
  8
0
 38
29.881748
 10
-55.610131
 20
37.593993
 70
   192
  0
VERTEX
  8
0
 38
29.881748
 10
-48.955645
 20
38.459995
 70
   192
  0
VERTEX
  8
0
 38
29.881748
 10
-42.30116
 20
37.593993
 70
   192
  0
VERTEX
  8
0
 38
29.881748
 10
-42.22635
 20
37.574067
 70
   192
  0
VERTEX
  8
0
 38
29.881748
 10
-36.089967
 20
35.053674
 70
   192
  0
VERTEX
  8
0
 38
29.881748
 10
-35.955645
 20
34.976656
 70
   192
  0
VERTEX
  8
0
 38
29.881748
 10
-30.735828
 20
31.008264
 70
   192
  0
VERTEX
  8
0
 38
29.881748
 10
-30.570869
 20
30.844772
 70
   192
  0
VERTEX
  8
0
 38
29.881748
 10
-26.595414
 20
25.727251
 70
   192
  0
VERTEX
  8
0
 38
29.881748
 10
-26.438985
 20
25.459995
 70
   192
  0
VERTEX
  8
0
 38
29.881748
 10
-23.944539
 20
19.562431
 70
   192
  0
VERTEX
  8
0
 38
29.881748
 10
-23.841574
 20
19.189291
 70
   192
  0
VERTEX
  8
0
 38
29.881748
 10
-22.959794
 20
12.924478
 70
   192
  0
VERTEX
  8
0
 38
29.881748
 10
-22.955645
 20
12.459995
 70
   192
  0
VERTEX
  8
0
 38
29.881748
 10
-23.706778
 20
6.255584
 70
   192
  0
VERTEX
  8
0
 38
29.881748
 10
-23.841574
 20
5.7307
 70
   192
  0
VERTEX
  8
0
 38
29.881748
 10
-30.824222
 20
0.0
 70
   192
  0
VERTEX
  8
0
 38
29.881748
 10
-29.903086
 20
1.459995
 70
   192
  0
VERTEX
  8
0
 38
29.881748
 10
-28.26282
 20
4.989587
 70
   192
  0
VERTEX
  8
0
 38
29.881748
 10
-27.705277
 20
6.765976
 70
   192
  0
VERTEX
  8
0
 38
29.881748
 10
-27.046314
 20
10.4647
 70
   192
  0
VERTEX
  8
0
 38
29.881748
 10
-26.955645
 20
12.459995
 70
   192
  0
VERTEX
  8
0
 38
29.881748
 10
-27.253767
 20
16.069493
 70
   192
  0
VERTEX
  8
0
 38
29.881748
 10
-27.705277
 20
18.154014
 70
   192
  0
VERTEX
  8
0
 38
29.881748
 10
-28.871696
 20
21.439694
 70
   192
  0
VERTEX
  8
0
 38
29.881748
 10
-29.903086
 20
23.459995
 70
   192
  0
VERTEX
  8
0
 38
29.881748
 10
-31.794947
 20
26.226275
 70
   192
  0
VERTEX
  8
0
 38
29.881748
 10
-33.399296
 20
28.016345
 70
   192
  0
VERTEX
  8
0
 38
29.881748
 10
-35.833528
 20
30.118139
 70
   192
  0
VERTEX
  8
0
 38
29.881748
 10
-37.955645
 20
31.512554
 70
   192
  0
VERTEX
  8
0
 38
29.881748
 10
-40.724959
 20
32.862343
 70
   192
  0
VERTEX
  8
0
 38
29.881748
 10
-43.261626
 20
33.710364
 70
   192
  0
VERTEX
  8
0
 38
29.881748
 10
-46.151329
 20
34.280532
 70
   192
  0
VERTEX
  8
0
 38
29.881748
 10
-48.955645
 20
34.459995
 70
   192
  0
VERTEX
  8
0
 38
29.881748
 10
-51.759961
 20
34.280532
 70
   192
  0
VERTEX
  8
0
 38
29.881748
 10
-54.649664
 20
33.710364
 70
   192
  0
VERTEX
  8
0
 38
29.881748
 10
-57.186331
 20
32.862343
 70
   192
  0
VERTEX
  8
0
 38
29.881748
 10
-59.955645
 20
31.512554
 70
   192
  0
VERTEX
  8
0
 38
29.881748
 10
-62.077762
 20
30.118139
 70
   192
  0
VERTEX
  8
0
 38
29.881748
 10
-64.511994
 20
28.016345
 70
   192
  0
VERTEX
  8
0
 38
29.881748
 10
-66.116343
 20
26.226275
 70
   192
  0
VERTEX
  8
0
 38
29.881748
 10
-68.008204
 20
23.459995
 70
   192
  0
VERTEX
  8
0
 38
29.881748
 10
-69.039594
 20
21.439694
 70
   192
  0
VERTEX
  8
0
 38
29.881748
 10
-70.206013
 20
18.154014
 70
   192
  0
VERTEX
  8
0
 38
29.881748
 10
-70.657523
 20
16.069493
 70
   192
  0
VERTEX
  8
0
 38
29.881748
 10
-70.955645
 20
12.459995
 70
   192
  0
VERTEX
  8
0
 38
29.881748
 10
-70.864976
 20
10.4647
 70
   192
  0
VERTEX
  8
0
 38
29.881748
 10
-70.206013
 20
6.765976
 70
   192
  0
VERTEX
  8
0
 38
29.881748
 10
-69.64847
 20
4.989587
 70
   192
  0
VERTEX
  8
0
 38
29.881748
 10
-68.008204
 20
1.459995
 70
   192
  0
VERTEX
  8
0
 38
29.881748
 10
-67.087069
 20
0.0
 70
   192
  0
VERTEX
  8
OBJECT_5
  6
CONTINUOUS
 62
     7
 10
0.0
 20
0.0
 70
   128
  0
VERTEX
  8
OBJECT_5
  6
CONTINUOUS
 62
     7
 10
0.0
 20
0.0
 70
   128
  0
VERTEX
  8
OBJECT_5
  6
CONTINUOUS
 62
     7
 10
0.0
 20
0.0
 70
   128
  0
VERTEX
  8
OBJECT_5
  6
CONTINUOUS
 62
     7
 10
0.0
 20
0.0
 70
   128
  0
VERTEX
  8
OBJECT_5
  6
CONTINUOUS
 62
     7
 10
0.0
 20
0.0
 70
   128
  0
VERTEX
  8
OBJECT_5
  6
CONTINUOUS
 62
     7
 10
0.0
 20
0.0
 70
   128
  0
VERTEX
  8
OBJECT_5
  6
CONTINUOUS
 62
     7
 10
0.0
 20
0.0
 70
   128
  0
VERTEX
  8
OBJECT_5
  6
CONTINUOUS
 62
     7
 10
0.0
 20
0.0
 70
   128
  0
VERTEX
  8
OBJECT_5
  6
CONTINUOUS
 62
     7
 10
0.0
 20
0.0
 70
   128
  0
VERTEX
  8
OBJECT_5
  6
CONTINUOUS
 62
     7
 10
0.0
 20
0.0
 70
   128
  0
VERTEX
  8
OBJECT_5
  6
CONTINUOUS
 62
     7
 10
0.0
 20
0.0
 70
   128
  0
VERTEX
  8
OBJECT_5
  6
CONTINUOUS
 62
     7
 10
0.0
 20
0.0
 70
   128
  0
VERTEX
  8
OBJECT_5
  6
CONTINUOUS
 62
     7
 10
0.0
 20
0.0
 70
   128
  0
VERTEX
  8
OBJECT_5
  6
CONTINUOUS
 62
     7
 10
0.0
 20
0.0
 70
   128
  0
VERTEX
  8
OBJECT_5
  6
CONTINUOUS
 62
     7
 10
0.0
 20
0.0
 70
   128
  0
VERTEX
  8
OBJECT_5
  6
CONTINUOUS
 62
     7
 10
0.0
 20
0.0
 70
   128
  0
VERTEX
  8
OBJECT_5
  6
CONTINUOUS
 62
     7
 10
0.0
 20
0.0
 70
   128
  0
VERTEX
  8
OBJECT_5
  6
CONTINUOUS
 62
     7
 10
0.0
 20
0.0
 70
   128
  0
VERTEX
  8
OBJECT_5
  6
CONTINUOUS
 62
     7
 10
0.0
 20
0.0
 70
   128
  0
VERTEX
  8
OBJECT_5
  6
CONTINUOUS
 62
     7
 10
0.0
 20
0.0
 70
   128
  0
VERTEX
  8
OBJECT_5
  6
CONTINUOUS
 62
     7
 10
0.0
 20
0.0
 70
   128
  0
VERTEX
  8
OBJECT_5
  6
CONTINUOUS
 62
     7
 10
0.0
 20
0.0
 70
   128
  0
VERTEX
  8
OBJECT_5
  6
CONTINUOUS
 62
     7
 10
0.0
 20
0.0
 70
   128
  0
VERTEX
  8
OBJECT_5
  6
CONTINUOUS
 62
     7
 10
0.0
 20
0.0
 70
   128
  0
VERTEX
  8
OBJECT_5
  6
CONTINUOUS
 62
     7
 10
0.0
 20
0.0
 70
   128
  0
VERTEX
  8
OBJECT_5
  6
CONTINUOUS
 62
     7
 10
0.0
 20
0.0
 70
   128
  0
VERTEX
  8
OBJECT_5
  6
CONTINUOUS
 62
     7
 10
0.0
 20
0.0
 70
   128
  0
VERTEX
  8
OBJECT_5
  6
CONTINUOUS
 62
     7
 10
0.0
 20
0.0
 70
   128
  0
VERTEX
  8
OBJECT_5
  6
CONTINUOUS
 62
     7
 10
0.0
 20
0.0
 70
   128
  0
VERTEX
  8
OBJECT_5
  6
CONTINUOUS
 62
     7
 10
0.0
 20
0.0
 70
   128
  0
VERTEX
  8
OBJECT_5
  6
CONTINUOUS
 62
     7
 10
0.0
 20
0.0
 70
   128
  0
VERTEX
  8
OBJECT_5
  6
CONTINUOUS
 62
     7
 10
0.0
 20
0.0
 70
   128
  0
VERTEX
  8
OBJECT_5
  6
CONTINUOUS
 62
     7
 10
0.0
 20
0.0
 70
   128
  0
VERTEX
  8
OBJECT_5
  6
CONTINUOUS
 62
     7
 10
0.0
 20
0.0
 70
   128
  0
VERTEX
  8
OBJECT_5
  6
CONTINUOUS
 62
     7
 10
0.0
 20
0.0
 70
   128
  0
VERTEX
  8
OBJECT_5
  6
CONTINUOUS
 62
     7
 10
0.0
 20
0.0
 70
   128
  0
VERTEX
  8
OBJECT_5
  6
CONTINUOUS
 62
     7
 10
0.0
 20
0.0
 70
   128
  0
VERTEX
  8
OBJECT_5
  6
CONTINUOUS
 62
     7
 10
0.0
 20
0.0
 70
   128
  0
VERTEX
  8
OBJECT_5
  6
CONTINUOUS
 62
     7
 10
0.0
 20
0.0
 70
   128
  0
VERTEX
  8
OBJECT_5
  6
CONTINUOUS
 62
     7
 10
0.0
 20
0.0
 70
   128
  0
VERTEX
  8
OBJECT_5
  6
CONTINUOUS
 62
     7
 10
0.0
 20
0.0
 70
   128
  0
VERTEX
  8
OBJECT_5
  6
CONTINUOUS
 62
     7
 10
0.0
 20
0.0
 70
   128
  0
VERTEX
  8
OBJECT_5
  6
CONTINUOUS
 62
     7
 10
0.0
 20
0.0
 70
   128
  0
VERTEX
  8
OBJECT_5
  6
CONTINUOUS
 62
     7
 10
0.0
 20
0.0
 70
   128
  0
VERTEX
  8
OBJECT_5
  6
CONTINUOUS
 62
     7
 10
0.0
 20
0.0
 70
   128
  0
VERTEX
  8
OBJECT_5
  6
CONTINUOUS
 62
     7
 10
0.0
 20
0.0
 70
   128
  0
VERTEX
  8
OBJECT_5
  6
CONTINUOUS
 62
     7
 10
0.0
 20
0.0
 70
   128
  0
VERTEX
  8
OBJECT_5
  6
CONTINUOUS
 62
     7
 10
0.0
 20
0.0
 70
   128
  0
VERTEX
  8
OBJECT_5
  6
CONTINUOUS
 62
     7
 10
0.0
 20
0.0
 70
   128
  0
VERTEX
  8
OBJECT_5
  6
CONTINUOUS
 62
     7
 10
0.0
 20
0.0
 70
   128
  0
VERTEX
  8
OBJECT_5
  6
CONTINUOUS
 62
     7
 10
0.0
 20
0.0
 70
   128
  0
VERTEX
  8
OBJECT_5
  6
CONTINUOUS
 62
     7
 10
0.0
 20
0.0
 70
   128
  0
VERTEX
  8
OBJECT_5
  6
CONTINUOUS
 62
     7
 10
0.0
 20
0.0
 70
   128
  0
VERTEX
  8
OBJECT_5
  6
CONTINUOUS
 62
     7
 10
0.0
 20
0.0
 70
   128
  0
VERTEX
  8
OBJECT_5
  6
CONTINUOUS
 62
     7
 10
0.0
 20
0.0
 70
   128
  0
VERTEX
  8
OBJECT_5
  6
CONTINUOUS
 62
     7
 10
0.0
 20
0.0
 70
   128
  0
VERTEX
  8
OBJECT_5
  6
CONTINUOUS
 62
     7
 10
0.0
 20
0.0
 70
   128
  0
VERTEX
  8
OBJECT_5
  6
CONTINUOUS
 62
     7
 10
0.0
 20
0.0
 70
   128
  0
VERTEX
  8
OBJECT_5
  6
CONTINUOUS
 62
     7
 10
0.0
 20
0.0
 70
   128
  0
VERTEX
  8
OBJECT_5
  6
CONTINUOUS
 62
     7
 10
0.0
 20
0.0
 70
   128
  0
VERTEX
  8
OBJECT_5
  6
CONTINUOUS
 62
     7
 10
0.0
 20
0.0
 70
   128
  0
VERTEX
  8
OBJECT_5
  6
CONTINUOUS
 62
     7
 10
0.0
 20
0.0
 70
   128
  0
VERTEX
  8
OBJECT_5
  6
CONTINUOUS
 62
     7
 10
0.0
 20
0.0
 70
   128
  0
VERTEX
  8
OBJECT_5
  6
CONTINUOUS
 62
     7
 10
0.0
 20
0.0
 70
   128
  0
VERTEX
  8
OBJECT_5
  6
CONTINUOUS
 62
     7
 10
0.0
 20
0.0
 70
   128
  0
VERTEX
  8
OBJECT_5
  6
CONTINUOUS
 62
     7
 10
0.0
 20
0.0
 70
   128
  0
VERTEX
  8
OBJECT_5
  6
CONTINUOUS
 62
     7
 10
0.0
 20
0.0
 70
   128
  0
VERTEX
  8
OBJECT_5
  6
CONTINUOUS
 62
     7
 10
0.0
 20
0.0
 70
   128
  0
VERTEX
  8
OBJECT_5
  6
CONTINUOUS
 62
     7
 10
0.0
 20
0.0
 70
   128
  0
VERTEX
  8
OBJECT_5
  6
CONTINUOUS
 62
     7
 10
0.0
 20
0.0
 70
   128
  0
VERTEX
  8
OBJECT_5
  6
CONTINUOUS
 62
     7
 10
0.0
 20
0.0
 70
   128
  0
VERTEX
  8
OBJECT_5
  6
CONTINUOUS
 62
     7
 10
0.0
 20
0.0
 70
   128
  0
VERTEX
  8
OBJECT_5
  6
CONTINUOUS
 62
     7
 10
0.0
 20
0.0
 70
   128
  0
VERTEX
  8
OBJECT_5
  6
CONTINUOUS
 62
     7
 10
0.0
 20
0.0
 70
   128
  0
VERTEX
  8
OBJECT_5
  6
CONTINUOUS
 62
     7
 10
0.0
 20
0.0
 70
   128
  0
VERTEX
  8
OBJECT_5
  6
CONTINUOUS
 62
     7
 10
0.0
 20
0.0
 70
   128
  0
VERTEX
  8
OBJECT_5
  6
CONTINUOUS
 62
     7
 10
0.0
 20
0.0
 70
   128
  0
VERTEX
  8
OBJECT_5
  6
CONTINUOUS
 62
     7
 10
0.0
 20
0.0
 70
   128
  0
VERTEX
  8
OBJECT_5
  6
CONTINUOUS
 62
     7
 10
0.0
 20
0.0
 70
   128
  0
VERTEX
  8
OBJECT_5
  6
CONTINUOUS
 62
     7
 10
0.0
 20
0.0
 70
   128
  0
VERTEX
  8
OBJECT_5
  6
CONTINUOUS
 62
     7
 10
0.0
 20
0.0
 70
   128
  0
VERTEX
  8
OBJECT_5
  6
CONTINUOUS
 62
     7
 10
0.0
 20
0.0
 70
   128
  0
VERTEX
  8
OBJECT_5
  6
CONTINUOUS
 62
     7
 10
0.0
 20
0.0
 70
   128
  0
VERTEX
  8
OBJECT_5
  6
CONTINUOUS
 62
     7
 10
0.0
 20
0.0
 70
   128
  0
VERTEX
  8
OBJECT_5
  6
CONTINUOUS
 62
     7
 10
0.0
 20
0.0
 70
   128
  0
VERTEX
  8
OBJECT_5
  6
CONTINUOUS
 62
     7
 10
0.0
 20
0.0
 70
   128
  0
VERTEX
  8
OBJECT_5
  6
CONTINUOUS
 62
     7
 10
0.0
 20
0.0
 70
   128
  0
VERTEX
  8
OBJECT_5
  6
CONTINUOUS
 62
     7
 10
0.0
 20
0.0
 70
   128
  0
VERTEX
  8
OBJECT_5
  6
CONTINUOUS
 62
     7
 10
0.0
 20
0.0
 70
   128
  0
VERTEX
  8
OBJECT_5
  6
CONTINUOUS
 62
     7
 10
0.0
 20
0.0
 70
   128
  0
VERTEX
  8
OBJECT_5
  6
CONTINUOUS
 62
     7
 10
0.0
 20
0.0
 70
   128
  0
VERTEX
  8
OBJECT_5
  6
CONTINUOUS
 62
     7
 10
0.0
 20
0.0
 70
   128
  0
VERTEX
  8
OBJECT_5
  6
CONTINUOUS
 62
     7
 10
0.0
 20
0.0
 70
   128
  0
VERTEX
  8
OBJECT_5
  6
CONTINUOUS
 62
     7
 10
0.0
 20
0.0
 70
   128
  0
VERTEX
  8
OBJECT_5
  6
CONTINUOUS
 62
     7
 10
0.0
 20
0.0
 70
   128
  0
VERTEX
  8
OBJECT_5
  6
CONTINUOUS
 62
     7
 10
0.0
 20
0.0
 70
   128
  0
VERTEX
  8
OBJECT_5
  6
CONTINUOUS
 62
     7
 10
0.0
 20
0.0
 70
   128
  0
VERTEX
  8
OBJECT_5
  6
CONTINUOUS
 62
     7
 10
0.0
 20
0.0
 70
   128
  0
VERTEX
  8
OBJECT_5
  6
CONTINUOUS
 62
     7
 10
0.0
 20
0.0
 70
   128
  0
VERTEX
  8
OBJECT_5
  6
CONTINUOUS
 62
     7
 10
0.0
 20
0.0
 70
   128
  0
VERTEX
  8
OBJECT_5
  6
CONTINUOUS
 62
     7
 10
0.0
 20
0.0
 70
   128
  0
VERTEX
  8
OBJECT_5
  6
CONTINUOUS
 62
     7
 10
0.0
 20
0.0
 70
   128
  0
VERTEX
  8
OBJECT_5
  6
CONTINUOUS
 62
     7
 10
0.0
 20
0.0
 70
   128
  0
VERTEX
  8
OBJECT_5
  6
CONTINUOUS
 62
     7
 10
0.0
 20
0.0
 70
   128
  0
VERTEX
  8
OBJECT_5
  6
CONTINUOUS
 62
     7
 10
0.0
 20
0.0
 70
   128
  0
VERTEX
  8
OBJECT_5
  6
CONTINUOUS
 62
     7
 10
0.0
 20
0.0
 70
   128
  0
VERTEX
  8
OBJECT_5
  6
CONTINUOUS
 62
     7
 10
0.0
 20
0.0
 70
   128
  0
VERTEX
  8
OBJECT_5
  6
CONTINUOUS
 62
     7
 10
0.0
 20
0.0
 70
   128
  0
VERTEX
  8
OBJECT_5
  6
CONTINUOUS
 62
     7
 10
0.0
 20
0.0
 70
   128
  0
VERTEX
  8
OBJECT_5
  6
CONTINUOUS
 62
     7
 10
0.0
 20
0.0
 70
   128
  0
VERTEX
  8
OBJECT_5
  6
CONTINUOUS
 62
     7
 10
0.0
 20
0.0
 70
   128
  0
VERTEX
  8
OBJECT_5
  6
CONTINUOUS
 62
     7
 10
0.0
 20
0.0
 70
   128
  0
VERTEX
  8
OBJECT_5
  6
CONTINUOUS
 62
     7
 10
0.0
 20
0.0
 70
   128
  0
VERTEX
  8
OBJECT_5
  6
CONTINUOUS
 62
     7
 10
0.0
 20
0.0
 70
   128
  0
VERTEX
  8
OBJECT_5
  6
CONTINUOUS
 62
     7
 10
0.0
 20
0.0
 70
   128
  0
VERTEX
  8
OBJECT_5
  6
CONTINUOUS
 62
     7
 10
0.0
 20
0.0
 70
   128
  0
VERTEX
  8
OBJECT_5
  6
CONTINUOUS
 62
     7
 10
0.0
 20
0.0
 70
   128
  0
VERTEX
  8
OBJECT_5
  6
CONTINUOUS
 62
     7
 10
0.0
 20
0.0
 70
   128
  0
VERTEX
  8
OBJECT_5
  6
CONTINUOUS
 62
     7
 10
0.0
 20
0.0
 70
   128
  0
VERTEX
  8
OBJECT_5
  6
CONTINUOUS
 62
     7
 10
0.0
 20
0.0
 70
   128
  0
VERTEX
  8
OBJECT_5
  6
CONTINUOUS
 62
     7
 10
0.0
 20
0.0
 70
   128
  0
VERTEX
  8
OBJECT_5
  6
CONTINUOUS
 62
     7
 10
0.0
 20
0.0
 70
   128
  0
VERTEX
  8
OBJECT_5
  6
CONTINUOUS
 62
     7
 10
0.0
 20
0.0
 70
   128
  0
VERTEX
  8
OBJECT_5
  6
CONTINUOUS
 62
     7
 10
0.0
 20
0.0
 70
   128
  0
VERTEX
  8
OBJECT_5
  6
CONTINUOUS
 62
     7
 10
0.0
 20
0.0
 70
   128
  0
VERTEX
  8
OBJECT_5
  6
CONTINUOUS
 62
     7
 10
0.0
 20
0.0
 70
   128
  0
VERTEX
  8
OBJECT_5
  6
CONTINUOUS
 62
     7
 10
0.0
 20
0.0
 70
   128
  0
VERTEX
  8
OBJECT_5
  6
CONTINUOUS
 62
     7
 10
0.0
 20
0.0
 70
   128
  0
VERTEX
  8
OBJECT_5
  6
CONTINUOUS
 62
     7
 10
0.0
 20
0.0
 70
   128
  0
VERTEX
  8
OBJECT_5
  6
CONTINUOUS
 62
     7
 10
0.0
 20
0.0
 70
   128
  0
VERTEX
  8
OBJECT_5
  6
CONTINUOUS
 62
     7
 10
0.0
 20
0.0
 70
   128
  0
VERTEX
  8
OBJECT_5
  6
CONTINUOUS
 62
     7
 10
0.0
 20
0.0
 70
   128
  0
VERTEX
  8
OBJECT_5
  6
CONTINUOUS
 62
     7
 10
0.0
 20
0.0
 70
   128
  0
VERTEX
  8
OBJECT_5
  6
CONTINUOUS
 62
     7
 10
0.0
 20
0.0
 70
   128
  0
VERTEX
  8
OBJECT_5
  6
CONTINUOUS
 62
     7
 10
0.0
 20
0.0
 70
   128
  0
VERTEX
  8
OBJECT_5
  6
CONTINUOUS
 62
     7
 10
0.0
 20
0.0
 70
   128
  0
VERTEX
  8
OBJECT_5
  6
CONTINUOUS
 62
     7
 10
0.0
 20
0.0
 70
   128
  0
VERTEX
  8
OBJECT_5
  6
CONTINUOUS
 62
     7
 10
0.0
 20
0.0
 70
   128
  0
VERTEX
  8
OBJECT_5
  6
CONTINUOUS
 62
     7
 10
0.0
 20
0.0
 70
   128
  0
VERTEX
  8
OBJECT_5
  6
CONTINUOUS
 62
     7
 10
0.0
 20
0.0
 70
   128
  0
VERTEX
  8
OBJECT_5
  6
CONTINUOUS
 62
     7
 10
0.0
 20
0.0
 70
   128
  0
VERTEX
  8
OBJECT_5
  6
CONTINUOUS
 62
     7
 10
0.0
 20
0.0
 70
   128
  0
VERTEX
  8
OBJECT_5
  6
CONTINUOUS
 62
     7
 10
0.0
 20
0.0
 70
   128
  0
VERTEX
  8
OBJECT_5
  6
CONTINUOUS
 62
     7
 10
0.0
 20
0.0
 70
   128
  0
VERTEX
  8
OBJECT_5
  6
CONTINUOUS
 62
     7
 10
0.0
 20
0.0
 70
   128
  0
VERTEX
  8
OBJECT_5
  6
CONTINUOUS
 62
     7
 10
0.0
 20
0.0
 70
   128
  0
VERTEX
  8
OBJECT_5
  6
CONTINUOUS
 62
     7
 10
0.0
 20
0.0
 70
   128
  0
VERTEX
  8
OBJECT_5
  6
CONTINUOUS
 62
     7
 10
0.0
 20
0.0
 70
   128
  0
VERTEX
  8
OBJECT_5
  6
CONTINUOUS
 62
     7
 10
0.0
 20
0.0
 70
   128
  0
VERTEX
  8
OBJECT_5
  6
CONTINUOUS
 62
     7
 10
0.0
 20
0.0
 70
   128
  0
VERTEX
  8
OBJECT_5
  6
CONTINUOUS
 62
     7
 10
0.0
 20
0.0
 70
   128
  0
VERTEX
  8
OBJECT_5
  6
CONTINUOUS
 62
     7
 10
0.0
 20
0.0
 70
   128
  0
VERTEX
  8
OBJECT_5
  6
CONTINUOUS
 62
     7
 10
0.0
 20
0.0
 70
   128
  0
VERTEX
  8
OBJECT_5
  6
CONTINUOUS
 62
     7
 10
0.0
 20
0.0
 70
   128
  0
VERTEX
  8
OBJECT_5
  6
CONTINUOUS
 62
     7
 10
0.0
 20
0.0
 70
   128
  0
VERTEX
  8
OBJECT_5
  6
CONTINUOUS
 62
     7
 10
0.0
 20
0.0
 70
   128
  0
VERTEX
  8
OBJECT_5
  6
CONTINUOUS
 62
     7
 10
0.0
 20
0.0
 70
   128
  0
VERTEX
  8
OBJECT_5
  6
CONTINUOUS
 62
     7
 10
0.0
 20
0.0
 70
   128
  0
VERTEX
  8
OBJECT_5
  6
CONTINUOUS
 62
     7
 10
0.0
 20
0.0
 70
   128
  0
VERTEX
  8
OBJECT_5
  6
CONTINUOUS
 62
     7
 10
0.0
 20
0.0
 70
   128
  0
SEQEND
  8
OBJECT_5
  6
CONTINUOUS
 62
     7
  0
POLYLINE
  8
OBJECT_4_COPY
  6
CONTINUOUS
 62
     7
 66
     1
 70
    64
  0
VERTEX
  8
0
 38
-15.566711
 10
1.758114
 20
-14.276358
 70
   192
  0
VERTEX
  8
0
 38
-15.566711
 10
-125.749433
 20
-14.276358
 70
   192
  0
VERTEX
  8
0
 38
-15.566711
 10
4.653223
 20
-5.744412
 70
   192
  0
VERTEX
  8
0
 38
-15.566711
 10
6.415834
 20
3.121463
 70
   192
  0
VERTEX
  8
0
 38
-15.566711
 10
7.00434
 20
12.114102
 70
   192
  0
VERTEX
  8
0
 38
-15.566711
 10
6.412512
 20
21.131974
 70
   192
  0
VERTEX
  8
0
 38
-15.566711
 10
4.653223
 20
29.972616
 70
   192
  0
VERTEX
  8
0
 38
-15.566711
 10
1.748375
 20
38.528076
 70
   192
  0
VERTEX
  8
0
 38
-15.566711
 10
-2.239907
 20
46.614102
 70
   192
  0
VERTEX
  8
0
 38
-15.566711
 10
-7.258798
 20
54.12453
 70
   192
  0
VERTEX
  8
0
 38
-15.566711
 10
-13.205292
 20
60.90447
 70
   192
  0
VERTEX
  8
0
 38
-15.566711
 10
-19.995328
 20
66.85871
 70
   192
  0
VERTEX
  8
0
 38
-15.566711
 10
-27.49566
 20
71.869855
 70
   192
  0
VERTEX
  8
0
 38
-15.566711
 10
-35.593442
 20
75.863007
 70
   192
  0
VERTEX
  8
0
 38
-15.566711
 10
-44.137145
 20
78.762984
 70
   192
  0
VERTEX
  8
0
 38
-15.566711
 10
-52.990404
 20
80.523936
 70
   192
  0
VERTEX
  8
0
 38
-15.566711
 10
-61.99566
 20
81.114102
 70
   192
  0
VERTEX
  8
0
 38
-15.566711
 10
-71.000915
 20
80.523936
 70
   192
  0
VERTEX
  8
0
 38
-15.566711
 10
-79.854174
 20
78.762984
 70
   192
  0
VERTEX
  8
0
 38
-15.566711
 10
-88.397877
 20
75.863007
 70
   192
  0
VERTEX
  8
0
 38
-15.566711
 10
-96.49566
 20
71.869855
 70
   192
  0
VERTEX
  8
0
 38
-15.566711
 10
-103.995991
 20
66.85871
 70
   192
  0
VERTEX
  8
0
 38
-15.566711
 10
-110.786027
 20
60.90447
 70
   192
  0
VERTEX
  8
0
 38
-15.566711
 10
-116.732521
 20
54.12453
 70
   192
  0
VERTEX
  8
0
 38
-15.566711
 10
-121.751412
 20
46.614102
 70
   192
  0
VERTEX
  8
0
 38
-15.566711
 10
-125.739694
 20
38.528076
 70
   192
  0
VERTEX
  8
0
 38
-15.566711
 10
-128.644542
 20
29.972616
 70
   192
  0
VERTEX
  8
0
 38
-15.566711
 10
-130.403831
 20
21.131974
 70
   192
  0
VERTEX
  8
0
 38
-15.566711
 10
-130.99566
 20
12.114102
 70
   192
  0
VERTEX
  8
0
 38
-15.566711
 10
-130.407153
 20
3.121463
 70
   192
  0
VERTEX
  8
0
 38
-15.566711
 10
-128.644542
 20
-5.744412
 70
   192
  0
VERTEX
  8
0
 38
-99.566711
 10
-125.749433
 20
-14.276358
 70
   192
  0
VERTEX
  8
0
 38
-99.566711
 10
1.758114
 20
-14.276358
 70
   192
  0
VERTEX
  8
0
 38
-99.566711
 10
-128.644542
 20
-5.744412
 70
   192
  0
VERTEX
  8
0
 38
-99.566711
 10
-130.407153
 20
3.121463
 70
   192
  0
VERTEX
  8
0
 38
-99.566711
 10
-130.99566
 20
12.114102
 70
   192
  0
VERTEX
  8
0
 38
-99.566711
 10
-130.403831
 20
21.131974
 70
   192
  0
VERTEX
  8
0
 38
-99.566711
 10
-128.644542
 20
29.972616
 70
   192
  0
VERTEX
  8
0
 38
-99.566711
 10
-125.739694
 20
38.528076
 70
   192
  0
VERTEX
  8
0
 38
-99.566711
 10
-121.751412
 20
46.614102
 70
   192
  0
VERTEX
  8
0
 38
-99.566711
 10
-116.732521
 20
54.12453
 70
   192
  0
VERTEX
  8
0
 38
-99.566711
 10
-110.786027
 20
60.90447
 70
   192
  0
VERTEX
  8
0
 38
-99.566711
 10
-103.995991
 20
66.85871
 70
   192
  0
VERTEX
  8
0
 38
-99.566711
 10
-96.49566
 20
71.869855
 70
   192
  0
VERTEX
  8
0
 38
-99.566711
 10
-88.397877
 20
75.863007
 70
   192
  0
VERTEX
  8
0
 38
-99.566711
 10
-79.854174
 20
78.762984
 70
   192
  0
VERTEX
  8
0
 38
-99.566711
 10
-71.000915
 20
80.523936
 70
   192
  0
VERTEX
  8
0
 38
-99.566711
 10
-61.99566
 20
81.114102
 70
   192
  0
VERTEX
  8
0
 38
-99.566711
 10
-52.990404
 20
80.523936
 70
   192
  0
VERTEX
  8
0
 38
-99.566711
 10
-44.137145
 20
78.762984
 70
   192
  0
VERTEX
  8
0
 38
-99.566711
 10
-35.593442
 20
75.863007
 70
   192
  0
VERTEX
  8
0
 38
-99.566711
 10
-27.49566
 20
71.869855
 70
   192
  0
VERTEX
  8
0
 38
-99.566711
 10
-19.995328
 20
66.85871
 70
   192
  0
VERTEX
  8
0
 38
-99.566711
 10
-13.205292
 20
60.90447
 70
   192
  0
VERTEX
  8
0
 38
-99.566711
 10
-7.258798
 20
54.12453
 70
   192
  0
VERTEX
  8
0
 38
-99.566711
 10
-2.239907
 20
46.614102
 70
   192
  0
VERTEX
  8
0
 38
-99.566711
 10
1.748375
 20
38.528076
 70
   192
  0
VERTEX
  8
0
 38
-99.566711
 10
4.653223
 20
29.972616
 70
   192
  0
VERTEX
  8
0
 38
-99.566711
 10
6.412512
 20
21.131974
 70
   192
  0
VERTEX
  8
0
 38
-99.566711
 10
7.00434
 20
12.114102
 70
   192
  0
VERTEX
  8
0
 38
-99.566711
 10
6.415834
 20
3.121463
 70
   192
  0
VERTEX
  8
0
 38
-99.566711
 10
4.653223
 20
-5.744412
 70
   192
  0
VERTEX
  8
OBJECT_4_COPY
  6
CONTINUOUS
 62
     7
 10
0.0
 20
0.0
 70
   128
  0
VERTEX
  8
OBJECT_4_COPY
  6
CONTINUOUS
 62
     7
 10
0.0
 20
0.0
 70
   128
  0
VERTEX
  8
OBJECT_4_COPY
  6
CONTINUOUS
 62
     7
 10
0.0
 20
0.0
 70
   128
  0
VERTEX
  8
OBJECT_4_COPY
  6
CONTINUOUS
 62
     7
 10
0.0
 20
0.0
 70
   128
  0
VERTEX
  8
OBJECT_4_COPY
  6
CONTINUOUS
 62
     7
 10
0.0
 20
0.0
 70
   128
  0
VERTEX
  8
OBJECT_4_COPY
  6
CONTINUOUS
 62
     7
 10
0.0
 20
0.0
 70
   128
  0
VERTEX
  8
OBJECT_4_COPY
  6
CONTINUOUS
 62
     7
 10
0.0
 20
0.0
 70
   128
  0
VERTEX
  8
OBJECT_4_COPY
  6
CONTINUOUS
 62
     7
 10
0.0
 20
0.0
 70
   128
  0
VERTEX
  8
OBJECT_4_COPY
  6
CONTINUOUS
 62
     7
 10
0.0
 20
0.0
 70
   128
  0
VERTEX
  8
OBJECT_4_COPY
  6
CONTINUOUS
 62
     7
 10
0.0
 20
0.0
 70
   128
  0
VERTEX
  8
OBJECT_4_COPY
  6
CONTINUOUS
 62
     7
 10
0.0
 20
0.0
 70
   128
  0
VERTEX
  8
OBJECT_4_COPY
  6
CONTINUOUS
 62
     7
 10
0.0
 20
0.0
 70
   128
  0
VERTEX
  8
OBJECT_4_COPY
  6
CONTINUOUS
 62
     7
 10
0.0
 20
0.0
 70
   128
  0
VERTEX
  8
OBJECT_4_COPY
  6
CONTINUOUS
 62
     7
 10
0.0
 20
0.0
 70
   128
  0
VERTEX
  8
OBJECT_4_COPY
  6
CONTINUOUS
 62
     7
 10
0.0
 20
0.0
 70
   128
  0
VERTEX
  8
OBJECT_4_COPY
  6
CONTINUOUS
 62
     7
 10
0.0
 20
0.0
 70
   128
  0
VERTEX
  8
OBJECT_4_COPY
  6
CONTINUOUS
 62
     7
 10
0.0
 20
0.0
 70
   128
  0
VERTEX
  8
OBJECT_4_COPY
  6
CONTINUOUS
 62
     7
 10
0.0
 20
0.0
 70
   128
  0
VERTEX
  8
OBJECT_4_COPY
  6
CONTINUOUS
 62
     7
 10
0.0
 20
0.0
 70
   128
  0
VERTEX
  8
OBJECT_4_COPY
  6
CONTINUOUS
 62
     7
 10
0.0
 20
0.0
 70
   128
  0
VERTEX
  8
OBJECT_4_COPY
  6
CONTINUOUS
 62
     7
 10
0.0
 20
0.0
 70
   128
  0
VERTEX
  8
OBJECT_4_COPY
  6
CONTINUOUS
 62
     7
 10
0.0
 20
0.0
 70
   128
  0
VERTEX
  8
OBJECT_4_COPY
  6
CONTINUOUS
 62
     7
 10
0.0
 20
0.0
 70
   128
  0
VERTEX
  8
OBJECT_4_COPY
  6
CONTINUOUS
 62
     7
 10
0.0
 20
0.0
 70
   128
  0
VERTEX
  8
OBJECT_4_COPY
  6
CONTINUOUS
 62
     7
 10
0.0
 20
0.0
 70
   128
  0
VERTEX
  8
OBJECT_4_COPY
  6
CONTINUOUS
 62
     7
 10
0.0
 20
0.0
 70
   128
  0
VERTEX
  8
OBJECT_4_COPY
  6
CONTINUOUS
 62
     7
 10
0.0
 20
0.0
 70
   128
  0
VERTEX
  8
OBJECT_4_COPY
  6
CONTINUOUS
 62
     7
 10
0.0
 20
0.0
 70
   128
  0
VERTEX
  8
OBJECT_4_COPY
  6
CONTINUOUS
 62
     7
 10
0.0
 20
0.0
 70
   128
  0
VERTEX
  8
OBJECT_4_COPY
  6
CONTINUOUS
 62
     7
 10
0.0
 20
0.0
 70
   128
  0
VERTEX
  8
OBJECT_4_COPY
  6
CONTINUOUS
 62
     7
 10
0.0
 20
0.0
 70
   128
  0
VERTEX
  8
OBJECT_4_COPY
  6
CONTINUOUS
 62
     7
 10
0.0
 20
0.0
 70
   128
  0
VERTEX
  8
OBJECT_4_COPY
  6
CONTINUOUS
 62
     7
 10
0.0
 20
0.0
 70
   128
  0
VERTEX
  8
OBJECT_4_COPY
  6
CONTINUOUS
 62
     7
 10
0.0
 20
0.0
 70
   128
  0
VERTEX
  8
OBJECT_4_COPY
  6
CONTINUOUS
 62
     7
 10
0.0
 20
0.0
 70
   128
  0
VERTEX
  8
OBJECT_4_COPY
  6
CONTINUOUS
 62
     7
 10
0.0
 20
0.0
 70
   128
  0
VERTEX
  8
OBJECT_4_COPY
  6
CONTINUOUS
 62
     7
 10
0.0
 20
0.0
 70
   128
  0
VERTEX
  8
OBJECT_4_COPY
  6
CONTINUOUS
 62
     7
 10
0.0
 20
0.0
 70
   128
  0
VERTEX
  8
OBJECT_4_COPY
  6
CONTINUOUS
 62
     7
 10
0.0
 20
0.0
 70
   128
  0
VERTEX
  8
OBJECT_4_COPY
  6
CONTINUOUS
 62
     7
 10
0.0
 20
0.0
 70
   128
  0
VERTEX
  8
OBJECT_4_COPY
  6
CONTINUOUS
 62
     7
 10
0.0
 20
0.0
 70
   128
  0
VERTEX
  8
OBJECT_4_COPY
  6
CONTINUOUS
 62
     7
 10
0.0
 20
0.0
 70
   128
  0
VERTEX
  8
OBJECT_4_COPY
  6
CONTINUOUS
 62
     7
 10
0.0
 20
0.0
 70
   128
  0
VERTEX
  8
OBJECT_4_COPY
  6
CONTINUOUS
 62
     7
 10
0.0
 20
0.0
 70
   128
  0
VERTEX
  8
OBJECT_4_COPY
  6
CONTINUOUS
 62
     7
 10
0.0
 20
0.0
 70
   128
  0
VERTEX
  8
OBJECT_4_COPY
  6
CONTINUOUS
 62
     7
 10
0.0
 20
0.0
 70
   128
  0
VERTEX
  8
OBJECT_4_COPY
  6
CONTINUOUS
 62
     7
 10
0.0
 20
0.0
 70
   128
  0
VERTEX
  8
OBJECT_4_COPY
  6
CONTINUOUS
 62
     7
 10
0.0
 20
0.0
 70
   128
  0
VERTEX
  8
OBJECT_4_COPY
  6
CONTINUOUS
 62
     7
 10
0.0
 20
0.0
 70
   128
  0
VERTEX
  8
OBJECT_4_COPY
  6
CONTINUOUS
 62
     7
 10
0.0
 20
0.0
 70
   128
  0
VERTEX
  8
OBJECT_4_COPY
  6
CONTINUOUS
 62
     7
 10
0.0
 20
0.0
 70
   128
  0
VERTEX
  8
OBJECT_4_COPY
  6
CONTINUOUS
 62
     7
 10
0.0
 20
0.0
 70
   128
  0
VERTEX
  8
OBJECT_4_COPY
  6
CONTINUOUS
 62
     7
 10
0.0
 20
0.0
 70
   128
  0
VERTEX
  8
OBJECT_4_COPY
  6
CONTINUOUS
 62
     7
 10
0.0
 20
0.0
 70
   128
  0
VERTEX
  8
OBJECT_4_COPY
  6
CONTINUOUS
 62
     7
 10
0.0
 20
0.0
 70
   128
  0
VERTEX
  8
OBJECT_4_COPY
  6
CONTINUOUS
 62
     7
 10
0.0
 20
0.0
 70
   128
  0
VERTEX
  8
OBJECT_4_COPY
  6
CONTINUOUS
 62
     7
 10
0.0
 20
0.0
 70
   128
  0
VERTEX
  8
OBJECT_4_COPY
  6
CONTINUOUS
 62
     7
 10
0.0
 20
0.0
 70
   128
  0
VERTEX
  8
OBJECT_4_COPY
  6
CONTINUOUS
 62
     7
 10
0.0
 20
0.0
 70
   128
  0
VERTEX
  8
OBJECT_4_COPY
  6
CONTINUOUS
 62
     7
 10
0.0
 20
0.0
 70
   128
  0
SEQEND
  8
OBJECT_4_COPY
  6
CONTINUOUS
 62
     7
  0
POLYLINE
  8
OBJECT_99
  6
CONTINUOUS
 62
     7
 66
     1
 70
    64
  0
VERTEX
  8
0
 38
-38.36433
 10
-35.933846
 20
17.497805
 70
   192
  0
VERTEX
  8
0
 38
-49.104056
 10
-24.678263
 20
17.497805
 70
   192
  0
VERTEX
  8
0
 38
-49.104056
 10
-30.306054
 20
17.497805
 70
   192
  0
VERTEX
  8
0
 38
-38.36433
 10
-41.561637
 20
17.497805
 70
   192
  0
VERTEX
  8
0
 38
-38.36433
 10
-35.933846
 20
28.866226
 70
   192
  0
VERTEX
  8
0
 38
-38.36433
 10
-41.561637
 20
28.866226
 70
   192
  0
VERTEX
  8
0
 38
-49.104056
 10
-30.306054
 20
28.866226
 70
   192
  0
VERTEX
  8
0
 38
-49.104056
 10
-24.678263
 20
28.866226
 70
   192
  0
VERTEX
  8
OBJECT_99
  6
CONTINUOUS
 62
     7
 10
0.0
 20
0.0
 70
   128
  0
VERTEX
  8
OBJECT_99
  6
CONTINUOUS
 62
     7
 10
0.0
 20
0.0
 70
   128
  0
VERTEX
  8
OBJECT_99
  6
CONTINUOUS
 62
     7
 10
0.0
 20
0.0
 70
   128
  0
VERTEX
  8
OBJECT_99
  6
CONTINUOUS
 62
     7
 10
0.0
 20
0.0
 70
   128
  0
VERTEX
  8
OBJECT_99
  6
CONTINUOUS
 62
     7
 10
0.0
 20
0.0
 70
   128
  0
VERTEX
  8
OBJECT_99
  6
CONTINUOUS
 62
     7
 10
0.0
 20
0.0
 70
   128
  0
SEQEND
  8
OBJECT_99
  6
CONTINUOUS
 62
     7
  0
POLYLINE
  8
OBJECT_100
  6
CONTINUOUS
 62
     7
 66
     1
 70
    64
  0
VERTEX
  8
0
 38
-38.36433
 10
-57.819702
 20
17.497805
 70
   192
  0
VERTEX
  8
0
 38
-49.104056
 10
-69.075285
 20
17.497805
 70
   192
  0
VERTEX
  8
0
 38
-49.104056
 10
-74.703077
 20
17.497805
 70
   192
  0
VERTEX
  8
0
 38
-38.36433
 10
-63.447494
 20
17.497805
 70
   192
  0
VERTEX
  8
0
 38
-38.36433
 10
-57.819702
 20
28.866226
 70
   192
  0
VERTEX
  8
0
 38
-38.36433
 10
-63.447494
 20
28.866226
 70
   192
  0
VERTEX
  8
0
 38
-49.104056
 10
-74.703077
 20
28.866226
 70
   192
  0
VERTEX
  8
0
 38
-49.104056
 10
-69.075285
 20
28.866226
 70
   192
  0
VERTEX
  8
OBJECT_100
  6
CONTINUOUS
 62
     7
 10
0.0
 20
0.0
 70
   128
  0
VERTEX
  8
OBJECT_100
  6
CONTINUOUS
 62
     7
 10
0.0
 20
0.0
 70
   128
  0
VERTEX
  8
OBJECT_100
  6
CONTINUOUS
 62
     7
 10
0.0
 20
0.0
 70
   128
  0
VERTEX
  8
OBJECT_100
  6
CONTINUOUS
 62
     7
 10
0.0
 20
0.0
 70
   128
  0
VERTEX
  8
OBJECT_100
  6
CONTINUOUS
 62
     7
 10
0.0
 20
0.0
 70
   128
  0
VERTEX
  8
OBJECT_100
  6
CONTINUOUS
 62
     7
 10
0.0
 20
0.0
 70
   128
  0
SEQEND
  8
OBJECT_100
  6
CONTINUOUS
 62
     7
  0
POLYLINE
  8
OBJECT_101
  6
CONTINUOUS
 62
     7
 66
     1
 70
    64
  0
VERTEX
  8
0
 38
-65.213645
 10
-63.447494
 20
17.497805
 70
   192
  0
VERTEX
  8
0
 38
-75.953371
 10
-52.19191
 20
17.497805
 70
   192
  0
VERTEX
  8
0
 38
-75.953371
 10
-57.819702
 20
17.497805
 70
   192
  0
VERTEX
  8
0
 38
-65.213645
 10
-69.075285
 20
17.497805
 70
   192
  0
VERTEX
  8
0
 38
-65.213645
 10
-63.447494
 20
28.866226
 70
   192
  0
VERTEX
  8
0
 38
-65.213645
 10
-69.075285
 20
28.866226
 70
   192
  0
VERTEX
  8
0
 38
-75.953371
 10
-57.819702
 20
28.866226
 70
   192
  0
VERTEX
  8
0
 38
-75.953371
 10
-52.19191
 20
28.866226
 70
   192
  0
VERTEX
  8
OBJECT_101
  6
CONTINUOUS
 62
     7
 10
0.0
 20
0.0
 70
   128
  0
VERTEX
  8
OBJECT_101
  6
CONTINUOUS
 62
     7
 10
0.0
 20
0.0
 70
   128
  0
VERTEX
  8
OBJECT_101
  6
CONTINUOUS
 62
     7
 10
0.0
 20
0.0
 70
   128
  0
VERTEX
  8
OBJECT_101
  6
CONTINUOUS
 62
     7
 10
0.0
 20
0.0
 70
   128
  0
VERTEX
  8
OBJECT_101
  6
CONTINUOUS
 62
     7
 10
0.0
 20
0.0
 70
   128
  0
VERTEX
  8
OBJECT_101
  6
CONTINUOUS
 62
     7
 10
0.0
 20
0.0
 70
   128
  0
SEQEND
  8
OBJECT_101
  6
CONTINUOUS
 62
     7
  0
POLYLINE
  8
OBJECT_102
  6
CONTINUOUS
 62
     7
 66
     1
 70
    64
  0
VERTEX
  8
0
 38
-65.213645
 10
-80.330868
 20
17.497805
 70
   192
  0
VERTEX
  8
0
 38
-75.953371
 10
-91.586451
 20
17.497805
 70
   192
  0
VERTEX
  8
0
 38
-75.953371
 10
-97.214243
 20
17.497805
 70
   192
  0
VERTEX
  8
0
 38
-65.213645
 10
-85.95866
 20
17.497805
 70
   192
  0
VERTEX
  8
0
 38
-65.213645
 10
-80.330868
 20
28.866226
 70
   192
  0
VERTEX
  8
0
 38
-65.213645
 10
-85.95866
 20
28.866226
 70
   192
  0
VERTEX
  8
0
 38
-75.953371
 10
-97.214243
 20
28.866226
 70
   192
  0
VERTEX
  8
0
 38
-75.953371
 10
-91.586451
 20
28.866226
 70
   192
  0
VERTEX
  8
OBJECT_102
  6
CONTINUOUS
 62
     7
 10
0.0
 20
0.0
 70
   128
  0
VERTEX
  8
OBJECT_102
  6
CONTINUOUS
 62
     7
 10
0.0
 20
0.0
 70
   128
  0
VERTEX
  8
OBJECT_102
  6
CONTINUOUS
 62
     7
 10
0.0
 20
0.0
 70
   128
  0
VERTEX
  8
OBJECT_102
  6
CONTINUOUS
 62
     7
 10
0.0
 20
0.0
 70
   128
  0
VERTEX
  8
OBJECT_102
  6
CONTINUOUS
 62
     7
 10
0.0
 20
0.0
 70
   128
  0
VERTEX
  8
OBJECT_102
  6
CONTINUOUS
 62
     7
 10
0.0
 20
0.0
 70
   128
  0
SEQEND
  8
OBJECT_102
  6
CONTINUOUS
 62
     7
  0
POLYLINE
  8
OBJECT_103
  6
CONTINUOUS
 62
   253
 66
     1
 70
    64
  0
VERTEX
  8
0
 38
-22.254741
 10
-24.052953
 20
14.86606
 70
   192
  0
VERTEX
  8
0
 38
-38.36433
 10
-24.052953
 20
14.86606
 70
   192
  0
VERTEX
  8
0
 38
-38.36433
 10
-69.075285
 20
14.86606
 70
   192
  0
VERTEX
  8
0
 38
-22.254741
 10
-69.075285
 20
14.86606
 70
   192
  0
VERTEX
  8
0
 38
-22.254741
 10
-24.052953
 20
31.918692
 70
   192
  0
VERTEX
  8
0
 38
-22.254741
 10
-69.075285
 20
31.918692
 70
   192
  0
VERTEX
  8
0
 38
-38.36433
 10
-69.075285
 20
31.918692
 70
   192
  0
VERTEX
  8
0
 38
-38.36433
 10
-24.052953
 20
31.918692
 70
   192
  0
VERTEX
  8
OBJECT_103
  6
CONTINUOUS
 62
   253
 10
0.0
 20
0.0
 70
   128
  0
VERTEX
  8
OBJECT_103
  6
CONTINUOUS
 62
   253
 10
0.0
 20
0.0
 70
   128
  0
VERTEX
  8
OBJECT_103
  6
CONTINUOUS
 62
   253
 10
0.0
 20
0.0
 70
   128
  0
VERTEX
  8
OBJECT_103
  6
CONTINUOUS
 62
   253
 10
0.0
 20
0.0
 70
   128
  0
VERTEX
  8
OBJECT_103
  6
CONTINUOUS
 62
   253
 10
0.0
 20
0.0
 70
   128
  0
VERTEX
  8
OBJECT_103
  6
CONTINUOUS
 62
   253
 10
0.0
 20
0.0
 70
   128
  0
SEQEND
  8
OBJECT_103
  6
CONTINUOUS
 62
   253
  0
POLYLINE
  8
OBJECT_104
  6
CONTINUOUS
 62
   253
 66
     1
 70
    64
  0
VERTEX
  8
0
 38
-49.104056
 10
-7.169578
 20
14.86606
 70
   192
  0
VERTEX
  8
0
 38
-65.213645
 10
-7.169578
 20
14.86606
 70
   192
  0
VERTEX
  8
0
 38
-65.213645
 10
-35.308536
 20
14.86606
 70
   192
  0
VERTEX
  8
0
 38
-49.104056
 10
-35.308536
 20
14.86606
 70
   192
  0
VERTEX
  8
0
 38
-49.104056
 10
-7.169578
 20
31.918692
 70
   192
  0
VERTEX
  8
0
 38
-49.104056
 10
-35.308536
 20
31.918692
 70
   192
  0
VERTEX
  8
0
 38
-65.213645
 10
-35.308536
 20
31.918692
 70
   192
  0
VERTEX
  8
0
 38
-65.213645
 10
-7.169578
 20
31.918692
 70
   192
  0
VERTEX
  8
OBJECT_104
  6
CONTINUOUS
 62
   253
 10
0.0
 20
0.0
 70
   128
  0
VERTEX
  8
OBJECT_104
  6
CONTINUOUS
 62
   253
 10
0.0
 20
0.0
 70
   128
  0
VERTEX
  8
OBJECT_104
  6
CONTINUOUS
 62
   253
 10
0.0
 20
0.0
 70
   128
  0
VERTEX
  8
OBJECT_104
  6
CONTINUOUS
 62
   253
 10
0.0
 20
0.0
 70
   128
  0
VERTEX
  8
OBJECT_104
  6
CONTINUOUS
 62
   253
 10
0.0
 20
0.0
 70
   128
  0
VERTEX
  8
OBJECT_104
  6
CONTINUOUS
 62
   253
 10
0.0
 20
0.0
 70
   128
  0
SEQEND
  8
OBJECT_104
  6
CONTINUOUS
 62
   253
  0
POLYLINE
  8
OBJECT_105
  6
CONTINUOUS
 62
   253
 66
     1
 70
    64
  0
VERTEX
  8
0
 38
-49.104056
 10
-57.819702
 20
14.86606
 70
   192
  0
VERTEX
  8
0
 38
-65.213645
 10
-57.819702
 20
14.86606
 70
   192
  0
VERTEX
  8
0
 38
-65.213645
 10
-91.586451
 20
14.86606
 70
   192
  0
VERTEX
  8
0
 38
-49.104056
 10
-91.586451
 20
14.86606
 70
   192
  0
VERTEX
  8
0
 38
-49.104056
 10
-57.819702
 20
31.918692
 70
   192
  0
VERTEX
  8
0
 38
-49.104056
 10
-91.586451
 20
31.918692
 70
   192
  0
VERTEX
  8
0
 38
-65.213645
 10
-91.586451
 20
31.918692
 70
   192
  0
VERTEX
  8
0
 38
-65.213645
 10
-57.819702
 20
31.918692
 70
   192
  0
VERTEX
  8
OBJECT_105
  6
CONTINUOUS
 62
   253
 10
0.0
 20
0.0
 70
   128
  0
VERTEX
  8
OBJECT_105
  6
CONTINUOUS
 62
   253
 10
0.0
 20
0.0
 70
   128
  0
VERTEX
  8
OBJECT_105
  6
CONTINUOUS
 62
   253
 10
0.0
 20
0.0
 70
   128
  0
VERTEX
  8
OBJECT_105
  6
CONTINUOUS
 62
   253
 10
0.0
 20
0.0
 70
   128
  0
VERTEX
  8
OBJECT_105
  6
CONTINUOUS
 62
   253
 10
0.0
 20
0.0
 70
   128
  0
VERTEX
  8
OBJECT_105
  6
CONTINUOUS
 62
   253
 10
0.0
 20
0.0
 70
   128
  0
SEQEND
  8
OBJECT_105
  6
CONTINUOUS
 62
   253
  0
POLYLINE
  8
OBJECT_106
  6
CONTINUOUS
 62
   253
 66
     1
 70
    64
  0
VERTEX
  8
0
 38
-75.953371
 10
-29.680744
 20
14.86606
 70
   192
  0
VERTEX
  8
0
 38
-92.06296
 10
-29.680744
 20
14.86606
 70
   192
  0
VERTEX
  8
0
 38
-92.06296
 10
-63.447494
 20
14.86606
 70
   192
  0
VERTEX
  8
0
 38
-75.953371
 10
-63.447494
 20
14.86606
 70
   192
  0
VERTEX
  8
0
 38
-75.953371
 10
-29.680744
 20
31.918692
 70
   192
  0
VERTEX
  8
0
 38
-75.953371
 10
-63.447494
 20
31.918692
 70
   192
  0
VERTEX
  8
0
 38
-92.06296
 10
-63.447494
 20
31.918692
 70
   192
  0
VERTEX
  8
0
 38
-92.06296
 10
-29.680744
 20
31.918692
 70
   192
  0
VERTEX
  8
OBJECT_106
  6
CONTINUOUS
 62
   253
 10
0.0
 20
0.0
 70
   128
  0
VERTEX
  8
OBJECT_106
  6
CONTINUOUS
 62
   253
 10
0.0
 20
0.0
 70
   128
  0
VERTEX
  8
OBJECT_106
  6
CONTINUOUS
 62
   253
 10
0.0
 20
0.0
 70
   128
  0
VERTEX
  8
OBJECT_106
  6
CONTINUOUS
 62
   253
 10
0.0
 20
0.0
 70
   128
  0
VERTEX
  8
OBJECT_106
  6
CONTINUOUS
 62
   253
 10
0.0
 20
0.0
 70
   128
  0
VERTEX
  8
OBJECT_106
  6
CONTINUOUS
 62
   253
 10
0.0
 20
0.0
 70
   128
  0
SEQEND
  8
OBJECT_106
  6
CONTINUOUS
 62
   253
  0
POLYLINE
  8
OBJECT_107
  6
CONTINUOUS
 62
   253
 66
     1
 70
    64
  0
VERTEX
  8
0
 38
-75.953371
 10
-80.330868
 20
14.86606
 70
   192
  0
VERTEX
  8
0
 38
-92.06296
 10
-80.330868
 20
14.86606
 70
   192
  0
VERTEX
  8
0
 38
-92.06296
 10
-114.097618
 20
14.86606
 70
   192
  0
VERTEX
  8
0
 38
-75.953371
 10
-114.097618
 20
14.86606
 70
   192
  0
VERTEX
  8
0
 38
-75.953371
 10
-80.330868
 20
31.918692
 70
   192
  0
VERTEX
  8
0
 38
-75.953371
 10
-114.097618
 20
31.918692
 70
   192
  0
VERTEX
  8
0
 38
-92.06296
 10
-114.097618
 20
31.918692
 70
   192
  0
VERTEX
  8
0
 38
-92.06296
 10
-80.330868
 20
31.918692
 70
   192
  0
VERTEX
  8
OBJECT_107
  6
CONTINUOUS
 62
   253
 10
0.0
 20
0.0
 70
   128
  0
VERTEX
  8
OBJECT_107
  6
CONTINUOUS
 62
   253
 10
0.0
 20
0.0
 70
   128
  0
VERTEX
  8
OBJECT_107
  6
CONTINUOUS
 62
   253
 10
0.0
 20
0.0
 70
   128
  0
VERTEX
  8
OBJECT_107
  6
CONTINUOUS
 62
   253
 10
0.0
 20
0.0
 70
   128
  0
VERTEX
  8
OBJECT_107
  6
CONTINUOUS
 62
   253
 10
0.0
 20
0.0
 70
   128
  0
VERTEX
  8
OBJECT_107
  6
CONTINUOUS
 62
   253
 10
0.0
 20
0.0
 70
   128
  0
SEQEND
  8
OBJECT_107
  6
CONTINUOUS
 62
   253
  0
ENDSEC
  0
EOF
