  0
SECTION
  2
HEADER
  9
$ACADVER
  1
AC1003
  9
$INSBASE
 10
0.0
 20
0.0
  9
$EXTMIN
 10
-96.681077
 20
-437.976981
  9
$EXTMAX
 10
111.794269
 20
102.773166
  9
$LIMMIN
 10
-96.681077
 20
-437.976981
  9
$LIMMAX
 10
111.794269
 20
102.773166
  9
$VIEWCTR
 10
6.591288
 20
4.579184
  9
$VIEWSIZE
 40
9.158369
  9
$SNAPMODE
 70
     0
  9
$SNAPUNIT
 10
1.0
 20
1.0
  9
$SNAPBASE
 10
0.0
 20
0.0
  9
$SNAPANG
 50
0.0
  9
$SNAPSTYLE
 70
     0
  9
$SNAPISOPAIR
 70
     0
  9
$GRIDMODE
 70
     0
  9
$GRIDUNIT
 10
0.0
 20
0.0
  9
$ORTHOMODE
 70
     0
  9
$REGENMODE
 70
     1
  9
$FILLMODE
 70
     1
  9
$QTEXTMODE
 70
     0
  9
$DRAGMODE
 70
     2
  9
$LTSCALE
 40
1.0
  9
$OSMODE
 70
     0
  9
$ATTMODE
 70
     1
  9
$TEXTSIZE
 40
0.2
  9
$TRACEWID
 40
0.05
  9
$TEXTSTYLE
  7
STANDARD
  9
$CLAYER
  8
0
  9
$CELTYPE
  6
CONTINUOUS
  9
$CECOLOR
 62
   256
  9
$DIMSCALE
 40
1.0
  9
$DIMASZ
 40
0.18
  9
$DIMEXO
 40
0.0625
  9
$DIMDLI
 40
0.38
  9
$DIMRND
 40
0.0
  9
$DIMDLE
 40
0.0
  9
$DIMEXE
 40
0.18
  9
$DIMTP
 40
0.0
  9
$DIMTM
 40
0.0
  9
$DIMTXT
 40
0.18
  9
$DIMCEN
 40
0.09
  9
$DIMTSZ
 40
0.0
  9
$DIMTOL
 70
     0
  9
$DIMLIM
 70
     0
  9
$DIMTIH
 70
     1
  9
$DIMTOH
 70
     1
  9
$DIMSE1
 70
     0
  9
$DIMSE2
 70
     0
  9
$DIMTAD
 70
     0
  9
$DIMZIN
 70
     0
  9
$DIMBLK
  1

  9
$DIMASO
 70
     1
  9
$DIMSHO
 70
     1
  9
$DIMPOST
  1

  9
$DIMAPOST
  1

  9
$DIMALT
 70
     0
  9
$DIMALTD
 70
     2
  9
$DIMALTF
 40
25.4
  9
$DIMLFAC
 40
1.0
  9
$LUNITS
 70
     4
  9
$LUPREC
 70
     0
  9
$AXISMODE
 70
     0
  9
$AXISUNIT
 10
24.0
 20
24.0
  9
$SKETCHINC
 40
24.0
  9
$FILLETRAD
 40
24.0
  9
$AUNITS
 70
     4
  9
$AUPREC
 70
     0
  9
$MENU
  1
acad
  9
$ELEVATION
 40
0.0
  9
$THICKNESS
 40
120.0
  9
$VIEWDIR
 10
0.0
 20
0.0
 30
1.0
  9
$LIMCHECK
 70
     0
  9
$BLIPMODE
 70
     1
  9
$CHAMFERA
 40
0.0
  9
$CHAMFERB
 40
0.0
  9
$FASTZOOM
 70
     1
  9
$SKPOLY
 70
     0
  9
$TDCREATE
 40
2452581.508368055
  9
$TDUPDATE
 40
2452581.508368055
  9
$TDINDWG
 40
0.0000000000
  9
$TDUSRTIMER
 40
0.0000000000
  9
$USRTIMER
 70
     1
  9
$ANGBASE
 50
0.0
  9
$ANGDIR
 70
     0
  9
$PDMODE
 70
     0
  9
$PDSIZE
 40
0.0
  9
$PLINEWID
 40
0.0
  9
$COORDS
 70
     1
  9
$USERI1
 70
     0
  9
$USERI2
 70
     0
  9
$USERI3
 70
     0
  9
$USERI4
 70
     0
  9
$USERI5
 70
     0
  9
$USERR1
 40
0.0
  9
$USERR2
 40
0.0
  9
$USERR3
 40
0.0
  9
$USERR4
 40
0.0
  9
$USERR5
 40
0.0
  0
ENDSEC
  0
SECTION
  2
TABLES
  0
TABLE
  2
LTYPE
 70
     1
  0
LTYPE
  2
CONTINUOUS
 70
    64
  3
Solid line
 72
    65
 73
     0
 40
0.0
  0
ENDTAB
  0
TABLE
  2
LAYER
 70
     9
  0
LAYER
  2
0
 70
     0
 62
     7
  6
CONTINUOUS
  0
LAYER
  2
OBJECT_84
 70
    64
 62
     1
  6
CONTINUOUS
  0
LAYER
  2
OBJECT_5
 70
    64
 62
     1
  6
CONTINUOUS
  0
LAYER
  2
OBJECT_98_COPY
 70
    64
 62
     1
  6
CONTINUOUS
  0
LAYER
  2
OBJECT_4_COPY
 70
    64
 62
     1
  6
CONTINUOUS
  0
LAYER
  2
OBJECT_4_COPY
 70
    64
 62
     1
  6
CONTINUOUS
  0
LAYER
  2
OBJECT_100_COPY
 70
    64
 62
     1
  6
CONTINUOUS
  0
LAYER
  2
OBJECT_1
 70
    64
 62
     1
  6
CONTINUOUS
  0
LAYER
  2
OBJECT_2
 70
    64
 62
     1
  6
CONTINUOUS
  0
ENDTAB
  0
TABLE
  2
STYLE
 70
     1
  0
STYLE
  2
STANDARD
 70
     0
 40
0.0
 41
1.0
 50
0.0
 71
     0
 42
0.0
  3
txt
  4

  0
ENDTAB
  0
TABLE
  2
VIEW
 70
     0
  0
ENDTAB
  0
ENDSEC
  0
SECTION
  2
BLOCKS
  0
ENDSEC
  0
SECTION
  2
ENTITIES
  0
POLYLINE
  8
OBJECT_84
  6
CONTINUOUS
 62
   253
 66
     1
 70
    64
  0
VERTEX
  8
0
 38
155.116469
 10
-42.58832
 20
-26.446643
 70
   192
  0
VERTEX
  8
0
 38
100.461718
 10
-42.58832
 20
-26.446643
 70
   192
  0
VERTEX
  8
0
 38
100.461718
 10
36.336866
 20
-26.446643
 70
   192
  0
VERTEX
  8
0
 38
155.116469
 10
36.336866
 20
-26.446643
 70
   192
  0
VERTEX
  8
0
 38
155.116469
 10
-42.58832
 20
17.774979
 70
   192
  0
VERTEX
  8
0
 38
100.461718
 10
-42.58832
 20
17.774979
 70
   192
  0
VERTEX
  8
0
 38
100.461718
 10
36.336866
 20
17.774979
 70
   192
  0
VERTEX
  8
0
 38
155.116469
 10
36.336866
 20
17.774979
 70
   192
  0
VERTEX
  8
OBJECT_84
  6
CONTINUOUS
 62
   253
 10
0.0
 20
0.0
 70
   128
  0
VERTEX
  8
OBJECT_84
  6
CONTINUOUS
 62
   253
 10
0.0
 20
0.0
 70
   128
  0
VERTEX
  8
OBJECT_84
  6
CONTINUOUS
 62
   253
 10
0.0
 20
0.0
 70
   128
  0
VERTEX
  8
OBJECT_84
  6
CONTINUOUS
 62
   253
 10
0.0
 20
0.0
 70
   128
  0
VERTEX
  8
OBJECT_84
  6
CONTINUOUS
 62
   253
 10
0.0
 20
0.0
 70
   128
  0
VERTEX
  8
OBJECT_84
  6
CONTINUOUS
 62
   253
 10
0.0
 20
0.0
 70
   128
  0
SEQEND
  8
OBJECT_84
  6
CONTINUOUS
 62
   253
  0
POLYLINE
  8
OBJECT_5
  6
CONTINUOUS
 62
     7
 66
     1
 70
    64
  0
VERTEX
  8
0
 38
-46.662516
 10
13.486849
 20
0.0
 70
   192
  0
VERTEX
  8
0
 38
-46.662516
 10
8.798358
 20
0.0
 70
   192
  0
VERTEX
  8
0
 38
-46.662516
 10
9.719493
 20
1.459995
 70
   192
  0
VERTEX
  8
0
 38
-46.662516
 10
11.359759
 20
4.989587
 70
   192
  0
VERTEX
  8
0
 38
-46.662516
 10
11.917303
 20
6.765976
 70
   192
  0
VERTEX
  8
0
 38
-46.662516
 10
12.576266
 20
10.4647
 70
   192
  0
VERTEX
  8
0
 38
-46.662516
 10
12.666935
 20
12.459995
 70
   192
  0
VERTEX
  8
0
 38
-46.662516
 10
12.368813
 20
16.069493
 70
   192
  0
VERTEX
  8
0
 38
-46.662516
 10
11.917303
 20
18.154014
 70
   192
  0
VERTEX
  8
0
 38
-46.662516
 10
10.750884
 20
21.439694
 70
   192
  0
VERTEX
  8
0
 38
-46.662516
 10
9.719493
 20
23.459995
 70
   192
  0
VERTEX
  8
0
 38
-46.662516
 10
7.827633
 20
26.226275
 70
   192
  0
VERTEX
  8
0
 38
-46.662516
 10
6.223284
 20
28.016345
 70
   192
  0
VERTEX
  8
0
 38
-46.662516
 10
3.789051
 20
30.118139
 70
   192
  0
VERTEX
  8
0
 38
-46.662516
 10
1.666935
 20
31.512554
 70
   192
  0
VERTEX
  8
0
 38
-46.662516
 10
-1.102379
 20
32.862343
 70
   192
  0
VERTEX
  8
0
 38
-46.662516
 10
-3.639046
 20
33.710364
 70
   192
  0
VERTEX
  8
0
 38
-46.662516
 10
-6.52875
 20
34.280532
 70
   192
  0
VERTEX
  8
0
 38
-46.662516
 10
-9.333065
 20
34.459995
 70
   192
  0
VERTEX
  8
0
 38
-46.662516
 10
-12.137381
 20
34.280532
 70
   192
  0
VERTEX
  8
0
 38
-46.662516
 10
-15.027084
 20
33.710364
 70
   192
  0
VERTEX
  8
0
 38
-46.662516
 10
-17.563751
 20
32.862343
 70
   192
  0
VERTEX
  8
0
 38
-46.662516
 10
-20.333065
 20
31.512554
 70
   192
  0
VERTEX
  8
0
 38
-46.662516
 10
-22.455182
 20
30.118139
 70
   192
  0
VERTEX
  8
0
 38
-46.662516
 10
-24.889415
 20
28.016345
 70
   192
  0
VERTEX
  8
0
 38
-46.662516
 10
-26.493763
 20
26.226275
 70
   192
  0
VERTEX
  8
0
 38
-46.662516
 10
-28.385624
 20
23.459995
 70
   192
  0
VERTEX
  8
0
 38
-46.662516
 10
-29.417015
 20
21.439694
 70
   192
  0
VERTEX
  8
0
 38
-46.662516
 10
-30.583434
 20
18.154014
 70
   192
  0
VERTEX
  8
0
 38
-46.662516
 10
-31.034944
 20
16.069493
 70
   192
  0
VERTEX
  8
0
 38
-46.662516
 10
-31.333065
 20
12.459995
 70
   192
  0
VERTEX
  8
0
 38
-46.662516
 10
-31.242397
 20
10.4647
 70
   192
  0
VERTEX
  8
0
 38
-46.662516
 10
-30.583434
 20
6.765976
 70
   192
  0
VERTEX
  8
0
 38
-46.662516
 10
-30.02589
 20
4.989587
 70
   192
  0
VERTEX
  8
0
 38
-46.662516
 10
-28.385624
 20
1.459995
 70
   192
  0
VERTEX
  8
0
 38
-46.662516
 10
-27.464489
 20
0.0
 70
   192
  0
VERTEX
  8
0
 38
-46.662516
 10
-32.15298
 20
0.0
 70
   192
  0
VERTEX
  8
0
 38
-46.662516
 10
15.781006
 20
5.7307
 70
   192
  0
VERTEX
  8
0
 38
-46.662516
 10
15.915801
 20
6.255584
 70
   192
  0
VERTEX
  8
0
 38
-46.662516
 10
16.666935
 20
12.459995
 70
   192
  0
VERTEX
  8
0
 38
-46.662516
 10
16.662785
 20
12.924478
 70
   192
  0
VERTEX
  8
0
 38
-46.662516
 10
15.781006
 20
19.189291
 70
   192
  0
VERTEX
  8
0
 38
-46.662516
 10
15.67804
 20
19.562431
 70
   192
  0
VERTEX
  8
0
 38
-46.662516
 10
13.183595
 20
25.459995
 70
   192
  0
VERTEX
  8
0
 38
-46.662516
 10
13.027166
 20
25.727251
 70
   192
  0
VERTEX
  8
0
 38
-46.662516
 10
9.051711
 20
30.844772
 70
   192
  0
VERTEX
  8
0
 38
-46.662516
 10
8.886751
 20
31.008264
 70
   192
  0
VERTEX
  8
0
 38
-46.662516
 10
3.666935
 20
34.976656
 70
   192
  0
VERTEX
  8
0
 38
-46.662516
 10
3.532613
 20
35.053674
 70
   192
  0
VERTEX
  8
0
 38
-46.662516
 10
-2.60377
 20
37.574067
 70
   192
  0
VERTEX
  8
0
 38
-46.662516
 10
-2.67858
 20
37.593993
 70
   192
  0
VERTEX
  8
0
 38
-46.662516
 10
-9.333065
 20
38.459995
 70
   192
  0
VERTEX
  8
0
 38
-46.662516
 10
-15.987551
 20
37.593993
 70
   192
  0
VERTEX
  8
0
 38
-46.662516
 10
-16.062361
 20
37.574067
 70
   192
  0
VERTEX
  8
0
 38
-46.662516
 10
-22.198744
 20
35.053674
 70
   192
  0
VERTEX
  8
0
 38
-46.662516
 10
-22.333065
 20
34.976656
 70
   192
  0
VERTEX
  8
0
 38
-46.662516
 10
-27.552882
 20
31.008264
 70
   192
  0
VERTEX
  8
0
 38
-46.662516
 10
-27.717842
 20
30.844772
 70
   192
  0
VERTEX
  8
0
 38
-46.662516
 10
-31.693297
 20
25.727251
 70
   192
  0
VERTEX
  8
0
 38
-46.662516
 10
-31.849726
 20
25.459995
 70
   192
  0
VERTEX
  8
0
 38
-46.662516
 10
-34.344171
 20
19.562431
 70
   192
  0
VERTEX
  8
0
 38
-46.662516
 10
-34.447137
 20
19.189291
 70
   192
  0
VERTEX
  8
0
 38
-46.662516
 10
-35.328916
 20
12.924478
 70
   192
  0
VERTEX
  8
0
 38
-46.662516
 10
-35.333065
 20
12.459995
 70
   192
  0
VERTEX
  8
0
 38
-46.662516
 10
-34.581932
 20
6.255584
 70
   192
  0
VERTEX
  8
0
 38
-46.662516
 10
-34.447137
 20
5.7307
 70
   192
  0
VERTEX
  8
0
 38
1.337484
 10
13.486849
 20
0.0
 70
   192
  0
VERTEX
  8
0
 38
1.337484
 10
-32.15298
 20
0.0
 70
   192
  0
VERTEX
  8
0
 38
1.337484
 10
-34.447137
 20
5.7307
 70
   192
  0
VERTEX
  8
0
 38
1.337484
 10
-34.581932
 20
6.255584
 70
   192
  0
VERTEX
  8
0
 38
1.337484
 10
-35.333065
 20
12.459995
 70
   192
  0
VERTEX
  8
0
 38
1.337484
 10
-35.328916
 20
12.924478
 70
   192
  0
VERTEX
  8
0
 38
1.337484
 10
-34.447137
 20
19.189291
 70
   192
  0
VERTEX
  8
0
 38
1.337484
 10
-34.344171
 20
19.562431
 70
   192
  0
VERTEX
  8
0
 38
1.337484
 10
-31.849726
 20
25.459995
 70
   192
  0
VERTEX
  8
0
 38
1.337484
 10
-31.693297
 20
25.727251
 70
   192
  0
VERTEX
  8
0
 38
1.337484
 10
-27.717842
 20
30.844772
 70
   192
  0
VERTEX
  8
0
 38
1.337484
 10
-27.552882
 20
31.008264
 70
   192
  0
VERTEX
  8
0
 38
1.337484
 10
-22.333065
 20
34.976656
 70
   192
  0
VERTEX
  8
0
 38
1.337484
 10
-22.198744
 20
35.053674
 70
   192
  0
VERTEX
  8
0
 38
1.337484
 10
-16.062361
 20
37.574067
 70
   192
  0
VERTEX
  8
0
 38
1.337484
 10
-15.987551
 20
37.593993
 70
   192
  0
VERTEX
  8
0
 38
1.337484
 10
-9.333065
 20
38.459995
 70
   192
  0
VERTEX
  8
0
 38
1.337484
 10
-2.67858
 20
37.593993
 70
   192
  0
VERTEX
  8
0
 38
1.337484
 10
-2.60377
 20
37.574067
 70
   192
  0
VERTEX
  8
0
 38
1.337484
 10
3.532613
 20
35.053674
 70
   192
  0
VERTEX
  8
0
 38
1.337484
 10
3.666935
 20
34.976656
 70
   192
  0
VERTEX
  8
0
 38
1.337484
 10
8.886751
 20
31.008264
 70
   192
  0
VERTEX
  8
0
 38
1.337484
 10
9.051711
 20
30.844772
 70
   192
  0
VERTEX
  8
0
 38
1.337484
 10
13.027166
 20
25.727251
 70
   192
  0
VERTEX
  8
0
 38
1.337484
 10
13.183595
 20
25.459995
 70
   192
  0
VERTEX
  8
0
 38
1.337484
 10
15.67804
 20
19.562431
 70
   192
  0
VERTEX
  8
0
 38
1.337484
 10
15.781006
 20
19.189291
 70
   192
  0
VERTEX
  8
0
 38
1.337484
 10
16.662785
 20
12.924478
 70
   192
  0
VERTEX
  8
0
 38
1.337484
 10
16.666935
 20
12.459995
 70
   192
  0
VERTEX
  8
0
 38
1.337484
 10
15.915801
 20
6.255584
 70
   192
  0
VERTEX
  8
0
 38
1.337484
 10
15.781006
 20
5.7307
 70
   192
  0
VERTEX
  8
0
 38
1.337484
 10
8.798358
 20
0.0
 70
   192
  0
VERTEX
  8
0
 38
1.337484
 10
9.719493
 20
1.459995
 70
   192
  0
VERTEX
  8
0
 38
1.337484
 10
11.359759
 20
4.989587
 70
   192
  0
VERTEX
  8
0
 38
1.337484
 10
11.917303
 20
6.765976
 70
   192
  0
VERTEX
  8
0
 38
1.337484
 10
12.576266
 20
10.4647
 70
   192
  0
VERTEX
  8
0
 38
1.337484
 10
12.666935
 20
12.459995
 70
   192
  0
VERTEX
  8
0
 38
1.337484
 10
12.368813
 20
16.069493
 70
   192
  0
VERTEX
  8
0
 38
1.337484
 10
11.917303
 20
18.154014
 70
   192
  0
VERTEX
  8
0
 38
1.337484
 10
10.750884
 20
21.439694
 70
   192
  0
VERTEX
  8
0
 38
1.337484
 10
9.719493
 20
23.459995
 70
   192
  0
VERTEX
  8
0
 38
1.337484
 10
7.827633
 20
26.226275
 70
   192
  0
VERTEX
  8
0
 38
1.337484
 10
6.223284
 20
28.016345
 70
   192
  0
VERTEX
  8
0
 38
1.337484
 10
3.789051
 20
30.118139
 70
   192
  0
VERTEX
  8
0
 38
1.337484
 10
1.666935
 20
31.512554
 70
   192
  0
VERTEX
  8
0
 38
1.337484
 10
-1.102379
 20
32.862343
 70
   192
  0
VERTEX
  8
0
 38
1.337484
 10
-3.639046
 20
33.710364
 70
   192
  0
VERTEX
  8
0
 38
1.337484
 10
-6.52875
 20
34.280532
 70
   192
  0
VERTEX
  8
0
 38
1.337484
 10
-9.333065
 20
34.459995
 70
   192
  0
VERTEX
  8
0
 38
1.337484
 10
-12.137381
 20
34.280532
 70
   192
  0
VERTEX
  8
0
 38
1.337484
 10
-15.027084
 20
33.710364
 70
   192
  0
VERTEX
  8
0
 38
1.337484
 10
-17.563751
 20
32.862343
 70
   192
  0
VERTEX
  8
0
 38
1.337484
 10
-20.333065
 20
31.512554
 70
   192
  0
VERTEX
  8
0
 38
1.337484
 10
-22.455182
 20
30.118139
 70
   192
  0
VERTEX
  8
0
 38
1.337484
 10
-24.889415
 20
28.016345
 70
   192
  0
VERTEX
  8
0
 38
1.337484
 10
-26.493763
 20
26.226275
 70
   192
  0
VERTEX
  8
0
 38
1.337484
 10
-28.385624
 20
23.459995
 70
   192
  0
VERTEX
  8
0
 38
1.337484
 10
-29.417015
 20
21.439694
 70
   192
  0
VERTEX
  8
0
 38
1.337484
 10
-30.583434
 20
18.154014
 70
   192
  0
VERTEX
  8
0
 38
1.337484
 10
-31.034944
 20
16.069493
 70
   192
  0
VERTEX
  8
0
 38
1.337484
 10
-31.333065
 20
12.459995
 70
   192
  0
VERTEX
  8
0
 38
1.337484
 10
-31.242397
 20
10.4647
 70
   192
  0
VERTEX
  8
0
 38
1.337484
 10
-30.583434
 20
6.765976
 70
   192
  0
VERTEX
  8
0
 38
1.337484
 10
-30.02589
 20
4.989587
 70
   192
  0
VERTEX
  8
0
 38
1.337484
 10
-28.385624
 20
1.459995
 70
   192
  0
VERTEX
  8
0
 38
1.337484
 10
-27.464489
 20
0.0
 70
   192
  0
VERTEX
  8
OBJECT_5
  6
CONTINUOUS
 62
     7
 10
0.0
 20
0.0
 70
   128
  0
VERTEX
  8
OBJECT_5
  6
CONTINUOUS
 62
     7
 10
0.0
 20
0.0
 70
   128
  0
VERTEX
  8
OBJECT_5
  6
CONTINUOUS
 62
     7
 10
0.0
 20
0.0
 70
   128
  0
VERTEX
  8
OBJECT_5
  6
CONTINUOUS
 62
     7
 10
0.0
 20
0.0
 70
   128
  0
VERTEX
  8
OBJECT_5
  6
CONTINUOUS
 62
     7
 10
0.0
 20
0.0
 70
   128
  0
VERTEX
  8
OBJECT_5
  6
CONTINUOUS
 62
     7
 10
0.0
 20
0.0
 70
   128
  0
VERTEX
  8
OBJECT_5
  6
CONTINUOUS
 62
     7
 10
0.0
 20
0.0
 70
   128
  0
VERTEX
  8
OBJECT_5
  6
CONTINUOUS
 62
     7
 10
0.0
 20
0.0
 70
   128
  0
VERTEX
  8
OBJECT_5
  6
CONTINUOUS
 62
     7
 10
0.0
 20
0.0
 70
   128
  0
VERTEX
  8
OBJECT_5
  6
CONTINUOUS
 62
     7
 10
0.0
 20
0.0
 70
   128
  0
VERTEX
  8
OBJECT_5
  6
CONTINUOUS
 62
     7
 10
0.0
 20
0.0
 70
   128
  0
VERTEX
  8
OBJECT_5
  6
CONTINUOUS
 62
     7
 10
0.0
 20
0.0
 70
   128
  0
VERTEX
  8
OBJECT_5
  6
CONTINUOUS
 62
     7
 10
0.0
 20
0.0
 70
   128
  0
VERTEX
  8
OBJECT_5
  6
CONTINUOUS
 62
     7
 10
0.0
 20
0.0
 70
   128
  0
VERTEX
  8
OBJECT_5
  6
CONTINUOUS
 62
     7
 10
0.0
 20
0.0
 70
   128
  0
VERTEX
  8
OBJECT_5
  6
CONTINUOUS
 62
     7
 10
0.0
 20
0.0
 70
   128
  0
VERTEX
  8
OBJECT_5
  6
CONTINUOUS
 62
     7
 10
0.0
 20
0.0
 70
   128
  0
VERTEX
  8
OBJECT_5
  6
CONTINUOUS
 62
     7
 10
0.0
 20
0.0
 70
   128
  0
VERTEX
  8
OBJECT_5
  6
CONTINUOUS
 62
     7
 10
0.0
 20
0.0
 70
   128
  0
VERTEX
  8
OBJECT_5
  6
CONTINUOUS
 62
     7
 10
0.0
 20
0.0
 70
   128
  0
VERTEX
  8
OBJECT_5
  6
CONTINUOUS
 62
     7
 10
0.0
 20
0.0
 70
   128
  0
VERTEX
  8
OBJECT_5
  6
CONTINUOUS
 62
     7
 10
0.0
 20
0.0
 70
   128
  0
VERTEX
  8
OBJECT_5
  6
CONTINUOUS
 62
     7
 10
0.0
 20
0.0
 70
   128
  0
VERTEX
  8
OBJECT_5
  6
CONTINUOUS
 62
     7
 10
0.0
 20
0.0
 70
   128
  0
VERTEX
  8
OBJECT_5
  6
CONTINUOUS
 62
     7
 10
0.0
 20
0.0
 70
   128
  0
VERTEX
  8
OBJECT_5
  6
CONTINUOUS
 62
     7
 10
0.0
 20
0.0
 70
   128
  0
VERTEX
  8
OBJECT_5
  6
CONTINUOUS
 62
     7
 10
0.0
 20
0.0
 70
   128
  0
VERTEX
  8
OBJECT_5
  6
CONTINUOUS
 62
     7
 10
0.0
 20
0.0
 70
   128
  0
VERTEX
  8
OBJECT_5
  6
CONTINUOUS
 62
     7
 10
0.0
 20
0.0
 70
   128
  0
VERTEX
  8
OBJECT_5
  6
CONTINUOUS
 62
     7
 10
0.0
 20
0.0
 70
   128
  0
VERTEX
  8
OBJECT_5
  6
CONTINUOUS
 62
     7
 10
0.0
 20
0.0
 70
   128
  0
VERTEX
  8
OBJECT_5
  6
CONTINUOUS
 62
     7
 10
0.0
 20
0.0
 70
   128
  0
VERTEX
  8
OBJECT_5
  6
CONTINUOUS
 62
     7
 10
0.0
 20
0.0
 70
   128
  0
VERTEX
  8
OBJECT_5
  6
CONTINUOUS
 62
     7
 10
0.0
 20
0.0
 70
   128
  0
VERTEX
  8
OBJECT_5
  6
CONTINUOUS
 62
     7
 10
0.0
 20
0.0
 70
   128
  0
VERTEX
  8
OBJECT_5
  6
CONTINUOUS
 62
     7
 10
0.0
 20
0.0
 70
   128
  0
VERTEX
  8
OBJECT_5
  6
CONTINUOUS
 62
     7
 10
0.0
 20
0.0
 70
   128
  0
VERTEX
  8
OBJECT_5
  6
CONTINUOUS
 62
     7
 10
0.0
 20
0.0
 70
   128
  0
VERTEX
  8
OBJECT_5
  6
CONTINUOUS
 62
     7
 10
0.0
 20
0.0
 70
   128
  0
VERTEX
  8
OBJECT_5
  6
CONTINUOUS
 62
     7
 10
0.0
 20
0.0
 70
   128
  0
VERTEX
  8
OBJECT_5
  6
CONTINUOUS
 62
     7
 10
0.0
 20
0.0
 70
   128
  0
VERTEX
  8
OBJECT_5
  6
CONTINUOUS
 62
     7
 10
0.0
 20
0.0
 70
   128
  0
VERTEX
  8
OBJECT_5
  6
CONTINUOUS
 62
     7
 10
0.0
 20
0.0
 70
   128
  0
VERTEX
  8
OBJECT_5
  6
CONTINUOUS
 62
     7
 10
0.0
 20
0.0
 70
   128
  0
VERTEX
  8
OBJECT_5
  6
CONTINUOUS
 62
     7
 10
0.0
 20
0.0
 70
   128
  0
VERTEX
  8
OBJECT_5
  6
CONTINUOUS
 62
     7
 10
0.0
 20
0.0
 70
   128
  0
VERTEX
  8
OBJECT_5
  6
CONTINUOUS
 62
     7
 10
0.0
 20
0.0
 70
   128
  0
VERTEX
  8
OBJECT_5
  6
CONTINUOUS
 62
     7
 10
0.0
 20
0.0
 70
   128
  0
VERTEX
  8
OBJECT_5
  6
CONTINUOUS
 62
     7
 10
0.0
 20
0.0
 70
   128
  0
VERTEX
  8
OBJECT_5
  6
CONTINUOUS
 62
     7
 10
0.0
 20
0.0
 70
   128
  0
VERTEX
  8
OBJECT_5
  6
CONTINUOUS
 62
     7
 10
0.0
 20
0.0
 70
   128
  0
VERTEX
  8
OBJECT_5
  6
CONTINUOUS
 62
     7
 10
0.0
 20
0.0
 70
   128
  0
VERTEX
  8
OBJECT_5
  6
CONTINUOUS
 62
     7
 10
0.0
 20
0.0
 70
   128
  0
VERTEX
  8
OBJECT_5
  6
CONTINUOUS
 62
     7
 10
0.0
 20
0.0
 70
   128
  0
VERTEX
  8
OBJECT_5
  6
CONTINUOUS
 62
     7
 10
0.0
 20
0.0
 70
   128
  0
VERTEX
  8
OBJECT_5
  6
CONTINUOUS
 62
     7
 10
0.0
 20
0.0
 70
   128
  0
VERTEX
  8
OBJECT_5
  6
CONTINUOUS
 62
     7
 10
0.0
 20
0.0
 70
   128
  0
VERTEX
  8
OBJECT_5
  6
CONTINUOUS
 62
     7
 10
0.0
 20
0.0
 70
   128
  0
VERTEX
  8
OBJECT_5
  6
CONTINUOUS
 62
     7
 10
0.0
 20
0.0
 70
   128
  0
VERTEX
  8
OBJECT_5
  6
CONTINUOUS
 62
     7
 10
0.0
 20
0.0
 70
   128
  0
VERTEX
  8
OBJECT_5
  6
CONTINUOUS
 62
     7
 10
0.0
 20
0.0
 70
   128
  0
VERTEX
  8
OBJECT_5
  6
CONTINUOUS
 62
     7
 10
0.0
 20
0.0
 70
   128
  0
VERTEX
  8
OBJECT_5
  6
CONTINUOUS
 62
     7
 10
0.0
 20
0.0
 70
   128
  0
VERTEX
  8
OBJECT_5
  6
CONTINUOUS
 62
     7
 10
0.0
 20
0.0
 70
   128
  0
VERTEX
  8
OBJECT_5
  6
CONTINUOUS
 62
     7
 10
0.0
 20
0.0
 70
   128
  0
VERTEX
  8
OBJECT_5
  6
CONTINUOUS
 62
     7
 10
0.0
 20
0.0
 70
   128
  0
VERTEX
  8
OBJECT_5
  6
CONTINUOUS
 62
     7
 10
0.0
 20
0.0
 70
   128
  0
VERTEX
  8
OBJECT_5
  6
CONTINUOUS
 62
     7
 10
0.0
 20
0.0
 70
   128
  0
VERTEX
  8
OBJECT_5
  6
CONTINUOUS
 62
     7
 10
0.0
 20
0.0
 70
   128
  0
VERTEX
  8
OBJECT_5
  6
CONTINUOUS
 62
     7
 10
0.0
 20
0.0
 70
   128
  0
VERTEX
  8
OBJECT_5
  6
CONTINUOUS
 62
     7
 10
0.0
 20
0.0
 70
   128
  0
VERTEX
  8
OBJECT_5
  6
CONTINUOUS
 62
     7
 10
0.0
 20
0.0
 70
   128
  0
VERTEX
  8
OBJECT_5
  6
CONTINUOUS
 62
     7
 10
0.0
 20
0.0
 70
   128
  0
VERTEX
  8
OBJECT_5
  6
CONTINUOUS
 62
     7
 10
0.0
 20
0.0
 70
   128
  0
VERTEX
  8
OBJECT_5
  6
CONTINUOUS
 62
     7
 10
0.0
 20
0.0
 70
   128
  0
VERTEX
  8
OBJECT_5
  6
CONTINUOUS
 62
     7
 10
0.0
 20
0.0
 70
   128
  0
VERTEX
  8
OBJECT_5
  6
CONTINUOUS
 62
     7
 10
0.0
 20
0.0
 70
   128
  0
VERTEX
  8
OBJECT_5
  6
CONTINUOUS
 62
     7
 10
0.0
 20
0.0
 70
   128
  0
VERTEX
  8
OBJECT_5
  6
CONTINUOUS
 62
     7
 10
0.0
 20
0.0
 70
   128
  0
VERTEX
  8
OBJECT_5
  6
CONTINUOUS
 62
     7
 10
0.0
 20
0.0
 70
   128
  0
VERTEX
  8
OBJECT_5
  6
CONTINUOUS
 62
     7
 10
0.0
 20
0.0
 70
   128
  0
VERTEX
  8
OBJECT_5
  6
CONTINUOUS
 62
     7
 10
0.0
 20
0.0
 70
   128
  0
VERTEX
  8
OBJECT_5
  6
CONTINUOUS
 62
     7
 10
0.0
 20
0.0
 70
   128
  0
VERTEX
  8
OBJECT_5
  6
CONTINUOUS
 62
     7
 10
0.0
 20
0.0
 70
   128
  0
VERTEX
  8
OBJECT_5
  6
CONTINUOUS
 62
     7
 10
0.0
 20
0.0
 70
   128
  0
VERTEX
  8
OBJECT_5
  6
CONTINUOUS
 62
     7
 10
0.0
 20
0.0
 70
   128
  0
VERTEX
  8
OBJECT_5
  6
CONTINUOUS
 62
     7
 10
0.0
 20
0.0
 70
   128
  0
VERTEX
  8
OBJECT_5
  6
CONTINUOUS
 62
     7
 10
0.0
 20
0.0
 70
   128
  0
VERTEX
  8
OBJECT_5
  6
CONTINUOUS
 62
     7
 10
0.0
 20
0.0
 70
   128
  0
VERTEX
  8
OBJECT_5
  6
CONTINUOUS
 62
     7
 10
0.0
 20
0.0
 70
   128
  0
VERTEX
  8
OBJECT_5
  6
CONTINUOUS
 62
     7
 10
0.0
 20
0.0
 70
   128
  0
VERTEX
  8
OBJECT_5
  6
CONTINUOUS
 62
     7
 10
0.0
 20
0.0
 70
   128
  0
VERTEX
  8
OBJECT_5
  6
CONTINUOUS
 62
     7
 10
0.0
 20
0.0
 70
   128
  0
VERTEX
  8
OBJECT_5
  6
CONTINUOUS
 62
     7
 10
0.0
 20
0.0
 70
   128
  0
VERTEX
  8
OBJECT_5
  6
CONTINUOUS
 62
     7
 10
0.0
 20
0.0
 70
   128
  0
VERTEX
  8
OBJECT_5
  6
CONTINUOUS
 62
     7
 10
0.0
 20
0.0
 70
   128
  0
VERTEX
  8
OBJECT_5
  6
CONTINUOUS
 62
     7
 10
0.0
 20
0.0
 70
   128
  0
VERTEX
  8
OBJECT_5
  6
CONTINUOUS
 62
     7
 10
0.0
 20
0.0
 70
   128
  0
VERTEX
  8
OBJECT_5
  6
CONTINUOUS
 62
     7
 10
0.0
 20
0.0
 70
   128
  0
VERTEX
  8
OBJECT_5
  6
CONTINUOUS
 62
     7
 10
0.0
 20
0.0
 70
   128
  0
VERTEX
  8
OBJECT_5
  6
CONTINUOUS
 62
     7
 10
0.0
 20
0.0
 70
   128
  0
VERTEX
  8
OBJECT_5
  6
CONTINUOUS
 62
     7
 10
0.0
 20
0.0
 70
   128
  0
VERTEX
  8
OBJECT_5
  6
CONTINUOUS
 62
     7
 10
0.0
 20
0.0
 70
   128
  0
VERTEX
  8
OBJECT_5
  6
CONTINUOUS
 62
     7
 10
0.0
 20
0.0
 70
   128
  0
VERTEX
  8
OBJECT_5
  6
CONTINUOUS
 62
     7
 10
0.0
 20
0.0
 70
   128
  0
VERTEX
  8
OBJECT_5
  6
CONTINUOUS
 62
     7
 10
0.0
 20
0.0
 70
   128
  0
VERTEX
  8
OBJECT_5
  6
CONTINUOUS
 62
     7
 10
0.0
 20
0.0
 70
   128
  0
VERTEX
  8
OBJECT_5
  6
CONTINUOUS
 62
     7
 10
0.0
 20
0.0
 70
   128
  0
VERTEX
  8
OBJECT_5
  6
CONTINUOUS
 62
     7
 10
0.0
 20
0.0
 70
   128
  0
VERTEX
  8
OBJECT_5
  6
CONTINUOUS
 62
     7
 10
0.0
 20
0.0
 70
   128
  0
VERTEX
  8
OBJECT_5
  6
CONTINUOUS
 62
     7
 10
0.0
 20
0.0
 70
   128
  0
VERTEX
  8
OBJECT_5
  6
CONTINUOUS
 62
     7
 10
0.0
 20
0.0
 70
   128
  0
VERTEX
  8
OBJECT_5
  6
CONTINUOUS
 62
     7
 10
0.0
 20
0.0
 70
   128
  0
VERTEX
  8
OBJECT_5
  6
CONTINUOUS
 62
     7
 10
0.0
 20
0.0
 70
   128
  0
VERTEX
  8
OBJECT_5
  6
CONTINUOUS
 62
     7
 10
0.0
 20
0.0
 70
   128
  0
VERTEX
  8
OBJECT_5
  6
CONTINUOUS
 62
     7
 10
0.0
 20
0.0
 70
   128
  0
VERTEX
  8
OBJECT_5
  6
CONTINUOUS
 62
     7
 10
0.0
 20
0.0
 70
   128
  0
VERTEX
  8
OBJECT_5
  6
CONTINUOUS
 62
     7
 10
0.0
 20
0.0
 70
   128
  0
VERTEX
  8
OBJECT_5
  6
CONTINUOUS
 62
     7
 10
0.0
 20
0.0
 70
   128
  0
VERTEX
  8
OBJECT_5
  6
CONTINUOUS
 62
     7
 10
0.0
 20
0.0
 70
   128
  0
VERTEX
  8
OBJECT_5
  6
CONTINUOUS
 62
     7
 10
0.0
 20
0.0
 70
   128
  0
VERTEX
  8
OBJECT_5
  6
CONTINUOUS
 62
     7
 10
0.0
 20
0.0
 70
   128
  0
VERTEX
  8
OBJECT_5
  6
CONTINUOUS
 62
     7
 10
0.0
 20
0.0
 70
   128
  0
VERTEX
  8
OBJECT_5
  6
CONTINUOUS
 62
     7
 10
0.0
 20
0.0
 70
   128
  0
VERTEX
  8
OBJECT_5
  6
CONTINUOUS
 62
     7
 10
0.0
 20
0.0
 70
   128
  0
VERTEX
  8
OBJECT_5
  6
CONTINUOUS
 62
     7
 10
0.0
 20
0.0
 70
   128
  0
VERTEX
  8
OBJECT_5
  6
CONTINUOUS
 62
     7
 10
0.0
 20
0.0
 70
   128
  0
VERTEX
  8
OBJECT_5
  6
CONTINUOUS
 62
     7
 10
0.0
 20
0.0
 70
   128
  0
VERTEX
  8
OBJECT_5
  6
CONTINUOUS
 62
     7
 10
0.0
 20
0.0
 70
   128
  0
VERTEX
  8
OBJECT_5
  6
CONTINUOUS
 62
     7
 10
0.0
 20
0.0
 70
   128
  0
VERTEX
  8
OBJECT_5
  6
CONTINUOUS
 62
     7
 10
0.0
 20
0.0
 70
   128
  0
VERTEX
  8
OBJECT_5
  6
CONTINUOUS
 62
     7
 10
0.0
 20
0.0
 70
   128
  0
VERTEX
  8
OBJECT_5
  6
CONTINUOUS
 62
     7
 10
0.0
 20
0.0
 70
   128
  0
VERTEX
  8
OBJECT_5
  6
CONTINUOUS
 62
     7
 10
0.0
 20
0.0
 70
   128
  0
VERTEX
  8
OBJECT_5
  6
CONTINUOUS
 62
     7
 10
0.0
 20
0.0
 70
   128
  0
VERTEX
  8
OBJECT_5
  6
CONTINUOUS
 62
     7
 10
0.0
 20
0.0
 70
   128
  0
VERTEX
  8
OBJECT_5
  6
CONTINUOUS
 62
     7
 10
0.0
 20
0.0
 70
   128
  0
VERTEX
  8
OBJECT_5
  6
CONTINUOUS
 62
     7
 10
0.0
 20
0.0
 70
   128
  0
VERTEX
  8
OBJECT_5
  6
CONTINUOUS
 62
     7
 10
0.0
 20
0.0
 70
   128
  0
VERTEX
  8
OBJECT_5
  6
CONTINUOUS
 62
     7
 10
0.0
 20
0.0
 70
   128
  0
VERTEX
  8
OBJECT_5
  6
CONTINUOUS
 62
     7
 10
0.0
 20
0.0
 70
   128
  0
VERTEX
  8
OBJECT_5
  6
CONTINUOUS
 62
     7
 10
0.0
 20
0.0
 70
   128
  0
VERTEX
  8
OBJECT_5
  6
CONTINUOUS
 62
     7
 10
0.0
 20
0.0
 70
   128
  0
VERTEX
  8
OBJECT_5
  6
CONTINUOUS
 62
     7
 10
0.0
 20
0.0
 70
   128
  0
VERTEX
  8
OBJECT_5
  6
CONTINUOUS
 62
     7
 10
0.0
 20
0.0
 70
   128
  0
VERTEX
  8
OBJECT_5
  6
CONTINUOUS
 62
     7
 10
0.0
 20
0.0
 70
   128
  0
VERTEX
  8
OBJECT_5
  6
CONTINUOUS
 62
     7
 10
0.0
 20
0.0
 70
   128
  0
VERTEX
  8
OBJECT_5
  6
CONTINUOUS
 62
     7
 10
0.0
 20
0.0
 70
   128
  0
VERTEX
  8
OBJECT_5
  6
CONTINUOUS
 62
     7
 10
0.0
 20
0.0
 70
   128
  0
VERTEX
  8
OBJECT_5
  6
CONTINUOUS
 62
     7
 10
0.0
 20
0.0
 70
   128
  0
VERTEX
  8
OBJECT_5
  6
CONTINUOUS
 62
     7
 10
0.0
 20
0.0
 70
   128
  0
VERTEX
  8
OBJECT_5
  6
CONTINUOUS
 62
     7
 10
0.0
 20
0.0
 70
   128
  0
VERTEX
  8
OBJECT_5
  6
CONTINUOUS
 62
     7
 10
0.0
 20
0.0
 70
   128
  0
VERTEX
  8
OBJECT_5
  6
CONTINUOUS
 62
     7
 10
0.0
 20
0.0
 70
   128
  0
VERTEX
  8
OBJECT_5
  6
CONTINUOUS
 62
     7
 10
0.0
 20
0.0
 70
   128
  0
VERTEX
  8
OBJECT_5
  6
CONTINUOUS
 62
     7
 10
0.0
 20
0.0
 70
   128
  0
VERTEX
  8
OBJECT_5
  6
CONTINUOUS
 62
     7
 10
0.0
 20
0.0
 70
   128
  0
VERTEX
  8
OBJECT_5
  6
CONTINUOUS
 62
     7
 10
0.0
 20
0.0
 70
   128
  0
VERTEX
  8
OBJECT_5
  6
CONTINUOUS
 62
     7
 10
0.0
 20
0.0
 70
   128
  0
VERTEX
  8
OBJECT_5
  6
CONTINUOUS
 62
     7
 10
0.0
 20
0.0
 70
   128
  0
SEQEND
  8
OBJECT_5
  6
CONTINUOUS
 62
     7
  0
POLYLINE
  8
OBJECT_98_COPY
  6
CONTINUOUS
 62
   254
 66
     1
 70
    64
  0
VERTEX
  8
0
 38
-52.958317
 10
-32.361064
 20
23.2948
 70
   192
  0
VERTEX
  8
0
 38
-102.367082
 10
-32.361064
 20
10.428546
 70
   192
  0
VERTEX
  8
0
 38
-102.367082
 10
13.543327
 20
10.428546
 70
   192
  0
VERTEX
  8
0
 38
-52.958317
 10
13.543327
 20
23.2948
 70
   192
  0
VERTEX
  8
0
 38
-54.126682
 10
-32.361064
 20
27.781535
 70
   192
  0
VERTEX
  8
0
 38
-103.535447
 10
-32.361064
 20
14.915281
 70
   192
  0
VERTEX
  8
0
 38
-103.535447
 10
13.543327
 20
14.915281
 70
   192
  0
VERTEX
  8
0
 38
-54.126682
 10
13.543327
 20
27.781535
 70
   192
  0
VERTEX
  8
OBJECT_98_COPY
  6
CONTINUOUS
 62
   254
 10
0.0
 20
0.0
 70
   128
  0
VERTEX
  8
OBJECT_98_COPY
  6
CONTINUOUS
 62
   254
 10
0.0
 20
0.0
 70
   128
  0
VERTEX
  8
OBJECT_98_COPY
  6
CONTINUOUS
 62
   254
 10
0.0
 20
0.0
 70
   128
  0
VERTEX
  8
OBJECT_98_COPY
  6
CONTINUOUS
 62
   254
 10
0.0
 20
0.0
 70
   128
  0
VERTEX
  8
OBJECT_98_COPY
  6
CONTINUOUS
 62
   254
 10
0.0
 20
0.0
 70
   128
  0
VERTEX
  8
OBJECT_98_COPY
  6
CONTINUOUS
 62
   254
 10
0.0
 20
0.0
 70
   128
  0
SEQEND
  8
OBJECT_98_COPY
  6
CONTINUOUS
 62
   254
  0
POLYLINE
  8
OBJECT_4_COPY
  6
CONTINUOUS
 62
     7
 66
     1
 70
    64
  0
VERTEX
  8
0
 38
-44.110975
 10
-2.65184
 20
-7.262147
 70
   192
  0
VERTEX
  8
0
 38
-44.110975
 10
2.243331
 20
-4.75866
 70
   192
  0
VERTEX
  8
0
 38
-44.110975
 10
6.323752
 20
-1.073515
 70
   192
  0
VERTEX
  8
0
 38
-44.110975
 10
9.31135
 20
3.542154
 70
   192
  0
VERTEX
  8
0
 38
-44.110975
 10
11.002526
 20
8.773794
 70
   192
  0
VERTEX
  8
0
 38
-44.110975
 10
11.282028
 20
14.264879
 70
   192
  0
VERTEX
  8
0
 38
-44.110975
 10
10.130809
 20
19.6412
 70
   192
  0
VERTEX
  8
0
 38
-44.110975
 10
7.627322
 20
24.536371
 70
   192
  0
VERTEX
  8
0
 38
-44.110975
 10
3.942176
 20
28.616792
 70
   192
  0
VERTEX
  8
0
 38
-44.110975
 10
-0.673492
 20
31.60439
 70
   192
  0
VERTEX
  8
0
 38
-44.110975
 10
-5.905132
 20
33.295566
 70
   192
  0
VERTEX
  8
0
 38
-44.110975
 10
-11.396217
 20
33.575068
 70
   192
  0
VERTEX
  8
0
 38
-44.110975
 10
-16.772538
 20
32.423849
 70
   192
  0
VERTEX
  8
0
 38
-44.110975
 10
-21.667709
 20
29.920362
 70
   192
  0
VERTEX
  8
0
 38
-44.110975
 10
-25.74813
 20
26.235216
 70
   192
  0
VERTEX
  8
0
 38
-44.110975
 10
-28.735728
 20
21.619548
 70
   192
  0
VERTEX
  8
0
 38
-44.110975
 10
-30.426904
 20
16.387908
 70
   192
  0
VERTEX
  8
0
 38
-44.110975
 10
-30.706406
 20
10.896823
 70
   192
  0
VERTEX
  8
0
 38
-44.110975
 10
-29.555187
 20
5.520501
 70
   192
  0
VERTEX
  8
0
 38
-44.110975
 10
-27.0517
 20
0.625331
 70
   192
  0
VERTEX
  8
0
 38
-44.110975
 10
-23.366555
 20
-3.45509
 70
   192
  0
VERTEX
  8
0
 38
-44.110975
 10
-18.750886
 20
-6.442688
 70
   192
  0
VERTEX
  8
0
 38
-44.110975
 10
-13.519246
 20
-8.133864
 70
   192
  0
VERTEX
  8
0
 38
-44.110975
 10
-8.028161
 20
-8.413366
 70
   192
  0
VERTEX
  8
0
 38
-44.110975
 10
41.380693
 20
-14.276358
 70
   192
  0
VERTEX
  8
0
 38
-44.110975
 10
-86.126853
 20
-14.276358
 70
   192
  0
VERTEX
  8
0
 38
-44.110975
 10
44.275802
 20
-5.744412
 70
   192
  0
VERTEX
  8
0
 38
-44.110975
 10
46.038414
 20
3.121463
 70
   192
  0
VERTEX
  8
0
 38
-44.110975
 10
46.62692
 20
12.114102
 70
   192
  0
VERTEX
  8
0
 38
-44.110975
 10
46.035092
 20
21.131974
 70
   192
  0
VERTEX
  8
0
 38
-44.110975
 10
44.275802
 20
29.972616
 70
   192
  0
VERTEX
  8
0
 38
-44.110975
 10
41.370955
 20
38.528076
 70
   192
  0
VERTEX
  8
0
 38
-44.110975
 10
37.382673
 20
46.614102
 70
   192
  0
VERTEX
  8
0
 38
-44.110975
 10
32.363781
 20
54.12453
 70
   192
  0
VERTEX
  8
0
 38
-44.110975
 10
26.417288
 20
60.90447
 70
   192
  0
VERTEX
  8
0
 38
-44.110975
 10
19.627252
 20
66.85871
 70
   192
  0
VERTEX
  8
0
 38
-44.110975
 10
12.12692
 20
71.869855
 70
   192
  0
VERTEX
  8
0
 38
-44.110975
 10
4.029138
 20
75.863007
 70
   192
  0
VERTEX
  8
0
 38
-44.110975
 10
-4.514566
 20
78.762984
 70
   192
  0
VERTEX
  8
0
 38
-44.110975
 10
-13.367824
 20
80.523936
 70
   192
  0
VERTEX
  8
0
 38
-44.110975
 10
-22.37308
 20
81.114102
 70
   192
  0
VERTEX
  8
0
 38
-44.110975
 10
-31.378336
 20
80.523936
 70
   192
  0
VERTEX
  8
0
 38
-44.110975
 10
-40.231594
 20
78.762984
 70
   192
  0
VERTEX
  8
0
 38
-44.110975
 10
-48.775297
 20
75.863007
 70
   192
  0
VERTEX
  8
0
 38
-44.110975
 10
-56.87308
 20
71.869855
 70
   192
  0
VERTEX
  8
0
 38
-44.110975
 10
-64.373412
 20
66.85871
 70
   192
  0
VERTEX
  8
0
 38
-44.110975
 10
-71.163448
 20
60.90447
 70
   192
  0
VERTEX
  8
0
 38
-44.110975
 10
-77.109941
 20
54.12453
 70
   192
  0
VERTEX
  8
0
 38
-44.110975
 10
-82.128833
 20
46.614102
 70
   192
  0
VERTEX
  8
0
 38
-44.110975
 10
-86.117115
 20
38.528076
 70
   192
  0
VERTEX
  8
0
 38
-44.110975
 10
-89.021962
 20
29.972616
 70
   192
  0
VERTEX
  8
0
 38
-44.110975
 10
-90.781252
 20
21.131974
 70
   192
  0
VERTEX
  8
0
 38
-44.110975
 10
-91.37308
 20
12.114102
 70
   192
  0
VERTEX
  8
0
 38
-44.110975
 10
-90.784573
 20
3.121463
 70
   192
  0
VERTEX
  8
0
 38
-44.110975
 10
-89.021962
 20
-5.744412
 70
   192
  0
VERTEX
  8
0
 38
-128.110975
 10
-86.126853
 20
-14.276358
 70
   192
  0
VERTEX
  8
0
 38
-128.110975
 10
41.380693
 20
-14.276358
 70
   192
  0
VERTEX
  8
0
 38
-128.110975
 10
-89.021962
 20
-5.744412
 70
   192
  0
VERTEX
  8
0
 38
-128.110975
 10
-90.784573
 20
3.121463
 70
   192
  0
VERTEX
  8
0
 38
-128.110975
 10
-91.37308
 20
12.114102
 70
   192
  0
VERTEX
  8
0
 38
-128.110975
 10
-90.781252
 20
21.131974
 70
   192
  0
VERTEX
  8
0
 38
-128.110975
 10
-89.021962
 20
29.972616
 70
   192
  0
VERTEX
  8
0
 38
-128.110975
 10
-86.117115
 20
38.528076
 70
   192
  0
VERTEX
  8
0
 38
-128.110975
 10
-82.128833
 20
46.614102
 70
   192
  0
VERTEX
  8
0
 38
-128.110975
 10
-77.109941
 20
54.12453
 70
   192
  0
VERTEX
  8
0
 38
-128.110975
 10
-71.163448
 20
60.90447
 70
   192
  0
VERTEX
  8
0
 38
-128.110975
 10
-64.373412
 20
66.85871
 70
   192
  0
VERTEX
  8
0
 38
-128.110975
 10
-56.87308
 20
71.869855
 70
   192
  0
VERTEX
  8
0
 38
-128.110975
 10
-48.775297
 20
75.863007
 70
   192
  0
VERTEX
  8
0
 38
-128.110975
 10
-40.231594
 20
78.762984
 70
   192
  0
VERTEX
  8
0
 38
-128.110975
 10
-31.378336
 20
80.523936
 70
   192
  0
VERTEX
  8
0
 38
-128.110975
 10
-22.37308
 20
81.114102
 70
   192
  0
VERTEX
  8
0
 38
-128.110975
 10
-13.367824
 20
80.523936
 70
   192
  0
VERTEX
  8
0
 38
-128.110975
 10
-4.514566
 20
78.762984
 70
   192
  0
VERTEX
  8
0
 38
-128.110975
 10
4.029138
 20
75.863007
 70
   192
  0
VERTEX
  8
0
 38
-128.110975
 10
12.12692
 20
71.869855
 70
   192
  0
VERTEX
  8
0
 38
-128.110975
 10
19.627252
 20
66.85871
 70
   192
  0
VERTEX
  8
0
 38
-128.110975
 10
26.417288
 20
60.90447
 70
   192
  0
VERTEX
  8
0
 38
-128.110975
 10
32.363781
 20
54.12453
 70
   192
  0
VERTEX
  8
0
 38
-128.110975
 10
37.382673
 20
46.614102
 70
   192
  0
VERTEX
  8
0
 38
-128.110975
 10
41.370955
 20
38.528076
 70
   192
  0
VERTEX
  8
0
 38
-128.110975
 10
44.275802
 20
29.972616
 70
   192
  0
VERTEX
  8
0
 38
-128.110975
 10
46.035092
 20
21.131974
 70
   192
  0
VERTEX
  8
0
 38
-128.110975
 10
46.62692
 20
12.114102
 70
   192
  0
VERTEX
  8
0
 38
-128.110975
 10
46.038414
 20
3.121463
 70
   192
  0
VERTEX
  8
0
 38
-128.110975
 10
44.275802
 20
-5.744412
 70
   192
  0
VERTEX
  8
OBJECT_4_COPY
  6
CONTINUOUS
 62
     7
 10
0.0
 20
0.0
 70
   128
  0
VERTEX
  8
OBJECT_4_COPY
  6
CONTINUOUS
 62
     7
 10
0.0
 20
0.0
 70
   128
  0
VERTEX
  8
OBJECT_4_COPY
  6
CONTINUOUS
 62
     7
 10
0.0
 20
0.0
 70
   128
  0
VERTEX
  8
OBJECT_4_COPY
  6
CONTINUOUS
 62
     7
 10
0.0
 20
0.0
 70
   128
  0
VERTEX
  8
OBJECT_4_COPY
  6
CONTINUOUS
 62
     7
 10
0.0
 20
0.0
 70
   128
  0
VERTEX
  8
OBJECT_4_COPY
  6
CONTINUOUS
 62
     7
 10
0.0
 20
0.0
 70
   128
  0
VERTEX
  8
OBJECT_4_COPY
  6
CONTINUOUS
 62
     7
 10
0.0
 20
0.0
 70
   128
  0
VERTEX
  8
OBJECT_4_COPY
  6
CONTINUOUS
 62
     7
 10
0.0
 20
0.0
 70
   128
  0
VERTEX
  8
OBJECT_4_COPY
  6
CONTINUOUS
 62
     7
 10
0.0
 20
0.0
 70
   128
  0
VERTEX
  8
OBJECT_4_COPY
  6
CONTINUOUS
 62
     7
 10
0.0
 20
0.0
 70
   128
  0
VERTEX
  8
OBJECT_4_COPY
  6
CONTINUOUS
 62
     7
 10
0.0
 20
0.0
 70
   128
  0
VERTEX
  8
OBJECT_4_COPY
  6
CONTINUOUS
 62
     7
 10
0.0
 20
0.0
 70
   128
  0
VERTEX
  8
OBJECT_4_COPY
  6
CONTINUOUS
 62
     7
 10
0.0
 20
0.0
 70
   128
  0
VERTEX
  8
OBJECT_4_COPY
  6
CONTINUOUS
 62
     7
 10
0.0
 20
0.0
 70
   128
  0
VERTEX
  8
OBJECT_4_COPY
  6
CONTINUOUS
 62
     7
 10
0.0
 20
0.0
 70
   128
  0
VERTEX
  8
OBJECT_4_COPY
  6
CONTINUOUS
 62
     7
 10
0.0
 20
0.0
 70
   128
  0
VERTEX
  8
OBJECT_4_COPY
  6
CONTINUOUS
 62
     7
 10
0.0
 20
0.0
 70
   128
  0
VERTEX
  8
OBJECT_4_COPY
  6
CONTINUOUS
 62
     7
 10
0.0
 20
0.0
 70
   128
  0
VERTEX
  8
OBJECT_4_COPY
  6
CONTINUOUS
 62
     7
 10
0.0
 20
0.0
 70
   128
  0
VERTEX
  8
OBJECT_4_COPY
  6
CONTINUOUS
 62
     7
 10
0.0
 20
0.0
 70
   128
  0
VERTEX
  8
OBJECT_4_COPY
  6
CONTINUOUS
 62
     7
 10
0.0
 20
0.0
 70
   128
  0
VERTEX
  8
OBJECT_4_COPY
  6
CONTINUOUS
 62
     7
 10
0.0
 20
0.0
 70
   128
  0
VERTEX
  8
OBJECT_4_COPY
  6
CONTINUOUS
 62
     7
 10
0.0
 20
0.0
 70
   128
  0
VERTEX
  8
OBJECT_4_COPY
  6
CONTINUOUS
 62
     7
 10
0.0
 20
0.0
 70
   128
  0
VERTEX
  8
OBJECT_4_COPY
  6
CONTINUOUS
 62
     7
 10
0.0
 20
0.0
 70
   128
  0
VERTEX
  8
OBJECT_4_COPY
  6
CONTINUOUS
 62
     7
 10
0.0
 20
0.0
 70
   128
  0
VERTEX
  8
OBJECT_4_COPY
  6
CONTINUOUS
 62
     7
 10
0.0
 20
0.0
 70
   128
  0
VERTEX
  8
OBJECT_4_COPY
  6
CONTINUOUS
 62
     7
 10
0.0
 20
0.0
 70
   128
  0
VERTEX
  8
OBJECT_4_COPY
  6
CONTINUOUS
 62
     7
 10
0.0
 20
0.0
 70
   128
  0
VERTEX
  8
OBJECT_4_COPY
  6
CONTINUOUS
 62
     7
 10
0.0
 20
0.0
 70
   128
  0
VERTEX
  8
OBJECT_4_COPY
  6
CONTINUOUS
 62
     7
 10
0.0
 20
0.0
 70
   128
  0
VERTEX
  8
OBJECT_4_COPY
  6
CONTINUOUS
 62
     7
 10
0.0
 20
0.0
 70
   128
  0
VERTEX
  8
OBJECT_4_COPY
  6
CONTINUOUS
 62
     7
 10
0.0
 20
0.0
 70
   128
  0
VERTEX
  8
OBJECT_4_COPY
  6
CONTINUOUS
 62
     7
 10
0.0
 20
0.0
 70
   128
  0
VERTEX
  8
OBJECT_4_COPY
  6
CONTINUOUS
 62
     7
 10
0.0
 20
0.0
 70
   128
  0
VERTEX
  8
OBJECT_4_COPY
  6
CONTINUOUS
 62
     7
 10
0.0
 20
0.0
 70
   128
  0
VERTEX
  8
OBJECT_4_COPY
  6
CONTINUOUS
 62
     7
 10
0.0
 20
0.0
 70
   128
  0
VERTEX
  8
OBJECT_4_COPY
  6
CONTINUOUS
 62
     7
 10
0.0
 20
0.0
 70
   128
  0
VERTEX
  8
OBJECT_4_COPY
  6
CONTINUOUS
 62
     7
 10
0.0
 20
0.0
 70
   128
  0
VERTEX
  8
OBJECT_4_COPY
  6
CONTINUOUS
 62
     7
 10
0.0
 20
0.0
 70
   128
  0
VERTEX
  8
OBJECT_4_COPY
  6
CONTINUOUS
 62
     7
 10
0.0
 20
0.0
 70
   128
  0
VERTEX
  8
OBJECT_4_COPY
  6
CONTINUOUS
 62
     7
 10
0.0
 20
0.0
 70
   128
  0
VERTEX
  8
OBJECT_4_COPY
  6
CONTINUOUS
 62
     7
 10
0.0
 20
0.0
 70
   128
  0
VERTEX
  8
OBJECT_4_COPY
  6
CONTINUOUS
 62
     7
 10
0.0
 20
0.0
 70
   128
  0
VERTEX
  8
OBJECT_4_COPY
  6
CONTINUOUS
 62
     7
 10
0.0
 20
0.0
 70
   128
  0
VERTEX
  8
OBJECT_4_COPY
  6
CONTINUOUS
 62
     7
 10
0.0
 20
0.0
 70
   128
  0
VERTEX
  8
OBJECT_4_COPY
  6
CONTINUOUS
 62
     7
 10
0.0
 20
0.0
 70
   128
  0
VERTEX
  8
OBJECT_4_COPY
  6
CONTINUOUS
 62
     7
 10
0.0
 20
0.0
 70
   128
  0
VERTEX
  8
OBJECT_4_COPY
  6
CONTINUOUS
 62
     7
 10
0.0
 20
0.0
 70
   128
  0
VERTEX
  8
OBJECT_4_COPY
  6
CONTINUOUS
 62
     7
 10
0.0
 20
0.0
 70
   128
  0
VERTEX
  8
OBJECT_4_COPY
  6
CONTINUOUS
 62
     7
 10
0.0
 20
0.0
 70
   128
  0
VERTEX
  8
OBJECT_4_COPY
  6
CONTINUOUS
 62
     7
 10
0.0
 20
0.0
 70
   128
  0
VERTEX
  8
OBJECT_4_COPY
  6
CONTINUOUS
 62
     7
 10
0.0
 20
0.0
 70
   128
  0
VERTEX
  8
OBJECT_4_COPY
  6
CONTINUOUS
 62
     7
 10
0.0
 20
0.0
 70
   128
  0
VERTEX
  8
OBJECT_4_COPY
  6
CONTINUOUS
 62
     7
 10
0.0
 20
0.0
 70
   128
  0
VERTEX
  8
OBJECT_4_COPY
  6
CONTINUOUS
 62
     7
 10
0.0
 20
0.0
 70
   128
  0
VERTEX
  8
OBJECT_4_COPY
  6
CONTINUOUS
 62
     7
 10
0.0
 20
0.0
 70
   128
  0
VERTEX
  8
OBJECT_4_COPY
  6
CONTINUOUS
 62
     7
 10
0.0
 20
0.0
 70
   128
  0
VERTEX
  8
OBJECT_4_COPY
  6
CONTINUOUS
 62
     7
 10
0.0
 20
0.0
 70
   128
  0
VERTEX
  8
OBJECT_4_COPY
  6
CONTINUOUS
 62
     7
 10
0.0
 20
0.0
 70
   128
  0
VERTEX
  8
OBJECT_4_COPY
  6
CONTINUOUS
 62
     7
 10
0.0
 20
0.0
 70
   128
  0
VERTEX
  8
OBJECT_4_COPY
  6
CONTINUOUS
 62
     7
 10
0.0
 20
0.0
 70
   128
  0
VERTEX
  8
OBJECT_4_COPY
  6
CONTINUOUS
 62
     7
 10
0.0
 20
0.0
 70
   128
  0
VERTEX
  8
OBJECT_4_COPY
  6
CONTINUOUS
 62
     7
 10
0.0
 20
0.0
 70
   128
  0
VERTEX
  8
OBJECT_4_COPY
  6
CONTINUOUS
 62
     7
 10
0.0
 20
0.0
 70
   128
  0
VERTEX
  8
OBJECT_4_COPY
  6
CONTINUOUS
 62
     7
 10
0.0
 20
0.0
 70
   128
  0
VERTEX
  8
OBJECT_4_COPY
  6
CONTINUOUS
 62
     7
 10
0.0
 20
0.0
 70
   128
  0
VERTEX
  8
OBJECT_4_COPY
  6
CONTINUOUS
 62
     7
 10
0.0
 20
0.0
 70
   128
  0
VERTEX
  8
OBJECT_4_COPY
  6
CONTINUOUS
 62
     7
 10
0.0
 20
0.0
 70
   128
  0
VERTEX
  8
OBJECT_4_COPY
  6
CONTINUOUS
 62
     7
 10
0.0
 20
0.0
 70
   128
  0
VERTEX
  8
OBJECT_4_COPY
  6
CONTINUOUS
 62
     7
 10
0.0
 20
0.0
 70
   128
  0
VERTEX
  8
OBJECT_4_COPY
  6
CONTINUOUS
 62
     7
 10
0.0
 20
0.0
 70
   128
  0
VERTEX
  8
OBJECT_4_COPY
  6
CONTINUOUS
 62
     7
 10
0.0
 20
0.0
 70
   128
  0
VERTEX
  8
OBJECT_4_COPY
  6
CONTINUOUS
 62
     7
 10
0.0
 20
0.0
 70
   128
  0
VERTEX
  8
OBJECT_4_COPY
  6
CONTINUOUS
 62
     7
 10
0.0
 20
0.0
 70
   128
  0
VERTEX
  8
OBJECT_4_COPY
  6
CONTINUOUS
 62
     7
 10
0.0
 20
0.0
 70
   128
  0
VERTEX
  8
OBJECT_4_COPY
  6
CONTINUOUS
 62
     7
 10
0.0
 20
0.0
 70
   128
  0
VERTEX
  8
OBJECT_4_COPY
  6
CONTINUOUS
 62
     7
 10
0.0
 20
0.0
 70
   128
  0
VERTEX
  8
OBJECT_4_COPY
  6
CONTINUOUS
 62
     7
 10
0.0
 20
0.0
 70
   128
  0
VERTEX
  8
OBJECT_4_COPY
  6
CONTINUOUS
 62
     7
 10
0.0
 20
0.0
 70
   128
  0
SEQEND
  8
OBJECT_4_COPY
  6
CONTINUOUS
 62
     7
  0
POLYLINE
  8
OBJECT_4_COPY
  6
CONTINUOUS
 62
     7
 66
     1
 70
    64
  0
VERTEX
  8
0
 38
-39.019949
 10
-13.519246
 20
-8.133864
 70
   192
  0
VERTEX
  8
0
 38
-39.019949
 10
-18.750886
 20
-6.442688
 70
   192
  0
VERTEX
  8
0
 38
-39.019949
 10
-23.366555
 20
-3.45509
 70
   192
  0
VERTEX
  8
0
 38
-39.019949
 10
-27.0517
 20
0.625331
 70
   192
  0
VERTEX
  8
0
 38
-39.019949
 10
-29.555187
 20
5.520501
 70
   192
  0
VERTEX
  8
0
 38
-39.019949
 10
-30.706406
 20
10.896823
 70
   192
  0
VERTEX
  8
0
 38
-39.019949
 10
-30.426904
 20
16.387908
 70
   192
  0
VERTEX
  8
0
 38
-39.019949
 10
-28.735728
 20
21.619548
 70
   192
  0
VERTEX
  8
0
 38
-39.019949
 10
-25.74813
 20
26.235216
 70
   192
  0
VERTEX
  8
0
 38
-39.019949
 10
-21.667709
 20
29.920362
 70
   192
  0
VERTEX
  8
0
 38
-39.019949
 10
-16.772538
 20
32.423849
 70
   192
  0
VERTEX
  8
0
 38
-39.019949
 10
-11.396217
 20
33.575068
 70
   192
  0
VERTEX
  8
0
 38
-39.019949
 10
-5.905132
 20
33.295566
 70
   192
  0
VERTEX
  8
0
 38
-39.019949
 10
-0.673492
 20
31.60439
 70
   192
  0
VERTEX
  8
0
 38
-39.019949
 10
3.942176
 20
28.616792
 70
   192
  0
VERTEX
  8
0
 38
-39.019949
 10
7.627322
 20
24.536371
 70
   192
  0
VERTEX
  8
0
 38
-39.019949
 10
10.130809
 20
19.6412
 70
   192
  0
VERTEX
  8
0
 38
-39.019949
 10
11.282028
 20
14.264879
 70
   192
  0
VERTEX
  8
0
 38
-39.019949
 10
11.002526
 20
8.773794
 70
   192
  0
VERTEX
  8
0
 38
-39.019949
 10
9.31135
 20
3.542154
 70
   192
  0
VERTEX
  8
0
 38
-39.019949
 10
6.323752
 20
-1.073515
 70
   192
  0
VERTEX
  8
0
 38
-39.019949
 10
2.243331
 20
-4.75866
 70
   192
  0
VERTEX
  8
0
 38
-39.019949
 10
-2.65184
 20
-7.262147
 70
   192
  0
VERTEX
  8
0
 38
-39.019949
 10
-8.028161
 20
-8.413366
 70
   192
  0
VERTEX
  8
0
 38
-39.019949
 10
-91.884663
 20
-16.505724
 70
   192
  0
VERTEX
  8
0
 38
-39.019949
 10
48.52251
 20
-16.505724
 70
   192
  0
VERTEX
  8
0
 38
-39.019949
 10
-94.125514
 20
-9.526692
 70
   192
  0
VERTEX
  8
0
 38
-39.019949
 10
-96.289822
 20
2.233909
 70
   192
  0
VERTEX
  8
0
 38
-39.019949
 10
-96.681077
 20
9.884736
 70
   192
  0
VERTEX
  8
0
 38
-39.019949
 10
-95.779699
 20
21.477585
 70
   192
  0
VERTEX
  8
0
 38
-39.019949
 10
-94.125514
 20
29.296164
 70
   192
  0
VERTEX
  8
0
 38
-39.019949
 10
-90.387903
 20
39.957515
 70
   192
  0
VERTEX
  8
0
 38
-39.019949
 10
-86.632982
 20
47.384736
 70
   192
  0
VERTEX
  8
0
 38
-39.019949
 10
-80.469649
 20
56.456227
 70
   192
  0
VERTEX
  8
0
 38
-39.019949
 10
-74.714085
 20
62.917745
 70
   192
  0
VERTEX
  8
0
 38
-39.019949
 10
-66.678359
 20
69.886774
 70
   192
  0
VERTEX
  8
0
 38
-39.019949
 10
-59.181077
 20
74.836641
 70
   192
  0
VERTEX
  8
0
 38
-39.019949
 10
-49.922614
 20
79.364342
 70
   192
  0
VERTEX
  8
0
 38
-39.019949
 10
-41.092505
 20
82.329173
 70
   192
  0
VERTEX
  8
0
 38
-39.019949
 10
-31.306294
 20
84.26454
 70
   192
  0
VERTEX
  8
0
 38
-39.019949
 10
-21.681077
 20
84.884736
 70
   192
  0
VERTEX
  8
0
 38
-39.019949
 10
-12.055859
 20
84.26454
 70
   192
  0
VERTEX
  8
0
 38
-39.019949
 10
-2.269648
 20
82.329173
 70
   192
  0
VERTEX
  8
0
 38
-39.019949
 10
6.56046
 20
79.364342
 70
   192
  0
VERTEX
  8
0
 38
-39.019949
 10
15.818923
 20
74.836641
 70
   192
  0
VERTEX
  8
0
 38
-39.019949
 10
23.316206
 20
69.886774
 70
   192
  0
VERTEX
  8
0
 38
-39.019949
 10
31.351932
 20
62.917745
 70
   192
  0
VERTEX
  8
0
 38
-39.019949
 10
37.107496
 20
56.456227
 70
   192
  0
VERTEX
  8
0
 38
-39.019949
 10
43.270829
 20
47.384736
 70
   192
  0
VERTEX
  8
0
 38
-39.019949
 10
47.02575
 20
39.957515
 70
   192
  0
VERTEX
  8
0
 38
-39.019949
 10
50.76336
 20
29.296164
 70
   192
  0
VERTEX
  8
0
 38
-39.019949
 10
52.417546
 20
21.477585
 70
   192
  0
VERTEX
  8
0
 38
-39.019949
 10
53.318923
 20
9.884736
 70
   192
  0
VERTEX
  8
0
 38
-39.019949
 10
52.927669
 20
2.233909
 70
   192
  0
VERTEX
  8
0
 38
-39.019949
 10
50.76336
 20
-9.526692
 70
   192
  0
VERTEX
  8
0
 38
-135.019949
 10
48.52251
 20
-16.505724
 70
   192
  0
VERTEX
  8
0
 38
-135.019949
 10
-91.884663
 20
-16.505724
 70
   192
  0
VERTEX
  8
0
 38
-135.019949
 10
50.76336
 20
-9.526692
 70
   192
  0
VERTEX
  8
0
 38
-135.019949
 10
52.927669
 20
2.233909
 70
   192
  0
VERTEX
  8
0
 38
-135.019949
 10
53.318923
 20
9.884736
 70
   192
  0
VERTEX
  8
0
 38
-135.019949
 10
52.417546
 20
21.477585
 70
   192
  0
VERTEX
  8
0
 38
-135.019949
 10
50.76336
 20
29.296164
 70
   192
  0
VERTEX
  8
0
 38
-135.019949
 10
47.02575
 20
39.957515
 70
   192
  0
VERTEX
  8
0
 38
-135.019949
 10
43.270829
 20
47.384736
 70
   192
  0
VERTEX
  8
0
 38
-135.019949
 10
37.107496
 20
56.456227
 70
   192
  0
VERTEX
  8
0
 38
-135.019949
 10
31.351932
 20
62.917745
 70
   192
  0
VERTEX
  8
0
 38
-135.019949
 10
23.316206
 20
69.886774
 70
   192
  0
VERTEX
  8
0
 38
-135.019949
 10
15.818923
 20
74.836641
 70
   192
  0
VERTEX
  8
0
 38
-135.019949
 10
6.56046
 20
79.364342
 70
   192
  0
VERTEX
  8
0
 38
-135.019949
 10
-2.269648
 20
82.329173
 70
   192
  0
VERTEX
  8
0
 38
-135.019949
 10
-12.055859
 20
84.26454
 70
   192
  0
VERTEX
  8
0
 38
-135.019949
 10
-21.681077
 20
84.884736
 70
   192
  0
VERTEX
  8
0
 38
-135.019949
 10
-31.306294
 20
84.26454
 70
   192
  0
VERTEX
  8
0
 38
-135.019949
 10
-41.092505
 20
82.329173
 70
   192
  0
VERTEX
  8
0
 38
-135.019949
 10
-49.922614
 20
79.364342
 70
   192
  0
VERTEX
  8
0
 38
-135.019949
 10
-59.181077
 20
74.836641
 70
   192
  0
VERTEX
  8
0
 38
-135.019949
 10
-66.678359
 20
69.886774
 70
   192
  0
VERTEX
  8
0
 38
-135.019949
 10
-74.714085
 20
62.917745
 70
   192
  0
VERTEX
  8
0
 38
-135.019949
 10
-80.469649
 20
56.456227
 70
   192
  0
VERTEX
  8
0
 38
-135.019949
 10
-86.632982
 20
47.384736
 70
   192
  0
VERTEX
  8
0
 38
-135.019949
 10
-90.387903
 20
39.957515
 70
   192
  0
VERTEX
  8
0
 38
-135.019949
 10
-94.125514
 20
29.296164
 70
   192
  0
VERTEX
  8
0
 38
-135.019949
 10
-95.779699
 20
21.477585
 70
   192
  0
VERTEX
  8
0
 38
-135.019949
 10
-96.681077
 20
9.884736
 70
   192
  0
VERTEX
  8
0
 38
-135.019949
 10
-96.289822
 20
2.233909
 70
   192
  0
VERTEX
  8
0
 38
-135.019949
 10
-94.125514
 20
-9.526692
 70
   192
  0
VERTEX
  8
OBJECT_4_COPY
  6
CONTINUOUS
 62
     7
 10
0.0
 20
0.0
 70
   128
  0
VERTEX
  8
OBJECT_4_COPY
  6
CONTINUOUS
 62
     7
 10
0.0
 20
0.0
 70
   128
  0
VERTEX
  8
OBJECT_4_COPY
  6
CONTINUOUS
 62
     7
 10
0.0
 20
0.0
 70
   128
  0
VERTEX
  8
OBJECT_4_COPY
  6
CONTINUOUS
 62
     7
 10
0.0
 20
0.0
 70
   128
  0
VERTEX
  8
OBJECT_4_COPY
  6
CONTINUOUS
 62
     7
 10
0.0
 20
0.0
 70
   128
  0
VERTEX
  8
OBJECT_4_COPY
  6
CONTINUOUS
 62
     7
 10
0.0
 20
0.0
 70
   128
  0
VERTEX
  8
OBJECT_4_COPY
  6
CONTINUOUS
 62
     7
 10
0.0
 20
0.0
 70
   128
  0
VERTEX
  8
OBJECT_4_COPY
  6
CONTINUOUS
 62
     7
 10
0.0
 20
0.0
 70
   128
  0
VERTEX
  8
OBJECT_4_COPY
  6
CONTINUOUS
 62
     7
 10
0.0
 20
0.0
 70
   128
  0
VERTEX
  8
OBJECT_4_COPY
  6
CONTINUOUS
 62
     7
 10
0.0
 20
0.0
 70
   128
  0
VERTEX
  8
OBJECT_4_COPY
  6
CONTINUOUS
 62
     7
 10
0.0
 20
0.0
 70
   128
  0
VERTEX
  8
OBJECT_4_COPY
  6
CONTINUOUS
 62
     7
 10
0.0
 20
0.0
 70
   128
  0
VERTEX
  8
OBJECT_4_COPY
  6
CONTINUOUS
 62
     7
 10
0.0
 20
0.0
 70
   128
  0
VERTEX
  8
OBJECT_4_COPY
  6
CONTINUOUS
 62
     7
 10
0.0
 20
0.0
 70
   128
  0
VERTEX
  8
OBJECT_4_COPY
  6
CONTINUOUS
 62
     7
 10
0.0
 20
0.0
 70
   128
  0
VERTEX
  8
OBJECT_4_COPY
  6
CONTINUOUS
 62
     7
 10
0.0
 20
0.0
 70
   128
  0
VERTEX
  8
OBJECT_4_COPY
  6
CONTINUOUS
 62
     7
 10
0.0
 20
0.0
 70
   128
  0
VERTEX
  8
OBJECT_4_COPY
  6
CONTINUOUS
 62
     7
 10
0.0
 20
0.0
 70
   128
  0
VERTEX
  8
OBJECT_4_COPY
  6
CONTINUOUS
 62
     7
 10
0.0
 20
0.0
 70
   128
  0
VERTEX
  8
OBJECT_4_COPY
  6
CONTINUOUS
 62
     7
 10
0.0
 20
0.0
 70
   128
  0
VERTEX
  8
OBJECT_4_COPY
  6
CONTINUOUS
 62
     7
 10
0.0
 20
0.0
 70
   128
  0
VERTEX
  8
OBJECT_4_COPY
  6
CONTINUOUS
 62
     7
 10
0.0
 20
0.0
 70
   128
  0
VERTEX
  8
OBJECT_4_COPY
  6
CONTINUOUS
 62
     7
 10
0.0
 20
0.0
 70
   128
  0
VERTEX
  8
OBJECT_4_COPY
  6
CONTINUOUS
 62
     7
 10
0.0
 20
0.0
 70
   128
  0
VERTEX
  8
OBJECT_4_COPY
  6
CONTINUOUS
 62
     7
 10
0.0
 20
0.0
 70
   128
  0
VERTEX
  8
OBJECT_4_COPY
  6
CONTINUOUS
 62
     7
 10
0.0
 20
0.0
 70
   128
  0
VERTEX
  8
OBJECT_4_COPY
  6
CONTINUOUS
 62
     7
 10
0.0
 20
0.0
 70
   128
  0
VERTEX
  8
OBJECT_4_COPY
  6
CONTINUOUS
 62
     7
 10
0.0
 20
0.0
 70
   128
  0
VERTEX
  8
OBJECT_4_COPY
  6
CONTINUOUS
 62
     7
 10
0.0
 20
0.0
 70
   128
  0
VERTEX
  8
OBJECT_4_COPY
  6
CONTINUOUS
 62
     7
 10
0.0
 20
0.0
 70
   128
  0
VERTEX
  8
OBJECT_4_COPY
  6
CONTINUOUS
 62
     7
 10
0.0
 20
0.0
 70
   128
  0
VERTEX
  8
OBJECT_4_COPY
  6
CONTINUOUS
 62
     7
 10
0.0
 20
0.0
 70
   128
  0
VERTEX
  8
OBJECT_4_COPY
  6
CONTINUOUS
 62
     7
 10
0.0
 20
0.0
 70
   128
  0
VERTEX
  8
OBJECT_4_COPY
  6
CONTINUOUS
 62
     7
 10
0.0
 20
0.0
 70
   128
  0
VERTEX
  8
OBJECT_4_COPY
  6
CONTINUOUS
 62
     7
 10
0.0
 20
0.0
 70
   128
  0
VERTEX
  8
OBJECT_4_COPY
  6
CONTINUOUS
 62
     7
 10
0.0
 20
0.0
 70
   128
  0
VERTEX
  8
OBJECT_4_COPY
  6
CONTINUOUS
 62
     7
 10
0.0
 20
0.0
 70
   128
  0
VERTEX
  8
OBJECT_4_COPY
  6
CONTINUOUS
 62
     7
 10
0.0
 20
0.0
 70
   128
  0
VERTEX
  8
OBJECT_4_COPY
  6
CONTINUOUS
 62
     7
 10
0.0
 20
0.0
 70
   128
  0
VERTEX
  8
OBJECT_4_COPY
  6
CONTINUOUS
 62
     7
 10
0.0
 20
0.0
 70
   128
  0
VERTEX
  8
OBJECT_4_COPY
  6
CONTINUOUS
 62
     7
 10
0.0
 20
0.0
 70
   128
  0
VERTEX
  8
OBJECT_4_COPY
  6
CONTINUOUS
 62
     7
 10
0.0
 20
0.0
 70
   128
  0
VERTEX
  8
OBJECT_4_COPY
  6
CONTINUOUS
 62
     7
 10
0.0
 20
0.0
 70
   128
  0
VERTEX
  8
OBJECT_4_COPY
  6
CONTINUOUS
 62
     7
 10
0.0
 20
0.0
 70
   128
  0
VERTEX
  8
OBJECT_4_COPY
  6
CONTINUOUS
 62
     7
 10
0.0
 20
0.0
 70
   128
  0
VERTEX
  8
OBJECT_4_COPY
  6
CONTINUOUS
 62
     7
 10
0.0
 20
0.0
 70
   128
  0
VERTEX
  8
OBJECT_4_COPY
  6
CONTINUOUS
 62
     7
 10
0.0
 20
0.0
 70
   128
  0
VERTEX
  8
OBJECT_4_COPY
  6
CONTINUOUS
 62
     7
 10
0.0
 20
0.0
 70
   128
  0
VERTEX
  8
OBJECT_4_COPY
  6
CONTINUOUS
 62
     7
 10
0.0
 20
0.0
 70
   128
  0
VERTEX
  8
OBJECT_4_COPY
  6
CONTINUOUS
 62
     7
 10
0.0
 20
0.0
 70
   128
  0
VERTEX
  8
OBJECT_4_COPY
  6
CONTINUOUS
 62
     7
 10
0.0
 20
0.0
 70
   128
  0
VERTEX
  8
OBJECT_4_COPY
  6
CONTINUOUS
 62
     7
 10
0.0
 20
0.0
 70
   128
  0
VERTEX
  8
OBJECT_4_COPY
  6
CONTINUOUS
 62
     7
 10
0.0
 20
0.0
 70
   128
  0
VERTEX
  8
OBJECT_4_COPY
  6
CONTINUOUS
 62
     7
 10
0.0
 20
0.0
 70
   128
  0
VERTEX
  8
OBJECT_4_COPY
  6
CONTINUOUS
 62
     7
 10
0.0
 20
0.0
 70
   128
  0
VERTEX
  8
OBJECT_4_COPY
  6
CONTINUOUS
 62
     7
 10
0.0
 20
0.0
 70
   128
  0
VERTEX
  8
OBJECT_4_COPY
  6
CONTINUOUS
 62
     7
 10
0.0
 20
0.0
 70
   128
  0
VERTEX
  8
OBJECT_4_COPY
  6
CONTINUOUS
 62
     7
 10
0.0
 20
0.0
 70
   128
  0
VERTEX
  8
OBJECT_4_COPY
  6
CONTINUOUS
 62
     7
 10
0.0
 20
0.0
 70
   128
  0
VERTEX
  8
OBJECT_4_COPY
  6
CONTINUOUS
 62
     7
 10
0.0
 20
0.0
 70
   128
  0
VERTEX
  8
OBJECT_4_COPY
  6
CONTINUOUS
 62
     7
 10
0.0
 20
0.0
 70
   128
  0
VERTEX
  8
OBJECT_4_COPY
  6
CONTINUOUS
 62
     7
 10
0.0
 20
0.0
 70
   128
  0
VERTEX
  8
OBJECT_4_COPY
  6
CONTINUOUS
 62
     7
 10
0.0
 20
0.0
 70
   128
  0
VERTEX
  8
OBJECT_4_COPY
  6
CONTINUOUS
 62
     7
 10
0.0
 20
0.0
 70
   128
  0
VERTEX
  8
OBJECT_4_COPY
  6
CONTINUOUS
 62
     7
 10
0.0
 20
0.0
 70
   128
  0
VERTEX
  8
OBJECT_4_COPY
  6
CONTINUOUS
 62
     7
 10
0.0
 20
0.0
 70
   128
  0
VERTEX
  8
OBJECT_4_COPY
  6
CONTINUOUS
 62
     7
 10
0.0
 20
0.0
 70
   128
  0
VERTEX
  8
OBJECT_4_COPY
  6
CONTINUOUS
 62
     7
 10
0.0
 20
0.0
 70
   128
  0
VERTEX
  8
OBJECT_4_COPY
  6
CONTINUOUS
 62
     7
 10
0.0
 20
0.0
 70
   128
  0
VERTEX
  8
OBJECT_4_COPY
  6
CONTINUOUS
 62
     7
 10
0.0
 20
0.0
 70
   128
  0
VERTEX
  8
OBJECT_4_COPY
  6
CONTINUOUS
 62
     7
 10
0.0
 20
0.0
 70
   128
  0
VERTEX
  8
OBJECT_4_COPY
  6
CONTINUOUS
 62
     7
 10
0.0
 20
0.0
 70
   128
  0
VERTEX
  8
OBJECT_4_COPY
  6
CONTINUOUS
 62
     7
 10
0.0
 20
0.0
 70
   128
  0
VERTEX
  8
OBJECT_4_COPY
  6
CONTINUOUS
 62
     7
 10
0.0
 20
0.0
 70
   128
  0
VERTEX
  8
OBJECT_4_COPY
  6
CONTINUOUS
 62
     7
 10
0.0
 20
0.0
 70
   128
  0
VERTEX
  8
OBJECT_4_COPY
  6
CONTINUOUS
 62
     7
 10
0.0
 20
0.0
 70
   128
  0
VERTEX
  8
OBJECT_4_COPY
  6
CONTINUOUS
 62
     7
 10
0.0
 20
0.0
 70
   128
  0
VERTEX
  8
OBJECT_4_COPY
  6
CONTINUOUS
 62
     7
 10
0.0
 20
0.0
 70
   128
  0
VERTEX
  8
OBJECT_4_COPY
  6
CONTINUOUS
 62
     7
 10
0.0
 20
0.0
 70
   128
  0
VERTEX
  8
OBJECT_4_COPY
  6
CONTINUOUS
 62
     7
 10
0.0
 20
0.0
 70
   128
  0
VERTEX
  8
OBJECT_4_COPY
  6
CONTINUOUS
 62
     7
 10
0.0
 20
0.0
 70
   128
  0
SEQEND
  8
OBJECT_4_COPY
  6
CONTINUOUS
 62
     7
  0
POLYLINE
  8
OBJECT_100_COPY
  6
CONTINUOUS
 62
     7
 66
     1
 70
    64
  0
VERTEX
  8
0
 38
144.0
 10
61.369085
 20
0.0
 70
   192
  0
VERTEX
  8
0
 38
139.2
 10
61.369085
 20
0.0
 70
   192
  0
VERTEX
  8
0
 38
139.2
 10
109.369085
 20
0.0
 70
   192
  0
VERTEX
  8
0
 38
144.0
 10
109.369085
 20
0.0
 70
   192
  0
VERTEX
  8
0
 38
144.0
 10
61.369085
 20
8.0
 70
   192
  0
VERTEX
  8
0
 38
139.2
 10
61.369085
 20
8.0
 70
   192
  0
VERTEX
  8
0
 38
139.2
 10
109.369085
 20
8.0
 70
   192
  0
VERTEX
  8
0
 38
144.0
 10
109.369085
 20
8.0
 70
   192
  0
VERTEX
  8
0
 38
139.2
 10
61.369085
 20
0.0
 70
   192
  0
VERTEX
  8
0
 38
134.4
 10
61.369085
 20
0.0
 70
   192
  0
VERTEX
  8
0
 38
134.4
 10
109.369085
 20
0.0
 70
   192
  0
VERTEX
  8
0
 38
139.2
 10
109.369085
 20
0.0
 70
   192
  0
VERTEX
  8
0
 38
139.2
 10
61.369085
 20
8.0
 70
   192
  0
VERTEX
  8
0
 38
134.4
 10
61.369085
 20
8.0
 70
   192
  0
VERTEX
  8
0
 38
134.4
 10
109.369085
 20
8.0
 70
   192
  0
VERTEX
  8
0
 38
139.2
 10
109.369085
 20
8.0
 70
   192
  0
VERTEX
  8
0
 38
134.4
 10
61.369085
 20
0.0
 70
   192
  0
VERTEX
  8
0
 38
129.6
 10
61.369085
 20
0.0
 70
   192
  0
VERTEX
  8
0
 38
129.6
 10
109.369085
 20
0.0
 70
   192
  0
VERTEX
  8
0
 38
134.4
 10
109.369085
 20
0.0
 70
   192
  0
VERTEX
  8
0
 38
134.4
 10
61.369085
 20
8.0
 70
   192
  0
VERTEX
  8
0
 38
129.6
 10
61.369085
 20
8.0
 70
   192
  0
VERTEX
  8
0
 38
129.6
 10
109.369085
 20
8.0
 70
   192
  0
VERTEX
  8
0
 38
134.4
 10
109.369085
 20
8.0
 70
   192
  0
VERTEX
  8
0
 38
129.6
 10
61.369085
 20
0.0
 70
   192
  0
VERTEX
  8
0
 38
124.8
 10
61.369085
 20
0.0
 70
   192
  0
VERTEX
  8
0
 38
124.8
 10
109.369085
 20
0.0
 70
   192
  0
VERTEX
  8
0
 38
129.6
 10
109.369085
 20
0.0
 70
   192
  0
VERTEX
  8
0
 38
129.6
 10
61.369085
 20
8.0
 70
   192
  0
VERTEX
  8
0
 38
124.8
 10
61.369085
 20
8.0
 70
   192
  0
VERTEX
  8
0
 38
124.8
 10
109.369085
 20
8.0
 70
   192
  0
VERTEX
  8
0
 38
129.6
 10
109.369085
 20
8.0
 70
   192
  0
VERTEX
  8
0
 38
124.8
 10
61.369085
 20
0.0
 70
   192
  0
VERTEX
  8
0
 38
120.0
 10
61.369085
 20
0.0
 70
   192
  0
VERTEX
  8
0
 38
120.0
 10
109.369085
 20
0.0
 70
   192
  0
VERTEX
  8
0
 38
124.8
 10
109.369085
 20
0.0
 70
   192
  0
VERTEX
  8
0
 38
124.8
 10
61.369085
 20
8.0
 70
   192
  0
VERTEX
  8
0
 38
120.0
 10
61.369085
 20
8.0
 70
   192
  0
VERTEX
  8
0
 38
120.0
 10
109.369085
 20
8.0
 70
   192
  0
VERTEX
  8
0
 38
124.8
 10
109.369085
 20
8.0
 70
   192
  0
VERTEX
  8
OBJECT_100_COPY
  6
CONTINUOUS
 62
     7
 10
0.0
 20
0.0
 70
   128
  0
VERTEX
  8
OBJECT_100_COPY
  6
CONTINUOUS
 62
     7
 10
0.0
 20
0.0
 70
   128
  0
VERTEX
  8
OBJECT_100_COPY
  6
CONTINUOUS
 62
     7
 10
0.0
 20
0.0
 70
   128
  0
VERTEX
  8
OBJECT_100_COPY
  6
CONTINUOUS
 62
     7
 10
0.0
 20
0.0
 70
   128
  0
VERTEX
  8
OBJECT_100_COPY
  6
CONTINUOUS
 62
     7
 10
0.0
 20
0.0
 70
   128
  0
VERTEX
  8
OBJECT_100_COPY
  6
CONTINUOUS
 62
     7
 10
0.0
 20
0.0
 70
   128
  0
VERTEX
  8
OBJECT_100_COPY
  6
CONTINUOUS
 62
     7
 10
0.0
 20
0.0
 70
   128
  0
VERTEX
  8
OBJECT_100_COPY
  6
CONTINUOUS
 62
     7
 10
0.0
 20
0.0
 70
   128
  0
VERTEX
  8
OBJECT_100_COPY
  6
CONTINUOUS
 62
     7
 10
0.0
 20
0.0
 70
   128
  0
VERTEX
  8
OBJECT_100_COPY
  6
CONTINUOUS
 62
     7
 10
0.0
 20
0.0
 70
   128
  0
VERTEX
  8
OBJECT_100_COPY
  6
CONTINUOUS
 62
     7
 10
0.0
 20
0.0
 70
   128
  0
VERTEX
  8
OBJECT_100_COPY
  6
CONTINUOUS
 62
     7
 10
0.0
 20
0.0
 70
   128
  0
VERTEX
  8
OBJECT_100_COPY
  6
CONTINUOUS
 62
     7
 10
0.0
 20
0.0
 70
   128
  0
VERTEX
  8
OBJECT_100_COPY
  6
CONTINUOUS
 62
     7
 10
0.0
 20
0.0
 70
   128
  0
VERTEX
  8
OBJECT_100_COPY
  6
CONTINUOUS
 62
     7
 10
0.0
 20
0.0
 70
   128
  0
VERTEX
  8
OBJECT_100_COPY
  6
CONTINUOUS
 62
     7
 10
0.0
 20
0.0
 70
   128
  0
VERTEX
  8
OBJECT_100_COPY
  6
CONTINUOUS
 62
     7
 10
0.0
 20
0.0
 70
   128
  0
VERTEX
  8
OBJECT_100_COPY
  6
CONTINUOUS
 62
     7
 10
0.0
 20
0.0
 70
   128
  0
VERTEX
  8
OBJECT_100_COPY
  6
CONTINUOUS
 62
     7
 10
0.0
 20
0.0
 70
   128
  0
VERTEX
  8
OBJECT_100_COPY
  6
CONTINUOUS
 62
     7
 10
0.0
 20
0.0
 70
   128
  0
VERTEX
  8
OBJECT_100_COPY
  6
CONTINUOUS
 62
     7
 10
0.0
 20
0.0
 70
   128
  0
VERTEX
  8
OBJECT_100_COPY
  6
CONTINUOUS
 62
     7
 10
0.0
 20
0.0
 70
   128
  0
VERTEX
  8
OBJECT_100_COPY
  6
CONTINUOUS
 62
     7
 10
0.0
 20
0.0
 70
   128
  0
VERTEX
  8
OBJECT_100_COPY
  6
CONTINUOUS
 62
     7
 10
0.0
 20
0.0
 70
   128
  0
VERTEX
  8
OBJECT_100_COPY
  6
CONTINUOUS
 62
     7
 10
0.0
 20
0.0
 70
   128
  0
VERTEX
  8
OBJECT_100_COPY
  6
CONTINUOUS
 62
     7
 10
0.0
 20
0.0
 70
   128
  0
VERTEX
  8
OBJECT_100_COPY
  6
CONTINUOUS
 62
     7
 10
0.0
 20
0.0
 70
   128
  0
VERTEX
  8
OBJECT_100_COPY
  6
CONTINUOUS
 62
     7
 10
0.0
 20
0.0
 70
   128
  0
VERTEX
  8
OBJECT_100_COPY
  6
CONTINUOUS
 62
     7
 10
0.0
 20
0.0
 70
   128
  0
VERTEX
  8
OBJECT_100_COPY
  6
CONTINUOUS
 62
     7
 10
0.0
 20
0.0
 70
   128
  0
SEQEND
  8
OBJECT_100_COPY
  6
CONTINUOUS
 62
     7
  0
POLYLINE
  8
OBJECT_1
  6
CONTINUOUS
 62
     7
 66
     1
 70
    64
  0
VERTEX
  8
0
 38
-0.066873
 10
111.593645
 20
54.656536
 70
   192
  0
VERTEX
  8
0
 38
-0.066873
 10
111.593645
 20
-43.448727
 70
   192
  0
VERTEX
  8
0
 38
-0.066873
 10
-91.396868
 20
-43.448727
 70
   192
  0
VERTEX
  8
0
 38
-0.066873
 10
-91.396868
 20
54.656536
 70
   192
  0
VERTEX
  8
0
 38
-0.066873
 10
-2.65184
 20
-7.262147
 70
   192
  0
VERTEX
  8
0
 38
-0.066873
 10
2.243331
 20
-4.75866
 70
   192
  0
VERTEX
  8
0
 38
-0.066873
 10
6.323752
 20
-1.073515
 70
   192
  0
VERTEX
  8
0
 38
-0.066873
 10
9.31135
 20
3.542154
 70
   192
  0
VERTEX
  8
0
 38
-0.066873
 10
11.002526
 20
8.773794
 70
   192
  0
VERTEX
  8
0
 38
-0.066873
 10
11.282028
 20
14.264879
 70
   192
  0
VERTEX
  8
0
 38
-0.066873
 10
10.130809
 20
19.6412
 70
   192
  0
VERTEX
  8
0
 38
-0.066873
 10
7.627322
 20
24.536371
 70
   192
  0
VERTEX
  8
0
 38
-0.066873
 10
3.942176
 20
28.616792
 70
   192
  0
VERTEX
  8
0
 38
-0.066873
 10
-0.673492
 20
31.60439
 70
   192
  0
VERTEX
  8
0
 38
-0.066873
 10
-5.905132
 20
33.295566
 70
   192
  0
VERTEX
  8
0
 38
-0.066873
 10
-11.396217
 20
33.575068
 70
   192
  0
VERTEX
  8
0
 38
-0.066873
 10
-16.772538
 20
32.423849
 70
   192
  0
VERTEX
  8
0
 38
-0.066873
 10
-21.667709
 20
29.920362
 70
   192
  0
VERTEX
  8
0
 38
-0.066873
 10
-25.74813
 20
26.235216
 70
   192
  0
VERTEX
  8
0
 38
-0.066873
 10
-28.735728
 20
21.619548
 70
   192
  0
VERTEX
  8
0
 38
-0.066873
 10
-30.426904
 20
16.387908
 70
   192
  0
VERTEX
  8
0
 38
-0.066873
 10
-30.706406
 20
10.896823
 70
   192
  0
VERTEX
  8
0
 38
-0.066873
 10
-29.555187
 20
5.520501
 70
   192
  0
VERTEX
  8
0
 38
-0.066873
 10
-27.0517
 20
0.625331
 70
   192
  0
VERTEX
  8
0
 38
-0.066873
 10
-23.366555
 20
-3.45509
 70
   192
  0
VERTEX
  8
0
 38
-0.066873
 10
-18.750886
 20
-6.442688
 70
   192
  0
VERTEX
  8
0
 38
-0.066873
 10
-13.519246
 20
-8.133864
 70
   192
  0
VERTEX
  8
0
 38
-0.066873
 10
-8.028161
 20
-8.413366
 70
   192
  0
VERTEX
  8
0
 38
207.987468
 10
90.704564
 20
-43.448727
 70
   192
  0
VERTEX
  8
0
 38
207.987468
 10
90.704564
 20
54.656536
 70
   192
  0
VERTEX
  8
0
 38
207.987468
 10
-91.396868
 20
54.656536
 70
   192
  0
VERTEX
  8
0
 38
207.987468
 10
-91.396868
 20
-43.448727
 70
   192
  0
VERTEX
  8
0
 38
149.130704
 10
73.228389
 20
54.656536
 70
   192
  0
VERTEX
  8
0
 38
131.986637
 10
71.232779
 20
54.656536
 70
   192
  0
VERTEX
  8
0
 38
116.080751
 10
71.541748
 20
54.656536
 70
   192
  0
VERTEX
  8
0
 38
103.06547
 10
74.043015
 20
54.656536
 70
   192
  0
VERTEX
  8
0
 38
91.088936
 10
78.244615
 20
54.656536
 70
   192
  0
VERTEX
  8
0
 38
47.226806
 10
101.701349
 20
54.656536
 70
   192
  0
VERTEX
  8
0
 38
24.211591
 10
110.099509
 20
54.656536
 70
   192
  0
VERTEX
  8
0
 38
12.017747
 10
111.794269
 20
54.656536
 70
   192
  0
VERTEX
  8
OBJECT_1
  6
CONTINUOUS
 62
     7
 10
0.0
 20
0.0
 70
   128
  0
VERTEX
  8
OBJECT_1
  6
CONTINUOUS
 62
     7
 10
0.0
 20
0.0
 70
   128
  0
VERTEX
  8
OBJECT_1
  6
CONTINUOUS
 62
     7
 10
0.0
 20
0.0
 70
   128
  0
VERTEX
  8
OBJECT_1
  6
CONTINUOUS
 62
     7
 10
0.0
 20
0.0
 70
   128
  0
VERTEX
  8
OBJECT_1
  6
CONTINUOUS
 62
     7
 10
0.0
 20
0.0
 70
   128
  0
VERTEX
  8
OBJECT_1
  6
CONTINUOUS
 62
     7
 10
0.0
 20
0.0
 70
   128
  0
VERTEX
  8
OBJECT_1
  6
CONTINUOUS
 62
     7
 10
0.0
 20
0.0
 70
   128
  0
VERTEX
  8
OBJECT_1
  6
CONTINUOUS
 62
     7
 10
0.0
 20
0.0
 70
   128
  0
VERTEX
  8
OBJECT_1
  6
CONTINUOUS
 62
     7
 10
0.0
 20
0.0
 70
   128
  0
VERTEX
  8
OBJECT_1
  6
CONTINUOUS
 62
     7
 10
0.0
 20
0.0
 70
   128
  0
VERTEX
  8
OBJECT_1
  6
CONTINUOUS
 62
     7
 10
0.0
 20
0.0
 70
   128
  0
VERTEX
  8
OBJECT_1
  6
CONTINUOUS
 62
     7
 10
0.0
 20
0.0
 70
   128
  0
VERTEX
  8
OBJECT_1
  6
CONTINUOUS
 62
     7
 10
0.0
 20
0.0
 70
   128
  0
VERTEX
  8
OBJECT_1
  6
CONTINUOUS
 62
     7
 10
0.0
 20
0.0
 70
   128
  0
VERTEX
  8
OBJECT_1
  6
CONTINUOUS
 62
     7
 10
0.0
 20
0.0
 70
   128
  0
VERTEX
  8
OBJECT_1
  6
CONTINUOUS
 62
     7
 10
0.0
 20
0.0
 70
   128
  0
VERTEX
  8
OBJECT_1
  6
CONTINUOUS
 62
     7
 10
0.0
 20
0.0
 70
   128
  0
VERTEX
  8
OBJECT_1
  6
CONTINUOUS
 62
     7
 10
0.0
 20
0.0
 70
   128
  0
VERTEX
  8
OBJECT_1
  6
CONTINUOUS
 62
     7
 10
0.0
 20
0.0
 70
   128
  0
VERTEX
  8
OBJECT_1
  6
CONTINUOUS
 62
     7
 10
0.0
 20
0.0
 70
   128
  0
VERTEX
  8
OBJECT_1
  6
CONTINUOUS
 62
     7
 10
0.0
 20
0.0
 70
   128
  0
VERTEX
  8
OBJECT_1
  6
CONTINUOUS
 62
     7
 10
0.0
 20
0.0
 70
   128
  0
VERTEX
  8
OBJECT_1
  6
CONTINUOUS
 62
     7
 10
0.0
 20
0.0
 70
   128
  0
VERTEX
  8
OBJECT_1
  6
CONTINUOUS
 62
     7
 10
0.0
 20
0.0
 70
   128
  0
VERTEX
  8
OBJECT_1
  6
CONTINUOUS
 62
     7
 10
0.0
 20
0.0
 70
   128
  0
VERTEX
  8
OBJECT_1
  6
CONTINUOUS
 62
     7
 10
0.0
 20
0.0
 70
   128
  0
VERTEX
  8
OBJECT_1
  6
CONTINUOUS
 62
     7
 10
0.0
 20
0.0
 70
   128
  0
VERTEX
  8
OBJECT_1
  6
CONTINUOUS
 62
     7
 10
0.0
 20
0.0
 70
   128
  0
VERTEX
  8
OBJECT_1
  6
CONTINUOUS
 62
     7
 10
0.0
 20
0.0
 70
   128
  0
VERTEX
  8
OBJECT_1
  6
CONTINUOUS
 62
     7
 10
0.0
 20
0.0
 70
   128
  0
VERTEX
  8
OBJECT_1
  6
CONTINUOUS
 62
     7
 10
0.0
 20
0.0
 70
   128
  0
VERTEX
  8
OBJECT_1
  6
CONTINUOUS
 62
     7
 10
0.0
 20
0.0
 70
   128
  0
VERTEX
  8
OBJECT_1
  6
CONTINUOUS
 62
     7
 10
0.0
 20
0.0
 70
   128
  0
VERTEX
  8
OBJECT_1
  6
CONTINUOUS
 62
     7
 10
0.0
 20
0.0
 70
   128
  0
VERTEX
  8
OBJECT_1
  6
CONTINUOUS
 62
     7
 10
0.0
 20
0.0
 70
   128
  0
VERTEX
  8
OBJECT_1
  6
CONTINUOUS
 62
     7
 10
0.0
 20
0.0
 70
   128
  0
VERTEX
  8
OBJECT_1
  6
CONTINUOUS
 62
     7
 10
0.0
 20
0.0
 70
   128
  0
SEQEND
  8
OBJECT_1
  6
CONTINUOUS
 62
     7
  0
POLYLINE
  8
OBJECT_2
  6
CONTINUOUS
 62
   254
 66
     1
 70
    64
  0
VERTEX
  8
0
 38
-0.001856
 10
111.599052
 20
53.284052
 70
   192
  0
VERTEX
  8
0
 38
-0.001856
 10
111.599052
 20
-42.181322
 70
   192
  0
VERTEX
  8
0
 38
-0.001856
 10
-91.222099
 20
-42.181322
 70
   192
  0
VERTEX
  8
0
 38
-0.001856
 10
-91.222099
 20
53.284052
 70
   192
  0
VERTEX
  8
0
 38
-0.001856
 10
-2.65184
 20
-7.262147
 70
   192
  0
VERTEX
  8
0
 38
-0.001856
 10
2.243331
 20
-4.75866
 70
   192
  0
VERTEX
  8
0
 38
-0.001856
 10
6.323752
 20
-1.073515
 70
   192
  0
VERTEX
  8
0
 38
-0.001856
 10
9.31135
 20
3.542154
 70
   192
  0
VERTEX
  8
0
 38
-0.001856
 10
11.002526
 20
8.773794
 70
   192
  0
VERTEX
  8
0
 38
-0.001856
 10
11.282028
 20
14.264879
 70
   192
  0
VERTEX
  8
0
 38
-0.001856
 10
10.130809
 20
19.6412
 70
   192
  0
VERTEX
  8
0
 38
-0.001856
 10
7.627322
 20
24.536371
 70
   192
  0
VERTEX
  8
0
 38
-0.001856
 10
3.942176
 20
28.616792
 70
   192
  0
VERTEX
  8
0
 38
-0.001856
 10
-0.673492
 20
31.60439
 70
   192
  0
VERTEX
  8
0
 38
-0.001856
 10
-5.905132
 20
33.295566
 70
   192
  0
VERTEX
  8
0
 38
-0.001856
 10
-11.396217
 20
33.575068
 70
   192
  0
VERTEX
  8
0
 38
-0.001856
 10
-16.772538
 20
32.423849
 70
   192
  0
VERTEX
  8
0
 38
-0.001856
 10
-21.667709
 20
29.920362
 70
   192
  0
VERTEX
  8
0
 38
-0.001856
 10
-25.74813
 20
26.235216
 70
   192
  0
VERTEX
  8
0
 38
-0.001856
 10
-28.735728
 20
21.619548
 70
   192
  0
VERTEX
  8
0
 38
-0.001856
 10
-30.426904
 20
16.387908
 70
   192
  0
VERTEX
  8
0
 38
-0.001856
 10
-30.706406
 20
10.896823
 70
   192
  0
VERTEX
  8
0
 38
-0.001856
 10
-29.555187
 20
5.520501
 70
   192
  0
VERTEX
  8
0
 38
-0.001856
 10
-27.0517
 20
0.625331
 70
   192
  0
VERTEX
  8
0
 38
-0.001856
 10
-23.366555
 20
-3.45509
 70
   192
  0
VERTEX
  8
0
 38
-0.001856
 10
-18.750886
 20
-6.442688
 70
   192
  0
VERTEX
  8
0
 38
-0.001856
 10
-13.519246
 20
-8.133864
 70
   192
  0
VERTEX
  8
0
 38
-0.001856
 10
-8.028161
 20
-8.413366
 70
   192
  0
VERTEX
  8
0
 38
59.78981
 10
94.948278
 20
-42.181322
 70
   192
  0
VERTEX
  8
0
 38
59.78981
 10
94.948278
 20
53.284052
 70
   192
  0
VERTEX
  8
0
 38
59.78981
 10
-91.222099
 20
53.284052
 70
   192
  0
VERTEX
  8
0
 38
59.78981
 10
-91.222099
 20
-42.181322
 70
   192
  0
VERTEX
  8
0
 38
31.306639
 10
108.201866
 20
53.284052
 70
   192
  0
VERTEX
  8
0
 38
15.860524
 10
111.474128
 20
53.284052
 70
   192
  0
VERTEX
  8
OBJECT_2
  6
CONTINUOUS
 62
   254
 10
0.0
 20
0.0
 70
   128
  0
VERTEX
  8
OBJECT_2
  6
CONTINUOUS
 62
   254
 10
0.0
 20
0.0
 70
   128
  0
VERTEX
  8
OBJECT_2
  6
CONTINUOUS
 62
   254
 10
0.0
 20
0.0
 70
   128
  0
VERTEX
  8
OBJECT_2
  6
CONTINUOUS
 62
   254
 10
0.0
 20
0.0
 70
   128
  0
VERTEX
  8
OBJECT_2
  6
CONTINUOUS
 62
   254
 10
0.0
 20
0.0
 70
   128
  0
VERTEX
  8
OBJECT_2
  6
CONTINUOUS
 62
   254
 10
0.0
 20
0.0
 70
   128
  0
VERTEX
  8
OBJECT_2
  6
CONTINUOUS
 62
   254
 10
0.0
 20
0.0
 70
   128
  0
VERTEX
  8
OBJECT_2
  6
CONTINUOUS
 62
   254
 10
0.0
 20
0.0
 70
   128
  0
VERTEX
  8
OBJECT_2
  6
CONTINUOUS
 62
   254
 10
0.0
 20
0.0
 70
   128
  0
VERTEX
  8
OBJECT_2
  6
CONTINUOUS
 62
   254
 10
0.0
 20
0.0
 70
   128
  0
VERTEX
  8
OBJECT_2
  6
CONTINUOUS
 62
   254
 10
0.0
 20
0.0
 70
   128
  0
VERTEX
  8
OBJECT_2
  6
CONTINUOUS
 62
   254
 10
0.0
 20
0.0
 70
   128
  0
VERTEX
  8
OBJECT_2
  6
CONTINUOUS
 62
   254
 10
0.0
 20
0.0
 70
   128
  0
VERTEX
  8
OBJECT_2
  6
CONTINUOUS
 62
   254
 10
0.0
 20
0.0
 70
   128
  0
VERTEX
  8
OBJECT_2
  6
CONTINUOUS
 62
   254
 10
0.0
 20
0.0
 70
   128
  0
VERTEX
  8
OBJECT_2
  6
CONTINUOUS
 62
   254
 10
0.0
 20
0.0
 70
   128
  0
VERTEX
  8
OBJECT_2
  6
CONTINUOUS
 62
   254
 10
0.0
 20
0.0
 70
   128
  0
VERTEX
  8
OBJECT_2
  6
CONTINUOUS
 62
   254
 10
0.0
 20
0.0
 70
   128
  0
VERTEX
  8
OBJECT_2
  6
CONTINUOUS
 62
   254
 10
0.0
 20
0.0
 70
   128
  0
VERTEX
  8
OBJECT_2
  6
CONTINUOUS
 62
   254
 10
0.0
 20
0.0
 70
   128
  0
VERTEX
  8
OBJECT_2
  6
CONTINUOUS
 62
   254
 10
0.0
 20
0.0
 70
   128
  0
VERTEX
  8
OBJECT_2
  6
CONTINUOUS
 62
   254
 10
0.0
 20
0.0
 70
   128
  0
VERTEX
  8
OBJECT_2
  6
CONTINUOUS
 62
   254
 10
0.0
 20
0.0
 70
   128
  0
VERTEX
  8
OBJECT_2
  6
CONTINUOUS
 62
   254
 10
0.0
 20
0.0
 70
   128
  0
VERTEX
  8
OBJECT_2
  6
CONTINUOUS
 62
   254
 10
0.0
 20
0.0
 70
   128
  0
VERTEX
  8
OBJECT_2
  6
CONTINUOUS
 62
   254
 10
0.0
 20
0.0
 70
   128
  0
VERTEX
  8
OBJECT_2
  6
CONTINUOUS
 62
   254
 10
0.0
 20
0.0
 70
   128
  0
VERTEX
  8
OBJECT_2
  6
CONTINUOUS
 62
   254
 10
0.0
 20
0.0
 70
   128
  0
VERTEX
  8
OBJECT_2
  6
CONTINUOUS
 62
   254
 10
0.0
 20
0.0
 70
   128
  0
VERTEX
  8
OBJECT_2
  6
CONTINUOUS
 62
   254
 10
0.0
 20
0.0
 70
   128
  0
SEQEND
  8
OBJECT_2
  6
CONTINUOUS
 62
   254
  0
ENDSEC
  0
EOF
