  0
SECTION
  2
HEADER
  9
$ACADVER
  1
AC1003
  9
$INSBASE
 10
0.0
 20
0.0
  9
$EXTMIN
 10
-219.905216
 20
-1438.171349
  9
$EXTMAX
 10
192.0
 20
96.0
  9
$LIMMIN
 10
-219.905216
 20
-1438.171349
  9
$LIMMAX
 10
192.0
 20
96.0
  9
$VIEWCTR
 10
6.591288
 20
4.579184
  9
$VIEWSIZE
 40
9.158369
  9
$SNAPMODE
 70
     0
  9
$SNAPUNIT
 10
1.0
 20
1.0
  9
$SNAPBASE
 10
0.0
 20
0.0
  9
$SNAPANG
 50
0.0
  9
$SNAPSTYLE
 70
     0
  9
$SNAPISOPAIR
 70
     0
  9
$GRIDMODE
 70
     0
  9
$GRIDUNIT
 10
0.0
 20
0.0
  9
$ORTHOMODE
 70
     0
  9
$REGENMODE
 70
     1
  9
$FILLMODE
 70
     1
  9
$QTEXTMODE
 70
     0
  9
$DRAGMODE
 70
     2
  9
$LTSCALE
 40
1.0
  9
$OSMODE
 70
     0
  9
$ATTMODE
 70
     1
  9
$TEXTSIZE
 40
0.2
  9
$TRACEWID
 40
0.05
  9
$TEXTSTYLE
  7
STANDARD
  9
$CLAYER
  8
0
  9
$CELTYPE
  6
CONTINUOUS
  9
$CECOLOR
 62
   256
  9
$DIMSCALE
 40
1.0
  9
$DIMASZ
 40
0.18
  9
$DIMEXO
 40
0.0625
  9
$DIMDLI
 40
0.38
  9
$DIMRND
 40
0.0
  9
$DIMDLE
 40
0.0
  9
$DIMEXE
 40
0.18
  9
$DIMTP
 40
0.0
  9
$DIMTM
 40
0.0
  9
$DIMTXT
 40
0.18
  9
$DIMCEN
 40
0.09
  9
$DIMTSZ
 40
0.0
  9
$DIMTOL
 70
     0
  9
$DIMLIM
 70
     0
  9
$DIMTIH
 70
     1
  9
$DIMTOH
 70
     1
  9
$DIMSE1
 70
     0
  9
$DIMSE2
 70
     0
  9
$DIMTAD
 70
     0
  9
$DIMZIN
 70
     0
  9
$DIMBLK
  1

  9
$DIMASO
 70
     1
  9
$DIMSHO
 70
     1
  9
$DIMPOST
  1

  9
$DIMAPOST
  1

  9
$DIMALT
 70
     0
  9
$DIMALTD
 70
     2
  9
$DIMALTF
 40
25.4
  9
$DIMLFAC
 40
1.0
  9
$LUNITS
 70
     4
  9
$LUPREC
 70
     0
  9
$AXISMODE
 70
     0
  9
$AXISUNIT
 10
24.0
 20
24.0
  9
$SKETCHINC
 40
24.0
  9
$FILLETRAD
 40
24.0
  9
$AUNITS
 70
     4
  9
$AUPREC
 70
     0
  9
$MENU
  1
acad
  9
$ELEVATION
 40
0.0
  9
$THICKNESS
 40
120.0
  9
$VIEWDIR
 10
0.0
 20
0.0
 30
1.0
  9
$LIMCHECK
 70
     0
  9
$BLIPMODE
 70
     1
  9
$CHAMFERA
 40
0.0
  9
$CHAMFERB
 40
0.0
  9
$FASTZOOM
 70
     1
  9
$SKPOLY
 70
     0
  9
$TDCREATE
 40
2452581.503414352
  9
$TDUPDATE
 40
2452581.503414352
  9
$TDINDWG
 40
0.0000000000
  9
$TDUSRTIMER
 40
0.0000000000
  9
$USRTIMER
 70
     1
  9
$ANGBASE
 50
0.0
  9
$ANGDIR
 70
     0
  9
$PDMODE
 70
     0
  9
$PDSIZE
 40
0.0
  9
$PLINEWID
 40
0.0
  9
$COORDS
 70
     1
  9
$USERI1
 70
     0
  9
$USERI2
 70
     0
  9
$USERI3
 70
     0
  9
$USERI4
 70
     0
  9
$USERI5
 70
     0
  9
$USERR1
 40
0.0
  9
$USERR2
 40
0.0
  9
$USERR3
 40
0.0
  9
$USERR4
 40
0.0
  9
$USERR5
 40
0.0
  0
ENDSEC
  0
SECTION
  2
TABLES
  0
TABLE
  2
LTYPE
 70
     1
  0
LTYPE
  2
CONTINUOUS
 70
    64
  3
Solid line
 72
    65
 73
     0
 40
0.0
  0
ENDTAB
  0
TABLE
  2
LAYER
 70
     9
  0
LAYER
  2
0
 70
     0
 62
     7
  6
CONTINUOUS
  0
LAYER
  2
OBJECT_1
 70
    64
 62
     1
  6
CONTINUOUS
  0
LAYER
  2
OBJECT_2
 70
    64
 62
     1
  6
CONTINUOUS
  0
LAYER
  2
OBJECT_9
 70
    64
 62
     1
  6
CONTINUOUS
  0
LAYER
  2
OBJECT_22
 70
    64
 62
     1
  6
CONTINUOUS
  0
LAYER
  2
OBJECT_22
 70
    64
 62
     1
  6
CONTINUOUS
  0
LAYER
  2
OBJECT_1_COPY
 70
    64
 62
     1
  6
CONTINUOUS
  0
LAYER
  2
OBJECT_24_COPY_2
 70
    64
 62
     1
  6
CONTINUOUS
  0
LAYER
  2
OBJECT_28
 70
    64
 62
     1
  6
CONTINUOUS
  0
ENDTAB
  0
TABLE
  2
STYLE
 70
     1
  0
STYLE
  2
STANDARD
 70
     0
 40
0.0
 41
1.0
 50
0.0
 71
     0
 42
0.0
  3
txt
  4

  0
ENDTAB
  0
TABLE
  2
VIEW
 70
     0
  0
ENDTAB
  0
ENDSEC
  0
SECTION
  2
BLOCKS
  0
ENDSEC
  0
SECTION
  2
ENTITIES
  0
POLYLINE
  8
OBJECT_1
  6
CONTINUOUS
 62
     7
 66
     1
 70
    64
  0
VERTEX
  8
0
 38
-0.000006
 10
-86.904777
 20
-22.151986
 70
   192
  0
VERTEX
  8
0
 38
-0.000006
 10
-83.758636
 20
-17.619339
 70
   192
  0
VERTEX
  8
0
 38
-0.000006
 10
-81.892833
 20
-12.426858
 70
   192
  0
VERTEX
  8
0
 38
-0.000006
 10
-81.434519
 20
-6.9284
 70
   192
  0
VERTEX
  8
0
 38
-0.000006
 10
-82.414927
 20
-1.498678
 70
   192
  0
VERTEX
  8
0
 38
-0.000006
 10
-84.767244
 20
3.492283
 70
   192
  0
VERTEX
  8
0
 38
-0.000006
 10
-88.331164
 20
7.704357
 70
   192
  0
VERTEX
  8
0
 38
-0.000006
 10
-92.86381
 20
10.850498
 70
   192
  0
VERTEX
  8
0
 38
-0.000006
 10
-98.056292
 20
12.716301
 70
   192
  0
VERTEX
  8
0
 38
-0.000006
 10
-103.55475
 20
13.174615
 70
   192
  0
VERTEX
  8
0
 38
-0.000006
 10
-108.984472
 20
12.194207
 70
   192
  0
VERTEX
  8
0
 38
-0.000006
 10
-113.975433
 20
9.84189
 70
   192
  0
VERTEX
  8
0
 38
-0.000006
 10
-118.187507
 20
6.27797
 70
   192
  0
VERTEX
  8
0
 38
-0.000006
 10
-121.333647
 20
1.745323
 70
   192
  0
VERTEX
  8
0
 38
-0.000006
 10
-123.19945
 20
-3.447158
 70
   192
  0
VERTEX
  8
0
 38
-0.000006
 10
-123.657764
 20
-8.945616
 70
   192
  0
VERTEX
  8
0
 38
-0.000006
 10
-122.677356
 20
-14.375338
 70
   192
  0
VERTEX
  8
0
 38
-0.000006
 10
-120.325039
 20
-19.366299
 70
   192
  0
VERTEX
  8
0
 38
-0.000006
 10
-116.76112
 20
-23.578373
 70
   192
  0
VERTEX
  8
0
 38
-0.000006
 10
-112.228473
 20
-26.724513
 70
   192
  0
VERTEX
  8
0
 38
-0.000006
 10
-107.035991
 20
-28.590316
 70
   192
  0
VERTEX
  8
0
 38
-0.000006
 10
-101.537534
 20
-29.048631
 70
   192
  0
VERTEX
  8
0
 38
-0.000006
 10
-96.107811
 20
-28.068223
 70
   192
  0
VERTEX
  8
0
 38
-0.000006
 10
-91.11685
 20
-25.715906
 70
   192
  0
VERTEX
  8
0
 38
-0.000006
 10
192.0
 20
-96.0
 70
   192
  0
VERTEX
  8
0
 38
-0.000006
 10
-192.0
 20
-96.0
 70
   192
  0
VERTEX
  8
0
 38
-0.000006
 10
-192.0
 20
96.0
 70
   192
  0
VERTEX
  8
0
 38
-0.000006
 10
192.0
 20
96.0
 70
   192
  0
VERTEX
  8
0
 38
239.999994
 10
-192.0
 20
96.0
 70
   192
  0
VERTEX
  8
0
 38
239.999994
 10
192.0
 20
96.0
 70
   192
  0
VERTEX
  8
0
 38
239.999994
 10
-192.0
 20
-96.0
 70
   192
  0
VERTEX
  8
0
 38
239.999994
 10
192.0
 20
-96.0
 70
   192
  0
VERTEX
  8
OBJECT_1
  6
CONTINUOUS
 62
     7
 10
0.0
 20
0.0
 70
   128
  0
VERTEX
  8
OBJECT_1
  6
CONTINUOUS
 62
     7
 10
0.0
 20
0.0
 70
   128
  0
VERTEX
  8
OBJECT_1
  6
CONTINUOUS
 62
     7
 10
0.0
 20
0.0
 70
   128
  0
VERTEX
  8
OBJECT_1
  6
CONTINUOUS
 62
     7
 10
0.0
 20
0.0
 70
   128
  0
VERTEX
  8
OBJECT_1
  6
CONTINUOUS
 62
     7
 10
0.0
 20
0.0
 70
   128
  0
VERTEX
  8
OBJECT_1
  6
CONTINUOUS
 62
     7
 10
0.0
 20
0.0
 70
   128
  0
VERTEX
  8
OBJECT_1
  6
CONTINUOUS
 62
     7
 10
0.0
 20
0.0
 70
   128
  0
VERTEX
  8
OBJECT_1
  6
CONTINUOUS
 62
     7
 10
0.0
 20
0.0
 70
   128
  0
VERTEX
  8
OBJECT_1
  6
CONTINUOUS
 62
     7
 10
0.0
 20
0.0
 70
   128
  0
VERTEX
  8
OBJECT_1
  6
CONTINUOUS
 62
     7
 10
0.0
 20
0.0
 70
   128
  0
VERTEX
  8
OBJECT_1
  6
CONTINUOUS
 62
     7
 10
0.0
 20
0.0
 70
   128
  0
VERTEX
  8
OBJECT_1
  6
CONTINUOUS
 62
     7
 10
0.0
 20
0.0
 70
   128
  0
VERTEX
  8
OBJECT_1
  6
CONTINUOUS
 62
     7
 10
0.0
 20
0.0
 70
   128
  0
VERTEX
  8
OBJECT_1
  6
CONTINUOUS
 62
     7
 10
0.0
 20
0.0
 70
   128
  0
VERTEX
  8
OBJECT_1
  6
CONTINUOUS
 62
     7
 10
0.0
 20
0.0
 70
   128
  0
VERTEX
  8
OBJECT_1
  6
CONTINUOUS
 62
     7
 10
0.0
 20
0.0
 70
   128
  0
VERTEX
  8
OBJECT_1
  6
CONTINUOUS
 62
     7
 10
0.0
 20
0.0
 70
   128
  0
VERTEX
  8
OBJECT_1
  6
CONTINUOUS
 62
     7
 10
0.0
 20
0.0
 70
   128
  0
VERTEX
  8
OBJECT_1
  6
CONTINUOUS
 62
     7
 10
0.0
 20
0.0
 70
   128
  0
VERTEX
  8
OBJECT_1
  6
CONTINUOUS
 62
     7
 10
0.0
 20
0.0
 70
   128
  0
VERTEX
  8
OBJECT_1
  6
CONTINUOUS
 62
     7
 10
0.0
 20
0.0
 70
   128
  0
VERTEX
  8
OBJECT_1
  6
CONTINUOUS
 62
     7
 10
0.0
 20
0.0
 70
   128
  0
VERTEX
  8
OBJECT_1
  6
CONTINUOUS
 62
     7
 10
0.0
 20
0.0
 70
   128
  0
VERTEX
  8
OBJECT_1
  6
CONTINUOUS
 62
     7
 10
0.0
 20
0.0
 70
   128
  0
VERTEX
  8
OBJECT_1
  6
CONTINUOUS
 62
     7
 10
0.0
 20
0.0
 70
   128
  0
VERTEX
  8
OBJECT_1
  6
CONTINUOUS
 62
     7
 10
0.0
 20
0.0
 70
   128
  0
VERTEX
  8
OBJECT_1
  6
CONTINUOUS
 62
     7
 10
0.0
 20
0.0
 70
   128
  0
VERTEX
  8
OBJECT_1
  6
CONTINUOUS
 62
     7
 10
0.0
 20
0.0
 70
   128
  0
VERTEX
  8
OBJECT_1
  6
CONTINUOUS
 62
     7
 10
0.0
 20
0.0
 70
   128
  0
VERTEX
  8
OBJECT_1
  6
CONTINUOUS
 62
     7
 10
0.0
 20
0.0
 70
   128
  0
SEQEND
  8
OBJECT_1
  6
CONTINUOUS
 62
     7
  0
POLYLINE
  8
OBJECT_2
  6
CONTINUOUS
 62
   253
 66
     1
 70
    64
  0
VERTEX
  8
0
 38
98.898424
 10
-55.37126
 20
-3.015534
 70
   192
  0
VERTEX
  8
0
 38
98.898424
 10
-52.409043
 20
-1.070882
 70
   192
  0
VERTEX
  8
0
 38
98.898424
 10
-50.051073
 20
1.574185
 70
   192
  0
VERTEX
  8
0
 38
98.898424
 10
-48.458044
 20
4.739411
 70
   192
  0
VERTEX
  8
0
 38
98.898424
 10
-47.738516
 20
8.209091
 70
   192
  0
VERTEX
  8
0
 38
98.898424
 10
-47.941524
 20
11.746772
 70
   192
  0
VERTEX
  8
0
 38
98.898424
 10
-49.053235
 20
15.111367
 70
   192
  0
VERTEX
  8
0
 38
98.898424
 10
-50.997886
 20
18.073584
 70
   192
  0
VERTEX
  8
0
 38
98.898424
 10
-53.642953
 20
20.431553
 70
   192
  0
VERTEX
  8
0
 38
98.898424
 10
-56.808179
 20
22.024583
 70
   192
  0
VERTEX
  8
0
 38
98.898424
 10
-60.277859
 20
22.744111
 70
   192
  0
VERTEX
  8
0
 38
98.898424
 10
-63.81554
 20
22.541102
 70
   192
  0
VERTEX
  8
0
 38
98.898424
 10
-67.180135
 20
21.429392
 70
   192
  0
VERTEX
  8
0
 38
98.898424
 10
-70.142352
 20
19.484741
 70
   192
  0
VERTEX
  8
0
 38
98.898424
 10
-72.500322
 20
16.839674
 70
   192
  0
VERTEX
  8
0
 38
98.898424
 10
-74.093352
 20
13.674448
 70
   192
  0
VERTEX
  8
0
 38
98.898424
 10
-74.812879
 20
10.204768
 70
   192
  0
VERTEX
  8
0
 38
98.898424
 10
-74.609871
 20
6.667087
 70
   192
  0
VERTEX
  8
0
 38
98.898424
 10
-73.49816
 20
3.302492
 70
   192
  0
VERTEX
  8
0
 38
98.898424
 10
-71.553509
 20
0.340274
 70
   192
  0
VERTEX
  8
0
 38
98.898424
 10
-68.908442
 20
-2.017695
 70
   192
  0
VERTEX
  8
0
 38
98.898424
 10
-65.743216
 20
-3.610725
 70
   192
  0
VERTEX
  8
0
 38
98.898424
 10
-62.273536
 20
-4.330253
 70
   192
  0
VERTEX
  8
0
 38
98.898424
 10
-58.735855
 20
-4.127244
 70
   192
  0
VERTEX
  8
0
 38
98.898424
 10
45.495016
 20
-24.226044
 70
   192
  0
VERTEX
  8
0
 38
98.898424
 10
-94.161004
 20
-24.226044
 70
   192
  0
VERTEX
  8
0
 38
98.898424
 10
-94.161004
 20
47.027027
 70
   192
  0
VERTEX
  8
0
 38
98.898424
 10
45.495016
 20
47.027027
 70
   192
  0
VERTEX
  8
0
 38
191.800177
 10
-94.161004
 20
47.027027
 70
   192
  0
VERTEX
  8
0
 38
191.800177
 10
45.495016
 20
47.027027
 70
   192
  0
VERTEX
  8
0
 38
191.800177
 10
-94.161004
 20
-24.226044
 70
   192
  0
VERTEX
  8
0
 38
191.800177
 10
45.495016
 20
-24.226044
 70
   192
  0
VERTEX
  8
OBJECT_2
  6
CONTINUOUS
 62
   253
 10
0.0
 20
0.0
 70
   128
  0
VERTEX
  8
OBJECT_2
  6
CONTINUOUS
 62
   253
 10
0.0
 20
0.0
 70
   128
  0
VERTEX
  8
OBJECT_2
  6
CONTINUOUS
 62
   253
 10
0.0
 20
0.0
 70
   128
  0
VERTEX
  8
OBJECT_2
  6
CONTINUOUS
 62
   253
 10
0.0
 20
0.0
 70
   128
  0
VERTEX
  8
OBJECT_2
  6
CONTINUOUS
 62
   253
 10
0.0
 20
0.0
 70
   128
  0
VERTEX
  8
OBJECT_2
  6
CONTINUOUS
 62
   253
 10
0.0
 20
0.0
 70
   128
  0
VERTEX
  8
OBJECT_2
  6
CONTINUOUS
 62
   253
 10
0.0
 20
0.0
 70
   128
  0
VERTEX
  8
OBJECT_2
  6
CONTINUOUS
 62
   253
 10
0.0
 20
0.0
 70
   128
  0
VERTEX
  8
OBJECT_2
  6
CONTINUOUS
 62
   253
 10
0.0
 20
0.0
 70
   128
  0
VERTEX
  8
OBJECT_2
  6
CONTINUOUS
 62
   253
 10
0.0
 20
0.0
 70
   128
  0
VERTEX
  8
OBJECT_2
  6
CONTINUOUS
 62
   253
 10
0.0
 20
0.0
 70
   128
  0
VERTEX
  8
OBJECT_2
  6
CONTINUOUS
 62
   253
 10
0.0
 20
0.0
 70
   128
  0
VERTEX
  8
OBJECT_2
  6
CONTINUOUS
 62
   253
 10
0.0
 20
0.0
 70
   128
  0
VERTEX
  8
OBJECT_2
  6
CONTINUOUS
 62
   253
 10
0.0
 20
0.0
 70
   128
  0
VERTEX
  8
OBJECT_2
  6
CONTINUOUS
 62
   253
 10
0.0
 20
0.0
 70
   128
  0
VERTEX
  8
OBJECT_2
  6
CONTINUOUS
 62
   253
 10
0.0
 20
0.0
 70
   128
  0
VERTEX
  8
OBJECT_2
  6
CONTINUOUS
 62
   253
 10
0.0
 20
0.0
 70
   128
  0
VERTEX
  8
OBJECT_2
  6
CONTINUOUS
 62
   253
 10
0.0
 20
0.0
 70
   128
  0
VERTEX
  8
OBJECT_2
  6
CONTINUOUS
 62
   253
 10
0.0
 20
0.0
 70
   128
  0
VERTEX
  8
OBJECT_2
  6
CONTINUOUS
 62
   253
 10
0.0
 20
0.0
 70
   128
  0
VERTEX
  8
OBJECT_2
  6
CONTINUOUS
 62
   253
 10
0.0
 20
0.0
 70
   128
  0
VERTEX
  8
OBJECT_2
  6
CONTINUOUS
 62
   253
 10
0.0
 20
0.0
 70
   128
  0
VERTEX
  8
OBJECT_2
  6
CONTINUOUS
 62
   253
 10
0.0
 20
0.0
 70
   128
  0
VERTEX
  8
OBJECT_2
  6
CONTINUOUS
 62
   253
 10
0.0
 20
0.0
 70
   128
  0
VERTEX
  8
OBJECT_2
  6
CONTINUOUS
 62
   253
 10
0.0
 20
0.0
 70
   128
  0
VERTEX
  8
OBJECT_2
  6
CONTINUOUS
 62
   253
 10
0.0
 20
0.0
 70
   128
  0
VERTEX
  8
OBJECT_2
  6
CONTINUOUS
 62
   253
 10
0.0
 20
0.0
 70
   128
  0
VERTEX
  8
OBJECT_2
  6
CONTINUOUS
 62
   253
 10
0.0
 20
0.0
 70
   128
  0
VERTEX
  8
OBJECT_2
  6
CONTINUOUS
 62
   253
 10
0.0
 20
0.0
 70
   128
  0
VERTEX
  8
OBJECT_2
  6
CONTINUOUS
 62
   253
 10
0.0
 20
0.0
 70
   128
  0
SEQEND
  8
OBJECT_2
  6
CONTINUOUS
 62
   253
  0
POLYLINE
  8
OBJECT_9
  6
CONTINUOUS
 62
   254
 66
     1
 70
    64
  0
VERTEX
  8
0
 38
2.365817
 10
-125.415151
 20
-12.825553
 70
   192
  0
VERTEX
  8
0
 38
2.365817
 10
-123.353864
 20
-12.825553
 70
   192
  0
VERTEX
  8
0
 38
2.365817
 10
-83.817705
 20
-10.833376
 70
   192
  0
VERTEX
  8
0
 38
2.365817
 10
-83.572939
 20
-7.603592
 70
   192
  0
VERTEX
  8
0
 38
2.365817
 10
-83.686194
 20
-5.556178
 70
   192
  0
VERTEX
  8
0
 38
2.365817
 10
-84.28168
 20
-2.387846
 70
   192
  0
VERTEX
  8
0
 38
2.365817
 10
-84.925004
 20
-0.424759
 70
   192
  0
VERTEX
  8
0
 38
2.365817
 10
-86.312535
 20
2.468279
 70
   192
  0
VERTEX
  8
0
 38
2.365817
 10
-87.449712
 20
4.211184
 70
   192
  0
VERTEX
  8
0
 38
2.365817
 10
-89.527899
 20
6.635743
 70
   192
  0
VERTEX
  8
0
 38
2.365817
 10
-91.088263
 20
8.035718
 70
   192
  0
VERTEX
  8
0
 38
2.365817
 10
-93.709905
 20
9.832169
 70
   192
  0
VERTEX
  8
0
 38
2.365817
 10
-95.592695
 20
10.788209
 70
   192
  0
VERTEX
  8
0
 38
2.365817
 10
-98.575192
 20
11.840976
 70
   192
  0
VERTEX
  8
0
 38
2.365817
 10
-100.65604
 20
12.281077
 70
   192
  0
VERTEX
  8
0
 38
2.365817
 10
-103.794099
 20
12.526051
 70
   192
  0
VERTEX
  8
0
 38
2.365817
 10
-105.933238
 20
12.412588
 70
   192
  0
VERTEX
  8
0
 38
2.365817
 10
-109.013006
 20
11.840976
 70
   192
  0
VERTEX
  8
0
 38
2.365817
 10
-111.064657
 20
11.173777
 70
   192
  0
VERTEX
  8
0
 38
2.365817
 10
-113.878293
 20
9.832169
 70
   192
  0
VERTEX
  8
0
 38
2.365817
 10
-115.7006
 20
8.64907
 70
   192
  0
VERTEX
  8
0
 38
2.365817
 10
-118.060299
 20
6.635743
 70
   192
  0
VERTEX
  8
0
 38
2.365817
 10
-119.525134
 20
5.010519
 70
   192
  0
VERTEX
  8
0
 38
2.365817
 10
-121.275663
 20
2.468279
 70
   192
  0
VERTEX
  8
0
 38
2.365817
 10
-122.277624
 20
0.506087
 70
   192
  0
VERTEX
  8
0
 38
2.365817
 10
-123.306518
 20
-2.387846
 70
   192
  0
VERTEX
  8
0
 38
2.365817
 10
-123.770493
 20
-4.557258
 70
   192
  0
VERTEX
  8
0
 38
2.365817
 10
-124.015259
 20
-7.603592
 70
   192
  0
VERTEX
  8
0
 38
2.365817
 10
-123.902003
 20
-9.834456
 70
   192
  0
VERTEX
  8
0
 38
2.365817
 10
-84.234334
 20
-12.825553
 70
   192
  0
VERTEX
  8
0
 38
2.365817
 10
-82.173047
 20
-12.825553
 70
   192
  0
VERTEX
  8
0
 38
2.365817
 10
-125.890781
 20
-10.046028
 70
   192
  0
VERTEX
  8
0
 38
2.365817
 10
-126.008684
 20
-7.146286
 70
   192
  0
VERTEX
  8
0
 38
2.365817
 10
-125.746264
 20
-4.246887
 70
   192
  0
VERTEX
  8
0
 38
2.365817
 10
-125.135322
 20
-1.503273
 70
   192
  0
VERTEX
  8
0
 38
2.365817
 10
-124.105743
 20
1.317249
 70
   192
  0
VERTEX
  8
0
 38
2.365817
 10
-122.852737
 20
3.730861
 70
   192
  0
VERTEX
  8
0
 38
2.365817
 10
-121.081017
 20
6.267193
 70
   192
  0
VERTEX
  8
0
 38
2.365817
 10
-119.311653
 20
8.210491
 70
   192
  0
VERTEX
  8
0
 38
2.365817
 10
-116.878215
 20
10.265616
 70
   192
  0
VERTEX
  8
0
 38
2.365817
 10
-114.7459
 20
11.639813
 70
   192
  0
VERTEX
  8
0
 38
2.365817
 10
-111.783754
 20
13.04003
 70
   192
  0
VERTEX
  8
0
 38
2.365817
 10
-109.456968
 20
13.79238
 70
   192
  0
VERTEX
  8
0
 38
2.365817
 10
-106.14481
 20
14.401365
 70
   192
  0
VERTEX
  8
0
 38
2.365817
 10
-103.794099
 20
14.526051
 70
   192
  0
VERTEX
  8
0
 38
2.365817
 10
-100.345669
 20
14.256848
 70
   192
  0
VERTEX
  8
0
 38
2.365817
 10
-98.13123
 20
13.79238
 70
   192
  0
VERTEX
  8
0
 38
2.365817
 10
-94.781533
 20
12.616327
 70
   192
  0
VERTEX
  8
0
 38
2.365817
 10
-92.842298
 20
11.639813
 70
   192
  0
VERTEX
  8
0
 38
2.365817
 10
-89.831589
 20
9.591601
 70
   192
  0
VERTEX
  8
0
 38
2.365817
 10
-88.276545
 20
8.210491
 70
   192
  0
VERTEX
  8
0
 38
2.365817
 10
-85.833166
 20
5.3888
 70
   192
  0
VERTEX
  8
0
 38
2.365817
 10
-84.735461
 20
3.730861
 70
   192
  0
VERTEX
  8
0
 38
2.365817
 10
-83.058752
 20
0.294338
 70
   192
  0
VERTEX
  8
0
 38
2.365817
 10
-82.452876
 20
-1.503273
 70
   192
  0
VERTEX
  8
0
 38
2.365817
 10
-81.697417
 20
-5.344606
 70
   192
  0
VERTEX
  8
0
 38
2.365817
 10
-81.579514
 20
-7.146286
 70
   192
  0
VERTEX
  8
0
 38
2.365817
 10
-81.841934
 20
-11.143747
 70
   192
  0
VERTEX
  8
0
 38
-45.634183
 10
-125.415151
 20
-12.825553
 70
   192
  0
VERTEX
  8
0
 38
-45.634183
 10
-82.173047
 20
-12.825553
 70
   192
  0
VERTEX
  8
0
 38
-45.634183
 10
-81.841934
 20
-11.143747
 70
   192
  0
VERTEX
  8
0
 38
-45.634183
 10
-81.579514
 20
-7.146286
 70
   192
  0
VERTEX
  8
0
 38
-45.634183
 10
-81.697417
 20
-5.344606
 70
   192
  0
VERTEX
  8
0
 38
-45.634183
 10
-82.452876
 20
-1.503273
 70
   192
  0
VERTEX
  8
0
 38
-45.634183
 10
-83.058752
 20
0.294338
 70
   192
  0
VERTEX
  8
0
 38
-45.634183
 10
-84.735461
 20
3.730861
 70
   192
  0
VERTEX
  8
0
 38
-45.634183
 10
-85.833166
 20
5.3888
 70
   192
  0
VERTEX
  8
0
 38
-45.634183
 10
-88.276545
 20
8.210491
 70
   192
  0
VERTEX
  8
0
 38
-45.634183
 10
-89.831589
 20
9.591601
 70
   192
  0
VERTEX
  8
0
 38
-45.634183
 10
-92.842298
 20
11.639813
 70
   192
  0
VERTEX
  8
0
 38
-45.634183
 10
-94.781533
 20
12.616327
 70
   192
  0
VERTEX
  8
0
 38
-45.634183
 10
-98.13123
 20
13.79238
 70
   192
  0
VERTEX
  8
0
 38
-45.634183
 10
-100.345669
 20
14.256848
 70
   192
  0
VERTEX
  8
0
 38
-45.634183
 10
-103.794099
 20
14.526051
 70
   192
  0
VERTEX
  8
0
 38
-45.634183
 10
-106.14481
 20
14.401365
 70
   192
  0
VERTEX
  8
0
 38
-45.634183
 10
-109.456968
 20
13.79238
 70
   192
  0
VERTEX
  8
0
 38
-45.634183
 10
-111.783754
 20
13.04003
 70
   192
  0
VERTEX
  8
0
 38
-45.634183
 10
-114.7459
 20
11.639813
 70
   192
  0
VERTEX
  8
0
 38
-45.634183
 10
-116.878215
 20
10.265616
 70
   192
  0
VERTEX
  8
0
 38
-45.634183
 10
-119.311653
 20
8.210491
 70
   192
  0
VERTEX
  8
0
 38
-45.634183
 10
-121.081017
 20
6.267193
 70
   192
  0
VERTEX
  8
0
 38
-45.634183
 10
-122.852737
 20
3.730861
 70
   192
  0
VERTEX
  8
0
 38
-45.634183
 10
-124.105743
 20
1.317249
 70
   192
  0
VERTEX
  8
0
 38
-45.634183
 10
-125.135322
 20
-1.503273
 70
   192
  0
VERTEX
  8
0
 38
-45.634183
 10
-125.746264
 20
-4.246887
 70
   192
  0
VERTEX
  8
0
 38
-45.634183
 10
-126.008684
 20
-7.146286
 70
   192
  0
VERTEX
  8
0
 38
-45.634183
 10
-125.890781
 20
-10.046028
 70
   192
  0
VERTEX
  8
0
 38
-45.634183
 10
-123.353864
 20
-12.825553
 70
   192
  0
VERTEX
  8
0
 38
-45.634183
 10
-83.817705
 20
-10.833376
 70
   192
  0
VERTEX
  8
0
 38
-45.634183
 10
-83.572939
 20
-7.603592
 70
   192
  0
VERTEX
  8
0
 38
-45.634183
 10
-83.686194
 20
-5.556178
 70
   192
  0
VERTEX
  8
0
 38
-45.634183
 10
-84.28168
 20
-2.387846
 70
   192
  0
VERTEX
  8
0
 38
-45.634183
 10
-84.925004
 20
-0.424759
 70
   192
  0
VERTEX
  8
0
 38
-45.634183
 10
-86.312535
 20
2.468279
 70
   192
  0
VERTEX
  8
0
 38
-45.634183
 10
-87.449712
 20
4.211184
 70
   192
  0
VERTEX
  8
0
 38
-45.634183
 10
-89.527899
 20
6.635743
 70
   192
  0
VERTEX
  8
0
 38
-45.634183
 10
-91.088263
 20
8.035718
 70
   192
  0
VERTEX
  8
0
 38
-45.634183
 10
-93.709905
 20
9.832169
 70
   192
  0
VERTEX
  8
0
 38
-45.634183
 10
-95.592695
 20
10.788209
 70
   192
  0
VERTEX
  8
0
 38
-45.634183
 10
-98.575192
 20
11.840976
 70
   192
  0
VERTEX
  8
0
 38
-45.634183
 10
-100.65604
 20
12.281077
 70
   192
  0
VERTEX
  8
0
 38
-45.634183
 10
-103.794099
 20
12.526051
 70
   192
  0
VERTEX
  8
0
 38
-45.634183
 10
-105.933238
 20
12.412588
 70
   192
  0
VERTEX
  8
0
 38
-45.634183
 10
-109.013006
 20
11.840976
 70
   192
  0
VERTEX
  8
0
 38
-45.634183
 10
-111.064657
 20
11.173777
 70
   192
  0
VERTEX
  8
0
 38
-45.634183
 10
-113.878293
 20
9.832169
 70
   192
  0
VERTEX
  8
0
 38
-45.634183
 10
-115.7006
 20
8.64907
 70
   192
  0
VERTEX
  8
0
 38
-45.634183
 10
-118.060299
 20
6.635743
 70
   192
  0
VERTEX
  8
0
 38
-45.634183
 10
-119.525134
 20
5.010519
 70
   192
  0
VERTEX
  8
0
 38
-45.634183
 10
-121.275663
 20
2.468279
 70
   192
  0
VERTEX
  8
0
 38
-45.634183
 10
-122.277624
 20
0.506087
 70
   192
  0
VERTEX
  8
0
 38
-45.634183
 10
-123.306518
 20
-2.387846
 70
   192
  0
VERTEX
  8
0
 38
-45.634183
 10
-123.770493
 20
-4.557258
 70
   192
  0
VERTEX
  8
0
 38
-45.634183
 10
-124.015259
 20
-7.603592
 70
   192
  0
VERTEX
  8
0
 38
-45.634183
 10
-123.902003
 20
-9.834456
 70
   192
  0
VERTEX
  8
0
 38
-45.634183
 10
-84.234334
 20
-12.825553
 70
   192
  0
VERTEX
  8
OBJECT_9
  6
CONTINUOUS
 62
   254
 10
0.0
 20
0.0
 70
   128
  0
VERTEX
  8
OBJECT_9
  6
CONTINUOUS
 62
   254
 10
0.0
 20
0.0
 70
   128
  0
VERTEX
  8
OBJECT_9
  6
CONTINUOUS
 62
   254
 10
0.0
 20
0.0
 70
   128
  0
VERTEX
  8
OBJECT_9
  6
CONTINUOUS
 62
   254
 10
0.0
 20
0.0
 70
   128
  0
VERTEX
  8
OBJECT_9
  6
CONTINUOUS
 62
   254
 10
0.0
 20
0.0
 70
   128
  0
VERTEX
  8
OBJECT_9
  6
CONTINUOUS
 62
   254
 10
0.0
 20
0.0
 70
   128
  0
VERTEX
  8
OBJECT_9
  6
CONTINUOUS
 62
   254
 10
0.0
 20
0.0
 70
   128
  0
VERTEX
  8
OBJECT_9
  6
CONTINUOUS
 62
   254
 10
0.0
 20
0.0
 70
   128
  0
VERTEX
  8
OBJECT_9
  6
CONTINUOUS
 62
   254
 10
0.0
 20
0.0
 70
   128
  0
VERTEX
  8
OBJECT_9
  6
CONTINUOUS
 62
   254
 10
0.0
 20
0.0
 70
   128
  0
VERTEX
  8
OBJECT_9
  6
CONTINUOUS
 62
   254
 10
0.0
 20
0.0
 70
   128
  0
VERTEX
  8
OBJECT_9
  6
CONTINUOUS
 62
   254
 10
0.0
 20
0.0
 70
   128
  0
VERTEX
  8
OBJECT_9
  6
CONTINUOUS
 62
   254
 10
0.0
 20
0.0
 70
   128
  0
VERTEX
  8
OBJECT_9
  6
CONTINUOUS
 62
   254
 10
0.0
 20
0.0
 70
   128
  0
VERTEX
  8
OBJECT_9
  6
CONTINUOUS
 62
   254
 10
0.0
 20
0.0
 70
   128
  0
VERTEX
  8
OBJECT_9
  6
CONTINUOUS
 62
   254
 10
0.0
 20
0.0
 70
   128
  0
VERTEX
  8
OBJECT_9
  6
CONTINUOUS
 62
   254
 10
0.0
 20
0.0
 70
   128
  0
VERTEX
  8
OBJECT_9
  6
CONTINUOUS
 62
   254
 10
0.0
 20
0.0
 70
   128
  0
VERTEX
  8
OBJECT_9
  6
CONTINUOUS
 62
   254
 10
0.0
 20
0.0
 70
   128
  0
VERTEX
  8
OBJECT_9
  6
CONTINUOUS
 62
   254
 10
0.0
 20
0.0
 70
   128
  0
VERTEX
  8
OBJECT_9
  6
CONTINUOUS
 62
   254
 10
0.0
 20
0.0
 70
   128
  0
VERTEX
  8
OBJECT_9
  6
CONTINUOUS
 62
   254
 10
0.0
 20
0.0
 70
   128
  0
VERTEX
  8
OBJECT_9
  6
CONTINUOUS
 62
   254
 10
0.0
 20
0.0
 70
   128
  0
VERTEX
  8
OBJECT_9
  6
CONTINUOUS
 62
   254
 10
0.0
 20
0.0
 70
   128
  0
VERTEX
  8
OBJECT_9
  6
CONTINUOUS
 62
   254
 10
0.0
 20
0.0
 70
   128
  0
VERTEX
  8
OBJECT_9
  6
CONTINUOUS
 62
   254
 10
0.0
 20
0.0
 70
   128
  0
VERTEX
  8
OBJECT_9
  6
CONTINUOUS
 62
   254
 10
0.0
 20
0.0
 70
   128
  0
VERTEX
  8
OBJECT_9
  6
CONTINUOUS
 62
   254
 10
0.0
 20
0.0
 70
   128
  0
VERTEX
  8
OBJECT_9
  6
CONTINUOUS
 62
   254
 10
0.0
 20
0.0
 70
   128
  0
VERTEX
  8
OBJECT_9
  6
CONTINUOUS
 62
   254
 10
0.0
 20
0.0
 70
   128
  0
VERTEX
  8
OBJECT_9
  6
CONTINUOUS
 62
   254
 10
0.0
 20
0.0
 70
   128
  0
VERTEX
  8
OBJECT_9
  6
CONTINUOUS
 62
   254
 10
0.0
 20
0.0
 70
   128
  0
VERTEX
  8
OBJECT_9
  6
CONTINUOUS
 62
   254
 10
0.0
 20
0.0
 70
   128
  0
VERTEX
  8
OBJECT_9
  6
CONTINUOUS
 62
   254
 10
0.0
 20
0.0
 70
   128
  0
VERTEX
  8
OBJECT_9
  6
CONTINUOUS
 62
   254
 10
0.0
 20
0.0
 70
   128
  0
VERTEX
  8
OBJECT_9
  6
CONTINUOUS
 62
   254
 10
0.0
 20
0.0
 70
   128
  0
VERTEX
  8
OBJECT_9
  6
CONTINUOUS
 62
   254
 10
0.0
 20
0.0
 70
   128
  0
VERTEX
  8
OBJECT_9
  6
CONTINUOUS
 62
   254
 10
0.0
 20
0.0
 70
   128
  0
VERTEX
  8
OBJECT_9
  6
CONTINUOUS
 62
   254
 10
0.0
 20
0.0
 70
   128
  0
VERTEX
  8
OBJECT_9
  6
CONTINUOUS
 62
   254
 10
0.0
 20
0.0
 70
   128
  0
VERTEX
  8
OBJECT_9
  6
CONTINUOUS
 62
   254
 10
0.0
 20
0.0
 70
   128
  0
VERTEX
  8
OBJECT_9
  6
CONTINUOUS
 62
   254
 10
0.0
 20
0.0
 70
   128
  0
VERTEX
  8
OBJECT_9
  6
CONTINUOUS
 62
   254
 10
0.0
 20
0.0
 70
   128
  0
VERTEX
  8
OBJECT_9
  6
CONTINUOUS
 62
   254
 10
0.0
 20
0.0
 70
   128
  0
VERTEX
  8
OBJECT_9
  6
CONTINUOUS
 62
   254
 10
0.0
 20
0.0
 70
   128
  0
VERTEX
  8
OBJECT_9
  6
CONTINUOUS
 62
   254
 10
0.0
 20
0.0
 70
   128
  0
VERTEX
  8
OBJECT_9
  6
CONTINUOUS
 62
   254
 10
0.0
 20
0.0
 70
   128
  0
VERTEX
  8
OBJECT_9
  6
CONTINUOUS
 62
   254
 10
0.0
 20
0.0
 70
   128
  0
VERTEX
  8
OBJECT_9
  6
CONTINUOUS
 62
   254
 10
0.0
 20
0.0
 70
   128
  0
VERTEX
  8
OBJECT_9
  6
CONTINUOUS
 62
   254
 10
0.0
 20
0.0
 70
   128
  0
VERTEX
  8
OBJECT_9
  6
CONTINUOUS
 62
   254
 10
0.0
 20
0.0
 70
   128
  0
VERTEX
  8
OBJECT_9
  6
CONTINUOUS
 62
   254
 10
0.0
 20
0.0
 70
   128
  0
VERTEX
  8
OBJECT_9
  6
CONTINUOUS
 62
   254
 10
0.0
 20
0.0
 70
   128
  0
VERTEX
  8
OBJECT_9
  6
CONTINUOUS
 62
   254
 10
0.0
 20
0.0
 70
   128
  0
VERTEX
  8
OBJECT_9
  6
CONTINUOUS
 62
   254
 10
0.0
 20
0.0
 70
   128
  0
VERTEX
  8
OBJECT_9
  6
CONTINUOUS
 62
   254
 10
0.0
 20
0.0
 70
   128
  0
VERTEX
  8
OBJECT_9
  6
CONTINUOUS
 62
   254
 10
0.0
 20
0.0
 70
   128
  0
VERTEX
  8
OBJECT_9
  6
CONTINUOUS
 62
   254
 10
0.0
 20
0.0
 70
   128
  0
VERTEX
  8
OBJECT_9
  6
CONTINUOUS
 62
   254
 10
0.0
 20
0.0
 70
   128
  0
VERTEX
  8
OBJECT_9
  6
CONTINUOUS
 62
   254
 10
0.0
 20
0.0
 70
   128
  0
VERTEX
  8
OBJECT_9
  6
CONTINUOUS
 62
   254
 10
0.0
 20
0.0
 70
   128
  0
VERTEX
  8
OBJECT_9
  6
CONTINUOUS
 62
   254
 10
0.0
 20
0.0
 70
   128
  0
VERTEX
  8
OBJECT_9
  6
CONTINUOUS
 62
   254
 10
0.0
 20
0.0
 70
   128
  0
VERTEX
  8
OBJECT_9
  6
CONTINUOUS
 62
   254
 10
0.0
 20
0.0
 70
   128
  0
VERTEX
  8
OBJECT_9
  6
CONTINUOUS
 62
   254
 10
0.0
 20
0.0
 70
   128
  0
VERTEX
  8
OBJECT_9
  6
CONTINUOUS
 62
   254
 10
0.0
 20
0.0
 70
   128
  0
VERTEX
  8
OBJECT_9
  6
CONTINUOUS
 62
   254
 10
0.0
 20
0.0
 70
   128
  0
VERTEX
  8
OBJECT_9
  6
CONTINUOUS
 62
   254
 10
0.0
 20
0.0
 70
   128
  0
VERTEX
  8
OBJECT_9
  6
CONTINUOUS
 62
   254
 10
0.0
 20
0.0
 70
   128
  0
VERTEX
  8
OBJECT_9
  6
CONTINUOUS
 62
   254
 10
0.0
 20
0.0
 70
   128
  0
VERTEX
  8
OBJECT_9
  6
CONTINUOUS
 62
   254
 10
0.0
 20
0.0
 70
   128
  0
VERTEX
  8
OBJECT_9
  6
CONTINUOUS
 62
   254
 10
0.0
 20
0.0
 70
   128
  0
VERTEX
  8
OBJECT_9
  6
CONTINUOUS
 62
   254
 10
0.0
 20
0.0
 70
   128
  0
VERTEX
  8
OBJECT_9
  6
CONTINUOUS
 62
   254
 10
0.0
 20
0.0
 70
   128
  0
VERTEX
  8
OBJECT_9
  6
CONTINUOUS
 62
   254
 10
0.0
 20
0.0
 70
   128
  0
VERTEX
  8
OBJECT_9
  6
CONTINUOUS
 62
   254
 10
0.0
 20
0.0
 70
   128
  0
VERTEX
  8
OBJECT_9
  6
CONTINUOUS
 62
   254
 10
0.0
 20
0.0
 70
   128
  0
VERTEX
  8
OBJECT_9
  6
CONTINUOUS
 62
   254
 10
0.0
 20
0.0
 70
   128
  0
VERTEX
  8
OBJECT_9
  6
CONTINUOUS
 62
   254
 10
0.0
 20
0.0
 70
   128
  0
VERTEX
  8
OBJECT_9
  6
CONTINUOUS
 62
   254
 10
0.0
 20
0.0
 70
   128
  0
VERTEX
  8
OBJECT_9
  6
CONTINUOUS
 62
   254
 10
0.0
 20
0.0
 70
   128
  0
VERTEX
  8
OBJECT_9
  6
CONTINUOUS
 62
   254
 10
0.0
 20
0.0
 70
   128
  0
VERTEX
  8
OBJECT_9
  6
CONTINUOUS
 62
   254
 10
0.0
 20
0.0
 70
   128
  0
VERTEX
  8
OBJECT_9
  6
CONTINUOUS
 62
   254
 10
0.0
 20
0.0
 70
   128
  0
VERTEX
  8
OBJECT_9
  6
CONTINUOUS
 62
   254
 10
0.0
 20
0.0
 70
   128
  0
VERTEX
  8
OBJECT_9
  6
CONTINUOUS
 62
   254
 10
0.0
 20
0.0
 70
   128
  0
VERTEX
  8
OBJECT_9
  6
CONTINUOUS
 62
   254
 10
0.0
 20
0.0
 70
   128
  0
VERTEX
  8
OBJECT_9
  6
CONTINUOUS
 62
   254
 10
0.0
 20
0.0
 70
   128
  0
VERTEX
  8
OBJECT_9
  6
CONTINUOUS
 62
   254
 10
0.0
 20
0.0
 70
   128
  0
VERTEX
  8
OBJECT_9
  6
CONTINUOUS
 62
   254
 10
0.0
 20
0.0
 70
   128
  0
VERTEX
  8
OBJECT_9
  6
CONTINUOUS
 62
   254
 10
0.0
 20
0.0
 70
   128
  0
VERTEX
  8
OBJECT_9
  6
CONTINUOUS
 62
   254
 10
0.0
 20
0.0
 70
   128
  0
VERTEX
  8
OBJECT_9
  6
CONTINUOUS
 62
   254
 10
0.0
 20
0.0
 70
   128
  0
VERTEX
  8
OBJECT_9
  6
CONTINUOUS
 62
   254
 10
0.0
 20
0.0
 70
   128
  0
VERTEX
  8
OBJECT_9
  6
CONTINUOUS
 62
   254
 10
0.0
 20
0.0
 70
   128
  0
VERTEX
  8
OBJECT_9
  6
CONTINUOUS
 62
   254
 10
0.0
 20
0.0
 70
   128
  0
VERTEX
  8
OBJECT_9
  6
CONTINUOUS
 62
   254
 10
0.0
 20
0.0
 70
   128
  0
VERTEX
  8
OBJECT_9
  6
CONTINUOUS
 62
   254
 10
0.0
 20
0.0
 70
   128
  0
VERTEX
  8
OBJECT_9
  6
CONTINUOUS
 62
   254
 10
0.0
 20
0.0
 70
   128
  0
VERTEX
  8
OBJECT_9
  6
CONTINUOUS
 62
   254
 10
0.0
 20
0.0
 70
   128
  0
VERTEX
  8
OBJECT_9
  6
CONTINUOUS
 62
   254
 10
0.0
 20
0.0
 70
   128
  0
VERTEX
  8
OBJECT_9
  6
CONTINUOUS
 62
   254
 10
0.0
 20
0.0
 70
   128
  0
VERTEX
  8
OBJECT_9
  6
CONTINUOUS
 62
   254
 10
0.0
 20
0.0
 70
   128
  0
VERTEX
  8
OBJECT_9
  6
CONTINUOUS
 62
   254
 10
0.0
 20
0.0
 70
   128
  0
VERTEX
  8
OBJECT_9
  6
CONTINUOUS
 62
   254
 10
0.0
 20
0.0
 70
   128
  0
VERTEX
  8
OBJECT_9
  6
CONTINUOUS
 62
   254
 10
0.0
 20
0.0
 70
   128
  0
VERTEX
  8
OBJECT_9
  6
CONTINUOUS
 62
   254
 10
0.0
 20
0.0
 70
   128
  0
VERTEX
  8
OBJECT_9
  6
CONTINUOUS
 62
   254
 10
0.0
 20
0.0
 70
   128
  0
VERTEX
  8
OBJECT_9
  6
CONTINUOUS
 62
   254
 10
0.0
 20
0.0
 70
   128
  0
VERTEX
  8
OBJECT_9
  6
CONTINUOUS
 62
   254
 10
0.0
 20
0.0
 70
   128
  0
VERTEX
  8
OBJECT_9
  6
CONTINUOUS
 62
   254
 10
0.0
 20
0.0
 70
   128
  0
VERTEX
  8
OBJECT_9
  6
CONTINUOUS
 62
   254
 10
0.0
 20
0.0
 70
   128
  0
SEQEND
  8
OBJECT_9
  6
CONTINUOUS
 62
   254
  0
POLYLINE
  8
OBJECT_22
  6
CONTINUOUS
 62
   254
 66
     1
 70
    64
  0
VERTEX
  8
0
 38
-47.847826
 10
-31.524948
 20
-62.525149
 70
   192
  0
VERTEX
  8
0
 38
-47.847826
 10
-196.374404
 20
-86.075072
 70
   192
  0
VERTEX
  8
0
 38
-47.847826
 10
-29.03774
 20
-55.964001
 70
   192
  0
VERTEX
  8
0
 38
-47.847826
 10
-25.00933
 20
-39.370081
 70
   192
  0
VERTEX
  8
0
 38
-47.847826
 10
-24.118733
 20
-31.09858
 70
   192
  0
VERTEX
  8
0
 38
-47.847826
 10
-24.385819
 20
-15.32384
 70
   192
  0
VERTEX
  8
0
 38
-47.847826
 10
-25.802982
 20
-5.807295
 70
   192
  0
VERTEX
  8
0
 38
-47.847826
 10
-29.692683
 20
8.137781
 70
   192
  0
VERTEX
  8
0
 38
-47.847826
 10
-33.975708
 20
18.186294
 70
   192
  0
VERTEX
  8
0
 38
-47.847826
 10
-40.604223
 20
29.57487
 70
   192
  0
VERTEX
  8
0
 38
-47.847826
 10
-48.079953
 20
39.247064
 70
   192
  0
VERTEX
  8
0
 38
-47.847826
 10
-56.450764
 20
47.671766
 70
   192
  0
VERTEX
  8
0
 38
-47.847826
 10
-67.154536
 20
55.939759
 70
   192
  0
VERTEX
  8
0
 38
-47.847826
 10
-76.259753
 20
61.317805
 70
   192
  0
VERTEX
  8
0
 38
-47.847826
 10
-89.899555
 20
67.126799
 70
   192
  0
VERTEX
  8
0
 38
-47.847826
 10
-98.815453
 20
69.67549
 70
   192
  0
VERTEX
  8
0
 38
-47.847826
 10
-114.764976
 20
72.045806
 70
   192
  0
VERTEX
  8
0
 38
-47.847826
 10
-122.73355
 20
72.231881
 70
   192
  0
VERTEX
  8
0
 38
-47.847826
 10
-140.056261
 20
70.361557
 70
   192
  0
VERTEX
  8
0
 38
-47.847826
 10
-146.546115
 20
68.830086
 70
   192
  0
VERTEX
  8
0
 38
-47.847826
 10
-164.04985
 20
62.188831
 70
   192
  0
VERTEX
  8
0
 38
-47.847826
 10
-168.791698
 20
59.678883
 70
   192
  0
VERTEX
  8
0
 38
-47.847826
 10
-185.110621
 20
48.084586
 70
   192
  0
VERTEX
  8
0
 38
-47.847826
 10
-188.105018
 20
45.33991
 70
   192
  0
VERTEX
  8
0
 38
-47.847826
 10
-201.803316
 20
29.010003
 70
   192
  0
VERTEX
  8
0
 38
-47.847826
 10
-203.300757
 20
26.693195
 70
   192
  0
VERTEX
  8
0
 38
-47.847826
 10
-212.990356
 20
6.264984
 70
   192
  0
VERTEX
  8
0
 38
-47.847826
 10
-213.446305
 20
4.883144
 70
   192
  0
VERTEX
  8
0
 38
-47.847826
 10
-217.918999
 20
-18.751692
 70
   192
  0
VERTEX
  8
0
 38
-47.847826
 10
-216.444334
 20
-42.760771
 70
   192
  0
VERTEX
  8
0
 38
-47.847826
 10
-216.225113
 20
-43.891722
 70
   192
  0
VERTEX
  8
0
 38
-47.847826
 10
-209.112817
 20
-65.670579
 70
   192
  0
VERTEX
  8
0
 38
-47.847826
 10
-208.052387
 20
-67.885311
 70
   192
  0
VERTEX
  8
0
 38
-139.847826
 10
-196.374404
 20
-86.075072
 70
   192
  0
VERTEX
  8
0
 38
-139.847826
 10
-31.524948
 20
-62.525149
 70
   192
  0
VERTEX
  8
0
 38
-139.847826
 10
-208.052387
 20
-67.885311
 70
   192
  0
VERTEX
  8
0
 38
-139.847826
 10
-209.112817
 20
-65.670579
 70
   192
  0
VERTEX
  8
0
 38
-139.847826
 10
-216.225113
 20
-43.891722
 70
   192
  0
VERTEX
  8
0
 38
-139.847826
 10
-216.444334
 20
-42.760771
 70
   192
  0
VERTEX
  8
0
 38
-139.847826
 10
-217.918999
 20
-18.751692
 70
   192
  0
VERTEX
  8
0
 38
-139.847826
 10
-213.446305
 20
4.883144
 70
   192
  0
VERTEX
  8
0
 38
-139.847826
 10
-212.990356
 20
6.264984
 70
   192
  0
VERTEX
  8
0
 38
-139.847826
 10
-203.300757
 20
26.693195
 70
   192
  0
VERTEX
  8
0
 38
-139.847826
 10
-201.803316
 20
29.010003
 70
   192
  0
VERTEX
  8
0
 38
-139.847826
 10
-188.105018
 20
45.33991
 70
   192
  0
VERTEX
  8
0
 38
-139.847826
 10
-185.110621
 20
48.084586
 70
   192
  0
VERTEX
  8
0
 38
-139.847826
 10
-168.791698
 20
59.678883
 70
   192
  0
VERTEX
  8
0
 38
-139.847826
 10
-164.04985
 20
62.188831
 70
   192
  0
VERTEX
  8
0
 38
-139.847826
 10
-146.546115
 20
68.830086
 70
   192
  0
VERTEX
  8
0
 38
-139.847826
 10
-140.056261
 20
70.361557
 70
   192
  0
VERTEX
  8
0
 38
-139.847826
 10
-122.73355
 20
72.231881
 70
   192
  0
VERTEX
  8
0
 38
-139.847826
 10
-114.764976
 20
72.045806
 70
   192
  0
VERTEX
  8
0
 38
-139.847826
 10
-98.815453
 20
69.67549
 70
   192
  0
VERTEX
  8
0
 38
-139.847826
 10
-89.899555
 20
67.126799
 70
   192
  0
VERTEX
  8
0
 38
-139.847826
 10
-76.259753
 20
61.317805
 70
   192
  0
VERTEX
  8
0
 38
-139.847826
 10
-67.154536
 20
55.939759
 70
   192
  0
VERTEX
  8
0
 38
-139.847826
 10
-56.450764
 20
47.671766
 70
   192
  0
VERTEX
  8
0
 38
-139.847826
 10
-48.079953
 20
39.247064
 70
   192
  0
VERTEX
  8
0
 38
-139.847826
 10
-40.604223
 20
29.57487
 70
   192
  0
VERTEX
  8
0
 38
-139.847826
 10
-33.975708
 20
18.186294
 70
   192
  0
VERTEX
  8
0
 38
-139.847826
 10
-29.692683
 20
8.137781
 70
   192
  0
VERTEX
  8
0
 38
-139.847826
 10
-25.802982
 20
-5.807295
 70
   192
  0
VERTEX
  8
0
 38
-139.847826
 10
-24.385819
 20
-15.32384
 70
   192
  0
VERTEX
  8
0
 38
-139.847826
 10
-24.118733
 20
-31.09858
 70
   192
  0
VERTEX
  8
0
 38
-139.847826
 10
-25.00933
 20
-39.370081
 70
   192
  0
VERTEX
  8
0
 38
-139.847826
 10
-29.03774
 20
-55.964001
 70
   192
  0
VERTEX
  8
OBJECT_22
  6
CONTINUOUS
 62
   254
 10
0.0
 20
0.0
 70
   128
  0
VERTEX
  8
OBJECT_22
  6
CONTINUOUS
 62
   254
 10
0.0
 20
0.0
 70
   128
  0
VERTEX
  8
OBJECT_22
  6
CONTINUOUS
 62
   254
 10
0.0
 20
0.0
 70
   128
  0
VERTEX
  8
OBJECT_22
  6
CONTINUOUS
 62
   254
 10
0.0
 20
0.0
 70
   128
  0
VERTEX
  8
OBJECT_22
  6
CONTINUOUS
 62
   254
 10
0.0
 20
0.0
 70
   128
  0
VERTEX
  8
OBJECT_22
  6
CONTINUOUS
 62
   254
 10
0.0
 20
0.0
 70
   128
  0
VERTEX
  8
OBJECT_22
  6
CONTINUOUS
 62
   254
 10
0.0
 20
0.0
 70
   128
  0
VERTEX
  8
OBJECT_22
  6
CONTINUOUS
 62
   254
 10
0.0
 20
0.0
 70
   128
  0
VERTEX
  8
OBJECT_22
  6
CONTINUOUS
 62
   254
 10
0.0
 20
0.0
 70
   128
  0
VERTEX
  8
OBJECT_22
  6
CONTINUOUS
 62
   254
 10
0.0
 20
0.0
 70
   128
  0
VERTEX
  8
OBJECT_22
  6
CONTINUOUS
 62
   254
 10
0.0
 20
0.0
 70
   128
  0
VERTEX
  8
OBJECT_22
  6
CONTINUOUS
 62
   254
 10
0.0
 20
0.0
 70
   128
  0
VERTEX
  8
OBJECT_22
  6
CONTINUOUS
 62
   254
 10
0.0
 20
0.0
 70
   128
  0
VERTEX
  8
OBJECT_22
  6
CONTINUOUS
 62
   254
 10
0.0
 20
0.0
 70
   128
  0
VERTEX
  8
OBJECT_22
  6
CONTINUOUS
 62
   254
 10
0.0
 20
0.0
 70
   128
  0
VERTEX
  8
OBJECT_22
  6
CONTINUOUS
 62
   254
 10
0.0
 20
0.0
 70
   128
  0
VERTEX
  8
OBJECT_22
  6
CONTINUOUS
 62
   254
 10
0.0
 20
0.0
 70
   128
  0
VERTEX
  8
OBJECT_22
  6
CONTINUOUS
 62
   254
 10
0.0
 20
0.0
 70
   128
  0
VERTEX
  8
OBJECT_22
  6
CONTINUOUS
 62
   254
 10
0.0
 20
0.0
 70
   128
  0
VERTEX
  8
OBJECT_22
  6
CONTINUOUS
 62
   254
 10
0.0
 20
0.0
 70
   128
  0
VERTEX
  8
OBJECT_22
  6
CONTINUOUS
 62
   254
 10
0.0
 20
0.0
 70
   128
  0
VERTEX
  8
OBJECT_22
  6
CONTINUOUS
 62
   254
 10
0.0
 20
0.0
 70
   128
  0
VERTEX
  8
OBJECT_22
  6
CONTINUOUS
 62
   254
 10
0.0
 20
0.0
 70
   128
  0
VERTEX
  8
OBJECT_22
  6
CONTINUOUS
 62
   254
 10
0.0
 20
0.0
 70
   128
  0
VERTEX
  8
OBJECT_22
  6
CONTINUOUS
 62
   254
 10
0.0
 20
0.0
 70
   128
  0
VERTEX
  8
OBJECT_22
  6
CONTINUOUS
 62
   254
 10
0.0
 20
0.0
 70
   128
  0
VERTEX
  8
OBJECT_22
  6
CONTINUOUS
 62
   254
 10
0.0
 20
0.0
 70
   128
  0
VERTEX
  8
OBJECT_22
  6
CONTINUOUS
 62
   254
 10
0.0
 20
0.0
 70
   128
  0
VERTEX
  8
OBJECT_22
  6
CONTINUOUS
 62
   254
 10
0.0
 20
0.0
 70
   128
  0
VERTEX
  8
OBJECT_22
  6
CONTINUOUS
 62
   254
 10
0.0
 20
0.0
 70
   128
  0
VERTEX
  8
OBJECT_22
  6
CONTINUOUS
 62
   254
 10
0.0
 20
0.0
 70
   128
  0
VERTEX
  8
OBJECT_22
  6
CONTINUOUS
 62
   254
 10
0.0
 20
0.0
 70
   128
  0
VERTEX
  8
OBJECT_22
  6
CONTINUOUS
 62
   254
 10
0.0
 20
0.0
 70
   128
  0
VERTEX
  8
OBJECT_22
  6
CONTINUOUS
 62
   254
 10
0.0
 20
0.0
 70
   128
  0
VERTEX
  8
OBJECT_22
  6
CONTINUOUS
 62
   254
 10
0.0
 20
0.0
 70
   128
  0
VERTEX
  8
OBJECT_22
  6
CONTINUOUS
 62
   254
 10
0.0
 20
0.0
 70
   128
  0
VERTEX
  8
OBJECT_22
  6
CONTINUOUS
 62
   254
 10
0.0
 20
0.0
 70
   128
  0
VERTEX
  8
OBJECT_22
  6
CONTINUOUS
 62
   254
 10
0.0
 20
0.0
 70
   128
  0
VERTEX
  8
OBJECT_22
  6
CONTINUOUS
 62
   254
 10
0.0
 20
0.0
 70
   128
  0
VERTEX
  8
OBJECT_22
  6
CONTINUOUS
 62
   254
 10
0.0
 20
0.0
 70
   128
  0
VERTEX
  8
OBJECT_22
  6
CONTINUOUS
 62
   254
 10
0.0
 20
0.0
 70
   128
  0
VERTEX
  8
OBJECT_22
  6
CONTINUOUS
 62
   254
 10
0.0
 20
0.0
 70
   128
  0
VERTEX
  8
OBJECT_22
  6
CONTINUOUS
 62
   254
 10
0.0
 20
0.0
 70
   128
  0
VERTEX
  8
OBJECT_22
  6
CONTINUOUS
 62
   254
 10
0.0
 20
0.0
 70
   128
  0
VERTEX
  8
OBJECT_22
  6
CONTINUOUS
 62
   254
 10
0.0
 20
0.0
 70
   128
  0
VERTEX
  8
OBJECT_22
  6
CONTINUOUS
 62
   254
 10
0.0
 20
0.0
 70
   128
  0
VERTEX
  8
OBJECT_22
  6
CONTINUOUS
 62
   254
 10
0.0
 20
0.0
 70
   128
  0
VERTEX
  8
OBJECT_22
  6
CONTINUOUS
 62
   254
 10
0.0
 20
0.0
 70
   128
  0
VERTEX
  8
OBJECT_22
  6
CONTINUOUS
 62
   254
 10
0.0
 20
0.0
 70
   128
  0
VERTEX
  8
OBJECT_22
  6
CONTINUOUS
 62
   254
 10
0.0
 20
0.0
 70
   128
  0
VERTEX
  8
OBJECT_22
  6
CONTINUOUS
 62
   254
 10
0.0
 20
0.0
 70
   128
  0
VERTEX
  8
OBJECT_22
  6
CONTINUOUS
 62
   254
 10
0.0
 20
0.0
 70
   128
  0
VERTEX
  8
OBJECT_22
  6
CONTINUOUS
 62
   254
 10
0.0
 20
0.0
 70
   128
  0
VERTEX
  8
OBJECT_22
  6
CONTINUOUS
 62
   254
 10
0.0
 20
0.0
 70
   128
  0
VERTEX
  8
OBJECT_22
  6
CONTINUOUS
 62
   254
 10
0.0
 20
0.0
 70
   128
  0
VERTEX
  8
OBJECT_22
  6
CONTINUOUS
 62
   254
 10
0.0
 20
0.0
 70
   128
  0
VERTEX
  8
OBJECT_22
  6
CONTINUOUS
 62
   254
 10
0.0
 20
0.0
 70
   128
  0
VERTEX
  8
OBJECT_22
  6
CONTINUOUS
 62
   254
 10
0.0
 20
0.0
 70
   128
  0
VERTEX
  8
OBJECT_22
  6
CONTINUOUS
 62
   254
 10
0.0
 20
0.0
 70
   128
  0
VERTEX
  8
OBJECT_22
  6
CONTINUOUS
 62
   254
 10
0.0
 20
0.0
 70
   128
  0
VERTEX
  8
OBJECT_22
  6
CONTINUOUS
 62
   254
 10
0.0
 20
0.0
 70
   128
  0
VERTEX
  8
OBJECT_22
  6
CONTINUOUS
 62
   254
 10
0.0
 20
0.0
 70
   128
  0
VERTEX
  8
OBJECT_22
  6
CONTINUOUS
 62
   254
 10
0.0
 20
0.0
 70
   128
  0
VERTEX
  8
OBJECT_22
  6
CONTINUOUS
 62
   254
 10
0.0
 20
0.0
 70
   128
  0
SEQEND
  8
OBJECT_22
  6
CONTINUOUS
 62
   254
  0
POLYLINE
  8
OBJECT_22
  6
CONTINUOUS
 62
   254
 66
     1
 70
    64
  0
VERTEX
  8
0
 38
-45.847826
 10
-198.674964
 20
-86.403723
 70
   192
  0
VERTEX
  8
0
 38
-45.847826
 10
-29.224387
 20
-62.196498
 70
   192
  0
VERTEX
  8
0
 38
-45.847826
 10
-209.845207
 20
-68.771764
 70
   192
  0
VERTEX
  8
0
 38
-45.847826
 10
-211.36589
 20
-65.55189
 70
   192
  0
VERTEX
  8
0
 38
-45.847826
 10
-218.186275
 20
-44.283954
 70
   192
  0
VERTEX
  8
0
 38
-45.847826
 10
-218.574519
 20
-42.230351
 70
   192
  0
VERTEX
  8
0
 38
-45.847826
 10
-219.905216
 20
-18.471718
 70
   192
  0
VERTEX
  8
0
 38
-45.847826
 10
-219.863453
 20
-17.854191
 70
   192
  0
VERTEX
  8
0
 38
-45.847826
 10
-215.154481
 20
6.097513
 70
   192
  0
VERTEX
  8
0
 38
-45.847826
 10
-214.884887
 20
6.905881
 70
   192
  0
VERTEX
  8
0
 38
-45.847826
 10
-204.733332
 20
28.171438
 70
   192
  0
VERTEX
  8
0
 38
-45.847826
 10
-203.467416
 20
30.119404
 70
   192
  0
VERTEX
  8
0
 38
-45.847826
 10
-189.232331
 20
47.028201
 70
   192
  0
VERTEX
  8
0
 38
-45.847826
 10
-186.430884
 20
49.586886
 70
   192
  0
VERTEX
  8
0
 38
-45.847826
 10
-169.592036
 20
61.523626
 70
   192
  0
VERTEX
  8
0
 38
-45.847826
 10
-164.936303
 20
63.98165
 70
   192
  0
VERTEX
  8
0
 38
-45.847826
 10
-147.004165
 20
70.778171
 70
   192
  0
VERTEX
  8
0
 38
-45.847826
 10
-140.448493
 20
72.322718
 70
   192
  0
VERTEX
  8
0
 38
-45.847826
 10
-122.839286
 20
74.230297
 70
   192
  0
VERTEX
  8
0
 38
-45.847826
 10
-114.636257
 20
74.04166
 70
   192
  0
VERTEX
  8
0
 38
-45.847826
 10
-98.563657
 20
71.670537
 70
   192
  0
VERTEX
  8
0
 38
-45.847826
 10
-89.258658
 20
69.021331
 70
   192
  0
VERTEX
  8
0
 38
-45.847826
 10
-75.650255
 20
63.254212
 70
   192
  0
VERTEX
  8
0
 38
-45.847826
 10
-66.045135
 20
57.60386
 70
   192
  0
VERTEX
  8
0
 38
-45.847826
 10
-55.4894
 20
49.492
 70
   192
  0
VERTEX
  8
0
 38
-45.847826
 10
-46.577653
 20
40.567328
 70
   192
  0
VERTEX
  8
0
 38
-45.847826
 10
-39.304398
 20
31.218954
 70
   192
  0
VERTEX
  8
0
 38
-45.847826
 10
-32.182889
 20
19.072747
 70
   192
  0
VERTEX
  8
0
 38
-45.847826
 10
-28.077308
 20
9.54383
 70
   192
  0
VERTEX
  8
0
 38
-45.847826
 10
-23.841821
 20
-5.415063
 70
   192
  0
VERTEX
  8
0
 38
-45.847826
 10
-22.489359
 20
-14.218185
 70
   192
  0
VERTEX
  8
0
 38
-45.847826
 10
-22.12288
 20
-31.227299
 70
   192
  0
VERTEX
  8
0
 38
-45.847826
 10
-22.879612
 20
-38.625279
 70
   192
  0
VERTEX
  8
0
 38
-45.847826
 10
-27.143208
 20
-56.604899
 70
   192
  0
VERTEX
  8
0
 38
-141.847826
 10
-29.224387
 20
-62.196498
 70
   192
  0
VERTEX
  8
0
 38
-141.847826
 10
-198.674964
 20
-86.403723
 70
   192
  0
VERTEX
  8
0
 38
-141.847826
 10
-27.143208
 20
-56.604899
 70
   192
  0
VERTEX
  8
0
 38
-141.847826
 10
-22.879612
 20
-38.625279
 70
   192
  0
VERTEX
  8
0
 38
-141.847826
 10
-22.12288
 20
-31.227299
 70
   192
  0
VERTEX
  8
0
 38
-141.847826
 10
-22.489359
 20
-14.218185
 70
   192
  0
VERTEX
  8
0
 38
-141.847826
 10
-23.841821
 20
-5.415063
 70
   192
  0
VERTEX
  8
0
 38
-141.847826
 10
-28.077308
 20
9.54383
 70
   192
  0
VERTEX
  8
0
 38
-141.847826
 10
-32.182889
 20
19.072747
 70
   192
  0
VERTEX
  8
0
 38
-141.847826
 10
-39.304398
 20
31.218954
 70
   192
  0
VERTEX
  8
0
 38
-141.847826
 10
-46.577653
 20
40.567328
 70
   192
  0
VERTEX
  8
0
 38
-141.847826
 10
-55.4894
 20
49.492
 70
   192
  0
VERTEX
  8
0
 38
-141.847826
 10
-66.045135
 20
57.60386
 70
   192
  0
VERTEX
  8
0
 38
-141.847826
 10
-75.650255
 20
63.254212
 70
   192
  0
VERTEX
  8
0
 38
-141.847826
 10
-89.258658
 20
69.021331
 70
   192
  0
VERTEX
  8
0
 38
-141.847826
 10
-98.563657
 20
71.670537
 70
   192
  0
VERTEX
  8
0
 38
-141.847826
 10
-114.636257
 20
74.04166
 70
   192
  0
VERTEX
  8
0
 38
-141.847826
 10
-122.839286
 20
74.230297
 70
   192
  0
VERTEX
  8
0
 38
-141.847826
 10
-140.448493
 20
72.322718
 70
   192
  0
VERTEX
  8
0
 38
-141.847826
 10
-147.004165
 20
70.778171
 70
   192
  0
VERTEX
  8
0
 38
-141.847826
 10
-164.936303
 20
63.98165
 70
   192
  0
VERTEX
  8
0
 38
-141.847826
 10
-169.592036
 20
61.523626
 70
   192
  0
VERTEX
  8
0
 38
-141.847826
 10
-186.430884
 20
49.586886
 70
   192
  0
VERTEX
  8
0
 38
-141.847826
 10
-189.232331
 20
47.028201
 70
   192
  0
VERTEX
  8
0
 38
-141.847826
 10
-203.467416
 20
30.119404
 70
   192
  0
VERTEX
  8
0
 38
-141.847826
 10
-204.733332
 20
28.171438
 70
   192
  0
VERTEX
  8
0
 38
-141.847826
 10
-214.884887
 20
6.905881
 70
   192
  0
VERTEX
  8
0
 38
-141.847826
 10
-215.154481
 20
6.097513
 70
   192
  0
VERTEX
  8
0
 38
-141.847826
 10
-219.863453
 20
-17.854191
 70
   192
  0
VERTEX
  8
0
 38
-141.847826
 10
-219.905216
 20
-18.471718
 70
   192
  0
VERTEX
  8
0
 38
-141.847826
 10
-218.574519
 20
-42.230351
 70
   192
  0
VERTEX
  8
0
 38
-141.847826
 10
-218.186275
 20
-44.283954
 70
   192
  0
VERTEX
  8
0
 38
-141.847826
 10
-211.36589
 20
-65.55189
 70
   192
  0
VERTEX
  8
0
 38
-141.847826
 10
-209.845207
 20
-68.771764
 70
   192
  0
VERTEX
  8
OBJECT_22
  6
CONTINUOUS
 62
   254
 10
0.0
 20
0.0
 70
   128
  0
VERTEX
  8
OBJECT_22
  6
CONTINUOUS
 62
   254
 10
0.0
 20
0.0
 70
   128
  0
VERTEX
  8
OBJECT_22
  6
CONTINUOUS
 62
   254
 10
0.0
 20
0.0
 70
   128
  0
VERTEX
  8
OBJECT_22
  6
CONTINUOUS
 62
   254
 10
0.0
 20
0.0
 70
   128
  0
VERTEX
  8
OBJECT_22
  6
CONTINUOUS
 62
   254
 10
0.0
 20
0.0
 70
   128
  0
VERTEX
  8
OBJECT_22
  6
CONTINUOUS
 62
   254
 10
0.0
 20
0.0
 70
   128
  0
VERTEX
  8
OBJECT_22
  6
CONTINUOUS
 62
   254
 10
0.0
 20
0.0
 70
   128
  0
VERTEX
  8
OBJECT_22
  6
CONTINUOUS
 62
   254
 10
0.0
 20
0.0
 70
   128
  0
VERTEX
  8
OBJECT_22
  6
CONTINUOUS
 62
   254
 10
0.0
 20
0.0
 70
   128
  0
VERTEX
  8
OBJECT_22
  6
CONTINUOUS
 62
   254
 10
0.0
 20
0.0
 70
   128
  0
VERTEX
  8
OBJECT_22
  6
CONTINUOUS
 62
   254
 10
0.0
 20
0.0
 70
   128
  0
VERTEX
  8
OBJECT_22
  6
CONTINUOUS
 62
   254
 10
0.0
 20
0.0
 70
   128
  0
VERTEX
  8
OBJECT_22
  6
CONTINUOUS
 62
   254
 10
0.0
 20
0.0
 70
   128
  0
VERTEX
  8
OBJECT_22
  6
CONTINUOUS
 62
   254
 10
0.0
 20
0.0
 70
   128
  0
VERTEX
  8
OBJECT_22
  6
CONTINUOUS
 62
   254
 10
0.0
 20
0.0
 70
   128
  0
VERTEX
  8
OBJECT_22
  6
CONTINUOUS
 62
   254
 10
0.0
 20
0.0
 70
   128
  0
VERTEX
  8
OBJECT_22
  6
CONTINUOUS
 62
   254
 10
0.0
 20
0.0
 70
   128
  0
VERTEX
  8
OBJECT_22
  6
CONTINUOUS
 62
   254
 10
0.0
 20
0.0
 70
   128
  0
VERTEX
  8
OBJECT_22
  6
CONTINUOUS
 62
   254
 10
0.0
 20
0.0
 70
   128
  0
VERTEX
  8
OBJECT_22
  6
CONTINUOUS
 62
   254
 10
0.0
 20
0.0
 70
   128
  0
VERTEX
  8
OBJECT_22
  6
CONTINUOUS
 62
   254
 10
0.0
 20
0.0
 70
   128
  0
VERTEX
  8
OBJECT_22
  6
CONTINUOUS
 62
   254
 10
0.0
 20
0.0
 70
   128
  0
VERTEX
  8
OBJECT_22
  6
CONTINUOUS
 62
   254
 10
0.0
 20
0.0
 70
   128
  0
VERTEX
  8
OBJECT_22
  6
CONTINUOUS
 62
   254
 10
0.0
 20
0.0
 70
   128
  0
VERTEX
  8
OBJECT_22
  6
CONTINUOUS
 62
   254
 10
0.0
 20
0.0
 70
   128
  0
VERTEX
  8
OBJECT_22
  6
CONTINUOUS
 62
   254
 10
0.0
 20
0.0
 70
   128
  0
VERTEX
  8
OBJECT_22
  6
CONTINUOUS
 62
   254
 10
0.0
 20
0.0
 70
   128
  0
VERTEX
  8
OBJECT_22
  6
CONTINUOUS
 62
   254
 10
0.0
 20
0.0
 70
   128
  0
VERTEX
  8
OBJECT_22
  6
CONTINUOUS
 62
   254
 10
0.0
 20
0.0
 70
   128
  0
VERTEX
  8
OBJECT_22
  6
CONTINUOUS
 62
   254
 10
0.0
 20
0.0
 70
   128
  0
VERTEX
  8
OBJECT_22
  6
CONTINUOUS
 62
   254
 10
0.0
 20
0.0
 70
   128
  0
VERTEX
  8
OBJECT_22
  6
CONTINUOUS
 62
   254
 10
0.0
 20
0.0
 70
   128
  0
VERTEX
  8
OBJECT_22
  6
CONTINUOUS
 62
   254
 10
0.0
 20
0.0
 70
   128
  0
VERTEX
  8
OBJECT_22
  6
CONTINUOUS
 62
   254
 10
0.0
 20
0.0
 70
   128
  0
VERTEX
  8
OBJECT_22
  6
CONTINUOUS
 62
   254
 10
0.0
 20
0.0
 70
   128
  0
VERTEX
  8
OBJECT_22
  6
CONTINUOUS
 62
   254
 10
0.0
 20
0.0
 70
   128
  0
VERTEX
  8
OBJECT_22
  6
CONTINUOUS
 62
   254
 10
0.0
 20
0.0
 70
   128
  0
VERTEX
  8
OBJECT_22
  6
CONTINUOUS
 62
   254
 10
0.0
 20
0.0
 70
   128
  0
VERTEX
  8
OBJECT_22
  6
CONTINUOUS
 62
   254
 10
0.0
 20
0.0
 70
   128
  0
VERTEX
  8
OBJECT_22
  6
CONTINUOUS
 62
   254
 10
0.0
 20
0.0
 70
   128
  0
VERTEX
  8
OBJECT_22
  6
CONTINUOUS
 62
   254
 10
0.0
 20
0.0
 70
   128
  0
VERTEX
  8
OBJECT_22
  6
CONTINUOUS
 62
   254
 10
0.0
 20
0.0
 70
   128
  0
VERTEX
  8
OBJECT_22
  6
CONTINUOUS
 62
   254
 10
0.0
 20
0.0
 70
   128
  0
VERTEX
  8
OBJECT_22
  6
CONTINUOUS
 62
   254
 10
0.0
 20
0.0
 70
   128
  0
VERTEX
  8
OBJECT_22
  6
CONTINUOUS
 62
   254
 10
0.0
 20
0.0
 70
   128
  0
VERTEX
  8
OBJECT_22
  6
CONTINUOUS
 62
   254
 10
0.0
 20
0.0
 70
   128
  0
VERTEX
  8
OBJECT_22
  6
CONTINUOUS
 62
   254
 10
0.0
 20
0.0
 70
   128
  0
VERTEX
  8
OBJECT_22
  6
CONTINUOUS
 62
   254
 10
0.0
 20
0.0
 70
   128
  0
VERTEX
  8
OBJECT_22
  6
CONTINUOUS
 62
   254
 10
0.0
 20
0.0
 70
   128
  0
VERTEX
  8
OBJECT_22
  6
CONTINUOUS
 62
   254
 10
0.0
 20
0.0
 70
   128
  0
VERTEX
  8
OBJECT_22
  6
CONTINUOUS
 62
   254
 10
0.0
 20
0.0
 70
   128
  0
VERTEX
  8
OBJECT_22
  6
CONTINUOUS
 62
   254
 10
0.0
 20
0.0
 70
   128
  0
VERTEX
  8
OBJECT_22
  6
CONTINUOUS
 62
   254
 10
0.0
 20
0.0
 70
   128
  0
VERTEX
  8
OBJECT_22
  6
CONTINUOUS
 62
   254
 10
0.0
 20
0.0
 70
   128
  0
VERTEX
  8
OBJECT_22
  6
CONTINUOUS
 62
   254
 10
0.0
 20
0.0
 70
   128
  0
VERTEX
  8
OBJECT_22
  6
CONTINUOUS
 62
   254
 10
0.0
 20
0.0
 70
   128
  0
VERTEX
  8
OBJECT_22
  6
CONTINUOUS
 62
   254
 10
0.0
 20
0.0
 70
   128
  0
VERTEX
  8
OBJECT_22
  6
CONTINUOUS
 62
   254
 10
0.0
 20
0.0
 70
   128
  0
VERTEX
  8
OBJECT_22
  6
CONTINUOUS
 62
   254
 10
0.0
 20
0.0
 70
   128
  0
VERTEX
  8
OBJECT_22
  6
CONTINUOUS
 62
   254
 10
0.0
 20
0.0
 70
   128
  0
VERTEX
  8
OBJECT_22
  6
CONTINUOUS
 62
   254
 10
0.0
 20
0.0
 70
   128
  0
VERTEX
  8
OBJECT_22
  6
CONTINUOUS
 62
   254
 10
0.0
 20
0.0
 70
   128
  0
VERTEX
  8
OBJECT_22
  6
CONTINUOUS
 62
   254
 10
0.0
 20
0.0
 70
   128
  0
VERTEX
  8
OBJECT_22
  6
CONTINUOUS
 62
   254
 10
0.0
 20
0.0
 70
   128
  0
VERTEX
  8
OBJECT_22
  6
CONTINUOUS
 62
   254
 10
0.0
 20
0.0
 70
   128
  0
SEQEND
  8
OBJECT_22
  6
CONTINUOUS
 62
   254
  0
POLYLINE
  8
OBJECT_1_COPY
  6
CONTINUOUS
 62
   254
 66
     1
 70
    64
  0
VERTEX
  8
0
 38
1.631976
 10
-86.852719
 20
-22.067615
 70
   192
  0
VERTEX
  8
0
 38
1.631976
 10
-83.722964
 20
-17.558576
 70
   192
  0
VERTEX
  8
0
 38
1.631976
 10
-81.866879
 20
-12.393138
 70
   192
  0
VERTEX
  8
0
 38
1.631976
 10
-81.410952
 20
-6.923319
 70
   192
  0
VERTEX
  8
0
 38
1.631976
 10
-82.386254
 20
-1.521876
 70
   192
  0
VERTEX
  8
0
 38
1.631976
 10
-84.726319
 20
3.443091
 70
   192
  0
VERTEX
  8
0
 38
1.631976
 10
-88.271676
 20
7.633226
 70
   192
  0
VERTEX
  8
0
 38
1.631976
 10
-92.780716
 20
10.762981
 70
   192
  0
VERTEX
  8
0
 38
1.631976
 10
-97.946153
 20
12.619066
 70
   192
  0
VERTEX
  8
0
 38
1.631976
 10
-103.415973
 20
13.074993
 70
   192
  0
VERTEX
  8
0
 38
1.631976
 10
-108.817416
 20
12.099691
 70
   192
  0
VERTEX
  8
0
 38
1.631976
 10
-113.782382
 20
9.759626
 70
   192
  0
VERTEX
  8
0
 38
1.631976
 10
-117.972518
 20
6.214269
 70
   192
  0
VERTEX
  8
0
 38
1.631976
 10
-121.102272
 20
1.705229
 70
   192
  0
VERTEX
  8
0
 38
1.631976
 10
-122.958357
 20
-3.460208
 70
   192
  0
VERTEX
  8
0
 38
1.631976
 10
-123.414284
 20
-8.930028
 70
   192
  0
VERTEX
  8
0
 38
1.631976
 10
-122.438983
 20
-14.331471
 70
   192
  0
VERTEX
  8
0
 38
1.631976
 10
-120.098917
 20
-19.296437
 70
   192
  0
VERTEX
  8
0
 38
1.631976
 10
-116.55356
 20
-23.486573
 70
   192
  0
VERTEX
  8
0
 38
1.631976
 10
-112.044521
 20
-26.616327
 70
   192
  0
VERTEX
  8
0
 38
1.631976
 10
-106.879083
 20
-28.472412
 70
   192
  0
VERTEX
  8
0
 38
1.631976
 10
-101.409263
 20
-28.92834
 70
   192
  0
VERTEX
  8
0
 38
1.631976
 10
-96.007821
 20
-27.953038
 70
   192
  0
VERTEX
  8
0
 38
1.631976
 10
-91.042854
 20
-25.612972
 70
   192
  0
VERTEX
  8
0
 38
1.631976
 10
190.599429
 20
-95.531004
 70
   192
  0
VERTEX
  8
0
 38
1.631976
 10
-191.400571
 20
-95.531004
 70
   192
  0
VERTEX
  8
0
 38
1.631976
 10
-191.400571
 20
95.468996
 70
   192
  0
VERTEX
  8
0
 38
1.631976
 10
190.599429
 20
95.468996
 70
   192
  0
VERTEX
  8
0
 38
49.631976
 10
-191.400571
 20
95.468996
 70
   192
  0
VERTEX
  8
0
 38
49.631976
 10
190.599429
 20
95.468996
 70
   192
  0
VERTEX
  8
0
 38
49.631976
 10
-191.400571
 20
-95.531004
 70
   192
  0
VERTEX
  8
0
 38
49.631976
 10
190.599429
 20
-95.531004
 70
   192
  0
VERTEX
  8
OBJECT_1_COPY
  6
CONTINUOUS
 62
   254
 10
0.0
 20
0.0
 70
   128
  0
VERTEX
  8
OBJECT_1_COPY
  6
CONTINUOUS
 62
   254
 10
0.0
 20
0.0
 70
   128
  0
VERTEX
  8
OBJECT_1_COPY
  6
CONTINUOUS
 62
   254
 10
0.0
 20
0.0
 70
   128
  0
VERTEX
  8
OBJECT_1_COPY
  6
CONTINUOUS
 62
   254
 10
0.0
 20
0.0
 70
   128
  0
VERTEX
  8
OBJECT_1_COPY
  6
CONTINUOUS
 62
   254
 10
0.0
 20
0.0
 70
   128
  0
VERTEX
  8
OBJECT_1_COPY
  6
CONTINUOUS
 62
   254
 10
0.0
 20
0.0
 70
   128
  0
VERTEX
  8
OBJECT_1_COPY
  6
CONTINUOUS
 62
   254
 10
0.0
 20
0.0
 70
   128
  0
VERTEX
  8
OBJECT_1_COPY
  6
CONTINUOUS
 62
   254
 10
0.0
 20
0.0
 70
   128
  0
VERTEX
  8
OBJECT_1_COPY
  6
CONTINUOUS
 62
   254
 10
0.0
 20
0.0
 70
   128
  0
VERTEX
  8
OBJECT_1_COPY
  6
CONTINUOUS
 62
   254
 10
0.0
 20
0.0
 70
   128
  0
VERTEX
  8
OBJECT_1_COPY
  6
CONTINUOUS
 62
   254
 10
0.0
 20
0.0
 70
   128
  0
VERTEX
  8
OBJECT_1_COPY
  6
CONTINUOUS
 62
   254
 10
0.0
 20
0.0
 70
   128
  0
VERTEX
  8
OBJECT_1_COPY
  6
CONTINUOUS
 62
   254
 10
0.0
 20
0.0
 70
   128
  0
VERTEX
  8
OBJECT_1_COPY
  6
CONTINUOUS
 62
   254
 10
0.0
 20
0.0
 70
   128
  0
VERTEX
  8
OBJECT_1_COPY
  6
CONTINUOUS
 62
   254
 10
0.0
 20
0.0
 70
   128
  0
VERTEX
  8
OBJECT_1_COPY
  6
CONTINUOUS
 62
   254
 10
0.0
 20
0.0
 70
   128
  0
VERTEX
  8
OBJECT_1_COPY
  6
CONTINUOUS
 62
   254
 10
0.0
 20
0.0
 70
   128
  0
VERTEX
  8
OBJECT_1_COPY
  6
CONTINUOUS
 62
   254
 10
0.0
 20
0.0
 70
   128
  0
VERTEX
  8
OBJECT_1_COPY
  6
CONTINUOUS
 62
   254
 10
0.0
 20
0.0
 70
   128
  0
VERTEX
  8
OBJECT_1_COPY
  6
CONTINUOUS
 62
   254
 10
0.0
 20
0.0
 70
   128
  0
VERTEX
  8
OBJECT_1_COPY
  6
CONTINUOUS
 62
   254
 10
0.0
 20
0.0
 70
   128
  0
VERTEX
  8
OBJECT_1_COPY
  6
CONTINUOUS
 62
   254
 10
0.0
 20
0.0
 70
   128
  0
VERTEX
  8
OBJECT_1_COPY
  6
CONTINUOUS
 62
   254
 10
0.0
 20
0.0
 70
   128
  0
VERTEX
  8
OBJECT_1_COPY
  6
CONTINUOUS
 62
   254
 10
0.0
 20
0.0
 70
   128
  0
VERTEX
  8
OBJECT_1_COPY
  6
CONTINUOUS
 62
   254
 10
0.0
 20
0.0
 70
   128
  0
VERTEX
  8
OBJECT_1_COPY
  6
CONTINUOUS
 62
   254
 10
0.0
 20
0.0
 70
   128
  0
VERTEX
  8
OBJECT_1_COPY
  6
CONTINUOUS
 62
   254
 10
0.0
 20
0.0
 70
   128
  0
VERTEX
  8
OBJECT_1_COPY
  6
CONTINUOUS
 62
   254
 10
0.0
 20
0.0
 70
   128
  0
VERTEX
  8
OBJECT_1_COPY
  6
CONTINUOUS
 62
   254
 10
0.0
 20
0.0
 70
   128
  0
VERTEX
  8
OBJECT_1_COPY
  6
CONTINUOUS
 62
   254
 10
0.0
 20
0.0
 70
   128
  0
SEQEND
  8
OBJECT_1_COPY
  6
CONTINUOUS
 62
   254
  0
POLYLINE
  8
OBJECT_24_COPY_2
  6
CONTINUOUS
 62
   254
 66
     1
 70
    64
  0
VERTEX
  8
0
 38
-78.606604
 10
-179.727326
 20
26.175629
 70
   192
  0
VERTEX
  8
0
 38
-120.168127
 10
-187.321006
 20
3.394589
 70
   192
  0
VERTEX
  8
0
 38
-120.168127
 10
-119.008473
 20
-19.376256
 70
   192
  0
VERTEX
  8
0
 38
-78.606604
 10
-111.414793
 20
3.404784
 70
   192
  0
VERTEX
  8
0
 38
-83.60938
 10
-176.98922
 20
34.389946
 70
   192
  0
VERTEX
  8
0
 38
-125.170903
 10
-184.5829
 20
11.608906
 70
   192
  0
VERTEX
  8
0
 38
-125.170903
 10
-116.270367
 20
-11.161939
 70
   192
  0
VERTEX
  8
0
 38
-83.60938
 10
-108.676687
 20
11.619102
 70
   192
  0
VERTEX
  8
0
 38
-78.708692
 10
-111.098329
 20
3.237122
 70
   192
  0
VERTEX
  8
0
 38
-92.375319
 10
-113.59535
 20
-4.253941
 70
   192
  0
VERTEX
  8
0
 38
-92.375319
 10
-92.592428
 20
-11.254915
 70
   192
  0
VERTEX
  8
0
 38
-78.708692
 10
-90.095407
 20
-3.763852
 70
   192
  0
VERTEX
  8
0
 38
-83.711468
 10
-108.360223
 20
11.451439
 70
   192
  0
VERTEX
  8
0
 38
-97.378095
 10
-110.857244
 20
3.960376
 70
   192
  0
VERTEX
  8
0
 38
-97.378095
 10
-89.854322
 20
-3.040598
 70
   192
  0
VERTEX
  8
0
 38
-83.711468
 10
-87.357301
 20
4.450465
 70
   192
  0
VERTEX
  8
OBJECT_24_COPY_2
  6
CONTINUOUS
 62
   254
 10
0.0
 20
0.0
 70
   128
  0
VERTEX
  8
OBJECT_24_COPY_2
  6
CONTINUOUS
 62
   254
 10
0.0
 20
0.0
 70
   128
  0
VERTEX
  8
OBJECT_24_COPY_2
  6
CONTINUOUS
 62
   254
 10
0.0
 20
0.0
 70
   128
  0
VERTEX
  8
OBJECT_24_COPY_2
  6
CONTINUOUS
 62
   254
 10
0.0
 20
0.0
 70
   128
  0
VERTEX
  8
OBJECT_24_COPY_2
  6
CONTINUOUS
 62
   254
 10
0.0
 20
0.0
 70
   128
  0
VERTEX
  8
OBJECT_24_COPY_2
  6
CONTINUOUS
 62
   254
 10
0.0
 20
0.0
 70
   128
  0
VERTEX
  8
OBJECT_24_COPY_2
  6
CONTINUOUS
 62
   254
 10
0.0
 20
0.0
 70
   128
  0
VERTEX
  8
OBJECT_24_COPY_2
  6
CONTINUOUS
 62
   254
 10
0.0
 20
0.0
 70
   128
  0
VERTEX
  8
OBJECT_24_COPY_2
  6
CONTINUOUS
 62
   254
 10
0.0
 20
0.0
 70
   128
  0
VERTEX
  8
OBJECT_24_COPY_2
  6
CONTINUOUS
 62
   254
 10
0.0
 20
0.0
 70
   128
  0
VERTEX
  8
OBJECT_24_COPY_2
  6
CONTINUOUS
 62
   254
 10
0.0
 20
0.0
 70
   128
  0
VERTEX
  8
OBJECT_24_COPY_2
  6
CONTINUOUS
 62
   254
 10
0.0
 20
0.0
 70
   128
  0
SEQEND
  8
OBJECT_24_COPY_2
  6
CONTINUOUS
 62
   254
  0
POLYLINE
  8
OBJECT_28
  6
CONTINUOUS
 62
   254
 66
     1
 70
    64
  0
VERTEX
  8
0
 38
113.232638
 10
-24.740109
 20
24.016353
 70
   192
  0
VERTEX
  8
0
 38
113.232638
 10
19.628437
 20
24.016353
 70
   192
  0
VERTEX
  8
0
 38
113.232638
 10
19.628437
 20
-0.06943
 70
   192
  0
VERTEX
  8
0
 38
113.232638
 10
-24.740109
 20
-0.06943
 70
   192
  0
VERTEX
  8
0
 38
135.145681
 10
-24.740109
 20
24.016353
 70
   192
  0
VERTEX
  8
0
 38
135.145681
 10
19.628437
 20
24.016353
 70
   192
  0
VERTEX
  8
0
 38
135.145681
 10
19.628437
 20
-0.06943
 70
   192
  0
VERTEX
  8
0
 38
135.145681
 10
-24.740109
 20
-0.06943
 70
   192
  0
VERTEX
  8
OBJECT_28
  6
CONTINUOUS
 62
   254
 10
0.0
 20
0.0
 70
   128
  0
VERTEX
  8
OBJECT_28
  6
CONTINUOUS
 62
   254
 10
0.0
 20
0.0
 70
   128
  0
VERTEX
  8
OBJECT_28
  6
CONTINUOUS
 62
   254
 10
0.0
 20
0.0
 70
   128
  0
VERTEX
  8
OBJECT_28
  6
CONTINUOUS
 62
   254
 10
0.0
 20
0.0
 70
   128
  0
VERTEX
  8
OBJECT_28
  6
CONTINUOUS
 62
   254
 10
0.0
 20
0.0
 70
   128
  0
VERTEX
  8
OBJECT_28
  6
CONTINUOUS
 62
   254
 10
0.0
 20
0.0
 70
   128
  0
SEQEND
  8
OBJECT_28
  6
CONTINUOUS
 62
   254
  0
ENDSEC
  0
EOF
