  0
SECTION
  2
HEADER
  9
$ACADVER
  1
AC1003
  9
$INSBASE
 10
0.0
 20
0.0
  9
$EXTMIN
 10
-735.642615
 20
-830.6761
  9
$EXTMAX
 10
192.0
 20
90.893867
  9
$LIMMIN
 10
-735.642615
 20
-830.6761
  9
$LIMMAX
 10
192.0
 20
90.893867
  9
$VIEWCTR
 10
6.591288
 20
4.579184
  9
$VIEWSIZE
 40
9.158369
  9
$SNAPMODE
 70
     0
  9
$SNAPUNIT
 10
1.0
 20
1.0
  9
$SNAPBASE
 10
0.0
 20
0.0
  9
$SNAPANG
 50
0.0
  9
$SNAPSTYLE
 70
     0
  9
$SNAPISOPAIR
 70
     0
  9
$GRIDMODE
 70
     0
  9
$GRIDUNIT
 10
0.0
 20
0.0
  9
$ORTHOMODE
 70
     0
  9
$REGENMODE
 70
     1
  9
$FILLMODE
 70
     1
  9
$QTEXTMODE
 70
     0
  9
$DRAGMODE
 70
     2
  9
$LTSCALE
 40
1.0
  9
$OSMODE
 70
     0
  9
$ATTMODE
 70
     1
  9
$TEXTSIZE
 40
0.2
  9
$TRACEWID
 40
0.05
  9
$TEXTSTYLE
  7
STANDARD
  9
$CLAYER
  8
0
  9
$CELTYPE
  6
CONTINUOUS
  9
$CECOLOR
 62
   256
  9
$DIMSCALE
 40
1.0
  9
$DIMASZ
 40
0.18
  9
$DIMEXO
 40
0.0625
  9
$DIMDLI
 40
0.38
  9
$DIMRND
 40
0.0
  9
$DIMDLE
 40
0.0
  9
$DIMEXE
 40
0.18
  9
$DIMTP
 40
0.0
  9
$DIMTM
 40
0.0
  9
$DIMTXT
 40
0.18
  9
$DIMCEN
 40
0.09
  9
$DIMTSZ
 40
0.0
  9
$DIMTOL
 70
     0
  9
$DIMLIM
 70
     0
  9
$DIMTIH
 70
     1
  9
$DIMTOH
 70
     1
  9
$DIMSE1
 70
     0
  9
$DIMSE2
 70
     0
  9
$DIMTAD
 70
     0
  9
$DIMZIN
 70
     0
  9
$DIMBLK
  1

  9
$DIMASO
 70
     1
  9
$DIMSHO
 70
     1
  9
$DIMPOST
  1

  9
$DIMAPOST
  1

  9
$DIMALT
 70
     0
  9
$DIMALTD
 70
     2
  9
$DIMALTF
 40
25.4
  9
$DIMLFAC
 40
1.0
  9
$LUNITS
 70
     4
  9
$LUPREC
 70
     0
  9
$AXISMODE
 70
     0
  9
$AXISUNIT
 10
24.0
 20
24.0
  9
$SKETCHINC
 40
24.0
  9
$FILLETRAD
 40
24.0
  9
$AUNITS
 70
     4
  9
$AUPREC
 70
     0
  9
$MENU
  1
acad
  9
$ELEVATION
 40
0.0
  9
$THICKNESS
 40
120.0
  9
$VIEWDIR
 10
0.0
 20
0.0
 30
1.0
  9
$LIMCHECK
 70
     0
  9
$BLIPMODE
 70
     1
  9
$CHAMFERA
 40
0.0
  9
$CHAMFERB
 40
0.0
  9
$FASTZOOM
 70
     1
  9
$SKPOLY
 70
     0
  9
$TDCREATE
 40
2452581.503032407
  9
$TDUPDATE
 40
2452581.503032407
  9
$TDINDWG
 40
0.0000000000
  9
$TDUSRTIMER
 40
0.0000000000
  9
$USRTIMER
 70
     1
  9
$ANGBASE
 50
0.0
  9
$ANGDIR
 70
     0
  9
$PDMODE
 70
     0
  9
$PDSIZE
 40
0.0
  9
$PLINEWID
 40
0.0
  9
$COORDS
 70
     1
  9
$USERI1
 70
     0
  9
$USERI2
 70
     0
  9
$USERI3
 70
     0
  9
$USERI4
 70
     0
  9
$USERI5
 70
     0
  9
$USERR1
 40
0.0
  9
$USERR2
 40
0.0
  9
$USERR3
 40
0.0
  9
$USERR4
 40
0.0
  9
$USERR5
 40
0.0
  0
ENDSEC
  0
SECTION
  2
TABLES
  0
TABLE
  2
LTYPE
 70
     1
  0
LTYPE
  2
CONTINUOUS
 70
    64
  3
Solid line
 72
    65
 73
     0
 40
0.0
  0
ENDTAB
  0
TABLE
  2
LAYER
 70
    18
  0
LAYER
  2
0
 70
     0
 62
     7
  6
CONTINUOUS
  0
LAYER
  2
OBJECT_6
 70
    64
 62
     1
  6
CONTINUOUS
  0
LAYER
  2
OBJECT_2
 70
    64
 62
     1
  6
CONTINUOUS
  0
LAYER
  2
OBJECT_6_COPY
 70
    64
 62
     1
  6
CONTINUOUS
  0
LAYER
  2
OBJECT_6_COPY
 70
    64
 62
     1
  6
CONTINUOUS
  0
LAYER
  2
OBJECT_6_COPY_2
 70
    64
 62
     1
  6
CONTINUOUS
  0
LAYER
  2
OBJECT_1
 70
    64
 62
     1
  6
CONTINUOUS
  0
LAYER
  2
OBJECT_2
 70
    64
 62
     1
  6
CONTINUOUS
  0
LAYER
  2
OBJECT_1
 70
    64
 62
     1
  6
CONTINUOUS
  0
LAYER
  2
OBJECT_4
 70
    64
 62
     1
  6
CONTINUOUS
  0
LAYER
  2
OBJECT_6
 70
    64
 62
     1
  6
CONTINUOUS
  0
LAYER
  2
OBJECT_6_COPY_3
 70
    64
 62
     1
  6
CONTINUOUS
  0
LAYER
  2
OBJECT_6_COPY_4
 70
    64
 62
     1
  6
CONTINUOUS
  0
LAYER
  2
OBJECT_6_COPY_5
 70
    64
 62
     1
  6
CONTINUOUS
  0
LAYER
  2
OBJECT_6_COPY_6
 70
    64
 62
     1
  6
CONTINUOUS
  0
LAYER
  2
OBJECT_6_COPY_7
 70
    64
 62
     1
  6
CONTINUOUS
  0
LAYER
  2
OBJECT_6_COPY_8
 70
    64
 62
     1
  6
CONTINUOUS
  0
LAYER
  2
OBJECT_6_COPY_9
 70
    64
 62
     1
  6
CONTINUOUS
  0
ENDTAB
  0
TABLE
  2
STYLE
 70
     1
  0
STYLE
  2
STANDARD
 70
     0
 40
0.0
 41
1.0
 50
0.0
 71
     0
 42
0.0
  3
txt
  4

  0
ENDTAB
  0
TABLE
  2
VIEW
 70
     0
  0
ENDTAB
  0
ENDSEC
  0
SECTION
  2
BLOCKS
  0
ENDSEC
  0
SECTION
  2
ENTITIES
  0
POLYLINE
  8
OBJECT_6
  6
CONTINUOUS
 62
   253
 66
     1
 70
    64
  0
VERTEX
  8
0
 38
86.110915
 10
-82.232042
 20
-24.0
 70
   192
  0
VERTEX
  8
0
 38
86.110915
 10
-82.232042
 20
48.0
 70
   192
  0
VERTEX
  8
0
 38
86.110915
 10
80.643223
 20
48.0
 70
   192
  0
VERTEX
  8
0
 38
86.110915
 10
80.643223
 20
-24.0
 70
   192
  0
VERTEX
  8
0
 38
180.733111
 10
-82.232042
 20
-24.0
 70
   192
  0
VERTEX
  8
0
 38
180.733111
 10
-82.232042
 20
48.0
 70
   192
  0
VERTEX
  8
0
 38
180.733111
 10
80.643223
 20
48.0
 70
   192
  0
VERTEX
  8
0
 38
180.733111
 10
80.643223
 20
-24.0
 70
   192
  0
VERTEX
  8
OBJECT_6
  6
CONTINUOUS
 62
   253
 10
0.0
 20
0.0
 70
   128
  0
VERTEX
  8
OBJECT_6
  6
CONTINUOUS
 62
   253
 10
0.0
 20
0.0
 70
   128
  0
VERTEX
  8
OBJECT_6
  6
CONTINUOUS
 62
   253
 10
0.0
 20
0.0
 70
   128
  0
VERTEX
  8
OBJECT_6
  6
CONTINUOUS
 62
   253
 10
0.0
 20
0.0
 70
   128
  0
VERTEX
  8
OBJECT_6
  6
CONTINUOUS
 62
   253
 10
0.0
 20
0.0
 70
   128
  0
SEQEND
  8
OBJECT_6
  6
CONTINUOUS
 62
   253
  0
POLYLINE
  8
OBJECT_2
  6
CONTINUOUS
 62
   253
 66
     1
 70
    64
  0
VERTEX
  8
0
 38
50.71905
 10
-32.057995
 20
5.149571
 70
   192
  0
VERTEX
  8
0
 38
50.71905
 10
-32.466885
 20
8.255399
 70
   192
  0
VERTEX
  8
0
 38
50.71905
 10
-33.66569
 20
11.149571
 70
   192
  0
VERTEX
  8
0
 38
50.71905
 10
-35.572713
 20
13.634852
 70
   192
  0
VERTEX
  8
0
 38
50.71905
 10
-38.057995
 20
15.541876
 70
   192
  0
VERTEX
  8
0
 38
50.71905
 10
-40.952166
 20
16.740681
 70
   192
  0
VERTEX
  8
0
 38
50.71905
 10
-44.057995
 20
17.149571
 70
   192
  0
VERTEX
  8
0
 38
50.71905
 10
-47.163823
 20
16.740681
 70
   192
  0
VERTEX
  8
0
 38
50.71905
 10
-50.057995
 20
15.541876
 70
   192
  0
VERTEX
  8
0
 38
50.71905
 10
-52.543276
 20
13.634852
 70
   192
  0
VERTEX
  8
0
 38
50.71905
 10
-54.4503
 20
11.149571
 70
   192
  0
VERTEX
  8
0
 38
50.71905
 10
-55.649105
 20
8.255399
 70
   192
  0
VERTEX
  8
0
 38
50.71905
 10
-56.057995
 20
5.149571
 70
   192
  0
VERTEX
  8
0
 38
50.71905
 10
-55.649105
 20
2.043742
 70
   192
  0
VERTEX
  8
0
 38
50.71905
 10
-54.4503
 20
-0.850429
 70
   192
  0
VERTEX
  8
0
 38
50.71905
 10
-52.543276
 20
-3.335711
 70
   192
  0
VERTEX
  8
0
 38
50.71905
 10
-50.057995
 20
-5.242734
 70
   192
  0
VERTEX
  8
0
 38
50.71905
 10
-47.163823
 20
-6.441539
 70
   192
  0
VERTEX
  8
0
 38
50.71905
 10
-44.057995
 20
-6.850429
 70
   192
  0
VERTEX
  8
0
 38
50.71905
 10
-40.952166
 20
-6.441539
 70
   192
  0
VERTEX
  8
0
 38
50.71905
 10
-38.057995
 20
-5.242734
 70
   192
  0
VERTEX
  8
0
 38
50.71905
 10
-35.572713
 20
-3.335711
 70
   192
  0
VERTEX
  8
0
 38
50.71905
 10
-33.66569
 20
-0.850429
 70
   192
  0
VERTEX
  8
0
 38
50.71905
 10
-32.466885
 20
2.043742
 70
   192
  0
VERTEX
  8
0
 38
86.71905
 10
-32.057995
 20
5.149571
 70
   192
  0
VERTEX
  8
0
 38
86.71905
 10
-32.466885
 20
8.255399
 70
   192
  0
VERTEX
  8
0
 38
86.71905
 10
-33.66569
 20
11.149571
 70
   192
  0
VERTEX
  8
0
 38
86.71905
 10
-35.572713
 20
13.634852
 70
   192
  0
VERTEX
  8
0
 38
86.71905
 10
-38.057995
 20
15.541876
 70
   192
  0
VERTEX
  8
0
 38
86.71905
 10
-40.952166
 20
16.740681
 70
   192
  0
VERTEX
  8
0
 38
86.71905
 10
-44.057995
 20
17.149571
 70
   192
  0
VERTEX
  8
0
 38
86.71905
 10
-47.163823
 20
16.740681
 70
   192
  0
VERTEX
  8
0
 38
86.71905
 10
-50.057995
 20
15.541876
 70
   192
  0
VERTEX
  8
0
 38
86.71905
 10
-52.543276
 20
13.634852
 70
   192
  0
VERTEX
  8
0
 38
86.71905
 10
-54.4503
 20
11.149571
 70
   192
  0
VERTEX
  8
0
 38
86.71905
 10
-55.649105
 20
8.255399
 70
   192
  0
VERTEX
  8
0
 38
86.71905
 10
-56.057995
 20
5.149571
 70
   192
  0
VERTEX
  8
0
 38
86.71905
 10
-55.649105
 20
2.043742
 70
   192
  0
VERTEX
  8
0
 38
86.71905
 10
-54.4503
 20
-0.850429
 70
   192
  0
VERTEX
  8
0
 38
86.71905
 10
-52.543276
 20
-3.335711
 70
   192
  0
VERTEX
  8
0
 38
86.71905
 10
-50.057995
 20
-5.242734
 70
   192
  0
VERTEX
  8
0
 38
86.71905
 10
-47.163823
 20
-6.441539
 70
   192
  0
VERTEX
  8
0
 38
86.71905
 10
-44.057995
 20
-6.850429
 70
   192
  0
VERTEX
  8
0
 38
86.71905
 10
-40.952166
 20
-6.441539
 70
   192
  0
VERTEX
  8
0
 38
86.71905
 10
-38.057995
 20
-5.242734
 70
   192
  0
VERTEX
  8
0
 38
86.71905
 10
-35.572713
 20
-3.335711
 70
   192
  0
VERTEX
  8
0
 38
86.71905
 10
-33.66569
 20
-0.850429
 70
   192
  0
VERTEX
  8
0
 38
86.71905
 10
-32.466885
 20
2.043742
 70
   192
  0
VERTEX
  8
OBJECT_2
  6
CONTINUOUS
 62
   253
 10
0.0
 20
0.0
 70
   128
  0
VERTEX
  8
OBJECT_2
  6
CONTINUOUS
 62
   253
 10
0.0
 20
0.0
 70
   128
  0
VERTEX
  8
OBJECT_2
  6
CONTINUOUS
 62
   253
 10
0.0
 20
0.0
 70
   128
  0
VERTEX
  8
OBJECT_2
  6
CONTINUOUS
 62
   253
 10
0.0
 20
0.0
 70
   128
  0
VERTEX
  8
OBJECT_2
  6
CONTINUOUS
 62
   253
 10
0.0
 20
0.0
 70
   128
  0
VERTEX
  8
OBJECT_2
  6
CONTINUOUS
 62
   253
 10
0.0
 20
0.0
 70
   128
  0
VERTEX
  8
OBJECT_2
  6
CONTINUOUS
 62
   253
 10
0.0
 20
0.0
 70
   128
  0
VERTEX
  8
OBJECT_2
  6
CONTINUOUS
 62
   253
 10
0.0
 20
0.0
 70
   128
  0
VERTEX
  8
OBJECT_2
  6
CONTINUOUS
 62
   253
 10
0.0
 20
0.0
 70
   128
  0
VERTEX
  8
OBJECT_2
  6
CONTINUOUS
 62
   253
 10
0.0
 20
0.0
 70
   128
  0
VERTEX
  8
OBJECT_2
  6
CONTINUOUS
 62
   253
 10
0.0
 20
0.0
 70
   128
  0
VERTEX
  8
OBJECT_2
  6
CONTINUOUS
 62
   253
 10
0.0
 20
0.0
 70
   128
  0
VERTEX
  8
OBJECT_2
  6
CONTINUOUS
 62
   253
 10
0.0
 20
0.0
 70
   128
  0
VERTEX
  8
OBJECT_2
  6
CONTINUOUS
 62
   253
 10
0.0
 20
0.0
 70
   128
  0
VERTEX
  8
OBJECT_2
  6
CONTINUOUS
 62
   253
 10
0.0
 20
0.0
 70
   128
  0
VERTEX
  8
OBJECT_2
  6
CONTINUOUS
 62
   253
 10
0.0
 20
0.0
 70
   128
  0
VERTEX
  8
OBJECT_2
  6
CONTINUOUS
 62
   253
 10
0.0
 20
0.0
 70
   128
  0
VERTEX
  8
OBJECT_2
  6
CONTINUOUS
 62
   253
 10
0.0
 20
0.0
 70
   128
  0
VERTEX
  8
OBJECT_2
  6
CONTINUOUS
 62
   253
 10
0.0
 20
0.0
 70
   128
  0
VERTEX
  8
OBJECT_2
  6
CONTINUOUS
 62
   253
 10
0.0
 20
0.0
 70
   128
  0
VERTEX
  8
OBJECT_2
  6
CONTINUOUS
 62
   253
 10
0.0
 20
0.0
 70
   128
  0
VERTEX
  8
OBJECT_2
  6
CONTINUOUS
 62
   253
 10
0.0
 20
0.0
 70
   128
  0
VERTEX
  8
OBJECT_2
  6
CONTINUOUS
 62
   253
 10
0.0
 20
0.0
 70
   128
  0
VERTEX
  8
OBJECT_2
  6
CONTINUOUS
 62
   253
 10
0.0
 20
0.0
 70
   128
  0
VERTEX
  8
OBJECT_2
  6
CONTINUOUS
 62
   253
 10
0.0
 20
0.0
 70
   128
  0
VERTEX
  8
OBJECT_2
  6
CONTINUOUS
 62
   253
 10
0.0
 20
0.0
 70
   128
  0
VERTEX
  8
OBJECT_2
  6
CONTINUOUS
 62
   253
 10
0.0
 20
0.0
 70
   128
  0
VERTEX
  8
OBJECT_2
  6
CONTINUOUS
 62
   253
 10
0.0
 20
0.0
 70
   128
  0
VERTEX
  8
OBJECT_2
  6
CONTINUOUS
 62
   253
 10
0.0
 20
0.0
 70
   128
  0
VERTEX
  8
OBJECT_2
  6
CONTINUOUS
 62
   253
 10
0.0
 20
0.0
 70
   128
  0
VERTEX
  8
OBJECT_2
  6
CONTINUOUS
 62
   253
 10
0.0
 20
0.0
 70
   128
  0
VERTEX
  8
OBJECT_2
  6
CONTINUOUS
 62
   253
 10
0.0
 20
0.0
 70
   128
  0
VERTEX
  8
OBJECT_2
  6
CONTINUOUS
 62
   253
 10
0.0
 20
0.0
 70
   128
  0
VERTEX
  8
OBJECT_2
  6
CONTINUOUS
 62
   253
 10
0.0
 20
0.0
 70
   128
  0
VERTEX
  8
OBJECT_2
  6
CONTINUOUS
 62
   253
 10
0.0
 20
0.0
 70
   128
  0
VERTEX
  8
OBJECT_2
  6
CONTINUOUS
 62
   253
 10
0.0
 20
0.0
 70
   128
  0
VERTEX
  8
OBJECT_2
  6
CONTINUOUS
 62
   253
 10
0.0
 20
0.0
 70
   128
  0
VERTEX
  8
OBJECT_2
  6
CONTINUOUS
 62
   253
 10
0.0
 20
0.0
 70
   128
  0
VERTEX
  8
OBJECT_2
  6
CONTINUOUS
 62
   253
 10
0.0
 20
0.0
 70
   128
  0
VERTEX
  8
OBJECT_2
  6
CONTINUOUS
 62
   253
 10
0.0
 20
0.0
 70
   128
  0
VERTEX
  8
OBJECT_2
  6
CONTINUOUS
 62
   253
 10
0.0
 20
0.0
 70
   128
  0
VERTEX
  8
OBJECT_2
  6
CONTINUOUS
 62
   253
 10
0.0
 20
0.0
 70
   128
  0
VERTEX
  8
OBJECT_2
  6
CONTINUOUS
 62
   253
 10
0.0
 20
0.0
 70
   128
  0
VERTEX
  8
OBJECT_2
  6
CONTINUOUS
 62
   253
 10
0.0
 20
0.0
 70
   128
  0
VERTEX
  8
OBJECT_2
  6
CONTINUOUS
 62
   253
 10
0.0
 20
0.0
 70
   128
  0
VERTEX
  8
OBJECT_2
  6
CONTINUOUS
 62
   253
 10
0.0
 20
0.0
 70
   128
  0
SEQEND
  8
OBJECT_2
  6
CONTINUOUS
 62
   253
  0
POLYLINE
  8
OBJECT_6_COPY
  6
CONTINUOUS
 62
   253
 66
     1
 70
    64
  0
VERTEX
  8
0
 38
85.499494
 10
-82.232042
 20
-24.0
 70
   192
  0
VERTEX
  8
0
 38
85.499494
 10
-82.232042
 20
48.0
 70
   192
  0
VERTEX
  8
0
 38
85.499494
 10
80.643223
 20
48.0
 70
   192
  0
VERTEX
  8
0
 38
85.499494
 10
80.643223
 20
-24.0
 70
   192
  0
VERTEX
  8
0
 38
145.587493
 10
-82.232042
 20
-24.0
 70
   192
  0
VERTEX
  8
0
 38
145.587493
 10
-82.232042
 20
48.0
 70
   192
  0
VERTEX
  8
0
 38
145.587493
 10
80.643223
 20
48.0
 70
   192
  0
VERTEX
  8
0
 38
145.587493
 10
80.643223
 20
-24.0
 70
   192
  0
VERTEX
  8
OBJECT_6_COPY
  6
CONTINUOUS
 62
   253
 10
0.0
 20
0.0
 70
   128
  0
VERTEX
  8
OBJECT_6_COPY
  6
CONTINUOUS
 62
   253
 10
0.0
 20
0.0
 70
   128
  0
VERTEX
  8
OBJECT_6_COPY
  6
CONTINUOUS
 62
   253
 10
0.0
 20
0.0
 70
   128
  0
VERTEX
  8
OBJECT_6_COPY
  6
CONTINUOUS
 62
   253
 10
0.0
 20
0.0
 70
   128
  0
VERTEX
  8
OBJECT_6_COPY
  6
CONTINUOUS
 62
   253
 10
0.0
 20
0.0
 70
   128
  0
SEQEND
  8
OBJECT_6_COPY
  6
CONTINUOUS
 62
   253
  0
POLYLINE
  8
OBJECT_6_COPY
  6
CONTINUOUS
 62
     7
 66
     1
 70
    64
  0
VERTEX
  8
0
 38
105.735457
 10
-48.667724
 20
-11.693566
 70
   192
  0
VERTEX
  8
0
 38
105.735457
 10
-48.667724
 20
36.450491
 70
   192
  0
VERTEX
  8
0
 38
105.735457
 10
-1.296857
 20
36.450491
 70
   192
  0
VERTEX
  8
0
 38
105.735457
 10
-1.296857
 20
-11.693566
 70
   192
  0
VERTEX
  8
0
 38
131.939654
 10
-48.667724
 20
-11.693566
 70
   192
  0
VERTEX
  8
0
 38
131.939654
 10
-48.667724
 20
36.450491
 70
   192
  0
VERTEX
  8
0
 38
131.939654
 10
-1.296857
 20
36.450491
 70
   192
  0
VERTEX
  8
0
 38
131.939654
 10
-1.296857
 20
-11.693566
 70
   192
  0
VERTEX
  8
OBJECT_6_COPY
  6
CONTINUOUS
 62
     7
 10
0.0
 20
0.0
 70
   128
  0
VERTEX
  8
OBJECT_6_COPY
  6
CONTINUOUS
 62
     7
 10
0.0
 20
0.0
 70
   128
  0
VERTEX
  8
OBJECT_6_COPY
  6
CONTINUOUS
 62
     7
 10
0.0
 20
0.0
 70
   128
  0
VERTEX
  8
OBJECT_6_COPY
  6
CONTINUOUS
 62
     7
 10
0.0
 20
0.0
 70
   128
  0
VERTEX
  8
OBJECT_6_COPY
  6
CONTINUOUS
 62
     7
 10
0.0
 20
0.0
 70
   128
  0
SEQEND
  8
OBJECT_6_COPY
  6
CONTINUOUS
 62
     7
  0
POLYLINE
  8
OBJECT_6_COPY_2
  6
CONTINUOUS
 62
   254
 66
     1
 70
    64
  0
VERTEX
  8
0
 38
157.211348
 10
12.420239
 20
3.402134
 70
   192
  0
VERTEX
  8
0
 38
157.211348
 10
12.420239
 20
17.015281
 70
   192
  0
VERTEX
  8
0
 38
157.211348
 10
62.854713
 20
17.015281
 70
   192
  0
VERTEX
  8
0
 38
157.211348
 10
62.854713
 20
3.402134
 70
   192
  0
VERTEX
  8
0
 38
166.239948
 10
12.420239
 20
3.402134
 70
   192
  0
VERTEX
  8
0
 38
166.239948
 10
12.420239
 20
17.015281
 70
   192
  0
VERTEX
  8
0
 38
166.239948
 10
62.854713
 20
17.015281
 70
   192
  0
VERTEX
  8
0
 38
166.239948
 10
62.854713
 20
3.402134
 70
   192
  0
VERTEX
  8
OBJECT_6_COPY_2
  6
CONTINUOUS
 62
   254
 10
0.0
 20
0.0
 70
   128
  0
VERTEX
  8
OBJECT_6_COPY_2
  6
CONTINUOUS
 62
   254
 10
0.0
 20
0.0
 70
   128
  0
VERTEX
  8
OBJECT_6_COPY_2
  6
CONTINUOUS
 62
   254
 10
0.0
 20
0.0
 70
   128
  0
VERTEX
  8
OBJECT_6_COPY_2
  6
CONTINUOUS
 62
   254
 10
0.0
 20
0.0
 70
   128
  0
VERTEX
  8
OBJECT_6_COPY_2
  6
CONTINUOUS
 62
   254
 10
0.0
 20
0.0
 70
   128
  0
SEQEND
  8
OBJECT_6_COPY_2
  6
CONTINUOUS
 62
   254
  0
POLYLINE
  8
OBJECT_1
  6
CONTINUOUS
 62
     7
 66
     1
 70
    64
  0
VERTEX
  8
0
 10
-192.0
 20
72.0
 70
   192
  0
VERTEX
  8
0
 10
192.0
 20
72.0
 70
   192
  0
VERTEX
  8
0
 10
192.0
 20
-72.0
 70
   192
  0
VERTEX
  8
0
 10
-192.0
 20
-72.0
 70
   192
  0
VERTEX
  8
0
 38
240.0
 10
-192.0
 20
72.0
 70
   192
  0
VERTEX
  8
0
 38
240.0
 10
192.0
 20
72.0
 70
   192
  0
VERTEX
  8
0
 38
240.0
 10
192.0
 20
-72.0
 70
   192
  0
VERTEX
  8
0
 38
240.0
 10
-192.0
 20
-72.0
 70
   192
  0
VERTEX
  8
OBJECT_1
  6
CONTINUOUS
 62
     7
 10
0.0
 20
0.0
 70
   128
  0
VERTEX
  8
OBJECT_1
  6
CONTINUOUS
 62
     7
 10
0.0
 20
0.0
 70
   128
  0
VERTEX
  8
OBJECT_1
  6
CONTINUOUS
 62
     7
 10
0.0
 20
0.0
 70
   128
  0
VERTEX
  8
OBJECT_1
  6
CONTINUOUS
 62
     7
 10
0.0
 20
0.0
 70
   128
  0
SEQEND
  8
OBJECT_1
  6
CONTINUOUS
 62
     7
  0
POLYLINE
  8
OBJECT_2
  6
CONTINUOUS
 62
   254
 66
     1
 70
    64
  0
VERTEX
  8
0
 38
1.403554
 10
-191.0
 20
71.5
 70
   192
  0
VERTEX
  8
0
 38
1.403554
 10
191.0
 20
71.5
 70
   192
  0
VERTEX
  8
0
 38
1.403554
 10
191.0
 20
-71.5
 70
   192
  0
VERTEX
  8
0
 38
1.403554
 10
-191.0
 20
-71.5
 70
   192
  0
VERTEX
  8
0
 38
61.403554
 10
-191.0
 20
71.5
 70
   192
  0
VERTEX
  8
0
 38
61.403554
 10
191.0
 20
71.5
 70
   192
  0
VERTEX
  8
0
 38
61.403554
 10
191.0
 20
-71.5
 70
   192
  0
VERTEX
  8
0
 38
61.403554
 10
-191.0
 20
-71.5
 70
   192
  0
VERTEX
  8
OBJECT_2
  6
CONTINUOUS
 62
   254
 10
0.0
 20
0.0
 70
   128
  0
VERTEX
  8
OBJECT_2
  6
CONTINUOUS
 62
   254
 10
0.0
 20
0.0
 70
   128
  0
VERTEX
  8
OBJECT_2
  6
CONTINUOUS
 62
   254
 10
0.0
 20
0.0
 70
   128
  0
VERTEX
  8
OBJECT_2
  6
CONTINUOUS
 62
   254
 10
0.0
 20
0.0
 70
   128
  0
SEQEND
  8
OBJECT_2
  6
CONTINUOUS
 62
   254
  0
POLYLINE
  8
OBJECT_1
  6
CONTINUOUS
 62
   253
 66
     1
 70
    64
  0
VERTEX
  8
0
 38
-41.297658
 10
-55.510552
 20
6.627624
 70
   192
  0
VERTEX
  8
0
 38
-41.297658
 10
-60.814989
 20
-11.912572
 70
   192
  0
VERTEX
  8
0
 38
-41.297658
 10
-70.737238
 20
-28.448136
 70
   192
  0
VERTEX
  8
0
 38
-41.297658
 10
-84.601114
 20
-41.852197
 70
   192
  0
VERTEX
  8
0
 38
-41.297658
 10
-101.461815
 20
-51.211292
 70
   192
  0
VERTEX
  8
0
 38
-41.297658
 10
-120.170314
 20
-55.887612
 70
   192
  0
VERTEX
  8
0
 38
-41.297658
 10
-139.451657
 20
-55.562474
 70
   192
  0
VERTEX
  8
0
 38
-41.297658
 10
-157.991853
 20
-50.258037
 70
   192
  0
VERTEX
  8
0
 38
-41.297658
 10
-174.527417
 20
-40.335788
 70
   192
  0
VERTEX
  8
0
 38
-41.297658
 10
-187.931479
 20
-26.471913
 70
   192
  0
VERTEX
  8
0
 38
-41.297658
 10
-197.290573
 20
-9.611211
 70
   192
  0
VERTEX
  8
0
 38
-41.297658
 10
-201.966893
 20
9.097288
 70
   192
  0
VERTEX
  8
0
 38
-41.297658
 10
-201.641755
 20
28.378631
 70
   192
  0
VERTEX
  8
0
 38
-41.297658
 10
-196.337318
 20
46.918827
 70
   192
  0
VERTEX
  8
0
 38
-41.297658
 10
-186.415069
 20
63.454391
 70
   192
  0
VERTEX
  8
0
 38
-41.297658
 10
-172.551194
 20
76.858452
 70
   192
  0
VERTEX
  8
0
 38
-41.297658
 10
-155.690492
 20
86.217546
 70
   192
  0
VERTEX
  8
0
 38
-41.297658
 10
-136.981993
 20
90.893867
 70
   192
  0
VERTEX
  8
0
 38
-41.297658
 10
-117.70065
 20
90.568729
 70
   192
  0
VERTEX
  8
0
 38
-41.297658
 10
-99.160454
 20
85.264292
 70
   192
  0
VERTEX
  8
0
 38
-41.297658
 10
-82.62489
 20
75.342043
 70
   192
  0
VERTEX
  8
0
 38
-41.297658
 10
-69.220829
 20
61.478167
 70
   192
  0
VERTEX
  8
0
 38
-41.297658
 10
-59.861735
 20
44.617466
 70
   192
  0
VERTEX
  8
0
 38
-41.297658
 10
-55.185415
 20
25.908967
 70
   192
  0
VERTEX
  8
0
 38
-89.297658
 10
-59.861735
 20
44.617466
 70
   192
  0
VERTEX
  8
0
 38
-89.297658
 10
-69.220829
 20
61.478167
 70
   192
  0
VERTEX
  8
0
 38
-89.297658
 10
-82.62489
 20
75.342043
 70
   192
  0
VERTEX
  8
0
 38
-89.297658
 10
-99.160454
 20
85.264292
 70
   192
  0
VERTEX
  8
0
 38
-89.297658
 10
-117.70065
 20
90.568729
 70
   192
  0
VERTEX
  8
0
 38
-89.297658
 10
-136.981993
 20
90.893867
 70
   192
  0
VERTEX
  8
0
 38
-89.297658
 10
-155.690492
 20
86.217546
 70
   192
  0
VERTEX
  8
0
 38
-89.297658
 10
-172.551194
 20
76.858452
 70
   192
  0
VERTEX
  8
0
 38
-89.297658
 10
-186.415069
 20
63.454391
 70
   192
  0
VERTEX
  8
0
 38
-89.297658
 10
-196.337318
 20
46.918827
 70
   192
  0
VERTEX
  8
0
 38
-89.297658
 10
-201.641755
 20
28.378631
 70
   192
  0
VERTEX
  8
0
 38
-89.297658
 10
-201.966893
 20
9.097288
 70
   192
  0
VERTEX
  8
0
 38
-89.297658
 10
-197.290573
 20
-9.611211
 70
   192
  0
VERTEX
  8
0
 38
-89.297658
 10
-187.931479
 20
-26.471913
 70
   192
  0
VERTEX
  8
0
 38
-89.297658
 10
-174.527417
 20
-40.335788
 70
   192
  0
VERTEX
  8
0
 38
-89.297658
 10
-157.991853
 20
-50.258037
 70
   192
  0
VERTEX
  8
0
 38
-89.297658
 10
-139.451657
 20
-55.562474
 70
   192
  0
VERTEX
  8
0
 38
-89.297658
 10
-120.170314
 20
-55.887612
 70
   192
  0
VERTEX
  8
0
 38
-89.297658
 10
-101.461815
 20
-51.211292
 70
   192
  0
VERTEX
  8
0
 38
-89.297658
 10
-84.601114
 20
-41.852197
 70
   192
  0
VERTEX
  8
0
 38
-89.297658
 10
-70.737238
 20
-28.448136
 70
   192
  0
VERTEX
  8
0
 38
-89.297658
 10
-60.814989
 20
-11.912572
 70
   192
  0
VERTEX
  8
0
 38
-89.297658
 10
-55.510552
 20
6.627624
 70
   192
  0
VERTEX
  8
0
 38
-89.297658
 10
-55.185415
 20
25.908967
 70
   192
  0
VERTEX
  8
OBJECT_1
  6
CONTINUOUS
 62
   253
 10
0.0
 20
0.0
 70
   128
  0
VERTEX
  8
OBJECT_1
  6
CONTINUOUS
 62
   253
 10
0.0
 20
0.0
 70
   128
  0
VERTEX
  8
OBJECT_1
  6
CONTINUOUS
 62
   253
 10
0.0
 20
0.0
 70
   128
  0
VERTEX
  8
OBJECT_1
  6
CONTINUOUS
 62
   253
 10
0.0
 20
0.0
 70
   128
  0
VERTEX
  8
OBJECT_1
  6
CONTINUOUS
 62
   253
 10
0.0
 20
0.0
 70
   128
  0
VERTEX
  8
OBJECT_1
  6
CONTINUOUS
 62
   253
 10
0.0
 20
0.0
 70
   128
  0
VERTEX
  8
OBJECT_1
  6
CONTINUOUS
 62
   253
 10
0.0
 20
0.0
 70
   128
  0
VERTEX
  8
OBJECT_1
  6
CONTINUOUS
 62
   253
 10
0.0
 20
0.0
 70
   128
  0
VERTEX
  8
OBJECT_1
  6
CONTINUOUS
 62
   253
 10
0.0
 20
0.0
 70
   128
  0
VERTEX
  8
OBJECT_1
  6
CONTINUOUS
 62
   253
 10
0.0
 20
0.0
 70
   128
  0
VERTEX
  8
OBJECT_1
  6
CONTINUOUS
 62
   253
 10
0.0
 20
0.0
 70
   128
  0
VERTEX
  8
OBJECT_1
  6
CONTINUOUS
 62
   253
 10
0.0
 20
0.0
 70
   128
  0
VERTEX
  8
OBJECT_1
  6
CONTINUOUS
 62
   253
 10
0.0
 20
0.0
 70
   128
  0
VERTEX
  8
OBJECT_1
  6
CONTINUOUS
 62
   253
 10
0.0
 20
0.0
 70
   128
  0
VERTEX
  8
OBJECT_1
  6
CONTINUOUS
 62
   253
 10
0.0
 20
0.0
 70
   128
  0
VERTEX
  8
OBJECT_1
  6
CONTINUOUS
 62
   253
 10
0.0
 20
0.0
 70
   128
  0
VERTEX
  8
OBJECT_1
  6
CONTINUOUS
 62
   253
 10
0.0
 20
0.0
 70
   128
  0
VERTEX
  8
OBJECT_1
  6
CONTINUOUS
 62
   253
 10
0.0
 20
0.0
 70
   128
  0
VERTEX
  8
OBJECT_1
  6
CONTINUOUS
 62
   253
 10
0.0
 20
0.0
 70
   128
  0
VERTEX
  8
OBJECT_1
  6
CONTINUOUS
 62
   253
 10
0.0
 20
0.0
 70
   128
  0
VERTEX
  8
OBJECT_1
  6
CONTINUOUS
 62
   253
 10
0.0
 20
0.0
 70
   128
  0
VERTEX
  8
OBJECT_1
  6
CONTINUOUS
 62
   253
 10
0.0
 20
0.0
 70
   128
  0
VERTEX
  8
OBJECT_1
  6
CONTINUOUS
 62
   253
 10
0.0
 20
0.0
 70
   128
  0
VERTEX
  8
OBJECT_1
  6
CONTINUOUS
 62
   253
 10
0.0
 20
0.0
 70
   128
  0
VERTEX
  8
OBJECT_1
  6
CONTINUOUS
 62
   253
 10
0.0
 20
0.0
 70
   128
  0
VERTEX
  8
OBJECT_1
  6
CONTINUOUS
 62
   253
 10
0.0
 20
0.0
 70
   128
  0
VERTEX
  8
OBJECT_1
  6
CONTINUOUS
 62
   253
 10
0.0
 20
0.0
 70
   128
  0
VERTEX
  8
OBJECT_1
  6
CONTINUOUS
 62
   253
 10
0.0
 20
0.0
 70
   128
  0
VERTEX
  8
OBJECT_1
  6
CONTINUOUS
 62
   253
 10
0.0
 20
0.0
 70
   128
  0
VERTEX
  8
OBJECT_1
  6
CONTINUOUS
 62
   253
 10
0.0
 20
0.0
 70
   128
  0
VERTEX
  8
OBJECT_1
  6
CONTINUOUS
 62
   253
 10
0.0
 20
0.0
 70
   128
  0
VERTEX
  8
OBJECT_1
  6
CONTINUOUS
 62
   253
 10
0.0
 20
0.0
 70
   128
  0
VERTEX
  8
OBJECT_1
  6
CONTINUOUS
 62
   253
 10
0.0
 20
0.0
 70
   128
  0
VERTEX
  8
OBJECT_1
  6
CONTINUOUS
 62
   253
 10
0.0
 20
0.0
 70
   128
  0
VERTEX
  8
OBJECT_1
  6
CONTINUOUS
 62
   253
 10
0.0
 20
0.0
 70
   128
  0
VERTEX
  8
OBJECT_1
  6
CONTINUOUS
 62
   253
 10
0.0
 20
0.0
 70
   128
  0
VERTEX
  8
OBJECT_1
  6
CONTINUOUS
 62
   253
 10
0.0
 20
0.0
 70
   128
  0
VERTEX
  8
OBJECT_1
  6
CONTINUOUS
 62
   253
 10
0.0
 20
0.0
 70
   128
  0
VERTEX
  8
OBJECT_1
  6
CONTINUOUS
 62
   253
 10
0.0
 20
0.0
 70
   128
  0
VERTEX
  8
OBJECT_1
  6
CONTINUOUS
 62
   253
 10
0.0
 20
0.0
 70
   128
  0
VERTEX
  8
OBJECT_1
  6
CONTINUOUS
 62
   253
 10
0.0
 20
0.0
 70
   128
  0
VERTEX
  8
OBJECT_1
  6
CONTINUOUS
 62
   253
 10
0.0
 20
0.0
 70
   128
  0
VERTEX
  8
OBJECT_1
  6
CONTINUOUS
 62
   253
 10
0.0
 20
0.0
 70
   128
  0
VERTEX
  8
OBJECT_1
  6
CONTINUOUS
 62
   253
 10
0.0
 20
0.0
 70
   128
  0
VERTEX
  8
OBJECT_1
  6
CONTINUOUS
 62
   253
 10
0.0
 20
0.0
 70
   128
  0
VERTEX
  8
OBJECT_1
  6
CONTINUOUS
 62
   253
 10
0.0
 20
0.0
 70
   128
  0
SEQEND
  8
OBJECT_1
  6
CONTINUOUS
 62
   253
  0
POLYLINE
  8
OBJECT_4
  6
CONTINUOUS
 62
     7
 66
     1
 70
    64
  0
VERTEX
  8
0
 38
2.472624
 10
-66.103012
 20
10.049053
 70
   192
  0
VERTEX
  8
0
 38
2.472624
 10
-68.59281
 20
5.848615
 70
   192
  0
VERTEX
  8
0
 38
2.472624
 10
-72.084924
 20
2.43571
 70
   192
  0
VERTEX
  8
0
 38
2.472624
 10
-76.341372
 20
0.042923
 70
   192
  0
VERTEX
  8
0
 38
2.472624
 10
-81.072084
 20
-1.166682
 70
   192
  0
VERTEX
  8
0
 38
2.472624
 10
-85.954669
 20
-1.110673
 70
   192
  0
VERTEX
  8
0
 38
2.472624
 10
-90.656389
 20
0.207134
 70
   192
  0
VERTEX
  8
0
 38
2.472624
 10
-94.856827
 20
2.696933
 70
   192
  0
VERTEX
  8
0
 38
2.472624
 10
-98.269732
 20
6.189047
 70
   192
  0
VERTEX
  8
0
 38
2.472624
 10
-100.662519
 20
10.445495
 70
   192
  0
VERTEX
  8
0
 38
2.472624
 10
-101.872124
 20
15.176207
 70
   192
  0
VERTEX
  8
0
 38
2.472624
 10
-101.816115
 20
20.058792
 70
   192
  0
VERTEX
  8
0
 38
2.472624
 10
-100.498308
 20
24.760511
 70
   192
  0
VERTEX
  8
0
 38
2.472624
 10
-98.008509
 20
28.96095
 70
   192
  0
VERTEX
  8
0
 38
2.472624
 10
-94.516395
 20
32.373855
 70
   192
  0
VERTEX
  8
0
 38
2.472624
 10
-90.259947
 20
34.766642
 70
   192
  0
VERTEX
  8
0
 38
2.472624
 10
-85.529235
 20
35.976247
 70
   192
  0
VERTEX
  8
0
 38
2.472624
 10
-80.64665
 20
35.920237
 70
   192
  0
VERTEX
  8
0
 38
2.472624
 10
-75.94493
 20
34.60243
 70
   192
  0
VERTEX
  8
0
 38
2.472624
 10
-71.744492
 20
32.112632
 70
   192
  0
VERTEX
  8
0
 38
2.472624
 10
-68.331587
 20
28.620518
 70
   192
  0
VERTEX
  8
0
 38
2.472624
 10
-65.9388
 20
24.36407
 70
   192
  0
VERTEX
  8
0
 38
2.472624
 10
-64.729195
 20
19.633358
 70
   192
  0
VERTEX
  8
0
 38
2.472624
 10
-64.785204
 20
14.750772
 70
   192
  0
VERTEX
  8
0
 38
-45.527376
 10
-64.729195
 20
19.633358
 70
   192
  0
VERTEX
  8
0
 38
-45.527376
 10
-65.9388
 20
24.36407
 70
   192
  0
VERTEX
  8
0
 38
-45.527376
 10
-68.331587
 20
28.620518
 70
   192
  0
VERTEX
  8
0
 38
-45.527376
 10
-71.744492
 20
32.112632
 70
   192
  0
VERTEX
  8
0
 38
-45.527376
 10
-75.94493
 20
34.60243
 70
   192
  0
VERTEX
  8
0
 38
-45.527376
 10
-80.64665
 20
35.920237
 70
   192
  0
VERTEX
  8
0
 38
-45.527376
 10
-85.529235
 20
35.976247
 70
   192
  0
VERTEX
  8
0
 38
-45.527376
 10
-90.259947
 20
34.766642
 70
   192
  0
VERTEX
  8
0
 38
-45.527376
 10
-94.516395
 20
32.373855
 70
   192
  0
VERTEX
  8
0
 38
-45.527376
 10
-98.008509
 20
28.96095
 70
   192
  0
VERTEX
  8
0
 38
-45.527376
 10
-100.498308
 20
24.760511
 70
   192
  0
VERTEX
  8
0
 38
-45.527376
 10
-101.816115
 20
20.058792
 70
   192
  0
VERTEX
  8
0
 38
-45.527376
 10
-101.872124
 20
15.176207
 70
   192
  0
VERTEX
  8
0
 38
-45.527376
 10
-100.662519
 20
10.445495
 70
   192
  0
VERTEX
  8
0
 38
-45.527376
 10
-98.269732
 20
6.189047
 70
   192
  0
VERTEX
  8
0
 38
-45.527376
 10
-94.856827
 20
2.696933
 70
   192
  0
VERTEX
  8
0
 38
-45.527376
 10
-90.656389
 20
0.207134
 70
   192
  0
VERTEX
  8
0
 38
-45.527376
 10
-85.954669
 20
-1.110673
 70
   192
  0
VERTEX
  8
0
 38
-45.527376
 10
-81.072084
 20
-1.166682
 70
   192
  0
VERTEX
  8
0
 38
-45.527376
 10
-76.341372
 20
0.042923
 70
   192
  0
VERTEX
  8
0
 38
-45.527376
 10
-72.084924
 20
2.43571
 70
   192
  0
VERTEX
  8
0
 38
-45.527376
 10
-68.59281
 20
5.848615
 70
   192
  0
VERTEX
  8
0
 38
-45.527376
 10
-66.103012
 20
10.049053
 70
   192
  0
VERTEX
  8
0
 38
-45.527376
 10
-64.785204
 20
14.750772
 70
   192
  0
VERTEX
  8
OBJECT_4
  6
CONTINUOUS
 62
     7
 10
0.0
 20
0.0
 70
   128
  0
VERTEX
  8
OBJECT_4
  6
CONTINUOUS
 62
     7
 10
0.0
 20
0.0
 70
   128
  0
VERTEX
  8
OBJECT_4
  6
CONTINUOUS
 62
     7
 10
0.0
 20
0.0
 70
   128
  0
VERTEX
  8
OBJECT_4
  6
CONTINUOUS
 62
     7
 10
0.0
 20
0.0
 70
   128
  0
VERTEX
  8
OBJECT_4
  6
CONTINUOUS
 62
     7
 10
0.0
 20
0.0
 70
   128
  0
VERTEX
  8
OBJECT_4
  6
CONTINUOUS
 62
     7
 10
0.0
 20
0.0
 70
   128
  0
VERTEX
  8
OBJECT_4
  6
CONTINUOUS
 62
     7
 10
0.0
 20
0.0
 70
   128
  0
VERTEX
  8
OBJECT_4
  6
CONTINUOUS
 62
     7
 10
0.0
 20
0.0
 70
   128
  0
VERTEX
  8
OBJECT_4
  6
CONTINUOUS
 62
     7
 10
0.0
 20
0.0
 70
   128
  0
VERTEX
  8
OBJECT_4
  6
CONTINUOUS
 62
     7
 10
0.0
 20
0.0
 70
   128
  0
VERTEX
  8
OBJECT_4
  6
CONTINUOUS
 62
     7
 10
0.0
 20
0.0
 70
   128
  0
VERTEX
  8
OBJECT_4
  6
CONTINUOUS
 62
     7
 10
0.0
 20
0.0
 70
   128
  0
VERTEX
  8
OBJECT_4
  6
CONTINUOUS
 62
     7
 10
0.0
 20
0.0
 70
   128
  0
VERTEX
  8
OBJECT_4
  6
CONTINUOUS
 62
     7
 10
0.0
 20
0.0
 70
   128
  0
VERTEX
  8
OBJECT_4
  6
CONTINUOUS
 62
     7
 10
0.0
 20
0.0
 70
   128
  0
VERTEX
  8
OBJECT_4
  6
CONTINUOUS
 62
     7
 10
0.0
 20
0.0
 70
   128
  0
VERTEX
  8
OBJECT_4
  6
CONTINUOUS
 62
     7
 10
0.0
 20
0.0
 70
   128
  0
VERTEX
  8
OBJECT_4
  6
CONTINUOUS
 62
     7
 10
0.0
 20
0.0
 70
   128
  0
VERTEX
  8
OBJECT_4
  6
CONTINUOUS
 62
     7
 10
0.0
 20
0.0
 70
   128
  0
VERTEX
  8
OBJECT_4
  6
CONTINUOUS
 62
     7
 10
0.0
 20
0.0
 70
   128
  0
VERTEX
  8
OBJECT_4
  6
CONTINUOUS
 62
     7
 10
0.0
 20
0.0
 70
   128
  0
VERTEX
  8
OBJECT_4
  6
CONTINUOUS
 62
     7
 10
0.0
 20
0.0
 70
   128
  0
VERTEX
  8
OBJECT_4
  6
CONTINUOUS
 62
     7
 10
0.0
 20
0.0
 70
   128
  0
VERTEX
  8
OBJECT_4
  6
CONTINUOUS
 62
     7
 10
0.0
 20
0.0
 70
   128
  0
VERTEX
  8
OBJECT_4
  6
CONTINUOUS
 62
     7
 10
0.0
 20
0.0
 70
   128
  0
VERTEX
  8
OBJECT_4
  6
CONTINUOUS
 62
     7
 10
0.0
 20
0.0
 70
   128
  0
VERTEX
  8
OBJECT_4
  6
CONTINUOUS
 62
     7
 10
0.0
 20
0.0
 70
   128
  0
VERTEX
  8
OBJECT_4
  6
CONTINUOUS
 62
     7
 10
0.0
 20
0.0
 70
   128
  0
VERTEX
  8
OBJECT_4
  6
CONTINUOUS
 62
     7
 10
0.0
 20
0.0
 70
   128
  0
VERTEX
  8
OBJECT_4
  6
CONTINUOUS
 62
     7
 10
0.0
 20
0.0
 70
   128
  0
VERTEX
  8
OBJECT_4
  6
CONTINUOUS
 62
     7
 10
0.0
 20
0.0
 70
   128
  0
VERTEX
  8
OBJECT_4
  6
CONTINUOUS
 62
     7
 10
0.0
 20
0.0
 70
   128
  0
VERTEX
  8
OBJECT_4
  6
CONTINUOUS
 62
     7
 10
0.0
 20
0.0
 70
   128
  0
VERTEX
  8
OBJECT_4
  6
CONTINUOUS
 62
     7
 10
0.0
 20
0.0
 70
   128
  0
VERTEX
  8
OBJECT_4
  6
CONTINUOUS
 62
     7
 10
0.0
 20
0.0
 70
   128
  0
VERTEX
  8
OBJECT_4
  6
CONTINUOUS
 62
     7
 10
0.0
 20
0.0
 70
   128
  0
VERTEX
  8
OBJECT_4
  6
CONTINUOUS
 62
     7
 10
0.0
 20
0.0
 70
   128
  0
VERTEX
  8
OBJECT_4
  6
CONTINUOUS
 62
     7
 10
0.0
 20
0.0
 70
   128
  0
VERTEX
  8
OBJECT_4
  6
CONTINUOUS
 62
     7
 10
0.0
 20
0.0
 70
   128
  0
VERTEX
  8
OBJECT_4
  6
CONTINUOUS
 62
     7
 10
0.0
 20
0.0
 70
   128
  0
VERTEX
  8
OBJECT_4
  6
CONTINUOUS
 62
     7
 10
0.0
 20
0.0
 70
   128
  0
VERTEX
  8
OBJECT_4
  6
CONTINUOUS
 62
     7
 10
0.0
 20
0.0
 70
   128
  0
VERTEX
  8
OBJECT_4
  6
CONTINUOUS
 62
     7
 10
0.0
 20
0.0
 70
   128
  0
VERTEX
  8
OBJECT_4
  6
CONTINUOUS
 62
     7
 10
0.0
 20
0.0
 70
   128
  0
VERTEX
  8
OBJECT_4
  6
CONTINUOUS
 62
     7
 10
0.0
 20
0.0
 70
   128
  0
VERTEX
  8
OBJECT_4
  6
CONTINUOUS
 62
     7
 10
0.0
 20
0.0
 70
   128
  0
SEQEND
  8
OBJECT_4
  6
CONTINUOUS
 62
     7
  0
POLYLINE
  8
OBJECT_6
  6
CONTINUOUS
 62
   183
 66
     1
 70
    64
  0
VERTEX
  8
0
 38
19.960653
 10
-94.887839
 20
44.989401
 70
   192
  0
VERTEX
  8
0
 38
19.960653
 10
-71.710183
 20
44.989401
 70
   192
  0
VERTEX
  8
0
 38
19.960653
 10
-71.710183
 20
19.552371
 70
   192
  0
VERTEX
  8
0
 38
19.960653
 10
-94.887839
 20
19.552371
 70
   192
  0
VERTEX
  8
0
 38
25.960653
 10
-94.887839
 20
44.989401
 70
   192
  0
VERTEX
  8
0
 38
25.960653
 10
-71.710183
 20
44.989401
 70
   192
  0
VERTEX
  8
0
 38
25.960653
 10
-71.710183
 20
19.552371
 70
   192
  0
VERTEX
  8
0
 38
25.960653
 10
-94.887839
 20
19.552371
 70
   192
  0
VERTEX
  8
OBJECT_6
  6
CONTINUOUS
 62
   183
 10
0.0
 20
0.0
 70
   128
  0
VERTEX
  8
OBJECT_6
  6
CONTINUOUS
 62
   183
 10
0.0
 20
0.0
 70
   128
  0
VERTEX
  8
OBJECT_6
  6
CONTINUOUS
 62
   183
 10
0.0
 20
0.0
 70
   128
  0
VERTEX
  8
OBJECT_6
  6
CONTINUOUS
 62
   183
 10
0.0
 20
0.0
 70
   128
  0
VERTEX
  8
OBJECT_6
  6
CONTINUOUS
 62
   183
 10
0.0
 20
0.0
 70
   128
  0
VERTEX
  8
OBJECT_6
  6
CONTINUOUS
 62
   183
 10
0.0
 20
0.0
 70
   128
  0
SEQEND
  8
OBJECT_6
  6
CONTINUOUS
 62
   183
  0
POLYLINE
  8
OBJECT_6_COPY_3
  6
CONTINUOUS
 62
   183
 66
     1
 70
    64
  0
VERTEX
  8
0
 38
19.960653
 10
-95.41312
 20
12.9473
 70
   192
  0
VERTEX
  8
0
 38
19.960653
 10
-72.235463
 20
12.9473
 70
   192
  0
VERTEX
  8
0
 38
19.960653
 10
-72.235463
 20
-12.489729
 70
   192
  0
VERTEX
  8
0
 38
19.960653
 10
-95.41312
 20
-12.489729
 70
   192
  0
VERTEX
  8
0
 38
25.960653
 10
-95.41312
 20
12.9473
 70
   192
  0
VERTEX
  8
0
 38
25.960653
 10
-72.235463
 20
12.9473
 70
   192
  0
VERTEX
  8
0
 38
25.960653
 10
-72.235463
 20
-12.489729
 70
   192
  0
VERTEX
  8
0
 38
25.960653
 10
-95.41312
 20
-12.489729
 70
   192
  0
VERTEX
  8
OBJECT_6_COPY_3
  6
CONTINUOUS
 62
   183
 10
0.0
 20
0.0
 70
   128
  0
VERTEX
  8
OBJECT_6_COPY_3
  6
CONTINUOUS
 62
   183
 10
0.0
 20
0.0
 70
   128
  0
VERTEX
  8
OBJECT_6_COPY_3
  6
CONTINUOUS
 62
   183
 10
0.0
 20
0.0
 70
   128
  0
VERTEX
  8
OBJECT_6_COPY_3
  6
CONTINUOUS
 62
   183
 10
0.0
 20
0.0
 70
   128
  0
VERTEX
  8
OBJECT_6_COPY_3
  6
CONTINUOUS
 62
   183
 10
0.0
 20
0.0
 70
   128
  0
VERTEX
  8
OBJECT_6_COPY_3
  6
CONTINUOUS
 62
   183
 10
0.0
 20
0.0
 70
   128
  0
SEQEND
  8
OBJECT_6_COPY_3
  6
CONTINUOUS
 62
   183
  0
POLYLINE
  8
OBJECT_6_COPY_4
  6
CONTINUOUS
 62
   183
 66
     1
 70
    64
  0
VERTEX
  8
0
 38
19.960653
 10
-67.573261
 20
12.9473
 70
   192
  0
VERTEX
  8
0
 38
19.960653
 10
-44.395605
 20
12.9473
 70
   192
  0
VERTEX
  8
0
 38
19.960653
 10
-44.395605
 20
-12.489729
 70
   192
  0
VERTEX
  8
0
 38
19.960653
 10
-67.573261
 20
-12.489729
 70
   192
  0
VERTEX
  8
0
 38
25.960653
 10
-67.573261
 20
12.9473
 70
   192
  0
VERTEX
  8
0
 38
25.960653
 10
-44.395605
 20
12.9473
 70
   192
  0
VERTEX
  8
0
 38
25.960653
 10
-44.395605
 20
-12.489729
 70
   192
  0
VERTEX
  8
0
 38
25.960653
 10
-67.573261
 20
-12.489729
 70
   192
  0
VERTEX
  8
OBJECT_6_COPY_4
  6
CONTINUOUS
 62
   183
 10
0.0
 20
0.0
 70
   128
  0
VERTEX
  8
OBJECT_6_COPY_4
  6
CONTINUOUS
 62
   183
 10
0.0
 20
0.0
 70
   128
  0
VERTEX
  8
OBJECT_6_COPY_4
  6
CONTINUOUS
 62
   183
 10
0.0
 20
0.0
 70
   128
  0
VERTEX
  8
OBJECT_6_COPY_4
  6
CONTINUOUS
 62
   183
 10
0.0
 20
0.0
 70
   128
  0
VERTEX
  8
OBJECT_6_COPY_4
  6
CONTINUOUS
 62
   183
 10
0.0
 20
0.0
 70
   128
  0
VERTEX
  8
OBJECT_6_COPY_4
  6
CONTINUOUS
 62
   183
 10
0.0
 20
0.0
 70
   128
  0
SEQEND
  8
OBJECT_6_COPY_4
  6
CONTINUOUS
 62
   183
  0
POLYLINE
  8
OBJECT_6_COPY_5
  6
CONTINUOUS
 62
   183
 66
     1
 70
    64
  0
VERTEX
  8
0
 38
19.960653
 10
-67.047981
 20
44.46412
 70
   192
  0
VERTEX
  8
0
 38
19.960653
 10
-43.870324
 20
44.46412
 70
   192
  0
VERTEX
  8
0
 38
19.960653
 10
-43.870324
 20
19.027091
 70
   192
  0
VERTEX
  8
0
 38
19.960653
 10
-67.047981
 20
19.027091
 70
   192
  0
VERTEX
  8
0
 38
25.960653
 10
-67.047981
 20
44.46412
 70
   192
  0
VERTEX
  8
0
 38
25.960653
 10
-43.870324
 20
44.46412
 70
   192
  0
VERTEX
  8
0
 38
25.960653
 10
-43.870324
 20
19.027091
 70
   192
  0
VERTEX
  8
0
 38
25.960653
 10
-67.047981
 20
19.027091
 70
   192
  0
VERTEX
  8
OBJECT_6_COPY_5
  6
CONTINUOUS
 62
   183
 10
0.0
 20
0.0
 70
   128
  0
VERTEX
  8
OBJECT_6_COPY_5
  6
CONTINUOUS
 62
   183
 10
0.0
 20
0.0
 70
   128
  0
VERTEX
  8
OBJECT_6_COPY_5
  6
CONTINUOUS
 62
   183
 10
0.0
 20
0.0
 70
   128
  0
VERTEX
  8
OBJECT_6_COPY_5
  6
CONTINUOUS
 62
   183
 10
0.0
 20
0.0
 70
   128
  0
VERTEX
  8
OBJECT_6_COPY_5
  6
CONTINUOUS
 62
   183
 10
0.0
 20
0.0
 70
   128
  0
VERTEX
  8
OBJECT_6_COPY_5
  6
CONTINUOUS
 62
   183
 10
0.0
 20
0.0
 70
   128
  0
SEQEND
  8
OBJECT_6_COPY_5
  6
CONTINUOUS
 62
   183
  0
POLYLINE
  8
OBJECT_6_COPY_6
  6
CONTINUOUS
 62
   183
 66
     1
 70
    64
  0
VERTEX
  8
0
 38
19.960653
 10
-95.9384
 20
-16.99368
 70
   192
  0
VERTEX
  8
0
 38
19.960653
 10
-72.760743
 20
-16.99368
 70
   192
  0
VERTEX
  8
0
 38
19.960653
 10
-72.760743
 20
-42.430709
 70
   192
  0
VERTEX
  8
0
 38
19.960653
 10
-95.9384
 20
-42.430709
 70
   192
  0
VERTEX
  8
0
 38
25.960653
 10
-95.9384
 20
-16.99368
 70
   192
  0
VERTEX
  8
0
 38
25.960653
 10
-72.760743
 20
-16.99368
 70
   192
  0
VERTEX
  8
0
 38
25.960653
 10
-72.760743
 20
-42.430709
 70
   192
  0
VERTEX
  8
0
 38
25.960653
 10
-95.9384
 20
-42.430709
 70
   192
  0
VERTEX
  8
OBJECT_6_COPY_6
  6
CONTINUOUS
 62
   183
 10
0.0
 20
0.0
 70
   128
  0
VERTEX
  8
OBJECT_6_COPY_6
  6
CONTINUOUS
 62
   183
 10
0.0
 20
0.0
 70
   128
  0
VERTEX
  8
OBJECT_6_COPY_6
  6
CONTINUOUS
 62
   183
 10
0.0
 20
0.0
 70
   128
  0
VERTEX
  8
OBJECT_6_COPY_6
  6
CONTINUOUS
 62
   183
 10
0.0
 20
0.0
 70
   128
  0
VERTEX
  8
OBJECT_6_COPY_6
  6
CONTINUOUS
 62
   183
 10
0.0
 20
0.0
 70
   128
  0
VERTEX
  8
OBJECT_6_COPY_6
  6
CONTINUOUS
 62
   183
 10
0.0
 20
0.0
 70
   128
  0
SEQEND
  8
OBJECT_6_COPY_6
  6
CONTINUOUS
 62
   183
  0
POLYLINE
  8
OBJECT_6_COPY_7
  6
CONTINUOUS
 62
   183
 66
     1
 70
    64
  0
VERTEX
  8
0
 38
19.960653
 10
-124.303538
 20
12.9473
 70
   192
  0
VERTEX
  8
0
 38
19.960653
 10
-101.125882
 20
12.9473
 70
   192
  0
VERTEX
  8
0
 38
19.960653
 10
-101.125882
 20
-12.489729
 70
   192
  0
VERTEX
  8
0
 38
19.960653
 10
-124.303538
 20
-12.489729
 70
   192
  0
VERTEX
  8
0
 38
25.960653
 10
-124.303538
 20
12.9473
 70
   192
  0
VERTEX
  8
0
 38
25.960653
 10
-101.125882
 20
12.9473
 70
   192
  0
VERTEX
  8
0
 38
25.960653
 10
-101.125882
 20
-12.489729
 70
   192
  0
VERTEX
  8
0
 38
25.960653
 10
-124.303538
 20
-12.489729
 70
   192
  0
VERTEX
  8
OBJECT_6_COPY_7
  6
CONTINUOUS
 62
   183
 10
0.0
 20
0.0
 70
   128
  0
VERTEX
  8
OBJECT_6_COPY_7
  6
CONTINUOUS
 62
   183
 10
0.0
 20
0.0
 70
   128
  0
VERTEX
  8
OBJECT_6_COPY_7
  6
CONTINUOUS
 62
   183
 10
0.0
 20
0.0
 70
   128
  0
VERTEX
  8
OBJECT_6_COPY_7
  6
CONTINUOUS
 62
   183
 10
0.0
 20
0.0
 70
   128
  0
VERTEX
  8
OBJECT_6_COPY_7
  6
CONTINUOUS
 62
   183
 10
0.0
 20
0.0
 70
   128
  0
VERTEX
  8
OBJECT_6_COPY_7
  6
CONTINUOUS
 62
   183
 10
0.0
 20
0.0
 70
   128
  0
SEQEND
  8
OBJECT_6_COPY_7
  6
CONTINUOUS
 62
   183
  0
POLYLINE
  8
OBJECT_6_COPY_8
  6
CONTINUOUS
 62
   183
 66
     1
 70
    64
  0
VERTEX
  8
0
 38
19.960653
 10
-127.045425
 20
-29.681878
 70
   192
  0
VERTEX
  8
0
 38
19.960653
 10
-103.867769
 20
-29.681878
 70
   192
  0
VERTEX
  8
0
 38
19.960653
 10
-103.867769
 20
-55.118908
 70
   192
  0
VERTEX
  8
0
 38
19.960653
 10
-127.045425
 20
-55.118908
 70
   192
  0
VERTEX
  8
0
 38
25.960653
 10
-127.045425
 20
-29.681878
 70
   192
  0
VERTEX
  8
0
 38
25.960653
 10
-103.867769
 20
-29.681878
 70
   192
  0
VERTEX
  8
0
 38
25.960653
 10
-103.867769
 20
-55.118908
 70
   192
  0
VERTEX
  8
0
 38
25.960653
 10
-127.045425
 20
-55.118908
 70
   192
  0
VERTEX
  8
OBJECT_6_COPY_8
  6
CONTINUOUS
 62
   183
 10
0.0
 20
0.0
 70
   128
  0
VERTEX
  8
OBJECT_6_COPY_8
  6
CONTINUOUS
 62
   183
 10
0.0
 20
0.0
 70
   128
  0
VERTEX
  8
OBJECT_6_COPY_8
  6
CONTINUOUS
 62
   183
 10
0.0
 20
0.0
 70
   128
  0
VERTEX
  8
OBJECT_6_COPY_8
  6
CONTINUOUS
 62
   183
 10
0.0
 20
0.0
 70
   128
  0
VERTEX
  8
OBJECT_6_COPY_8
  6
CONTINUOUS
 62
   183
 10
0.0
 20
0.0
 70
   128
  0
VERTEX
  8
OBJECT_6_COPY_8
  6
CONTINUOUS
 62
   183
 10
0.0
 20
0.0
 70
   128
  0
SEQEND
  8
OBJECT_6_COPY_8
  6
CONTINUOUS
 62
   183
  0
POLYLINE
  8
OBJECT_6_COPY_9
  6
CONTINUOUS
 62
   183
 66
     1
 70
    64
  0
VERTEX
  8
0
 38
19.960653
 10
-58.942662
 20
-30.081908
 70
   192
  0
VERTEX
  8
0
 38
19.960653
 10
-35.765005
 20
-30.081908
 70
   192
  0
VERTEX
  8
0
 38
19.960653
 10
-35.765005
 20
-55.518937
 70
   192
  0
VERTEX
  8
0
 38
19.960653
 10
-58.942662
 20
-55.518937
 70
   192
  0
VERTEX
  8
0
 38
25.960653
 10
-58.942662
 20
-30.081908
 70
   192
  0
VERTEX
  8
0
 38
25.960653
 10
-35.765005
 20
-30.081908
 70
   192
  0
VERTEX
  8
0
 38
25.960653
 10
-35.765005
 20
-55.518937
 70
   192
  0
VERTEX
  8
0
 38
25.960653
 10
-58.942662
 20
-55.518937
 70
   192
  0
VERTEX
  8
OBJECT_6_COPY_9
  6
CONTINUOUS
 62
   183
 10
0.0
 20
0.0
 70
   128
  0
VERTEX
  8
OBJECT_6_COPY_9
  6
CONTINUOUS
 62
   183
 10
0.0
 20
0.0
 70
   128
  0
VERTEX
  8
OBJECT_6_COPY_9
  6
CONTINUOUS
 62
   183
 10
0.0
 20
0.0
 70
   128
  0
VERTEX
  8
OBJECT_6_COPY_9
  6
CONTINUOUS
 62
   183
 10
0.0
 20
0.0
 70
   128
  0
VERTEX
  8
OBJECT_6_COPY_9
  6
CONTINUOUS
 62
   183
 10
0.0
 20
0.0
 70
   128
  0
VERTEX
  8
OBJECT_6_COPY_9
  6
CONTINUOUS
 62
   183
 10
0.0
 20
0.0
 70
   128
  0
SEQEND
  8
OBJECT_6_COPY_9
  6
CONTINUOUS
 62
   183
  0
ENDSEC
  0
EOF
