  0
SECTION
  2
HEADER
  9
$ACADVER
  1
AC1003
  9
$INSBASE
 10
0.0
 20
0.0
  9
$EXTMIN
 10
-175.680988
 20
-598.666667
  9
$EXTMAX
 10
116.708674
 20
49.333333
  9
$LIMMIN
 10
-175.680988
 20
-598.666667
  9
$LIMMAX
 10
116.708674
 20
49.333333
  9
$VIEWCTR
 10
6.591288
 20
4.579184
  9
$VIEWSIZE
 40
9.158369
  9
$SNAPMODE
 70
     0
  9
$SNAPUNIT
 10
1.0
 20
1.0
  9
$SNAPBASE
 10
0.0
 20
0.0
  9
$SNAPANG
 50
0.0
  9
$SNAPSTYLE
 70
     0
  9
$SNAPISOPAIR
 70
     0
  9
$GRIDMODE
 70
     0
  9
$GRIDUNIT
 10
0.0
 20
0.0
  9
$ORTHOMODE
 70
     0
  9
$REGENMODE
 70
     1
  9
$FILLMODE
 70
     1
  9
$QTEXTMODE
 70
     0
  9
$DRAGMODE
 70
     2
  9
$LTSCALE
 40
1.0
  9
$OSMODE
 70
     0
  9
$ATTMODE
 70
     1
  9
$TEXTSIZE
 40
0.2
  9
$TRACEWID
 40
0.05
  9
$TEXTSTYLE
  7
STANDARD
  9
$CLAYER
  8
0
  9
$CELTYPE
  6
CONTINUOUS
  9
$CECOLOR
 62
   256
  9
$DIMSCALE
 40
1.0
  9
$DIMASZ
 40
0.18
  9
$DIMEXO
 40
0.0625
  9
$DIMDLI
 40
0.38
  9
$DIMRND
 40
0.0
  9
$DIMDLE
 40
0.0
  9
$DIMEXE
 40
0.18
  9
$DIMTP
 40
0.0
  9
$DIMTM
 40
0.0
  9
$DIMTXT
 40
0.18
  9
$DIMCEN
 40
0.09
  9
$DIMTSZ
 40
0.0
  9
$DIMTOL
 70
     0
  9
$DIMLIM
 70
     0
  9
$DIMTIH
 70
     1
  9
$DIMTOH
 70
     1
  9
$DIMSE1
 70
     0
  9
$DIMSE2
 70
     0
  9
$DIMTAD
 70
     0
  9
$DIMZIN
 70
     0
  9
$DIMBLK
  1

  9
$DIMASO
 70
     1
  9
$DIMSHO
 70
     1
  9
$DIMPOST
  1

  9
$DIMAPOST
  1

  9
$DIMALT
 70
     0
  9
$DIMALTD
 70
     2
  9
$DIMALTF
 40
25.4
  9
$DIMLFAC
 40
1.0
  9
$LUNITS
 70
     4
  9
$LUPREC
 70
     0
  9
$AXISMODE
 70
     0
  9
$AXISUNIT
 10
24.0
 20
24.0
  9
$SKETCHINC
 40
24.0
  9
$FILLETRAD
 40
24.0
  9
$AUNITS
 70
     4
  9
$AUPREC
 70
     0
  9
$MENU
  1
acad
  9
$ELEVATION
 40
0.0
  9
$THICKNESS
 40
120.0
  9
$VIEWDIR
 10
0.0
 20
0.0
 30
1.0
  9
$LIMCHECK
 70
     0
  9
$BLIPMODE
 70
     1
  9
$CHAMFERA
 40
0.0
  9
$CHAMFERB
 40
0.0
  9
$FASTZOOM
 70
     1
  9
$SKPOLY
 70
     0
  9
$TDCREATE
 40
2452581.504560185
  9
$TDUPDATE
 40
2452581.504560185
  9
$TDINDWG
 40
0.0000000000
  9
$TDUSRTIMER
 40
0.0000000000
  9
$USRTIMER
 70
     1
  9
$ANGBASE
 50
0.0
  9
$ANGDIR
 70
     0
  9
$PDMODE
 70
     0
  9
$PDSIZE
 40
0.0
  9
$PLINEWID
 40
0.0
  9
$COORDS
 70
     1
  9
$USERI1
 70
     0
  9
$USERI2
 70
     0
  9
$USERI3
 70
     0
  9
$USERI4
 70
     0
  9
$USERI5
 70
     0
  9
$USERR1
 40
0.0
  9
$USERR2
 40
0.0
  9
$USERR3
 40
0.0
  9
$USERR4
 40
0.0
  9
$USERR5
 40
0.0
  0
ENDSEC
  0
SECTION
  2
TABLES
  0
TABLE
  2
LTYPE
 70
     1
  0
LTYPE
  2
CONTINUOUS
 70
    64
  3
Solid line
 72
    65
 73
     0
 40
0.0
  0
ENDTAB
  0
TABLE
  2
LAYER
 70
    26
  0
LAYER
  2
0
 70
     0
 62
     7
  6
CONTINUOUS
  0
LAYER
  2
OBJECT_1
 70
    64
 62
     1
  6
CONTINUOUS
  0
LAYER
  2
OBJECT_2
 70
    64
 62
     1
  6
CONTINUOUS
  0
LAYER
  2
OBJECT_6
 70
    64
 62
     1
  6
CONTINUOUS
  0
LAYER
  2
OBJECT_79
 70
    64
 62
     1
  6
CONTINUOUS
  0
LAYER
  2
OBJECT_2_COPY
 70
    64
 62
     1
  6
CONTINUOUS
  0
LAYER
  2
OBJECT_80
 70
    64
 62
     1
  6
CONTINUOUS
  0
LAYER
  2
OBJECT_81
 70
    64
 62
     1
  6
CONTINUOUS
  0
LAYER
  2
OBJECT_82
 70
    64
 62
     1
  6
CONTINUOUS
  0
LAYER
  2
OBJECT_83
 70
    64
 62
     1
  6
CONTINUOUS
  0
LAYER
  2
OBJECT_84
 70
    64
 62
     1
  6
CONTINUOUS
  0
LAYER
  2
OBJECT_85
 70
    64
 62
     1
  6
CONTINUOUS
  0
LAYER
  2
OBJECT_86
 70
    64
 62
     1
  6
CONTINUOUS
  0
LAYER
  2
OBJECT_87
 70
    64
 62
     1
  6
CONTINUOUS
  0
LAYER
  2
OBJECT_88
 70
    64
 62
     1
  6
CONTINUOUS
  0
LAYER
  2
OBJECT_89
 70
    64
 62
     1
  6
CONTINUOUS
  0
LAYER
  2
OBJECT_81_COPY
 70
    64
 62
     1
  6
CONTINUOUS
  0
LAYER
  2
OBJECT_82_COPY
 70
    64
 62
     1
  6
CONTINUOUS
  0
LAYER
  2
OBJECT_83_COPY
 70
    64
 62
     1
  6
CONTINUOUS
  0
LAYER
  2
OBJECT_84_COPY
 70
    64
 62
     1
  6
CONTINUOUS
  0
LAYER
  2
OBJECT_85_COPY
 70
    64
 62
     1
  6
CONTINUOUS
  0
LAYER
  2
OBJECT_86_COPY
 70
    64
 62
     1
  6
CONTINUOUS
  0
LAYER
  2
OBJECT_87_COPY
 70
    64
 62
     1
  6
CONTINUOUS
  0
LAYER
  2
OBJECT_88_COPY
 70
    64
 62
     1
  6
CONTINUOUS
  0
LAYER
  2
OBJECT_89_COPY
 70
    64
 62
     1
  6
CONTINUOUS
  0
LAYER
  2
OBJECT_79_COPY
 70
    64
 62
     1
  6
CONTINUOUS
  0
ENDTAB
  0
TABLE
  2
STYLE
 70
     1
  0
STYLE
  2
STANDARD
 70
     0
 40
0.0
 41
1.0
 50
0.0
 71
     0
 42
0.0
  3
txt
  4

  0
ENDTAB
  0
TABLE
  2
VIEW
 70
     0
  0
ENDTAB
  0
ENDSEC
  0
SECTION
  2
BLOCKS
  0
ENDSEC
  0
SECTION
  2
ENTITIES
  0
POLYLINE
  8
OBJECT_1
  6
CONTINUOUS
 62
     7
 66
     1
 70
    64
  0
VERTEX
  8
0
 38
16.4377
 10
-175.680988
 20
49.333333
 70
   192
  0
VERTEX
  8
0
 38
16.4377
 10
116.708674
 20
49.333333
 70
   192
  0
VERTEX
  8
0
 38
16.4377
 10
116.708674
 20
-46.666667
 70
   192
  0
VERTEX
  8
0
 38
16.4377
 10
-175.680988
 20
-46.666667
 70
   192
  0
VERTEX
  8
0
 38
167.032295
 10
-175.680988
 20
49.333333
 70
   192
  0
VERTEX
  8
0
 38
167.032295
 10
116.708674
 20
49.333333
 70
   192
  0
VERTEX
  8
0
 38
167.032295
 10
116.708674
 20
-46.666667
 70
   192
  0
VERTEX
  8
0
 38
167.032295
 10
-175.680988
 20
-46.666667
 70
   192
  0
VERTEX
  8
OBJECT_1
  6
CONTINUOUS
 62
     7
 10
0.0
 20
0.0
 70
   128
  0
VERTEX
  8
OBJECT_1
  6
CONTINUOUS
 62
     7
 10
0.0
 20
0.0
 70
   128
  0
VERTEX
  8
OBJECT_1
  6
CONTINUOUS
 62
     7
 10
0.0
 20
0.0
 70
   128
  0
VERTEX
  8
OBJECT_1
  6
CONTINUOUS
 62
     7
 10
0.0
 20
0.0
 70
   128
  0
VERTEX
  8
OBJECT_1
  6
CONTINUOUS
 62
     7
 10
0.0
 20
0.0
 70
   128
  0
SEQEND
  8
OBJECT_1
  6
CONTINUOUS
 62
     7
  0
POLYLINE
  8
OBJECT_2
  6
CONTINUOUS
 62
     9
 66
     1
 70
    64
  0
VERTEX
  8
0
 38
17.175118
 10
-174.606362
 20
49.0
 70
   192
  0
VERTEX
  8
0
 38
17.175118
 10
116.260437
 20
49.0
 70
   192
  0
VERTEX
  8
0
 38
17.175118
 10
116.260437
 20
-46.333333
 70
   192
  0
VERTEX
  8
0
 38
17.175118
 10
-174.606362
 20
-46.333333
 70
   192
  0
VERTEX
  8
0
 38
54.823767
 10
-174.606362
 20
49.0
 70
   192
  0
VERTEX
  8
0
 38
54.823767
 10
116.260437
 20
49.0
 70
   192
  0
VERTEX
  8
0
 38
54.823767
 10
116.260437
 20
-46.333333
 70
   192
  0
VERTEX
  8
0
 38
54.823767
 10
-174.606362
 20
-46.333333
 70
   192
  0
VERTEX
  8
OBJECT_2
  6
CONTINUOUS
 62
     9
 10
0.0
 20
0.0
 70
   128
  0
VERTEX
  8
OBJECT_2
  6
CONTINUOUS
 62
     9
 10
0.0
 20
0.0
 70
   128
  0
VERTEX
  8
OBJECT_2
  6
CONTINUOUS
 62
     9
 10
0.0
 20
0.0
 70
   128
  0
VERTEX
  8
OBJECT_2
  6
CONTINUOUS
 62
     9
 10
0.0
 20
0.0
 70
   128
  0
VERTEX
  8
OBJECT_2
  6
CONTINUOUS
 62
     9
 10
0.0
 20
0.0
 70
   128
  0
SEQEND
  8
OBJECT_2
  6
CONTINUOUS
 62
     9
  0
POLYLINE
  8
OBJECT_6
  6
CONTINUOUS
 62
     7
 66
     1
 70
    64
  0
VERTEX
  8
0
 38
78.188779
 10
-98.670245
 20
-14.666667
 70
   192
  0
VERTEX
  8
0
 38
78.188779
 10
-98.670245
 20
33.333333
 70
   192
  0
VERTEX
  8
0
 38
78.188779
 10
45.329755
 20
33.333333
 70
   192
  0
VERTEX
  8
0
 38
78.188779
 10
45.329755
 20
-14.666667
 70
   192
  0
VERTEX
  8
0
 38
136.988779
 10
-98.670245
 20
-14.666667
 70
   192
  0
VERTEX
  8
0
 38
136.988779
 10
-98.670245
 20
33.333333
 70
   192
  0
VERTEX
  8
0
 38
136.988779
 10
45.329755
 20
33.333333
 70
   192
  0
VERTEX
  8
0
 38
136.988779
 10
45.329755
 20
-14.666667
 70
   192
  0
VERTEX
  8
OBJECT_6
  6
CONTINUOUS
 62
     7
 10
0.0
 20
0.0
 70
   128
  0
VERTEX
  8
OBJECT_6
  6
CONTINUOUS
 62
     7
 10
0.0
 20
0.0
 70
   128
  0
VERTEX
  8
OBJECT_6
  6
CONTINUOUS
 62
     7
 10
0.0
 20
0.0
 70
   128
  0
VERTEX
  8
OBJECT_6
  6
CONTINUOUS
 62
     7
 10
0.0
 20
0.0
 70
   128
  0
VERTEX
  8
OBJECT_6
  6
CONTINUOUS
 62
     7
 10
0.0
 20
0.0
 70
   128
  0
SEQEND
  8
OBJECT_6
  6
CONTINUOUS
 62
     7
  0
POLYLINE
  8
OBJECT_79
  6
CONTINUOUS
 62
   253
 66
     1
 70
    64
  0
VERTEX
  8
0
 38
-2.977541
 10
-83.971845
 20
-1.37464
 70
   192
  0
VERTEX
  8
0
 38
-2.977541
 10
-84.17629
 20
0.178274
 70
   192
  0
VERTEX
  8
0
 38
-2.977541
 10
-84.775692
 20
1.62536
 70
   192
  0
VERTEX
  8
0
 38
-2.977541
 10
-85.729204
 20
2.868001
 70
   192
  0
VERTEX
  8
0
 38
-2.977541
 10
-86.971845
 20
3.821512
 70
   192
  0
VERTEX
  8
0
 38
-2.977541
 10
-88.418931
 20
4.420915
 70
   192
  0
VERTEX
  8
0
 38
-2.977541
 10
-89.971845
 20
4.62536
 70
   192
  0
VERTEX
  8
0
 38
-2.977541
 10
-91.524759
 20
4.420915
 70
   192
  0
VERTEX
  8
0
 38
-2.977541
 10
-92.971845
 20
3.821512
 70
   192
  0
VERTEX
  8
0
 38
-2.977541
 10
-94.214485
 20
2.868001
 70
   192
  0
VERTEX
  8
0
 38
-2.977541
 10
-95.167997
 20
1.62536
 70
   192
  0
VERTEX
  8
0
 38
-2.977541
 10
-95.7674
 20
0.178274
 70
   192
  0
VERTEX
  8
0
 38
-2.977541
 10
-95.971845
 20
-1.37464
 70
   192
  0
VERTEX
  8
0
 38
-2.977541
 10
-95.7674
 20
-2.927554
 70
   192
  0
VERTEX
  8
0
 38
-2.977541
 10
-95.167997
 20
-4.37464
 70
   192
  0
VERTEX
  8
0
 38
-2.977541
 10
-94.214485
 20
-5.617281
 70
   192
  0
VERTEX
  8
0
 38
-2.977541
 10
-92.971845
 20
-6.570793
 70
   192
  0
VERTEX
  8
0
 38
-2.977541
 10
-91.524759
 20
-7.170195
 70
   192
  0
VERTEX
  8
0
 38
-2.977541
 10
-89.971845
 20
-7.37464
 70
   192
  0
VERTEX
  8
0
 38
-2.977541
 10
-88.418931
 20
-7.170195
 70
   192
  0
VERTEX
  8
0
 38
-2.977541
 10
-86.971845
 20
-6.570793
 70
   192
  0
VERTEX
  8
0
 38
-2.977541
 10
-85.729204
 20
-5.617281
 70
   192
  0
VERTEX
  8
0
 38
-2.977541
 10
-84.775692
 20
-4.37464
 70
   192
  0
VERTEX
  8
0
 38
-2.977541
 10
-84.17629
 20
-2.927554
 70
   192
  0
VERTEX
  8
0
 38
33.022459
 10
-83.971845
 20
-1.37464
 70
   192
  0
VERTEX
  8
0
 38
33.022459
 10
-84.17629
 20
0.178274
 70
   192
  0
VERTEX
  8
0
 38
33.022459
 10
-84.775692
 20
1.62536
 70
   192
  0
VERTEX
  8
0
 38
33.022459
 10
-85.729204
 20
2.868001
 70
   192
  0
VERTEX
  8
0
 38
33.022459
 10
-86.971845
 20
3.821512
 70
   192
  0
VERTEX
  8
0
 38
33.022459
 10
-88.418931
 20
4.420915
 70
   192
  0
VERTEX
  8
0
 38
33.022459
 10
-89.971845
 20
4.62536
 70
   192
  0
VERTEX
  8
0
 38
33.022459
 10
-91.524759
 20
4.420915
 70
   192
  0
VERTEX
  8
0
 38
33.022459
 10
-92.971845
 20
3.821512
 70
   192
  0
VERTEX
  8
0
 38
33.022459
 10
-94.214485
 20
2.868001
 70
   192
  0
VERTEX
  8
0
 38
33.022459
 10
-95.167997
 20
1.62536
 70
   192
  0
VERTEX
  8
0
 38
33.022459
 10
-95.7674
 20
0.178274
 70
   192
  0
VERTEX
  8
0
 38
33.022459
 10
-95.971845
 20
-1.37464
 70
   192
  0
VERTEX
  8
0
 38
33.022459
 10
-95.7674
 20
-2.927554
 70
   192
  0
VERTEX
  8
0
 38
33.022459
 10
-95.167997
 20
-4.37464
 70
   192
  0
VERTEX
  8
0
 38
33.022459
 10
-94.214485
 20
-5.617281
 70
   192
  0
VERTEX
  8
0
 38
33.022459
 10
-92.971845
 20
-6.570793
 70
   192
  0
VERTEX
  8
0
 38
33.022459
 10
-91.524759
 20
-7.170195
 70
   192
  0
VERTEX
  8
0
 38
33.022459
 10
-89.971845
 20
-7.37464
 70
   192
  0
VERTEX
  8
0
 38
33.022459
 10
-88.418931
 20
-7.170195
 70
   192
  0
VERTEX
  8
0
 38
33.022459
 10
-86.971845
 20
-6.570793
 70
   192
  0
VERTEX
  8
0
 38
33.022459
 10
-85.729204
 20
-5.617281
 70
   192
  0
VERTEX
  8
0
 38
33.022459
 10
-84.775692
 20
-4.37464
 70
   192
  0
VERTEX
  8
0
 38
33.022459
 10
-84.17629
 20
-2.927554
 70
   192
  0
VERTEX
  8
OBJECT_79
  6
CONTINUOUS
 62
   253
 10
0.0
 20
0.0
 70
   128
  0
VERTEX
  8
OBJECT_79
  6
CONTINUOUS
 62
   253
 10
0.0
 20
0.0
 70
   128
  0
VERTEX
  8
OBJECT_79
  6
CONTINUOUS
 62
   253
 10
0.0
 20
0.0
 70
   128
  0
VERTEX
  8
OBJECT_79
  6
CONTINUOUS
 62
   253
 10
0.0
 20
0.0
 70
   128
  0
VERTEX
  8
OBJECT_79
  6
CONTINUOUS
 62
   253
 10
0.0
 20
0.0
 70
   128
  0
VERTEX
  8
OBJECT_79
  6
CONTINUOUS
 62
   253
 10
0.0
 20
0.0
 70
   128
  0
VERTEX
  8
OBJECT_79
  6
CONTINUOUS
 62
   253
 10
0.0
 20
0.0
 70
   128
  0
VERTEX
  8
OBJECT_79
  6
CONTINUOUS
 62
   253
 10
0.0
 20
0.0
 70
   128
  0
VERTEX
  8
OBJECT_79
  6
CONTINUOUS
 62
   253
 10
0.0
 20
0.0
 70
   128
  0
VERTEX
  8
OBJECT_79
  6
CONTINUOUS
 62
   253
 10
0.0
 20
0.0
 70
   128
  0
VERTEX
  8
OBJECT_79
  6
CONTINUOUS
 62
   253
 10
0.0
 20
0.0
 70
   128
  0
VERTEX
  8
OBJECT_79
  6
CONTINUOUS
 62
   253
 10
0.0
 20
0.0
 70
   128
  0
VERTEX
  8
OBJECT_79
  6
CONTINUOUS
 62
   253
 10
0.0
 20
0.0
 70
   128
  0
VERTEX
  8
OBJECT_79
  6
CONTINUOUS
 62
   253
 10
0.0
 20
0.0
 70
   128
  0
VERTEX
  8
OBJECT_79
  6
CONTINUOUS
 62
   253
 10
0.0
 20
0.0
 70
   128
  0
VERTEX
  8
OBJECT_79
  6
CONTINUOUS
 62
   253
 10
0.0
 20
0.0
 70
   128
  0
VERTEX
  8
OBJECT_79
  6
CONTINUOUS
 62
   253
 10
0.0
 20
0.0
 70
   128
  0
VERTEX
  8
OBJECT_79
  6
CONTINUOUS
 62
   253
 10
0.0
 20
0.0
 70
   128
  0
VERTEX
  8
OBJECT_79
  6
CONTINUOUS
 62
   253
 10
0.0
 20
0.0
 70
   128
  0
VERTEX
  8
OBJECT_79
  6
CONTINUOUS
 62
   253
 10
0.0
 20
0.0
 70
   128
  0
VERTEX
  8
OBJECT_79
  6
CONTINUOUS
 62
   253
 10
0.0
 20
0.0
 70
   128
  0
VERTEX
  8
OBJECT_79
  6
CONTINUOUS
 62
   253
 10
0.0
 20
0.0
 70
   128
  0
VERTEX
  8
OBJECT_79
  6
CONTINUOUS
 62
   253
 10
0.0
 20
0.0
 70
   128
  0
VERTEX
  8
OBJECT_79
  6
CONTINUOUS
 62
   253
 10
0.0
 20
0.0
 70
   128
  0
VERTEX
  8
OBJECT_79
  6
CONTINUOUS
 62
   253
 10
0.0
 20
0.0
 70
   128
  0
VERTEX
  8
OBJECT_79
  6
CONTINUOUS
 62
   253
 10
0.0
 20
0.0
 70
   128
  0
VERTEX
  8
OBJECT_79
  6
CONTINUOUS
 62
   253
 10
0.0
 20
0.0
 70
   128
  0
VERTEX
  8
OBJECT_79
  6
CONTINUOUS
 62
   253
 10
0.0
 20
0.0
 70
   128
  0
VERTEX
  8
OBJECT_79
  6
CONTINUOUS
 62
   253
 10
0.0
 20
0.0
 70
   128
  0
VERTEX
  8
OBJECT_79
  6
CONTINUOUS
 62
   253
 10
0.0
 20
0.0
 70
   128
  0
VERTEX
  8
OBJECT_79
  6
CONTINUOUS
 62
   253
 10
0.0
 20
0.0
 70
   128
  0
VERTEX
  8
OBJECT_79
  6
CONTINUOUS
 62
   253
 10
0.0
 20
0.0
 70
   128
  0
VERTEX
  8
OBJECT_79
  6
CONTINUOUS
 62
   253
 10
0.0
 20
0.0
 70
   128
  0
VERTEX
  8
OBJECT_79
  6
CONTINUOUS
 62
   253
 10
0.0
 20
0.0
 70
   128
  0
VERTEX
  8
OBJECT_79
  6
CONTINUOUS
 62
   253
 10
0.0
 20
0.0
 70
   128
  0
VERTEX
  8
OBJECT_79
  6
CONTINUOUS
 62
   253
 10
0.0
 20
0.0
 70
   128
  0
VERTEX
  8
OBJECT_79
  6
CONTINUOUS
 62
   253
 10
0.0
 20
0.0
 70
   128
  0
VERTEX
  8
OBJECT_79
  6
CONTINUOUS
 62
   253
 10
0.0
 20
0.0
 70
   128
  0
VERTEX
  8
OBJECT_79
  6
CONTINUOUS
 62
   253
 10
0.0
 20
0.0
 70
   128
  0
VERTEX
  8
OBJECT_79
  6
CONTINUOUS
 62
   253
 10
0.0
 20
0.0
 70
   128
  0
VERTEX
  8
OBJECT_79
  6
CONTINUOUS
 62
   253
 10
0.0
 20
0.0
 70
   128
  0
VERTEX
  8
OBJECT_79
  6
CONTINUOUS
 62
   253
 10
0.0
 20
0.0
 70
   128
  0
VERTEX
  8
OBJECT_79
  6
CONTINUOUS
 62
   253
 10
0.0
 20
0.0
 70
   128
  0
VERTEX
  8
OBJECT_79
  6
CONTINUOUS
 62
   253
 10
0.0
 20
0.0
 70
   128
  0
VERTEX
  8
OBJECT_79
  6
CONTINUOUS
 62
   253
 10
0.0
 20
0.0
 70
   128
  0
VERTEX
  8
OBJECT_79
  6
CONTINUOUS
 62
   253
 10
0.0
 20
0.0
 70
   128
  0
SEQEND
  8
OBJECT_79
  6
CONTINUOUS
 62
   253
  0
POLYLINE
  8
OBJECT_2_COPY
  6
CONTINUOUS
 62
   183
 66
     1
 70
    64
  0
VERTEX
  8
0
 38
21.2274
 10
-108.454045
 20
-22.47505
 70
   192
  0
VERTEX
  8
0
 38
21.2274
 10
-12.454045
 20
-22.47505
 70
   192
  0
VERTEX
  8
0
 38
21.2274
 10
-12.454045
 20
40.651429
 70
   192
  0
VERTEX
  8
0
 38
21.2274
 10
-108.454045
 20
40.651429
 70
   192
  0
VERTEX
  8
0
 38
45.2274
 10
-108.454045
 20
-22.47505
 70
   192
  0
VERTEX
  8
0
 38
45.2274
 10
-12.454045
 20
-22.47505
 70
   192
  0
VERTEX
  8
0
 38
45.2274
 10
-12.454045
 20
40.651429
 70
   192
  0
VERTEX
  8
0
 38
45.2274
 10
-108.454045
 20
40.651429
 70
   192
  0
VERTEX
  8
0
 38
36.252059
 10
-64.470909
 20
-22.610757
 70
   192
  0
VERTEX
  8
0
 38
41.529694
 10
-64.477107
 20
-20.452466
 70
   192
  0
VERTEX
  8
0
 38
22.857309
 10
-64.470909
 20
-20.50405
 70
   192
  0
VERTEX
  8
0
 38
25.670932
 10
-64.470909
 20
-23.259422
 70
   192
  0
VERTEX
  8
0
 38
32.327683
 10
-64.470909
 20
-24.359957
 70
   192
  0
VERTEX
  8
0
 38
36.925425
 10
-64.470909
 20
-31.348571
 70
   192
  0
VERTEX
  8
0
 38
38.931009
 10
-64.470909
 20
-28.394859
 70
   192
  0
VERTEX
  8
0
 38
36.252059
 10
-61.791675
 20
-22.610757
 70
   192
  0
VERTEX
  8
0
 38
41.529694
 10
-61.797874
 20
-20.452466
 70
   192
  0
VERTEX
  8
0
 38
22.857309
 10
-61.791675
 20
-20.50405
 70
   192
  0
VERTEX
  8
0
 38
25.670932
 10
-61.791675
 20
-23.259422
 70
   192
  0
VERTEX
  8
0
 38
32.327683
 10
-61.791675
 20
-24.359957
 70
   192
  0
VERTEX
  8
0
 38
36.925425
 10
-61.791675
 20
-31.348571
 70
   192
  0
VERTEX
  8
0
 38
38.931009
 10
-61.791675
 20
-28.394859
 70
   192
  0
VERTEX
  8
0
 38
28.125205
 10
-60.470909
 20
-22.610757
 70
   192
  0
VERTEX
  8
0
 38
22.84757
 10
-60.477107
 20
-20.452466
 70
   192
  0
VERTEX
  8
0
 38
41.519955
 10
-60.470909
 20
-20.50405
 70
   192
  0
VERTEX
  8
0
 38
38.706332
 10
-60.470909
 20
-23.259422
 70
   192
  0
VERTEX
  8
0
 38
32.049581
 10
-60.470909
 20
-24.359957
 70
   192
  0
VERTEX
  8
0
 38
27.45184
 10
-60.470909
 20
-31.348571
 70
   192
  0
VERTEX
  8
0
 38
25.446255
 10
-60.470909
 20
-28.394859
 70
   192
  0
VERTEX
  8
0
 38
28.125205
 10
-57.791675
 20
-22.610757
 70
   192
  0
VERTEX
  8
0
 38
22.84757
 10
-57.797874
 20
-20.452466
 70
   192
  0
VERTEX
  8
0
 38
41.519955
 10
-57.791675
 20
-20.50405
 70
   192
  0
VERTEX
  8
0
 38
38.706332
 10
-57.791675
 20
-23.259422
 70
   192
  0
VERTEX
  8
0
 38
32.049581
 10
-57.791675
 20
-24.359957
 70
   192
  0
VERTEX
  8
0
 38
27.45184
 10
-57.791675
 20
-31.348571
 70
   192
  0
VERTEX
  8
0
 38
25.446255
 10
-57.791675
 20
-28.394859
 70
   192
  0
VERTEX
  8
0
 38
36.252059
 10
-56.470909
 20
-22.610757
 70
   192
  0
VERTEX
  8
0
 38
41.529694
 10
-56.477107
 20
-20.452466
 70
   192
  0
VERTEX
  8
0
 38
22.857309
 10
-56.470909
 20
-20.50405
 70
   192
  0
VERTEX
  8
0
 38
25.670932
 10
-56.470909
 20
-23.259422
 70
   192
  0
VERTEX
  8
0
 38
32.327683
 10
-56.470909
 20
-24.359957
 70
   192
  0
VERTEX
  8
0
 38
36.925425
 10
-56.470909
 20
-31.348571
 70
   192
  0
VERTEX
  8
0
 38
38.931009
 10
-56.470909
 20
-28.394859
 70
   192
  0
VERTEX
  8
0
 38
36.252059
 10
-53.791675
 20
-22.610757
 70
   192
  0
VERTEX
  8
0
 38
41.529694
 10
-53.797874
 20
-20.452466
 70
   192
  0
VERTEX
  8
0
 38
22.857309
 10
-53.791675
 20
-20.50405
 70
   192
  0
VERTEX
  8
0
 38
25.670932
 10
-53.791675
 20
-23.259422
 70
   192
  0
VERTEX
  8
0
 38
32.327683
 10
-53.791675
 20
-24.359957
 70
   192
  0
VERTEX
  8
0
 38
36.925425
 10
-53.791675
 20
-31.348571
 70
   192
  0
VERTEX
  8
0
 38
38.931009
 10
-53.791675
 20
-28.394859
 70
   192
  0
VERTEX
  8
0
 38
28.125205
 10
-52.470909
 20
-22.610757
 70
   192
  0
VERTEX
  8
0
 38
22.84757
 10
-52.477107
 20
-20.452466
 70
   192
  0
VERTEX
  8
0
 38
41.519955
 10
-52.470909
 20
-20.50405
 70
   192
  0
VERTEX
  8
0
 38
38.706332
 10
-52.470909
 20
-23.259422
 70
   192
  0
VERTEX
  8
0
 38
32.049581
 10
-52.470909
 20
-24.359957
 70
   192
  0
VERTEX
  8
0
 38
27.45184
 10
-52.470909
 20
-31.348571
 70
   192
  0
VERTEX
  8
0
 38
25.446255
 10
-52.470909
 20
-28.394859
 70
   192
  0
VERTEX
  8
0
 38
28.125205
 10
-49.791675
 20
-22.610757
 70
   192
  0
VERTEX
  8
0
 38
22.84757
 10
-49.797874
 20
-20.452466
 70
   192
  0
VERTEX
  8
0
 38
41.519955
 10
-49.791675
 20
-20.50405
 70
   192
  0
VERTEX
  8
0
 38
38.706332
 10
-49.791675
 20
-23.259422
 70
   192
  0
VERTEX
  8
0
 38
32.049581
 10
-49.791675
 20
-24.359957
 70
   192
  0
VERTEX
  8
0
 38
27.45184
 10
-49.791675
 20
-31.348571
 70
   192
  0
VERTEX
  8
0
 38
25.446255
 10
-49.791675
 20
-28.394859
 70
   192
  0
VERTEX
  8
0
 38
28.125205
 10
-48.470909
 20
-22.610757
 70
   192
  0
VERTEX
  8
0
 38
22.84757
 10
-48.477107
 20
-20.452466
 70
   192
  0
VERTEX
  8
0
 38
41.519955
 10
-48.470909
 20
-20.50405
 70
   192
  0
VERTEX
  8
0
 38
38.706332
 10
-48.470909
 20
-23.259422
 70
   192
  0
VERTEX
  8
0
 38
32.049581
 10
-48.470909
 20
-24.359957
 70
   192
  0
VERTEX
  8
0
 38
27.45184
 10
-48.470909
 20
-31.348571
 70
   192
  0
VERTEX
  8
0
 38
25.446255
 10
-48.470909
 20
-28.394859
 70
   192
  0
VERTEX
  8
0
 38
28.125205
 10
-45.791675
 20
-22.610757
 70
   192
  0
VERTEX
  8
0
 38
22.84757
 10
-45.797874
 20
-20.452466
 70
   192
  0
VERTEX
  8
0
 38
41.519955
 10
-45.791675
 20
-20.50405
 70
   192
  0
VERTEX
  8
0
 38
38.706332
 10
-45.791675
 20
-23.259422
 70
   192
  0
VERTEX
  8
0
 38
32.049581
 10
-45.791675
 20
-24.359957
 70
   192
  0
VERTEX
  8
0
 38
27.45184
 10
-45.791675
 20
-31.348571
 70
   192
  0
VERTEX
  8
0
 38
25.446255
 10
-45.791675
 20
-28.394859
 70
   192
  0
VERTEX
  8
0
 38
36.252059
 10
-44.470909
 20
-22.610757
 70
   192
  0
VERTEX
  8
0
 38
41.529694
 10
-44.477107
 20
-20.452466
 70
   192
  0
VERTEX
  8
0
 38
22.857309
 10
-44.470909
 20
-20.50405
 70
   192
  0
VERTEX
  8
0
 38
25.670932
 10
-44.470909
 20
-23.259422
 70
   192
  0
VERTEX
  8
0
 38
32.327683
 10
-44.470909
 20
-24.359957
 70
   192
  0
VERTEX
  8
0
 38
36.925425
 10
-44.470909
 20
-31.348571
 70
   192
  0
VERTEX
  8
0
 38
38.931009
 10
-44.470909
 20
-28.394859
 70
   192
  0
VERTEX
  8
0
 38
36.252059
 10
-41.791675
 20
-22.610757
 70
   192
  0
VERTEX
  8
0
 38
41.529694
 10
-41.797874
 20
-20.452466
 70
   192
  0
VERTEX
  8
0
 38
22.857309
 10
-41.791675
 20
-20.50405
 70
   192
  0
VERTEX
  8
0
 38
25.670932
 10
-41.791675
 20
-23.259422
 70
   192
  0
VERTEX
  8
0
 38
32.327683
 10
-41.791675
 20
-24.359957
 70
   192
  0
VERTEX
  8
0
 38
36.925425
 10
-41.791675
 20
-31.348571
 70
   192
  0
VERTEX
  8
0
 38
38.931009
 10
-41.791675
 20
-28.394859
 70
   192
  0
VERTEX
  8
0
 38
36.252059
 10
-40.470909
 20
-22.610757
 70
   192
  0
VERTEX
  8
0
 38
41.529694
 10
-40.477107
 20
-20.452466
 70
   192
  0
VERTEX
  8
0
 38
22.857309
 10
-40.470909
 20
-20.50405
 70
   192
  0
VERTEX
  8
0
 38
25.670932
 10
-40.470909
 20
-23.259422
 70
   192
  0
VERTEX
  8
0
 38
32.327683
 10
-40.470909
 20
-24.359957
 70
   192
  0
VERTEX
  8
0
 38
36.925425
 10
-40.470909
 20
-31.348571
 70
   192
  0
VERTEX
  8
0
 38
38.931009
 10
-40.470909
 20
-28.394859
 70
   192
  0
VERTEX
  8
0
 38
36.252059
 10
-37.791675
 20
-22.610757
 70
   192
  0
VERTEX
  8
0
 38
41.529694
 10
-37.797874
 20
-20.452466
 70
   192
  0
VERTEX
  8
0
 38
22.857309
 10
-37.791675
 20
-20.50405
 70
   192
  0
VERTEX
  8
0
 38
25.670932
 10
-37.791675
 20
-23.259422
 70
   192
  0
VERTEX
  8
0
 38
32.327683
 10
-37.791675
 20
-24.359957
 70
   192
  0
VERTEX
  8
0
 38
36.925425
 10
-37.791675
 20
-31.348571
 70
   192
  0
VERTEX
  8
0
 38
38.931009
 10
-37.791675
 20
-28.394859
 70
   192
  0
VERTEX
  8
0
 38
36.252059
 10
-36.470909
 20
-22.610757
 70
   192
  0
VERTEX
  8
0
 38
41.529694
 10
-36.477107
 20
-20.452466
 70
   192
  0
VERTEX
  8
0
 38
22.857309
 10
-36.470909
 20
-20.50405
 70
   192
  0
VERTEX
  8
0
 38
25.670932
 10
-36.470909
 20
-23.259422
 70
   192
  0
VERTEX
  8
0
 38
32.327683
 10
-36.470909
 20
-24.359957
 70
   192
  0
VERTEX
  8
0
 38
36.925425
 10
-36.470909
 20
-31.348571
 70
   192
  0
VERTEX
  8
0
 38
38.931009
 10
-36.470909
 20
-28.394859
 70
   192
  0
VERTEX
  8
0
 38
36.252059
 10
-33.791675
 20
-22.610757
 70
   192
  0
VERTEX
  8
0
 38
41.529694
 10
-33.797874
 20
-20.452466
 70
   192
  0
VERTEX
  8
0
 38
22.857309
 10
-33.791675
 20
-20.50405
 70
   192
  0
VERTEX
  8
0
 38
25.670932
 10
-33.791675
 20
-23.259422
 70
   192
  0
VERTEX
  8
0
 38
32.327683
 10
-33.791675
 20
-24.359957
 70
   192
  0
VERTEX
  8
0
 38
36.925425
 10
-33.791675
 20
-31.348571
 70
   192
  0
VERTEX
  8
0
 38
38.931009
 10
-33.791675
 20
-28.394859
 70
   192
  0
VERTEX
  8
0
 38
41.738432
 10
-67.252489
 20
-23.204088
 70
   192
  0
VERTEX
  8
0
 38
41.738432
 10
-67.252489
 20
-20.04742
 70
   192
  0
VERTEX
  8
0
 38
22.63985
 10
-67.252489
 20
-20.04742
 70
   192
  0
VERTEX
  8
0
 38
22.63985
 10
-67.252489
 20
-23.204088
 70
   192
  0
VERTEX
  8
0
 38
41.738432
 10
-31.252489
 20
-23.204088
 70
   192
  0
VERTEX
  8
0
 38
41.738432
 10
-31.252489
 20
-20.04742
 70
   192
  0
VERTEX
  8
0
 38
22.63985
 10
-31.252489
 20
-20.04742
 70
   192
  0
VERTEX
  8
0
 38
22.63985
 10
-31.252489
 20
-23.204088
 70
   192
  0
VERTEX
  8
OBJECT_2_COPY
  6
CONTINUOUS
 62
   183
 10
0.0
 20
0.0
 70
   128
  0
VERTEX
  8
OBJECT_2_COPY
  6
CONTINUOUS
 62
   183
 10
0.0
 20
0.0
 70
   128
  0
VERTEX
  8
OBJECT_2_COPY
  6
CONTINUOUS
 62
   183
 10
0.0
 20
0.0
 70
   128
  0
VERTEX
  8
OBJECT_2_COPY
  6
CONTINUOUS
 62
   183
 10
0.0
 20
0.0
 70
   128
  0
VERTEX
  8
OBJECT_2_COPY
  6
CONTINUOUS
 62
   183
 10
0.0
 20
0.0
 70
   128
  0
VERTEX
  8
OBJECT_2_COPY
  6
CONTINUOUS
 62
   183
 10
0.0
 20
0.0
 70
   128
  0
VERTEX
  8
OBJECT_2_COPY
  6
CONTINUOUS
 62
   253
 10
0.0
 20
0.0
 70
   128
  0
VERTEX
  8
OBJECT_2_COPY
  6
CONTINUOUS
 62
   253
 10
0.0
 20
0.0
 70
   128
  0
VERTEX
  8
OBJECT_2_COPY
  6
CONTINUOUS
 62
   253
 10
0.0
 20
0.0
 70
   128
  0
VERTEX
  8
OBJECT_2_COPY
  6
CONTINUOUS
 62
   253
 10
0.0
 20
0.0
 70
   128
  0
VERTEX
  8
OBJECT_2_COPY
  6
CONTINUOUS
 62
   253
 10
0.0
 20
0.0
 70
   128
  0
VERTEX
  8
OBJECT_2_COPY
  6
CONTINUOUS
 62
   253
 10
0.0
 20
0.0
 70
   128
  0
VERTEX
  8
OBJECT_2_COPY
  6
CONTINUOUS
 62
   253
 10
0.0
 20
0.0
 70
   128
  0
VERTEX
  8
OBJECT_2_COPY
  6
CONTINUOUS
 62
   253
 10
0.0
 20
0.0
 70
   128
  0
VERTEX
  8
OBJECT_2_COPY
  6
CONTINUOUS
 62
   253
 10
0.0
 20
0.0
 70
   128
  0
VERTEX
  8
OBJECT_2_COPY
  6
CONTINUOUS
 62
   253
 10
0.0
 20
0.0
 70
   128
  0
VERTEX
  8
OBJECT_2_COPY
  6
CONTINUOUS
 62
   253
 10
0.0
 20
0.0
 70
   128
  0
VERTEX
  8
OBJECT_2_COPY
  6
CONTINUOUS
 62
   253
 10
0.0
 20
0.0
 70
   128
  0
VERTEX
  8
OBJECT_2_COPY
  6
CONTINUOUS
 62
   253
 10
0.0
 20
0.0
 70
   128
  0
VERTEX
  8
OBJECT_2_COPY
  6
CONTINUOUS
 62
   253
 10
0.0
 20
0.0
 70
   128
  0
VERTEX
  8
OBJECT_2_COPY
  6
CONTINUOUS
 62
   253
 10
0.0
 20
0.0
 70
   128
  0
VERTEX
  8
OBJECT_2_COPY
  6
CONTINUOUS
 62
   253
 10
0.0
 20
0.0
 70
   128
  0
VERTEX
  8
OBJECT_2_COPY
  6
CONTINUOUS
 62
   253
 10
0.0
 20
0.0
 70
   128
  0
VERTEX
  8
OBJECT_2_COPY
  6
CONTINUOUS
 62
   253
 10
0.0
 20
0.0
 70
   128
  0
VERTEX
  8
OBJECT_2_COPY
  6
CONTINUOUS
 62
   253
 10
0.0
 20
0.0
 70
   128
  0
VERTEX
  8
OBJECT_2_COPY
  6
CONTINUOUS
 62
   253
 10
0.0
 20
0.0
 70
   128
  0
VERTEX
  8
OBJECT_2_COPY
  6
CONTINUOUS
 62
   253
 10
0.0
 20
0.0
 70
   128
  0
VERTEX
  8
OBJECT_2_COPY
  6
CONTINUOUS
 62
   253
 10
0.0
 20
0.0
 70
   128
  0
VERTEX
  8
OBJECT_2_COPY
  6
CONTINUOUS
 62
   253
 10
0.0
 20
0.0
 70
   128
  0
VERTEX
  8
OBJECT_2_COPY
  6
CONTINUOUS
 62
   253
 10
0.0
 20
0.0
 70
   128
  0
VERTEX
  8
OBJECT_2_COPY
  6
CONTINUOUS
 62
   253
 10
0.0
 20
0.0
 70
   128
  0
VERTEX
  8
OBJECT_2_COPY
  6
CONTINUOUS
 62
   253
 10
0.0
 20
0.0
 70
   128
  0
VERTEX
  8
OBJECT_2_COPY
  6
CONTINUOUS
 62
   253
 10
0.0
 20
0.0
 70
   128
  0
VERTEX
  8
OBJECT_2_COPY
  6
CONTINUOUS
 62
   253
 10
0.0
 20
0.0
 70
   128
  0
VERTEX
  8
OBJECT_2_COPY
  6
CONTINUOUS
 62
   253
 10
0.0
 20
0.0
 70
   128
  0
VERTEX
  8
OBJECT_2_COPY
  6
CONTINUOUS
 62
   253
 10
0.0
 20
0.0
 70
   128
  0
VERTEX
  8
OBJECT_2_COPY
  6
CONTINUOUS
 62
   253
 10
0.0
 20
0.0
 70
   128
  0
VERTEX
  8
OBJECT_2_COPY
  6
CONTINUOUS
 62
   253
 10
0.0
 20
0.0
 70
   128
  0
VERTEX
  8
OBJECT_2_COPY
  6
CONTINUOUS
 62
   253
 10
0.0
 20
0.0
 70
   128
  0
VERTEX
  8
OBJECT_2_COPY
  6
CONTINUOUS
 62
   253
 10
0.0
 20
0.0
 70
   128
  0
VERTEX
  8
OBJECT_2_COPY
  6
CONTINUOUS
 62
   253
 10
0.0
 20
0.0
 70
   128
  0
VERTEX
  8
OBJECT_2_COPY
  6
CONTINUOUS
 62
   253
 10
0.0
 20
0.0
 70
   128
  0
VERTEX
  8
OBJECT_2_COPY
  6
CONTINUOUS
 62
   253
 10
0.0
 20
0.0
 70
   128
  0
VERTEX
  8
OBJECT_2_COPY
  6
CONTINUOUS
 62
   253
 10
0.0
 20
0.0
 70
   128
  0
VERTEX
  8
OBJECT_2_COPY
  6
CONTINUOUS
 62
   253
 10
0.0
 20
0.0
 70
   128
  0
VERTEX
  8
OBJECT_2_COPY
  6
CONTINUOUS
 62
   253
 10
0.0
 20
0.0
 70
   128
  0
VERTEX
  8
OBJECT_2_COPY
  6
CONTINUOUS
 62
   253
 10
0.0
 20
0.0
 70
   128
  0
VERTEX
  8
OBJECT_2_COPY
  6
CONTINUOUS
 62
   253
 10
0.0
 20
0.0
 70
   128
  0
VERTEX
  8
OBJECT_2_COPY
  6
CONTINUOUS
 62
   253
 10
0.0
 20
0.0
 70
   128
  0
VERTEX
  8
OBJECT_2_COPY
  6
CONTINUOUS
 62
   253
 10
0.0
 20
0.0
 70
   128
  0
VERTEX
  8
OBJECT_2_COPY
  6
CONTINUOUS
 62
   253
 10
0.0
 20
0.0
 70
   128
  0
VERTEX
  8
OBJECT_2_COPY
  6
CONTINUOUS
 62
   253
 10
0.0
 20
0.0
 70
   128
  0
VERTEX
  8
OBJECT_2_COPY
  6
CONTINUOUS
 62
   253
 10
0.0
 20
0.0
 70
   128
  0
VERTEX
  8
OBJECT_2_COPY
  6
CONTINUOUS
 62
   253
 10
0.0
 20
0.0
 70
   128
  0
VERTEX
  8
OBJECT_2_COPY
  6
CONTINUOUS
 62
   253
 10
0.0
 20
0.0
 70
   128
  0
VERTEX
  8
OBJECT_2_COPY
  6
CONTINUOUS
 62
   253
 10
0.0
 20
0.0
 70
   128
  0
VERTEX
  8
OBJECT_2_COPY
  6
CONTINUOUS
 62
   253
 10
0.0
 20
0.0
 70
   128
  0
VERTEX
  8
OBJECT_2_COPY
  6
CONTINUOUS
 62
   253
 10
0.0
 20
0.0
 70
   128
  0
VERTEX
  8
OBJECT_2_COPY
  6
CONTINUOUS
 62
   253
 10
0.0
 20
0.0
 70
   128
  0
VERTEX
  8
OBJECT_2_COPY
  6
CONTINUOUS
 62
   253
 10
0.0
 20
0.0
 70
   128
  0
VERTEX
  8
OBJECT_2_COPY
  6
CONTINUOUS
 62
   253
 10
0.0
 20
0.0
 70
   128
  0
VERTEX
  8
OBJECT_2_COPY
  6
CONTINUOUS
 62
   253
 10
0.0
 20
0.0
 70
   128
  0
VERTEX
  8
OBJECT_2_COPY
  6
CONTINUOUS
 62
   253
 10
0.0
 20
0.0
 70
   128
  0
VERTEX
  8
OBJECT_2_COPY
  6
CONTINUOUS
 62
   253
 10
0.0
 20
0.0
 70
   128
  0
VERTEX
  8
OBJECT_2_COPY
  6
CONTINUOUS
 62
   253
 10
0.0
 20
0.0
 70
   128
  0
VERTEX
  8
OBJECT_2_COPY
  6
CONTINUOUS
 62
   253
 10
0.0
 20
0.0
 70
   128
  0
VERTEX
  8
OBJECT_2_COPY
  6
CONTINUOUS
 62
   253
 10
0.0
 20
0.0
 70
   128
  0
VERTEX
  8
OBJECT_2_COPY
  6
CONTINUOUS
 62
   253
 10
0.0
 20
0.0
 70
   128
  0
VERTEX
  8
OBJECT_2_COPY
  6
CONTINUOUS
 62
   253
 10
0.0
 20
0.0
 70
   128
  0
VERTEX
  8
OBJECT_2_COPY
  6
CONTINUOUS
 62
   253
 10
0.0
 20
0.0
 70
   128
  0
VERTEX
  8
OBJECT_2_COPY
  6
CONTINUOUS
 62
   253
 10
0.0
 20
0.0
 70
   128
  0
VERTEX
  8
OBJECT_2_COPY
  6
CONTINUOUS
 62
   253
 10
0.0
 20
0.0
 70
   128
  0
VERTEX
  8
OBJECT_2_COPY
  6
CONTINUOUS
 62
   253
 10
0.0
 20
0.0
 70
   128
  0
VERTEX
  8
OBJECT_2_COPY
  6
CONTINUOUS
 62
   253
 10
0.0
 20
0.0
 70
   128
  0
VERTEX
  8
OBJECT_2_COPY
  6
CONTINUOUS
 62
   253
 10
0.0
 20
0.0
 70
   128
  0
VERTEX
  8
OBJECT_2_COPY
  6
CONTINUOUS
 62
   253
 10
0.0
 20
0.0
 70
   128
  0
VERTEX
  8
OBJECT_2_COPY
  6
CONTINUOUS
 62
   253
 10
0.0
 20
0.0
 70
   128
  0
VERTEX
  8
OBJECT_2_COPY
  6
CONTINUOUS
 62
   253
 10
0.0
 20
0.0
 70
   128
  0
VERTEX
  8
OBJECT_2_COPY
  6
CONTINUOUS
 62
   253
 10
0.0
 20
0.0
 70
   128
  0
VERTEX
  8
OBJECT_2_COPY
  6
CONTINUOUS
 62
   253
 10
0.0
 20
0.0
 70
   128
  0
VERTEX
  8
OBJECT_2_COPY
  6
CONTINUOUS
 62
   253
 10
0.0
 20
0.0
 70
   128
  0
VERTEX
  8
OBJECT_2_COPY
  6
CONTINUOUS
 62
   253
 10
0.0
 20
0.0
 70
   128
  0
VERTEX
  8
OBJECT_2_COPY
  6
CONTINUOUS
 62
   253
 10
0.0
 20
0.0
 70
   128
  0
VERTEX
  8
OBJECT_2_COPY
  6
CONTINUOUS
 62
   253
 10
0.0
 20
0.0
 70
   128
  0
VERTEX
  8
OBJECT_2_COPY
  6
CONTINUOUS
 62
   253
 10
0.0
 20
0.0
 70
   128
  0
VERTEX
  8
OBJECT_2_COPY
  6
CONTINUOUS
 62
   253
 10
0.0
 20
0.0
 70
   128
  0
VERTEX
  8
OBJECT_2_COPY
  6
CONTINUOUS
 62
   253
 10
0.0
 20
0.0
 70
   128
  0
VERTEX
  8
OBJECT_2_COPY
  6
CONTINUOUS
 62
   253
 10
0.0
 20
0.0
 70
   128
  0
VERTEX
  8
OBJECT_2_COPY
  6
CONTINUOUS
 62
   253
 10
0.0
 20
0.0
 70
   128
  0
VERTEX
  8
OBJECT_2_COPY
  6
CONTINUOUS
 62
   253
 10
0.0
 20
0.0
 70
   128
  0
VERTEX
  8
OBJECT_2_COPY
  6
CONTINUOUS
 62
   253
 10
0.0
 20
0.0
 70
   128
  0
VERTEX
  8
OBJECT_2_COPY
  6
CONTINUOUS
 62
   253
 10
0.0
 20
0.0
 70
   128
  0
VERTEX
  8
OBJECT_2_COPY
  6
CONTINUOUS
 62
   253
 10
0.0
 20
0.0
 70
   128
  0
VERTEX
  8
OBJECT_2_COPY
  6
CONTINUOUS
 62
   253
 10
0.0
 20
0.0
 70
   128
  0
VERTEX
  8
OBJECT_2_COPY
  6
CONTINUOUS
 62
   253
 10
0.0
 20
0.0
 70
   128
  0
VERTEX
  8
OBJECT_2_COPY
  6
CONTINUOUS
 62
   253
 10
0.0
 20
0.0
 70
   128
  0
VERTEX
  8
OBJECT_2_COPY
  6
CONTINUOUS
 62
   253
 10
0.0
 20
0.0
 70
   128
  0
VERTEX
  8
OBJECT_2_COPY
  6
CONTINUOUS
 62
   253
 10
0.0
 20
0.0
 70
   128
  0
VERTEX
  8
OBJECT_2_COPY
  6
CONTINUOUS
 62
   253
 10
0.0
 20
0.0
 70
   128
  0
VERTEX
  8
OBJECT_2_COPY
  6
CONTINUOUS
 62
   253
 10
0.0
 20
0.0
 70
   128
  0
VERTEX
  8
OBJECT_2_COPY
  6
CONTINUOUS
 62
   253
 10
0.0
 20
0.0
 70
   128
  0
VERTEX
  8
OBJECT_2_COPY
  6
CONTINUOUS
 62
   253
 10
0.0
 20
0.0
 70
   128
  0
VERTEX
  8
OBJECT_2_COPY
  6
CONTINUOUS
 62
   253
 10
0.0
 20
0.0
 70
   128
  0
VERTEX
  8
OBJECT_2_COPY
  6
CONTINUOUS
 62
   253
 10
0.0
 20
0.0
 70
   128
  0
VERTEX
  8
OBJECT_2_COPY
  6
CONTINUOUS
 62
   253
 10
0.0
 20
0.0
 70
   128
  0
VERTEX
  8
OBJECT_2_COPY
  6
CONTINUOUS
 62
   253
 10
0.0
 20
0.0
 70
   128
  0
VERTEX
  8
OBJECT_2_COPY
  6
CONTINUOUS
 62
   253
 10
0.0
 20
0.0
 70
   128
  0
VERTEX
  8
OBJECT_2_COPY
  6
CONTINUOUS
 62
   253
 10
0.0
 20
0.0
 70
   128
  0
VERTEX
  8
OBJECT_2_COPY
  6
CONTINUOUS
 62
   253
 10
0.0
 20
0.0
 70
   128
  0
VERTEX
  8
OBJECT_2_COPY
  6
CONTINUOUS
 62
   253
 10
0.0
 20
0.0
 70
   128
  0
VERTEX
  8
OBJECT_2_COPY
  6
CONTINUOUS
 62
   253
 10
0.0
 20
0.0
 70
   128
  0
VERTEX
  8
OBJECT_2_COPY
  6
CONTINUOUS
 62
   253
 10
0.0
 20
0.0
 70
   128
  0
VERTEX
  8
OBJECT_2_COPY
  6
CONTINUOUS
 62
   253
 10
0.0
 20
0.0
 70
   128
  0
VERTEX
  8
OBJECT_2_COPY
  6
CONTINUOUS
 62
   253
 10
0.0
 20
0.0
 70
   128
  0
VERTEX
  8
OBJECT_2_COPY
  6
CONTINUOUS
 62
   253
 10
0.0
 20
0.0
 70
   128
  0
VERTEX
  8
OBJECT_2_COPY
  6
CONTINUOUS
 62
   253
 10
0.0
 20
0.0
 70
   128
  0
SEQEND
  8
OBJECT_2_COPY
  6
CONTINUOUS
 62
   183
  0
POLYLINE
  8
OBJECT_80
  6
CONTINUOUS
 62
   183
 66
     1
 70
    64
  0
VERTEX
  8
0
 38
20.702898
 10
-108.454049
 20
-22.47505
 70
   192
  0
VERTEX
  8
0
 38
20.702898
 10
-12.454049
 20
-22.47505
 70
   192
  0
VERTEX
  8
0
 38
20.702898
 10
-12.454049
 20
40.651429
 70
   192
  0
VERTEX
  8
0
 38
20.702898
 10
-108.454049
 20
40.651429
 70
   192
  0
VERTEX
  8
0
 38
44.702898
 10
-108.454049
 20
40.651429
 70
   192
  0
VERTEX
  8
0
 38
44.702898
 10
-12.454049
 20
40.651429
 70
   192
  0
VERTEX
  8
0
 38
44.702898
 10
-12.454049
 20
-22.47505
 70
   192
  0
VERTEX
  8
0
 38
44.702898
 10
-108.454049
 20
-22.47505
 70
   192
  0
VERTEX
  8
OBJECT_80
  6
CONTINUOUS
 62
   183
 10
0.0
 20
0.0
 70
   128
  0
VERTEX
  8
OBJECT_80
  6
CONTINUOUS
 62
   183
 10
0.0
 20
0.0
 70
   128
  0
VERTEX
  8
OBJECT_80
  6
CONTINUOUS
 62
   183
 10
0.0
 20
0.0
 70
   128
  0
VERTEX
  8
OBJECT_80
  6
CONTINUOUS
 62
   183
 10
0.0
 20
0.0
 70
   128
  0
VERTEX
  8
OBJECT_80
  6
CONTINUOUS
 62
   183
 10
0.0
 20
0.0
 70
   128
  0
VERTEX
  8
OBJECT_80
  6
CONTINUOUS
 62
   183
 10
0.0
 20
0.0
 70
   128
  0
SEQEND
  8
OBJECT_80
  6
CONTINUOUS
 62
   183
  0
POLYLINE
  8
OBJECT_81
  6
CONTINUOUS
 62
   183
 66
     1
 70
    64
  0
VERTEX
  8
0
 38
35.727558
 10
-64.470913
 20
-22.610757
 70
   192
  0
VERTEX
  8
0
 38
38.406508
 10
-64.470913
 20
-28.394859
 70
   192
  0
VERTEX
  8
0
 38
36.400923
 10
-64.470913
 20
-31.348571
 70
   192
  0
VERTEX
  8
0
 38
31.803182
 10
-64.470913
 20
-24.359957
 70
   192
  0
VERTEX
  8
0
 38
25.146431
 10
-64.470913
 20
-23.259422
 70
   192
  0
VERTEX
  8
0
 38
22.332808
 10
-64.470913
 20
-20.50405
 70
   192
  0
VERTEX
  8
0
 38
41.005193
 10
-64.477111
 20
-20.452466
 70
   192
  0
VERTEX
  8
0
 38
35.727558
 10
-61.791679
 20
-22.610757
 70
   192
  0
VERTEX
  8
0
 38
41.005193
 10
-61.797878
 20
-20.452466
 70
   192
  0
VERTEX
  8
0
 38
22.332808
 10
-61.791679
 20
-20.50405
 70
   192
  0
VERTEX
  8
0
 38
25.146431
 10
-61.791679
 20
-23.259422
 70
   192
  0
VERTEX
  8
0
 38
31.803182
 10
-61.791679
 20
-24.359957
 70
   192
  0
VERTEX
  8
0
 38
36.400923
 10
-61.791679
 20
-31.348571
 70
   192
  0
VERTEX
  8
0
 38
38.406508
 10
-61.791679
 20
-28.394859
 70
   192
  0
VERTEX
  8
OBJECT_81
  6
CONTINUOUS
 62
   253
 10
0.0
 20
0.0
 70
   128
  0
VERTEX
  8
OBJECT_81
  6
CONTINUOUS
 62
   253
 10
0.0
 20
0.0
 70
   128
  0
VERTEX
  8
OBJECT_81
  6
CONTINUOUS
 62
   253
 10
0.0
 20
0.0
 70
   128
  0
VERTEX
  8
OBJECT_81
  6
CONTINUOUS
 62
   253
 10
0.0
 20
0.0
 70
   128
  0
VERTEX
  8
OBJECT_81
  6
CONTINUOUS
 62
   253
 10
0.0
 20
0.0
 70
   128
  0
VERTEX
  8
OBJECT_81
  6
CONTINUOUS
 62
   253
 10
0.0
 20
0.0
 70
   128
  0
VERTEX
  8
OBJECT_81
  6
CONTINUOUS
 62
   253
 10
0.0
 20
0.0
 70
   128
  0
VERTEX
  8
OBJECT_81
  6
CONTINUOUS
 62
   253
 10
0.0
 20
0.0
 70
   128
  0
VERTEX
  8
OBJECT_81
  6
CONTINUOUS
 62
   253
 10
0.0
 20
0.0
 70
   128
  0
VERTEX
  8
OBJECT_81
  6
CONTINUOUS
 62
   253
 10
0.0
 20
0.0
 70
   128
  0
VERTEX
  8
OBJECT_81
  6
CONTINUOUS
 62
   253
 10
0.0
 20
0.0
 70
   128
  0
VERTEX
  8
OBJECT_81
  6
CONTINUOUS
 62
   253
 10
0.0
 20
0.0
 70
   128
  0
VERTEX
  8
OBJECT_81
  6
CONTINUOUS
 62
   253
 10
0.0
 20
0.0
 70
   128
  0
SEQEND
  8
OBJECT_81
  6
CONTINUOUS
 62
   183
  0
POLYLINE
  8
OBJECT_82
  6
CONTINUOUS
 62
   183
 66
     1
 70
    64
  0
VERTEX
  8
0
 38
27.600704
 10
-60.470913
 20
-22.610757
 70
   192
  0
VERTEX
  8
0
 38
22.323069
 10
-60.477111
 20
-20.452466
 70
   192
  0
VERTEX
  8
0
 38
40.995454
 10
-60.470913
 20
-20.50405
 70
   192
  0
VERTEX
  8
0
 38
38.181831
 10
-60.470913
 20
-23.259422
 70
   192
  0
VERTEX
  8
0
 38
31.52508
 10
-60.470913
 20
-24.359957
 70
   192
  0
VERTEX
  8
0
 38
26.927339
 10
-60.470913
 20
-31.348571
 70
   192
  0
VERTEX
  8
0
 38
24.921754
 10
-60.470913
 20
-28.394859
 70
   192
  0
VERTEX
  8
0
 38
27.600704
 10
-57.791679
 20
-22.610757
 70
   192
  0
VERTEX
  8
0
 38
24.921754
 10
-57.791679
 20
-28.394859
 70
   192
  0
VERTEX
  8
0
 38
26.927339
 10
-57.791679
 20
-31.348571
 70
   192
  0
VERTEX
  8
0
 38
31.52508
 10
-57.791679
 20
-24.359957
 70
   192
  0
VERTEX
  8
0
 38
38.181831
 10
-57.791679
 20
-23.259422
 70
   192
  0
VERTEX
  8
0
 38
40.995454
 10
-57.791679
 20
-20.50405
 70
   192
  0
VERTEX
  8
0
 38
22.323069
 10
-57.797878
 20
-20.452466
 70
   192
  0
VERTEX
  8
OBJECT_82
  6
CONTINUOUS
 62
   253
 10
0.0
 20
0.0
 70
   128
  0
VERTEX
  8
OBJECT_82
  6
CONTINUOUS
 62
   253
 10
0.0
 20
0.0
 70
   128
  0
VERTEX
  8
OBJECT_82
  6
CONTINUOUS
 62
   253
 10
0.0
 20
0.0
 70
   128
  0
VERTEX
  8
OBJECT_82
  6
CONTINUOUS
 62
   253
 10
0.0
 20
0.0
 70
   128
  0
VERTEX
  8
OBJECT_82
  6
CONTINUOUS
 62
   253
 10
0.0
 20
0.0
 70
   128
  0
VERTEX
  8
OBJECT_82
  6
CONTINUOUS
 62
   253
 10
0.0
 20
0.0
 70
   128
  0
VERTEX
  8
OBJECT_82
  6
CONTINUOUS
 62
   253
 10
0.0
 20
0.0
 70
   128
  0
VERTEX
  8
OBJECT_82
  6
CONTINUOUS
 62
   253
 10
0.0
 20
0.0
 70
   128
  0
VERTEX
  8
OBJECT_82
  6
CONTINUOUS
 62
   253
 10
0.0
 20
0.0
 70
   128
  0
VERTEX
  8
OBJECT_82
  6
CONTINUOUS
 62
   253
 10
0.0
 20
0.0
 70
   128
  0
VERTEX
  8
OBJECT_82
  6
CONTINUOUS
 62
   253
 10
0.0
 20
0.0
 70
   128
  0
VERTEX
  8
OBJECT_82
  6
CONTINUOUS
 62
   253
 10
0.0
 20
0.0
 70
   128
  0
VERTEX
  8
OBJECT_82
  6
CONTINUOUS
 62
   253
 10
0.0
 20
0.0
 70
   128
  0
SEQEND
  8
OBJECT_82
  6
CONTINUOUS
 62
   183
  0
POLYLINE
  8
OBJECT_83
  6
CONTINUOUS
 62
   183
 66
     1
 70
    64
  0
VERTEX
  8
0
 38
35.727558
 10
-56.470913
 20
-22.610757
 70
   192
  0
VERTEX
  8
0
 38
38.406508
 10
-56.470913
 20
-28.394859
 70
   192
  0
VERTEX
  8
0
 38
36.400923
 10
-56.470913
 20
-31.348571
 70
   192
  0
VERTEX
  8
0
 38
31.803182
 10
-56.470913
 20
-24.359957
 70
   192
  0
VERTEX
  8
0
 38
25.146431
 10
-56.470913
 20
-23.259422
 70
   192
  0
VERTEX
  8
0
 38
22.332808
 10
-56.470913
 20
-20.50405
 70
   192
  0
VERTEX
  8
0
 38
41.005193
 10
-56.477111
 20
-20.452466
 70
   192
  0
VERTEX
  8
0
 38
35.727558
 10
-53.791679
 20
-22.610757
 70
   192
  0
VERTEX
  8
0
 38
41.005193
 10
-53.797878
 20
-20.452466
 70
   192
  0
VERTEX
  8
0
 38
22.332808
 10
-53.791679
 20
-20.50405
 70
   192
  0
VERTEX
  8
0
 38
25.146431
 10
-53.791679
 20
-23.259422
 70
   192
  0
VERTEX
  8
0
 38
31.803182
 10
-53.791679
 20
-24.359957
 70
   192
  0
VERTEX
  8
0
 38
36.400923
 10
-53.791679
 20
-31.348571
 70
   192
  0
VERTEX
  8
0
 38
38.406508
 10
-53.791679
 20
-28.394859
 70
   192
  0
VERTEX
  8
OBJECT_83
  6
CONTINUOUS
 62
   253
 10
0.0
 20
0.0
 70
   128
  0
VERTEX
  8
OBJECT_83
  6
CONTINUOUS
 62
   253
 10
0.0
 20
0.0
 70
   128
  0
VERTEX
  8
OBJECT_83
  6
CONTINUOUS
 62
   253
 10
0.0
 20
0.0
 70
   128
  0
VERTEX
  8
OBJECT_83
  6
CONTINUOUS
 62
   253
 10
0.0
 20
0.0
 70
   128
  0
VERTEX
  8
OBJECT_83
  6
CONTINUOUS
 62
   253
 10
0.0
 20
0.0
 70
   128
  0
VERTEX
  8
OBJECT_83
  6
CONTINUOUS
 62
   253
 10
0.0
 20
0.0
 70
   128
  0
VERTEX
  8
OBJECT_83
  6
CONTINUOUS
 62
   253
 10
0.0
 20
0.0
 70
   128
  0
VERTEX
  8
OBJECT_83
  6
CONTINUOUS
 62
   253
 10
0.0
 20
0.0
 70
   128
  0
VERTEX
  8
OBJECT_83
  6
CONTINUOUS
 62
   253
 10
0.0
 20
0.0
 70
   128
  0
VERTEX
  8
OBJECT_83
  6
CONTINUOUS
 62
   253
 10
0.0
 20
0.0
 70
   128
  0
VERTEX
  8
OBJECT_83
  6
CONTINUOUS
 62
   253
 10
0.0
 20
0.0
 70
   128
  0
VERTEX
  8
OBJECT_83
  6
CONTINUOUS
 62
   253
 10
0.0
 20
0.0
 70
   128
  0
VERTEX
  8
OBJECT_83
  6
CONTINUOUS
 62
   253
 10
0.0
 20
0.0
 70
   128
  0
SEQEND
  8
OBJECT_83
  6
CONTINUOUS
 62
   183
  0
POLYLINE
  8
OBJECT_84
  6
CONTINUOUS
 62
   183
 66
     1
 70
    64
  0
VERTEX
  8
0
 38
27.600704
 10
-52.470913
 20
-22.610757
 70
   192
  0
VERTEX
  8
0
 38
22.323069
 10
-52.477111
 20
-20.452466
 70
   192
  0
VERTEX
  8
0
 38
40.995454
 10
-52.470913
 20
-20.50405
 70
   192
  0
VERTEX
  8
0
 38
38.181831
 10
-52.470913
 20
-23.259422
 70
   192
  0
VERTEX
  8
0
 38
31.52508
 10
-52.470913
 20
-24.359957
 70
   192
  0
VERTEX
  8
0
 38
26.927339
 10
-52.470913
 20
-31.348571
 70
   192
  0
VERTEX
  8
0
 38
24.921754
 10
-52.470913
 20
-28.394859
 70
   192
  0
VERTEX
  8
0
 38
27.600704
 10
-49.791679
 20
-22.610757
 70
   192
  0
VERTEX
  8
0
 38
24.921754
 10
-49.791679
 20
-28.394859
 70
   192
  0
VERTEX
  8
0
 38
26.927339
 10
-49.791679
 20
-31.348571
 70
   192
  0
VERTEX
  8
0
 38
31.52508
 10
-49.791679
 20
-24.359957
 70
   192
  0
VERTEX
  8
0
 38
38.181831
 10
-49.791679
 20
-23.259422
 70
   192
  0
VERTEX
  8
0
 38
40.995454
 10
-49.791679
 20
-20.50405
 70
   192
  0
VERTEX
  8
0
 38
22.323069
 10
-49.797878
 20
-20.452466
 70
   192
  0
VERTEX
  8
OBJECT_84
  6
CONTINUOUS
 62
   253
 10
0.0
 20
0.0
 70
   128
  0
VERTEX
  8
OBJECT_84
  6
CONTINUOUS
 62
   253
 10
0.0
 20
0.0
 70
   128
  0
VERTEX
  8
OBJECT_84
  6
CONTINUOUS
 62
   253
 10
0.0
 20
0.0
 70
   128
  0
VERTEX
  8
OBJECT_84
  6
CONTINUOUS
 62
   253
 10
0.0
 20
0.0
 70
   128
  0
VERTEX
  8
OBJECT_84
  6
CONTINUOUS
 62
   253
 10
0.0
 20
0.0
 70
   128
  0
VERTEX
  8
OBJECT_84
  6
CONTINUOUS
 62
   253
 10
0.0
 20
0.0
 70
   128
  0
VERTEX
  8
OBJECT_84
  6
CONTINUOUS
 62
   253
 10
0.0
 20
0.0
 70
   128
  0
VERTEX
  8
OBJECT_84
  6
CONTINUOUS
 62
   253
 10
0.0
 20
0.0
 70
   128
  0
VERTEX
  8
OBJECT_84
  6
CONTINUOUS
 62
   253
 10
0.0
 20
0.0
 70
   128
  0
VERTEX
  8
OBJECT_84
  6
CONTINUOUS
 62
   253
 10
0.0
 20
0.0
 70
   128
  0
VERTEX
  8
OBJECT_84
  6
CONTINUOUS
 62
   253
 10
0.0
 20
0.0
 70
   128
  0
VERTEX
  8
OBJECT_84
  6
CONTINUOUS
 62
   253
 10
0.0
 20
0.0
 70
   128
  0
VERTEX
  8
OBJECT_84
  6
CONTINUOUS
 62
   253
 10
0.0
 20
0.0
 70
   128
  0
SEQEND
  8
OBJECT_84
  6
CONTINUOUS
 62
   183
  0
POLYLINE
  8
OBJECT_85
  6
CONTINUOUS
 62
   183
 66
     1
 70
    64
  0
VERTEX
  8
0
 38
27.600704
 10
-48.470913
 20
-22.610757
 70
   192
  0
VERTEX
  8
0
 38
22.323069
 10
-48.477111
 20
-20.452466
 70
   192
  0
VERTEX
  8
0
 38
40.995454
 10
-48.470913
 20
-20.50405
 70
   192
  0
VERTEX
  8
0
 38
38.181831
 10
-48.470913
 20
-23.259422
 70
   192
  0
VERTEX
  8
0
 38
31.52508
 10
-48.470913
 20
-24.359957
 70
   192
  0
VERTEX
  8
0
 38
26.927339
 10
-48.470913
 20
-31.348571
 70
   192
  0
VERTEX
  8
0
 38
24.921754
 10
-48.470913
 20
-28.394859
 70
   192
  0
VERTEX
  8
0
 38
27.600704
 10
-45.791679
 20
-22.610757
 70
   192
  0
VERTEX
  8
0
 38
24.921754
 10
-45.791679
 20
-28.394859
 70
   192
  0
VERTEX
  8
0
 38
26.927339
 10
-45.791679
 20
-31.348571
 70
   192
  0
VERTEX
  8
0
 38
31.52508
 10
-45.791679
 20
-24.359957
 70
   192
  0
VERTEX
  8
0
 38
38.181831
 10
-45.791679
 20
-23.259422
 70
   192
  0
VERTEX
  8
0
 38
40.995454
 10
-45.791679
 20
-20.50405
 70
   192
  0
VERTEX
  8
0
 38
22.323069
 10
-45.797878
 20
-20.452466
 70
   192
  0
VERTEX
  8
OBJECT_85
  6
CONTINUOUS
 62
   253
 10
0.0
 20
0.0
 70
   128
  0
VERTEX
  8
OBJECT_85
  6
CONTINUOUS
 62
   253
 10
0.0
 20
0.0
 70
   128
  0
VERTEX
  8
OBJECT_85
  6
CONTINUOUS
 62
   253
 10
0.0
 20
0.0
 70
   128
  0
VERTEX
  8
OBJECT_85
  6
CONTINUOUS
 62
   253
 10
0.0
 20
0.0
 70
   128
  0
VERTEX
  8
OBJECT_85
  6
CONTINUOUS
 62
   253
 10
0.0
 20
0.0
 70
   128
  0
VERTEX
  8
OBJECT_85
  6
CONTINUOUS
 62
   253
 10
0.0
 20
0.0
 70
   128
  0
VERTEX
  8
OBJECT_85
  6
CONTINUOUS
 62
   253
 10
0.0
 20
0.0
 70
   128
  0
VERTEX
  8
OBJECT_85
  6
CONTINUOUS
 62
   253
 10
0.0
 20
0.0
 70
   128
  0
VERTEX
  8
OBJECT_85
  6
CONTINUOUS
 62
   253
 10
0.0
 20
0.0
 70
   128
  0
VERTEX
  8
OBJECT_85
  6
CONTINUOUS
 62
   253
 10
0.0
 20
0.0
 70
   128
  0
VERTEX
  8
OBJECT_85
  6
CONTINUOUS
 62
   253
 10
0.0
 20
0.0
 70
   128
  0
VERTEX
  8
OBJECT_85
  6
CONTINUOUS
 62
   253
 10
0.0
 20
0.0
 70
   128
  0
VERTEX
  8
OBJECT_85
  6
CONTINUOUS
 62
   253
 10
0.0
 20
0.0
 70
   128
  0
SEQEND
  8
OBJECT_85
  6
CONTINUOUS
 62
   183
  0
POLYLINE
  8
OBJECT_86
  6
CONTINUOUS
 62
   183
 66
     1
 70
    64
  0
VERTEX
  8
0
 38
35.727558
 10
-44.470913
 20
-22.610757
 70
   192
  0
VERTEX
  8
0
 38
38.406508
 10
-44.470913
 20
-28.394859
 70
   192
  0
VERTEX
  8
0
 38
36.400923
 10
-44.470913
 20
-31.348571
 70
   192
  0
VERTEX
  8
0
 38
31.803182
 10
-44.470913
 20
-24.359957
 70
   192
  0
VERTEX
  8
0
 38
25.146431
 10
-44.470913
 20
-23.259422
 70
   192
  0
VERTEX
  8
0
 38
22.332808
 10
-44.470913
 20
-20.50405
 70
   192
  0
VERTEX
  8
0
 38
41.005193
 10
-44.477111
 20
-20.452466
 70
   192
  0
VERTEX
  8
0
 38
35.727558
 10
-41.791679
 20
-22.610757
 70
   192
  0
VERTEX
  8
0
 38
41.005193
 10
-41.797878
 20
-20.452466
 70
   192
  0
VERTEX
  8
0
 38
22.332808
 10
-41.791679
 20
-20.50405
 70
   192
  0
VERTEX
  8
0
 38
25.146431
 10
-41.791679
 20
-23.259422
 70
   192
  0
VERTEX
  8
0
 38
31.803182
 10
-41.791679
 20
-24.359957
 70
   192
  0
VERTEX
  8
0
 38
36.400923
 10
-41.791679
 20
-31.348571
 70
   192
  0
VERTEX
  8
0
 38
38.406508
 10
-41.791679
 20
-28.394859
 70
   192
  0
VERTEX
  8
OBJECT_86
  6
CONTINUOUS
 62
   253
 10
0.0
 20
0.0
 70
   128
  0
VERTEX
  8
OBJECT_86
  6
CONTINUOUS
 62
   253
 10
0.0
 20
0.0
 70
   128
  0
VERTEX
  8
OBJECT_86
  6
CONTINUOUS
 62
   253
 10
0.0
 20
0.0
 70
   128
  0
VERTEX
  8
OBJECT_86
  6
CONTINUOUS
 62
   253
 10
0.0
 20
0.0
 70
   128
  0
VERTEX
  8
OBJECT_86
  6
CONTINUOUS
 62
   253
 10
0.0
 20
0.0
 70
   128
  0
VERTEX
  8
OBJECT_86
  6
CONTINUOUS
 62
   253
 10
0.0
 20
0.0
 70
   128
  0
VERTEX
  8
OBJECT_86
  6
CONTINUOUS
 62
   253
 10
0.0
 20
0.0
 70
   128
  0
VERTEX
  8
OBJECT_86
  6
CONTINUOUS
 62
   253
 10
0.0
 20
0.0
 70
   128
  0
VERTEX
  8
OBJECT_86
  6
CONTINUOUS
 62
   253
 10
0.0
 20
0.0
 70
   128
  0
VERTEX
  8
OBJECT_86
  6
CONTINUOUS
 62
   253
 10
0.0
 20
0.0
 70
   128
  0
VERTEX
  8
OBJECT_86
  6
CONTINUOUS
 62
   253
 10
0.0
 20
0.0
 70
   128
  0
VERTEX
  8
OBJECT_86
  6
CONTINUOUS
 62
   253
 10
0.0
 20
0.0
 70
   128
  0
VERTEX
  8
OBJECT_86
  6
CONTINUOUS
 62
   253
 10
0.0
 20
0.0
 70
   128
  0
SEQEND
  8
OBJECT_86
  6
CONTINUOUS
 62
   183
  0
POLYLINE
  8
OBJECT_87
  6
CONTINUOUS
 62
   183
 66
     1
 70
    64
  0
VERTEX
  8
0
 38
35.727558
 10
-40.470913
 20
-22.610757
 70
   192
  0
VERTEX
  8
0
 38
38.406508
 10
-40.470913
 20
-28.394859
 70
   192
  0
VERTEX
  8
0
 38
36.400923
 10
-40.470913
 20
-31.348571
 70
   192
  0
VERTEX
  8
0
 38
31.803182
 10
-40.470913
 20
-24.359957
 70
   192
  0
VERTEX
  8
0
 38
25.146431
 10
-40.470913
 20
-23.259422
 70
   192
  0
VERTEX
  8
0
 38
22.332808
 10
-40.470913
 20
-20.50405
 70
   192
  0
VERTEX
  8
0
 38
41.005193
 10
-40.477111
 20
-20.452466
 70
   192
  0
VERTEX
  8
0
 38
35.727558
 10
-37.791679
 20
-22.610757
 70
   192
  0
VERTEX
  8
0
 38
41.005193
 10
-37.797878
 20
-20.452466
 70
   192
  0
VERTEX
  8
0
 38
22.332808
 10
-37.791679
 20
-20.50405
 70
   192
  0
VERTEX
  8
0
 38
25.146431
 10
-37.791679
 20
-23.259422
 70
   192
  0
VERTEX
  8
0
 38
31.803182
 10
-37.791679
 20
-24.359957
 70
   192
  0
VERTEX
  8
0
 38
36.400923
 10
-37.791679
 20
-31.348571
 70
   192
  0
VERTEX
  8
0
 38
38.406508
 10
-37.791679
 20
-28.394859
 70
   192
  0
VERTEX
  8
OBJECT_87
  6
CONTINUOUS
 62
   253
 10
0.0
 20
0.0
 70
   128
  0
VERTEX
  8
OBJECT_87
  6
CONTINUOUS
 62
   253
 10
0.0
 20
0.0
 70
   128
  0
VERTEX
  8
OBJECT_87
  6
CONTINUOUS
 62
   253
 10
0.0
 20
0.0
 70
   128
  0
VERTEX
  8
OBJECT_87
  6
CONTINUOUS
 62
   253
 10
0.0
 20
0.0
 70
   128
  0
VERTEX
  8
OBJECT_87
  6
CONTINUOUS
 62
   253
 10
0.0
 20
0.0
 70
   128
  0
VERTEX
  8
OBJECT_87
  6
CONTINUOUS
 62
   253
 10
0.0
 20
0.0
 70
   128
  0
VERTEX
  8
OBJECT_87
  6
CONTINUOUS
 62
   253
 10
0.0
 20
0.0
 70
   128
  0
VERTEX
  8
OBJECT_87
  6
CONTINUOUS
 62
   253
 10
0.0
 20
0.0
 70
   128
  0
VERTEX
  8
OBJECT_87
  6
CONTINUOUS
 62
   253
 10
0.0
 20
0.0
 70
   128
  0
VERTEX
  8
OBJECT_87
  6
CONTINUOUS
 62
   253
 10
0.0
 20
0.0
 70
   128
  0
VERTEX
  8
OBJECT_87
  6
CONTINUOUS
 62
   253
 10
0.0
 20
0.0
 70
   128
  0
VERTEX
  8
OBJECT_87
  6
CONTINUOUS
 62
   253
 10
0.0
 20
0.0
 70
   128
  0
VERTEX
  8
OBJECT_87
  6
CONTINUOUS
 62
   253
 10
0.0
 20
0.0
 70
   128
  0
SEQEND
  8
OBJECT_87
  6
CONTINUOUS
 62
   183
  0
POLYLINE
  8
OBJECT_88
  6
CONTINUOUS
 62
   183
 66
     1
 70
    64
  0
VERTEX
  8
0
 38
35.727558
 10
-36.470913
 20
-22.610757
 70
   192
  0
VERTEX
  8
0
 38
38.406508
 10
-36.470913
 20
-28.394859
 70
   192
  0
VERTEX
  8
0
 38
36.400923
 10
-36.470913
 20
-31.348571
 70
   192
  0
VERTEX
  8
0
 38
31.803182
 10
-36.470913
 20
-24.359957
 70
   192
  0
VERTEX
  8
0
 38
25.146431
 10
-36.470913
 20
-23.259422
 70
   192
  0
VERTEX
  8
0
 38
22.332808
 10
-36.470913
 20
-20.50405
 70
   192
  0
VERTEX
  8
0
 38
41.005193
 10
-36.477111
 20
-20.452466
 70
   192
  0
VERTEX
  8
0
 38
35.727558
 10
-33.791679
 20
-22.610757
 70
   192
  0
VERTEX
  8
0
 38
41.005193
 10
-33.797878
 20
-20.452466
 70
   192
  0
VERTEX
  8
0
 38
22.332808
 10
-33.791679
 20
-20.50405
 70
   192
  0
VERTEX
  8
0
 38
25.146431
 10
-33.791679
 20
-23.259422
 70
   192
  0
VERTEX
  8
0
 38
31.803182
 10
-33.791679
 20
-24.359957
 70
   192
  0
VERTEX
  8
0
 38
36.400923
 10
-33.791679
 20
-31.348571
 70
   192
  0
VERTEX
  8
0
 38
38.406508
 10
-33.791679
 20
-28.394859
 70
   192
  0
VERTEX
  8
OBJECT_88
  6
CONTINUOUS
 62
   253
 10
0.0
 20
0.0
 70
   128
  0
VERTEX
  8
OBJECT_88
  6
CONTINUOUS
 62
   253
 10
0.0
 20
0.0
 70
   128
  0
VERTEX
  8
OBJECT_88
  6
CONTINUOUS
 62
   253
 10
0.0
 20
0.0
 70
   128
  0
VERTEX
  8
OBJECT_88
  6
CONTINUOUS
 62
   253
 10
0.0
 20
0.0
 70
   128
  0
VERTEX
  8
OBJECT_88
  6
CONTINUOUS
 62
   253
 10
0.0
 20
0.0
 70
   128
  0
VERTEX
  8
OBJECT_88
  6
CONTINUOUS
 62
   253
 10
0.0
 20
0.0
 70
   128
  0
VERTEX
  8
OBJECT_88
  6
CONTINUOUS
 62
   253
 10
0.0
 20
0.0
 70
   128
  0
VERTEX
  8
OBJECT_88
  6
CONTINUOUS
 62
   253
 10
0.0
 20
0.0
 70
   128
  0
VERTEX
  8
OBJECT_88
  6
CONTINUOUS
 62
   253
 10
0.0
 20
0.0
 70
   128
  0
VERTEX
  8
OBJECT_88
  6
CONTINUOUS
 62
   253
 10
0.0
 20
0.0
 70
   128
  0
VERTEX
  8
OBJECT_88
  6
CONTINUOUS
 62
   253
 10
0.0
 20
0.0
 70
   128
  0
VERTEX
  8
OBJECT_88
  6
CONTINUOUS
 62
   253
 10
0.0
 20
0.0
 70
   128
  0
VERTEX
  8
OBJECT_88
  6
CONTINUOUS
 62
   253
 10
0.0
 20
0.0
 70
   128
  0
SEQEND
  8
OBJECT_88
  6
CONTINUOUS
 62
   183
  0
POLYLINE
  8
OBJECT_89
  6
CONTINUOUS
 62
   183
 66
     1
 70
    64
  0
VERTEX
  8
0
 38
41.213931
 10
-67.252493
 20
-23.204088
 70
   192
  0
VERTEX
  8
0
 38
22.115348
 10
-67.252493
 20
-23.204088
 70
   192
  0
VERTEX
  8
0
 38
22.115348
 10
-67.252493
 20
-20.04742
 70
   192
  0
VERTEX
  8
0
 38
41.213931
 10
-67.252493
 20
-20.04742
 70
   192
  0
VERTEX
  8
0
 38
41.213931
 10
-31.252493
 20
-23.204088
 70
   192
  0
VERTEX
  8
0
 38
41.213931
 10
-31.252493
 20
-20.04742
 70
   192
  0
VERTEX
  8
0
 38
22.115348
 10
-31.252493
 20
-20.04742
 70
   192
  0
VERTEX
  8
0
 38
22.115348
 10
-31.252493
 20
-23.204088
 70
   192
  0
VERTEX
  8
OBJECT_89
  6
CONTINUOUS
 62
   253
 10
0.0
 20
0.0
 70
   128
  0
VERTEX
  8
OBJECT_89
  6
CONTINUOUS
 62
   253
 10
0.0
 20
0.0
 70
   128
  0
VERTEX
  8
OBJECT_89
  6
CONTINUOUS
 62
   253
 10
0.0
 20
0.0
 70
   128
  0
VERTEX
  8
OBJECT_89
  6
CONTINUOUS
 62
   253
 10
0.0
 20
0.0
 70
   128
  0
VERTEX
  8
OBJECT_89
  6
CONTINUOUS
 62
   253
 10
0.0
 20
0.0
 70
   128
  0
VERTEX
  8
OBJECT_89
  6
CONTINUOUS
 62
   253
 10
0.0
 20
0.0
 70
   128
  0
SEQEND
  8
OBJECT_89
  6
CONTINUOUS
 62
   183
  0
POLYLINE
  8
OBJECT_81_COPY
  6
CONTINUOUS
 62
   183
 66
     1
 70
    64
  0
VERTEX
  8
0
 38
108.060236
 10
-13.94932
 20
1.871073
 70
   192
  0
VERTEX
  8
0
 38
110.739186
 10
-13.94932
 20
-3.91303
 70
   192
  0
VERTEX
  8
0
 38
108.733601
 10
-13.94932
 20
-6.866741
 70
   192
  0
VERTEX
  8
0
 38
104.13586
 10
-13.94932
 20
0.121872
 70
   192
  0
VERTEX
  8
0
 38
97.479109
 10
-13.94932
 20
1.222408
 70
   192
  0
VERTEX
  8
0
 38
94.665486
 10
-13.94932
 20
3.97778
 70
   192
  0
VERTEX
  8
0
 38
113.337871
 10
-13.955518
 20
4.029364
 70
   192
  0
VERTEX
  8
0
 38
108.060236
 10
-11.270086
 20
1.871073
 70
   192
  0
VERTEX
  8
0
 38
113.337871
 10
-11.276284
 20
4.029364
 70
   192
  0
VERTEX
  8
0
 38
94.665486
 10
-11.270086
 20
3.97778
 70
   192
  0
VERTEX
  8
0
 38
97.479109
 10
-11.270086
 20
1.222408
 70
   192
  0
VERTEX
  8
0
 38
104.13586
 10
-11.270086
 20
0.121872
 70
   192
  0
VERTEX
  8
0
 38
108.733601
 10
-11.270086
 20
-6.866741
 70
   192
  0
VERTEX
  8
0
 38
110.739186
 10
-11.270086
 20
-3.91303
 70
   192
  0
VERTEX
  8
OBJECT_81_COPY
  6
CONTINUOUS
 62
   253
 10
0.0
 20
0.0
 70
   128
  0
VERTEX
  8
OBJECT_81_COPY
  6
CONTINUOUS
 62
   253
 10
0.0
 20
0.0
 70
   128
  0
VERTEX
  8
OBJECT_81_COPY
  6
CONTINUOUS
 62
   253
 10
0.0
 20
0.0
 70
   128
  0
VERTEX
  8
OBJECT_81_COPY
  6
CONTINUOUS
 62
   253
 10
0.0
 20
0.0
 70
   128
  0
VERTEX
  8
OBJECT_81_COPY
  6
CONTINUOUS
 62
   253
 10
0.0
 20
0.0
 70
   128
  0
VERTEX
  8
OBJECT_81_COPY
  6
CONTINUOUS
 62
   253
 10
0.0
 20
0.0
 70
   128
  0
VERTEX
  8
OBJECT_81_COPY
  6
CONTINUOUS
 62
   253
 10
0.0
 20
0.0
 70
   128
  0
VERTEX
  8
OBJECT_81_COPY
  6
CONTINUOUS
 62
   253
 10
0.0
 20
0.0
 70
   128
  0
VERTEX
  8
OBJECT_81_COPY
  6
CONTINUOUS
 62
   253
 10
0.0
 20
0.0
 70
   128
  0
VERTEX
  8
OBJECT_81_COPY
  6
CONTINUOUS
 62
   253
 10
0.0
 20
0.0
 70
   128
  0
VERTEX
  8
OBJECT_81_COPY
  6
CONTINUOUS
 62
   253
 10
0.0
 20
0.0
 70
   128
  0
VERTEX
  8
OBJECT_81_COPY
  6
CONTINUOUS
 62
   253
 10
0.0
 20
0.0
 70
   128
  0
VERTEX
  8
OBJECT_81_COPY
  6
CONTINUOUS
 62
   253
 10
0.0
 20
0.0
 70
   128
  0
SEQEND
  8
OBJECT_81_COPY
  6
CONTINUOUS
 62
   183
  0
POLYLINE
  8
OBJECT_82_COPY
  6
CONTINUOUS
 62
   183
 66
     1
 70
    64
  0
VERTEX
  8
0
 38
99.933382
 10
-9.94932
 20
1.871073
 70
   192
  0
VERTEX
  8
0
 38
94.655746
 10
-9.955518
 20
4.029364
 70
   192
  0
VERTEX
  8
0
 38
113.328132
 10
-9.94932
 20
3.97778
 70
   192
  0
VERTEX
  8
0
 38
110.514509
 10
-9.94932
 20
1.222408
 70
   192
  0
VERTEX
  8
0
 38
103.857758
 10
-9.94932
 20
0.121872
 70
   192
  0
VERTEX
  8
0
 38
99.260016
 10
-9.94932
 20
-6.866741
 70
   192
  0
VERTEX
  8
0
 38
97.254432
 10
-9.94932
 20
-3.91303
 70
   192
  0
VERTEX
  8
0
 38
99.933382
 10
-7.270086
 20
1.871073
 70
   192
  0
VERTEX
  8
0
 38
97.254432
 10
-7.270086
 20
-3.91303
 70
   192
  0
VERTEX
  8
0
 38
99.260016
 10
-7.270086
 20
-6.866741
 70
   192
  0
VERTEX
  8
0
 38
103.857758
 10
-7.270086
 20
0.121872
 70
   192
  0
VERTEX
  8
0
 38
110.514509
 10
-7.270086
 20
1.222408
 70
   192
  0
VERTEX
  8
0
 38
113.328132
 10
-7.270086
 20
3.97778
 70
   192
  0
VERTEX
  8
0
 38
94.655746
 10
-7.276284
 20
4.029364
 70
   192
  0
VERTEX
  8
OBJECT_82_COPY
  6
CONTINUOUS
 62
   253
 10
0.0
 20
0.0
 70
   128
  0
VERTEX
  8
OBJECT_82_COPY
  6
CONTINUOUS
 62
   253
 10
0.0
 20
0.0
 70
   128
  0
VERTEX
  8
OBJECT_82_COPY
  6
CONTINUOUS
 62
   253
 10
0.0
 20
0.0
 70
   128
  0
VERTEX
  8
OBJECT_82_COPY
  6
CONTINUOUS
 62
   253
 10
0.0
 20
0.0
 70
   128
  0
VERTEX
  8
OBJECT_82_COPY
  6
CONTINUOUS
 62
   253
 10
0.0
 20
0.0
 70
   128
  0
VERTEX
  8
OBJECT_82_COPY
  6
CONTINUOUS
 62
   253
 10
0.0
 20
0.0
 70
   128
  0
VERTEX
  8
OBJECT_82_COPY
  6
CONTINUOUS
 62
   253
 10
0.0
 20
0.0
 70
   128
  0
VERTEX
  8
OBJECT_82_COPY
  6
CONTINUOUS
 62
   253
 10
0.0
 20
0.0
 70
   128
  0
VERTEX
  8
OBJECT_82_COPY
  6
CONTINUOUS
 62
   253
 10
0.0
 20
0.0
 70
   128
  0
VERTEX
  8
OBJECT_82_COPY
  6
CONTINUOUS
 62
   253
 10
0.0
 20
0.0
 70
   128
  0
VERTEX
  8
OBJECT_82_COPY
  6
CONTINUOUS
 62
   253
 10
0.0
 20
0.0
 70
   128
  0
VERTEX
  8
OBJECT_82_COPY
  6
CONTINUOUS
 62
   253
 10
0.0
 20
0.0
 70
   128
  0
VERTEX
  8
OBJECT_82_COPY
  6
CONTINUOUS
 62
   253
 10
0.0
 20
0.0
 70
   128
  0
SEQEND
  8
OBJECT_82_COPY
  6
CONTINUOUS
 62
   183
  0
POLYLINE
  8
OBJECT_83_COPY
  6
CONTINUOUS
 62
   183
 66
     1
 70
    64
  0
VERTEX
  8
0
 38
108.060236
 10
-5.94932
 20
1.871073
 70
   192
  0
VERTEX
  8
0
 38
110.739186
 10
-5.94932
 20
-3.91303
 70
   192
  0
VERTEX
  8
0
 38
108.733601
 10
-5.94932
 20
-6.866741
 70
   192
  0
VERTEX
  8
0
 38
104.13586
 10
-5.94932
 20
0.121872
 70
   192
  0
VERTEX
  8
0
 38
97.479109
 10
-5.94932
 20
1.222408
 70
   192
  0
VERTEX
  8
0
 38
94.665486
 10
-5.94932
 20
3.97778
 70
   192
  0
VERTEX
  8
0
 38
113.337871
 10
-5.955518
 20
4.029364
 70
   192
  0
VERTEX
  8
0
 38
108.060236
 10
-3.270086
 20
1.871073
 70
   192
  0
VERTEX
  8
0
 38
113.337871
 10
-3.276284
 20
4.029364
 70
   192
  0
VERTEX
  8
0
 38
94.665486
 10
-3.270086
 20
3.97778
 70
   192
  0
VERTEX
  8
0
 38
97.479109
 10
-3.270086
 20
1.222408
 70
   192
  0
VERTEX
  8
0
 38
104.13586
 10
-3.270086
 20
0.121872
 70
   192
  0
VERTEX
  8
0
 38
108.733601
 10
-3.270086
 20
-6.866741
 70
   192
  0
VERTEX
  8
0
 38
110.739186
 10
-3.270086
 20
-3.91303
 70
   192
  0
VERTEX
  8
OBJECT_83_COPY
  6
CONTINUOUS
 62
   253
 10
0.0
 20
0.0
 70
   128
  0
VERTEX
  8
OBJECT_83_COPY
  6
CONTINUOUS
 62
   253
 10
0.0
 20
0.0
 70
   128
  0
VERTEX
  8
OBJECT_83_COPY
  6
CONTINUOUS
 62
   253
 10
0.0
 20
0.0
 70
   128
  0
VERTEX
  8
OBJECT_83_COPY
  6
CONTINUOUS
 62
   253
 10
0.0
 20
0.0
 70
   128
  0
VERTEX
  8
OBJECT_83_COPY
  6
CONTINUOUS
 62
   253
 10
0.0
 20
0.0
 70
   128
  0
VERTEX
  8
OBJECT_83_COPY
  6
CONTINUOUS
 62
   253
 10
0.0
 20
0.0
 70
   128
  0
VERTEX
  8
OBJECT_83_COPY
  6
CONTINUOUS
 62
   253
 10
0.0
 20
0.0
 70
   128
  0
VERTEX
  8
OBJECT_83_COPY
  6
CONTINUOUS
 62
   253
 10
0.0
 20
0.0
 70
   128
  0
VERTEX
  8
OBJECT_83_COPY
  6
CONTINUOUS
 62
   253
 10
0.0
 20
0.0
 70
   128
  0
VERTEX
  8
OBJECT_83_COPY
  6
CONTINUOUS
 62
   253
 10
0.0
 20
0.0
 70
   128
  0
VERTEX
  8
OBJECT_83_COPY
  6
CONTINUOUS
 62
   253
 10
0.0
 20
0.0
 70
   128
  0
VERTEX
  8
OBJECT_83_COPY
  6
CONTINUOUS
 62
   253
 10
0.0
 20
0.0
 70
   128
  0
VERTEX
  8
OBJECT_83_COPY
  6
CONTINUOUS
 62
   253
 10
0.0
 20
0.0
 70
   128
  0
SEQEND
  8
OBJECT_83_COPY
  6
CONTINUOUS
 62
   183
  0
POLYLINE
  8
OBJECT_84_COPY
  6
CONTINUOUS
 62
   183
 66
     1
 70
    64
  0
VERTEX
  8
0
 38
99.933382
 10
-1.94932
 20
1.871073
 70
   192
  0
VERTEX
  8
0
 38
94.655746
 10
-1.955518
 20
4.029364
 70
   192
  0
VERTEX
  8
0
 38
113.328132
 10
-1.94932
 20
3.97778
 70
   192
  0
VERTEX
  8
0
 38
110.514509
 10
-1.94932
 20
1.222408
 70
   192
  0
VERTEX
  8
0
 38
103.857758
 10
-1.94932
 20
0.121872
 70
   192
  0
VERTEX
  8
0
 38
99.260016
 10
-1.94932
 20
-6.866741
 70
   192
  0
VERTEX
  8
0
 38
97.254432
 10
-1.94932
 20
-3.91303
 70
   192
  0
VERTEX
  8
0
 38
99.933382
 10
0.729914
 20
1.871073
 70
   192
  0
VERTEX
  8
0
 38
97.254432
 10
0.729914
 20
-3.91303
 70
   192
  0
VERTEX
  8
0
 38
99.260016
 10
0.729914
 20
-6.866741
 70
   192
  0
VERTEX
  8
0
 38
103.857758
 10
0.729914
 20
0.121872
 70
   192
  0
VERTEX
  8
0
 38
110.514509
 10
0.729914
 20
1.222408
 70
   192
  0
VERTEX
  8
0
 38
113.328132
 10
0.729914
 20
3.97778
 70
   192
  0
VERTEX
  8
0
 38
94.655746
 10
0.723716
 20
4.029364
 70
   192
  0
VERTEX
  8
OBJECT_84_COPY
  6
CONTINUOUS
 62
   253
 10
0.0
 20
0.0
 70
   128
  0
VERTEX
  8
OBJECT_84_COPY
  6
CONTINUOUS
 62
   253
 10
0.0
 20
0.0
 70
   128
  0
VERTEX
  8
OBJECT_84_COPY
  6
CONTINUOUS
 62
   253
 10
0.0
 20
0.0
 70
   128
  0
VERTEX
  8
OBJECT_84_COPY
  6
CONTINUOUS
 62
   253
 10
0.0
 20
0.0
 70
   128
  0
VERTEX
  8
OBJECT_84_COPY
  6
CONTINUOUS
 62
   253
 10
0.0
 20
0.0
 70
   128
  0
VERTEX
  8
OBJECT_84_COPY
  6
CONTINUOUS
 62
   253
 10
0.0
 20
0.0
 70
   128
  0
VERTEX
  8
OBJECT_84_COPY
  6
CONTINUOUS
 62
   253
 10
0.0
 20
0.0
 70
   128
  0
VERTEX
  8
OBJECT_84_COPY
  6
CONTINUOUS
 62
   253
 10
0.0
 20
0.0
 70
   128
  0
VERTEX
  8
OBJECT_84_COPY
  6
CONTINUOUS
 62
   253
 10
0.0
 20
0.0
 70
   128
  0
VERTEX
  8
OBJECT_84_COPY
  6
CONTINUOUS
 62
   253
 10
0.0
 20
0.0
 70
   128
  0
VERTEX
  8
OBJECT_84_COPY
  6
CONTINUOUS
 62
   253
 10
0.0
 20
0.0
 70
   128
  0
VERTEX
  8
OBJECT_84_COPY
  6
CONTINUOUS
 62
   253
 10
0.0
 20
0.0
 70
   128
  0
VERTEX
  8
OBJECT_84_COPY
  6
CONTINUOUS
 62
   253
 10
0.0
 20
0.0
 70
   128
  0
SEQEND
  8
OBJECT_84_COPY
  6
CONTINUOUS
 62
   183
  0
POLYLINE
  8
OBJECT_85_COPY
  6
CONTINUOUS
 62
   183
 66
     1
 70
    64
  0
VERTEX
  8
0
 38
99.933382
 10
2.05068
 20
1.871073
 70
   192
  0
VERTEX
  8
0
 38
94.655746
 10
2.044482
 20
4.029364
 70
   192
  0
VERTEX
  8
0
 38
113.328132
 10
2.05068
 20
3.97778
 70
   192
  0
VERTEX
  8
0
 38
110.514509
 10
2.05068
 20
1.222408
 70
   192
  0
VERTEX
  8
0
 38
103.857758
 10
2.05068
 20
0.121872
 70
   192
  0
VERTEX
  8
0
 38
99.260016
 10
2.05068
 20
-6.866741
 70
   192
  0
VERTEX
  8
0
 38
97.254432
 10
2.05068
 20
-3.91303
 70
   192
  0
VERTEX
  8
0
 38
99.933382
 10
4.729914
 20
1.871073
 70
   192
  0
VERTEX
  8
0
 38
97.254432
 10
4.729914
 20
-3.91303
 70
   192
  0
VERTEX
  8
0
 38
99.260016
 10
4.729914
 20
-6.866741
 70
   192
  0
VERTEX
  8
0
 38
103.857758
 10
4.729914
 20
0.121872
 70
   192
  0
VERTEX
  8
0
 38
110.514509
 10
4.729914
 20
1.222408
 70
   192
  0
VERTEX
  8
0
 38
113.328132
 10
4.729914
 20
3.97778
 70
   192
  0
VERTEX
  8
0
 38
94.655746
 10
4.723716
 20
4.029364
 70
   192
  0
VERTEX
  8
OBJECT_85_COPY
  6
CONTINUOUS
 62
   253
 10
0.0
 20
0.0
 70
   128
  0
VERTEX
  8
OBJECT_85_COPY
  6
CONTINUOUS
 62
   253
 10
0.0
 20
0.0
 70
   128
  0
VERTEX
  8
OBJECT_85_COPY
  6
CONTINUOUS
 62
   253
 10
0.0
 20
0.0
 70
   128
  0
VERTEX
  8
OBJECT_85_COPY
  6
CONTINUOUS
 62
   253
 10
0.0
 20
0.0
 70
   128
  0
VERTEX
  8
OBJECT_85_COPY
  6
CONTINUOUS
 62
   253
 10
0.0
 20
0.0
 70
   128
  0
VERTEX
  8
OBJECT_85_COPY
  6
CONTINUOUS
 62
   253
 10
0.0
 20
0.0
 70
   128
  0
VERTEX
  8
OBJECT_85_COPY
  6
CONTINUOUS
 62
   253
 10
0.0
 20
0.0
 70
   128
  0
VERTEX
  8
OBJECT_85_COPY
  6
CONTINUOUS
 62
   253
 10
0.0
 20
0.0
 70
   128
  0
VERTEX
  8
OBJECT_85_COPY
  6
CONTINUOUS
 62
   253
 10
0.0
 20
0.0
 70
   128
  0
VERTEX
  8
OBJECT_85_COPY
  6
CONTINUOUS
 62
   253
 10
0.0
 20
0.0
 70
   128
  0
VERTEX
  8
OBJECT_85_COPY
  6
CONTINUOUS
 62
   253
 10
0.0
 20
0.0
 70
   128
  0
VERTEX
  8
OBJECT_85_COPY
  6
CONTINUOUS
 62
   253
 10
0.0
 20
0.0
 70
   128
  0
VERTEX
  8
OBJECT_85_COPY
  6
CONTINUOUS
 62
   253
 10
0.0
 20
0.0
 70
   128
  0
SEQEND
  8
OBJECT_85_COPY
  6
CONTINUOUS
 62
   183
  0
POLYLINE
  8
OBJECT_86_COPY
  6
CONTINUOUS
 62
   183
 66
     1
 70
    64
  0
VERTEX
  8
0
 38
108.060236
 10
6.05068
 20
1.871073
 70
   192
  0
VERTEX
  8
0
 38
110.739186
 10
6.05068
 20
-3.91303
 70
   192
  0
VERTEX
  8
0
 38
108.733601
 10
6.05068
 20
-6.866741
 70
   192
  0
VERTEX
  8
0
 38
104.13586
 10
6.05068
 20
0.121872
 70
   192
  0
VERTEX
  8
0
 38
97.479109
 10
6.05068
 20
1.222408
 70
   192
  0
VERTEX
  8
0
 38
94.665486
 10
6.05068
 20
3.97778
 70
   192
  0
VERTEX
  8
0
 38
113.337871
 10
6.044482
 20
4.029364
 70
   192
  0
VERTEX
  8
0
 38
108.060236
 10
8.729914
 20
1.871073
 70
   192
  0
VERTEX
  8
0
 38
113.337871
 10
8.723716
 20
4.029364
 70
   192
  0
VERTEX
  8
0
 38
94.665486
 10
8.729914
 20
3.97778
 70
   192
  0
VERTEX
  8
0
 38
97.479109
 10
8.729914
 20
1.222408
 70
   192
  0
VERTEX
  8
0
 38
104.13586
 10
8.729914
 20
0.121872
 70
   192
  0
VERTEX
  8
0
 38
108.733601
 10
8.729914
 20
-6.866741
 70
   192
  0
VERTEX
  8
0
 38
110.739186
 10
8.729914
 20
-3.91303
 70
   192
  0
VERTEX
  8
OBJECT_86_COPY
  6
CONTINUOUS
 62
   253
 10
0.0
 20
0.0
 70
   128
  0
VERTEX
  8
OBJECT_86_COPY
  6
CONTINUOUS
 62
   253
 10
0.0
 20
0.0
 70
   128
  0
VERTEX
  8
OBJECT_86_COPY
  6
CONTINUOUS
 62
   253
 10
0.0
 20
0.0
 70
   128
  0
VERTEX
  8
OBJECT_86_COPY
  6
CONTINUOUS
 62
   253
 10
0.0
 20
0.0
 70
   128
  0
VERTEX
  8
OBJECT_86_COPY
  6
CONTINUOUS
 62
   253
 10
0.0
 20
0.0
 70
   128
  0
VERTEX
  8
OBJECT_86_COPY
  6
CONTINUOUS
 62
   253
 10
0.0
 20
0.0
 70
   128
  0
VERTEX
  8
OBJECT_86_COPY
  6
CONTINUOUS
 62
   253
 10
0.0
 20
0.0
 70
   128
  0
VERTEX
  8
OBJECT_86_COPY
  6
CONTINUOUS
 62
   253
 10
0.0
 20
0.0
 70
   128
  0
VERTEX
  8
OBJECT_86_COPY
  6
CONTINUOUS
 62
   253
 10
0.0
 20
0.0
 70
   128
  0
VERTEX
  8
OBJECT_86_COPY
  6
CONTINUOUS
 62
   253
 10
0.0
 20
0.0
 70
   128
  0
VERTEX
  8
OBJECT_86_COPY
  6
CONTINUOUS
 62
   253
 10
0.0
 20
0.0
 70
   128
  0
VERTEX
  8
OBJECT_86_COPY
  6
CONTINUOUS
 62
   253
 10
0.0
 20
0.0
 70
   128
  0
VERTEX
  8
OBJECT_86_COPY
  6
CONTINUOUS
 62
   253
 10
0.0
 20
0.0
 70
   128
  0
SEQEND
  8
OBJECT_86_COPY
  6
CONTINUOUS
 62
   183
  0
POLYLINE
  8
OBJECT_87_COPY
  6
CONTINUOUS
 62
   183
 66
     1
 70
    64
  0
VERTEX
  8
0
 38
108.060236
 10
10.05068
 20
1.871073
 70
   192
  0
VERTEX
  8
0
 38
110.739186
 10
10.05068
 20
-3.91303
 70
   192
  0
VERTEX
  8
0
 38
108.733601
 10
10.05068
 20
-6.866741
 70
   192
  0
VERTEX
  8
0
 38
104.13586
 10
10.05068
 20
0.121872
 70
   192
  0
VERTEX
  8
0
 38
97.479109
 10
10.05068
 20
1.222408
 70
   192
  0
VERTEX
  8
0
 38
94.665486
 10
10.05068
 20
3.97778
 70
   192
  0
VERTEX
  8
0
 38
113.337871
 10
10.044482
 20
4.029364
 70
   192
  0
VERTEX
  8
0
 38
108.060236
 10
12.729914
 20
1.871073
 70
   192
  0
VERTEX
  8
0
 38
113.337871
 10
12.723716
 20
4.029364
 70
   192
  0
VERTEX
  8
0
 38
94.665486
 10
12.729914
 20
3.97778
 70
   192
  0
VERTEX
  8
0
 38
97.479109
 10
12.729914
 20
1.222408
 70
   192
  0
VERTEX
  8
0
 38
104.13586
 10
12.729914
 20
0.121872
 70
   192
  0
VERTEX
  8
0
 38
108.733601
 10
12.729914
 20
-6.866741
 70
   192
  0
VERTEX
  8
0
 38
110.739186
 10
12.729914
 20
-3.91303
 70
   192
  0
VERTEX
  8
OBJECT_87_COPY
  6
CONTINUOUS
 62
   253
 10
0.0
 20
0.0
 70
   128
  0
VERTEX
  8
OBJECT_87_COPY
  6
CONTINUOUS
 62
   253
 10
0.0
 20
0.0
 70
   128
  0
VERTEX
  8
OBJECT_87_COPY
  6
CONTINUOUS
 62
   253
 10
0.0
 20
0.0
 70
   128
  0
VERTEX
  8
OBJECT_87_COPY
  6
CONTINUOUS
 62
   253
 10
0.0
 20
0.0
 70
   128
  0
VERTEX
  8
OBJECT_87_COPY
  6
CONTINUOUS
 62
   253
 10
0.0
 20
0.0
 70
   128
  0
VERTEX
  8
OBJECT_87_COPY
  6
CONTINUOUS
 62
   253
 10
0.0
 20
0.0
 70
   128
  0
VERTEX
  8
OBJECT_87_COPY
  6
CONTINUOUS
 62
   253
 10
0.0
 20
0.0
 70
   128
  0
VERTEX
  8
OBJECT_87_COPY
  6
CONTINUOUS
 62
   253
 10
0.0
 20
0.0
 70
   128
  0
VERTEX
  8
OBJECT_87_COPY
  6
CONTINUOUS
 62
   253
 10
0.0
 20
0.0
 70
   128
  0
VERTEX
  8
OBJECT_87_COPY
  6
CONTINUOUS
 62
   253
 10
0.0
 20
0.0
 70
   128
  0
VERTEX
  8
OBJECT_87_COPY
  6
CONTINUOUS
 62
   253
 10
0.0
 20
0.0
 70
   128
  0
VERTEX
  8
OBJECT_87_COPY
  6
CONTINUOUS
 62
   253
 10
0.0
 20
0.0
 70
   128
  0
VERTEX
  8
OBJECT_87_COPY
  6
CONTINUOUS
 62
   253
 10
0.0
 20
0.0
 70
   128
  0
SEQEND
  8
OBJECT_87_COPY
  6
CONTINUOUS
 62
   183
  0
POLYLINE
  8
OBJECT_88_COPY
  6
CONTINUOUS
 62
   183
 66
     1
 70
    64
  0
VERTEX
  8
0
 38
108.060236
 10
14.05068
 20
1.871073
 70
   192
  0
VERTEX
  8
0
 38
110.739186
 10
14.05068
 20
-3.91303
 70
   192
  0
VERTEX
  8
0
 38
108.733601
 10
14.05068
 20
-6.866741
 70
   192
  0
VERTEX
  8
0
 38
104.13586
 10
14.05068
 20
0.121872
 70
   192
  0
VERTEX
  8
0
 38
97.479109
 10
14.05068
 20
1.222408
 70
   192
  0
VERTEX
  8
0
 38
94.665486
 10
14.05068
 20
3.97778
 70
   192
  0
VERTEX
  8
0
 38
113.337871
 10
14.044482
 20
4.029364
 70
   192
  0
VERTEX
  8
0
 38
108.060236
 10
16.729914
 20
1.871073
 70
   192
  0
VERTEX
  8
0
 38
113.337871
 10
16.723716
 20
4.029364
 70
   192
  0
VERTEX
  8
0
 38
94.665486
 10
16.729914
 20
3.97778
 70
   192
  0
VERTEX
  8
0
 38
97.479109
 10
16.729914
 20
1.222408
 70
   192
  0
VERTEX
  8
0
 38
104.13586
 10
16.729914
 20
0.121872
 70
   192
  0
VERTEX
  8
0
 38
108.733601
 10
16.729914
 20
-6.866741
 70
   192
  0
VERTEX
  8
0
 38
110.739186
 10
16.729914
 20
-3.91303
 70
   192
  0
VERTEX
  8
OBJECT_88_COPY
  6
CONTINUOUS
 62
   253
 10
0.0
 20
0.0
 70
   128
  0
VERTEX
  8
OBJECT_88_COPY
  6
CONTINUOUS
 62
   253
 10
0.0
 20
0.0
 70
   128
  0
VERTEX
  8
OBJECT_88_COPY
  6
CONTINUOUS
 62
   253
 10
0.0
 20
0.0
 70
   128
  0
VERTEX
  8
OBJECT_88_COPY
  6
CONTINUOUS
 62
   253
 10
0.0
 20
0.0
 70
   128
  0
VERTEX
  8
OBJECT_88_COPY
  6
CONTINUOUS
 62
   253
 10
0.0
 20
0.0
 70
   128
  0
VERTEX
  8
OBJECT_88_COPY
  6
CONTINUOUS
 62
   253
 10
0.0
 20
0.0
 70
   128
  0
VERTEX
  8
OBJECT_88_COPY
  6
CONTINUOUS
 62
   253
 10
0.0
 20
0.0
 70
   128
  0
VERTEX
  8
OBJECT_88_COPY
  6
CONTINUOUS
 62
   253
 10
0.0
 20
0.0
 70
   128
  0
VERTEX
  8
OBJECT_88_COPY
  6
CONTINUOUS
 62
   253
 10
0.0
 20
0.0
 70
   128
  0
VERTEX
  8
OBJECT_88_COPY
  6
CONTINUOUS
 62
   253
 10
0.0
 20
0.0
 70
   128
  0
VERTEX
  8
OBJECT_88_COPY
  6
CONTINUOUS
 62
   253
 10
0.0
 20
0.0
 70
   128
  0
VERTEX
  8
OBJECT_88_COPY
  6
CONTINUOUS
 62
   253
 10
0.0
 20
0.0
 70
   128
  0
VERTEX
  8
OBJECT_88_COPY
  6
CONTINUOUS
 62
   253
 10
0.0
 20
0.0
 70
   128
  0
SEQEND
  8
OBJECT_88_COPY
  6
CONTINUOUS
 62
   183
  0
POLYLINE
  8
OBJECT_89_COPY
  6
CONTINUOUS
 62
   183
 66
     1
 70
    64
  0
VERTEX
  8
0
 38
113.546608
 10
-16.7309
 20
1.277741
 70
   192
  0
VERTEX
  8
0
 38
94.448026
 10
-16.7309
 20
1.277741
 70
   192
  0
VERTEX
  8
0
 38
94.448026
 10
-16.7309
 20
4.43441
 70
   192
  0
VERTEX
  8
0
 38
113.546608
 10
-16.7309
 20
4.43441
 70
   192
  0
VERTEX
  8
0
 38
113.546608
 10
19.2691
 20
1.277741
 70
   192
  0
VERTEX
  8
0
 38
113.546608
 10
19.2691
 20
4.43441
 70
   192
  0
VERTEX
  8
0
 38
94.448026
 10
19.2691
 20
4.43441
 70
   192
  0
VERTEX
  8
0
 38
94.448026
 10
19.2691
 20
1.277741
 70
   192
  0
VERTEX
  8
OBJECT_89_COPY
  6
CONTINUOUS
 62
   253
 10
0.0
 20
0.0
 70
   128
  0
VERTEX
  8
OBJECT_89_COPY
  6
CONTINUOUS
 62
   253
 10
0.0
 20
0.0
 70
   128
  0
VERTEX
  8
OBJECT_89_COPY
  6
CONTINUOUS
 62
   253
 10
0.0
 20
0.0
 70
   128
  0
VERTEX
  8
OBJECT_89_COPY
  6
CONTINUOUS
 62
   253
 10
0.0
 20
0.0
 70
   128
  0
VERTEX
  8
OBJECT_89_COPY
  6
CONTINUOUS
 62
   253
 10
0.0
 20
0.0
 70
   128
  0
VERTEX
  8
OBJECT_89_COPY
  6
CONTINUOUS
 62
   253
 10
0.0
 20
0.0
 70
   128
  0
SEQEND
  8
OBJECT_89_COPY
  6
CONTINUOUS
 62
   183
  0
POLYLINE
  8
OBJECT_79_COPY
  6
CONTINUOUS
 62
   253
 66
     1
 70
    64
  0
VERTEX
  8
0
 38
43.296982
 10
-69.643185
 20
-1.37464
 70
   192
  0
VERTEX
  8
0
 38
43.296982
 10
-69.84763
 20
0.178274
 70
   192
  0
VERTEX
  8
0
 38
43.296982
 10
-70.447033
 20
1.62536
 70
   192
  0
VERTEX
  8
0
 38
43.296982
 10
-71.400545
 20
2.868001
 70
   192
  0
VERTEX
  8
0
 38
43.296982
 10
-72.643185
 20
3.821512
 70
   192
  0
VERTEX
  8
0
 38
43.296982
 10
-74.090271
 20
4.420915
 70
   192
  0
VERTEX
  8
0
 38
43.296982
 10
-75.643185
 20
4.62536
 70
   192
  0
VERTEX
  8
0
 38
43.296982
 10
-77.1961
 20
4.420915
 70
   192
  0
VERTEX
  8
0
 38
43.296982
 10
-78.643185
 20
3.821512
 70
   192
  0
VERTEX
  8
0
 38
43.296982
 10
-79.885826
 20
2.868001
 70
   192
  0
VERTEX
  8
0
 38
43.296982
 10
-80.839338
 20
1.62536
 70
   192
  0
VERTEX
  8
0
 38
43.296982
 10
-81.43874
 20
0.178274
 70
   192
  0
VERTEX
  8
0
 38
43.296982
 10
-81.643185
 20
-1.37464
 70
   192
  0
VERTEX
  8
0
 38
43.296982
 10
-81.43874
 20
-2.927554
 70
   192
  0
VERTEX
  8
0
 38
43.296982
 10
-80.839338
 20
-4.37464
 70
   192
  0
VERTEX
  8
0
 38
43.296982
 10
-79.885826
 20
-5.617281
 70
   192
  0
VERTEX
  8
0
 38
43.296982
 10
-78.643185
 20
-6.570793
 70
   192
  0
VERTEX
  8
0
 38
43.296982
 10
-77.1961
 20
-7.170195
 70
   192
  0
VERTEX
  8
0
 38
43.296982
 10
-75.643185
 20
-7.37464
 70
   192
  0
VERTEX
  8
0
 38
43.296982
 10
-74.090271
 20
-7.170195
 70
   192
  0
VERTEX
  8
0
 38
43.296982
 10
-72.643185
 20
-6.570793
 70
   192
  0
VERTEX
  8
0
 38
43.296982
 10
-71.400545
 20
-5.617281
 70
   192
  0
VERTEX
  8
0
 38
43.296982
 10
-70.447033
 20
-4.37464
 70
   192
  0
VERTEX
  8
0
 38
43.296982
 10
-69.84763
 20
-2.927554
 70
   192
  0
VERTEX
  8
0
 38
79.296982
 10
-69.643185
 20
-1.37464
 70
   192
  0
VERTEX
  8
0
 38
79.296982
 10
-69.84763
 20
0.178274
 70
   192
  0
VERTEX
  8
0
 38
79.296982
 10
-70.447033
 20
1.62536
 70
   192
  0
VERTEX
  8
0
 38
79.296982
 10
-71.400545
 20
2.868001
 70
   192
  0
VERTEX
  8
0
 38
79.296982
 10
-72.643185
 20
3.821512
 70
   192
  0
VERTEX
  8
0
 38
79.296982
 10
-74.090271
 20
4.420915
 70
   192
  0
VERTEX
  8
0
 38
79.296982
 10
-75.643185
 20
4.62536
 70
   192
  0
VERTEX
  8
0
 38
79.296982
 10
-77.1961
 20
4.420915
 70
   192
  0
VERTEX
  8
0
 38
79.296982
 10
-78.643185
 20
3.821512
 70
   192
  0
VERTEX
  8
0
 38
79.296982
 10
-79.885826
 20
2.868001
 70
   192
  0
VERTEX
  8
0
 38
79.296982
 10
-80.839338
 20
1.62536
 70
   192
  0
VERTEX
  8
0
 38
79.296982
 10
-81.43874
 20
0.178274
 70
   192
  0
VERTEX
  8
0
 38
79.296982
 10
-81.643185
 20
-1.37464
 70
   192
  0
VERTEX
  8
0
 38
79.296982
 10
-81.43874
 20
-2.927554
 70
   192
  0
VERTEX
  8
0
 38
79.296982
 10
-80.839338
 20
-4.37464
 70
   192
  0
VERTEX
  8
0
 38
79.296982
 10
-79.885826
 20
-5.617281
 70
   192
  0
VERTEX
  8
0
 38
79.296982
 10
-78.643185
 20
-6.570793
 70
   192
  0
VERTEX
  8
0
 38
79.296982
 10
-77.1961
 20
-7.170195
 70
   192
  0
VERTEX
  8
0
 38
79.296982
 10
-75.643185
 20
-7.37464
 70
   192
  0
VERTEX
  8
0
 38
79.296982
 10
-74.090271
 20
-7.170195
 70
   192
  0
VERTEX
  8
0
 38
79.296982
 10
-72.643185
 20
-6.570793
 70
   192
  0
VERTEX
  8
0
 38
79.296982
 10
-71.400545
 20
-5.617281
 70
   192
  0
VERTEX
  8
0
 38
79.296982
 10
-70.447033
 20
-4.37464
 70
   192
  0
VERTEX
  8
0
 38
79.296982
 10
-69.84763
 20
-2.927554
 70
   192
  0
VERTEX
  8
OBJECT_79_COPY
  6
CONTINUOUS
 62
   253
 10
0.0
 20
0.0
 70
   128
  0
VERTEX
  8
OBJECT_79_COPY
  6
CONTINUOUS
 62
   253
 10
0.0
 20
0.0
 70
   128
  0
VERTEX
  8
OBJECT_79_COPY
  6
CONTINUOUS
 62
   253
 10
0.0
 20
0.0
 70
   128
  0
VERTEX
  8
OBJECT_79_COPY
  6
CONTINUOUS
 62
   253
 10
0.0
 20
0.0
 70
   128
  0
VERTEX
  8
OBJECT_79_COPY
  6
CONTINUOUS
 62
   253
 10
0.0
 20
0.0
 70
   128
  0
VERTEX
  8
OBJECT_79_COPY
  6
CONTINUOUS
 62
   253
 10
0.0
 20
0.0
 70
   128
  0
VERTEX
  8
OBJECT_79_COPY
  6
CONTINUOUS
 62
   253
 10
0.0
 20
0.0
 70
   128
  0
VERTEX
  8
OBJECT_79_COPY
  6
CONTINUOUS
 62
   253
 10
0.0
 20
0.0
 70
   128
  0
VERTEX
  8
OBJECT_79_COPY
  6
CONTINUOUS
 62
   253
 10
0.0
 20
0.0
 70
   128
  0
VERTEX
  8
OBJECT_79_COPY
  6
CONTINUOUS
 62
   253
 10
0.0
 20
0.0
 70
   128
  0
VERTEX
  8
OBJECT_79_COPY
  6
CONTINUOUS
 62
   253
 10
0.0
 20
0.0
 70
   128
  0
VERTEX
  8
OBJECT_79_COPY
  6
CONTINUOUS
 62
   253
 10
0.0
 20
0.0
 70
   128
  0
VERTEX
  8
OBJECT_79_COPY
  6
CONTINUOUS
 62
   253
 10
0.0
 20
0.0
 70
   128
  0
VERTEX
  8
OBJECT_79_COPY
  6
CONTINUOUS
 62
   253
 10
0.0
 20
0.0
 70
   128
  0
VERTEX
  8
OBJECT_79_COPY
  6
CONTINUOUS
 62
   253
 10
0.0
 20
0.0
 70
   128
  0
VERTEX
  8
OBJECT_79_COPY
  6
CONTINUOUS
 62
   253
 10
0.0
 20
0.0
 70
   128
  0
VERTEX
  8
OBJECT_79_COPY
  6
CONTINUOUS
 62
   253
 10
0.0
 20
0.0
 70
   128
  0
VERTEX
  8
OBJECT_79_COPY
  6
CONTINUOUS
 62
   253
 10
0.0
 20
0.0
 70
   128
  0
VERTEX
  8
OBJECT_79_COPY
  6
CONTINUOUS
 62
   253
 10
0.0
 20
0.0
 70
   128
  0
VERTEX
  8
OBJECT_79_COPY
  6
CONTINUOUS
 62
   253
 10
0.0
 20
0.0
 70
   128
  0
VERTEX
  8
OBJECT_79_COPY
  6
CONTINUOUS
 62
   253
 10
0.0
 20
0.0
 70
   128
  0
VERTEX
  8
OBJECT_79_COPY
  6
CONTINUOUS
 62
   253
 10
0.0
 20
0.0
 70
   128
  0
VERTEX
  8
OBJECT_79_COPY
  6
CONTINUOUS
 62
   253
 10
0.0
 20
0.0
 70
   128
  0
VERTEX
  8
OBJECT_79_COPY
  6
CONTINUOUS
 62
   253
 10
0.0
 20
0.0
 70
   128
  0
VERTEX
  8
OBJECT_79_COPY
  6
CONTINUOUS
 62
   253
 10
0.0
 20
0.0
 70
   128
  0
VERTEX
  8
OBJECT_79_COPY
  6
CONTINUOUS
 62
   253
 10
0.0
 20
0.0
 70
   128
  0
VERTEX
  8
OBJECT_79_COPY
  6
CONTINUOUS
 62
   253
 10
0.0
 20
0.0
 70
   128
  0
VERTEX
  8
OBJECT_79_COPY
  6
CONTINUOUS
 62
   253
 10
0.0
 20
0.0
 70
   128
  0
VERTEX
  8
OBJECT_79_COPY
  6
CONTINUOUS
 62
   253
 10
0.0
 20
0.0
 70
   128
  0
VERTEX
  8
OBJECT_79_COPY
  6
CONTINUOUS
 62
   253
 10
0.0
 20
0.0
 70
   128
  0
VERTEX
  8
OBJECT_79_COPY
  6
CONTINUOUS
 62
   253
 10
0.0
 20
0.0
 70
   128
  0
VERTEX
  8
OBJECT_79_COPY
  6
CONTINUOUS
 62
   253
 10
0.0
 20
0.0
 70
   128
  0
VERTEX
  8
OBJECT_79_COPY
  6
CONTINUOUS
 62
   253
 10
0.0
 20
0.0
 70
   128
  0
VERTEX
  8
OBJECT_79_COPY
  6
CONTINUOUS
 62
   253
 10
0.0
 20
0.0
 70
   128
  0
VERTEX
  8
OBJECT_79_COPY
  6
CONTINUOUS
 62
   253
 10
0.0
 20
0.0
 70
   128
  0
VERTEX
  8
OBJECT_79_COPY
  6
CONTINUOUS
 62
   253
 10
0.0
 20
0.0
 70
   128
  0
VERTEX
  8
OBJECT_79_COPY
  6
CONTINUOUS
 62
   253
 10
0.0
 20
0.0
 70
   128
  0
VERTEX
  8
OBJECT_79_COPY
  6
CONTINUOUS
 62
   253
 10
0.0
 20
0.0
 70
   128
  0
VERTEX
  8
OBJECT_79_COPY
  6
CONTINUOUS
 62
   253
 10
0.0
 20
0.0
 70
   128
  0
VERTEX
  8
OBJECT_79_COPY
  6
CONTINUOUS
 62
   253
 10
0.0
 20
0.0
 70
   128
  0
VERTEX
  8
OBJECT_79_COPY
  6
CONTINUOUS
 62
   253
 10
0.0
 20
0.0
 70
   128
  0
VERTEX
  8
OBJECT_79_COPY
  6
CONTINUOUS
 62
   253
 10
0.0
 20
0.0
 70
   128
  0
VERTEX
  8
OBJECT_79_COPY
  6
CONTINUOUS
 62
   253
 10
0.0
 20
0.0
 70
   128
  0
VERTEX
  8
OBJECT_79_COPY
  6
CONTINUOUS
 62
   253
 10
0.0
 20
0.0
 70
   128
  0
VERTEX
  8
OBJECT_79_COPY
  6
CONTINUOUS
 62
   253
 10
0.0
 20
0.0
 70
   128
  0
VERTEX
  8
OBJECT_79_COPY
  6
CONTINUOUS
 62
   253
 10
0.0
 20
0.0
 70
   128
  0
SEQEND
  8
OBJECT_79_COPY
  6
CONTINUOUS
 62
   253
  0
ENDSEC
  0
EOF
